<?xml version="1.0" standalone="no"?>
<!DOCTYPE svg PUBLIC "-//W3C//DTD SVG 1.1//EN" "http://www.w3.org/Graphics/SVG/1.1/DTD/svg11.dtd" >
<svg xmlns="http://www.w3.org/2000/svg">
<metadata></metadata>
<defs>
<font id="exothin" horiz-adv-x="1107" >
<font-face units-per-em="2048" ascent="1638" descent="-410" />
<missing-glyph horiz-adv-x="561" />
<glyph unicode="&#xfb01;" horiz-adv-x="1191" d="M54 1007v29l197 19v117q0 184 90 295t273 111t351 -38v-29l-345 17h-18q-135 0 -219 -86t-84 -270v-117l745 -13v-1042h-48v1007h-697v-1007h-48v1007h-197z" />
<glyph unicode="&#xfb02;" horiz-adv-x="1446" d="M54 1017v29l197 19v107q0 178 80.5 292t248.5 114h479v-1193q0 -247 95 -301q33 -19 46.5 -22.5t96 -16.5t96.5 -13v-26h-135q-126 0 -186.5 91.5t-60.5 287.5v1145h-421q-136 0 -213.5 -88t-77.5 -270v-107h295v-48h-295v-1017h-48v1017h-197z" />
<glyph horiz-adv-x="0" />
<glyph unicode="&#xd;" horiz-adv-x="1823" />
<glyph unicode=" "  horiz-adv-x="561" />
<glyph unicode="&#x09;" horiz-adv-x="561" />
<glyph unicode="&#xa0;" horiz-adv-x="561" />
<glyph unicode="!" horiz-adv-x="521" d="M222 24v125q0 24 25 23h22q24 0 24 -23v-125q0 -24 -24 -24h-22q-25 0 -25 24zM235 1467h44l-10 -1074h-24z" />
<glyph unicode="&#x22;" horiz-adv-x="525" d="M138 1335v134h51v-134l-13 -270h-23zM339 1335v134h50v-134l-12 -270h-24z" />
<glyph unicode="#" horiz-adv-x="1312" d="M54 502l4 24h359l65 411h-360l6 24h358l82 508h24l-82 -508h373l80 508h25l-81 -508h355l-4 -24h-356l-65 -413h356l-5 -24h-355l-78 -500h-25l78 500l-373 2l-77 -502h-25l79 502h-358zM442 526l370 -2l65 413h-371z" />
<glyph unicode="$" horiz-adv-x="1174" d="M149 992v132q0 213 103 285t286 72h30v173h36v-175q178 -10 357 -35v-27l-425 16h-28q-147 0 -229 -64.5t-82 -244.5v-132q0 -142 73 -194.5t222 -52.5h209q184 0 254.5 -77.5t70.5 -217.5v-137q0 -241 -181 -301q-90 -29 -207 -28h-34v-160h-36v162q-281 10 -384 28v30 q133 -12 452 -12q165 0 253 59.5t88 221.5v137q0 130 -64 188.5t-212 58.5h-205q-249 0 -316 130q-31 67 -31 165z" />
<glyph unicode="%" horiz-adv-x="1913" d="M115 952v266q0 132 55.5 191.5t202.5 59.5h203q142 0 198.5 -59.5t56.5 -191.5v-266q0 -133 -56.5 -192t-202.5 -59h-203q-142 0 -198 59t-56 192zM144 952q0 -127 52.5 -174.5t172.5 -47.5h203q123 0 176 46.5t53 175.5v266q0 121 -49 171t-176 50h-203 q-124 0 -176.5 -46t-52.5 -175v-266zM486 0l879 1469h42l-879 -1469h-42zM1086 257v267q0 133 56.5 192t202.5 59h202q143 0 199 -59t56 -192v-267q0 -133 -56 -192t-202 -59h-203q-142 0 -198.5 59t-56.5 192zM1116 257q0 -127 52 -174t173 -47h203q122 0 175 46t53 175 v267q0 121 -49 171t-176 50h-202q-125 0 -177 -46t-52 -175v-267z" />
<glyph unicode="&#x26;" horiz-adv-x="1310" d="M90 416q0 178 165 319l172 146l-126 171q-71 92 -70 168q0 96 64.5 155.5t136.5 77.5t203 18t340 -18v-28h-407q-100 0 -178.5 -40t-104.5 -117q-6 -18 -6 -38q0 -65 62 -150l580 -787l309 299l19 -16l-139 -172l-156 -149l188 -255h-62l-165 222l-145 -134 q-102 -100 -244 -100q-207 0 -344 177q-92 126 -92 251zM138 416q0 -111 90 -230t238 -146q30 -4 58 -4q115 0 209 85l150 140l-427 578l-157 -130q-161 -133 -161 -293z" />
<glyph unicode="'" horiz-adv-x="226" d="M88 1335v134h50v-134l-12 -270h-24z" />
<glyph unicode="(" horiz-adv-x="632" d="M203 642.5q0 165.5 33 332.5t80 295q94 259 174 400l31 56h55q-38 -60 -103 -199.5t-108.5 -260t-78.5 -290t-35 -330t34 -333.5t81 -299q98 -261 178 -383l34 -52h-57l-33 52q-22 32 -77.5 142t-98 229t-76 297t-33.5 343.5z" />
<glyph unicode=")" horiz-adv-x="630" d="M54 -421q40 55 104 187t107.5 250t78.5 294t35 336.5t-33 327t-81 294.5q-100 265 -177 402l-34 56h55q12 -23 34 -60.5t77 -157t97.5 -240t76 -290.5t33.5 -335.5t-32.5 -342t-78.5 -300.5q-95 -255 -176 -373l-31 -48h-55z" />
<glyph unicode="*" horiz-adv-x="940" d="M136 1188v28l285 8v-48zM297 821l67 269l52 -8l-93 -270zM414 1451l26 8l134 -247l-48 -22zM479 994l25 46l237 -167l-17 -22zM568 1107l225 167l15 -24l-204 -180z" />
<glyph unicode="+" horiz-adv-x="1045" d="M136 691v48h362v363h48v-363h365v-48h-365v-364h-48v364h-362z" />
<glyph unicode="," horiz-adv-x="343" d="M138 26v125q0 26 25 25h19q25 0 25 -25v-225q0 -37 -15.5 -50.5t-24 -13.5t-25.5 2v12q32 0 32 30v94h-11q-25 0 -25 26z" />
<glyph unicode="-" horiz-adv-x="678" d="M54 558v48h570v-48h-570z" />
<glyph unicode="." horiz-adv-x="344" d="M138 24v125q0 24 25 23h21q25 0 25 -23v-125q0 -24 -25 -24h-21q-25 0 -25 24z" />
<glyph unicode="/" horiz-adv-x="709" d="M54 -144l564 1689h39l-565 -1689h-38z" />
<glyph unicode="0" horiz-adv-x="1327" d="M189 325v819q0 156 97 240.5t248 84.5h269q174 0 255.5 -89t81.5 -236v-819q0 -325 -337 -325h-269q-151 0 -248 78.5t-97 246.5zM237 325q0 -136 79 -206.5t218 -70.5h269q289 0 289 277v819q0 277 -289 277h-269q-136 0 -216.5 -73.5t-80.5 -203.5v-819z" />
<glyph unicode="1" horiz-adv-x="709" d="M109 1272v26l337 171h48v-1469h-48v1415z" />
<glyph unicode="2" horiz-adv-x="1199" d="M109 1439v30q159 20 550 21q407 0 406 -422q0 -102 -84 -241t-185 -250t-251 -243.5t-211 -181t-133 -104.5h864v-48h-943v46q2 2 71.5 57.5t98.5 79.5t108 90t123.5 107t117.5 111.5t117.5 120.5t99.5 118.5t86 120.5q72 128 71 219q0 199 -93 284t-267 85h-546z" />
<glyph unicode="3" horiz-adv-x="1203" d="M80 1425v28q117 23 299.5 22.5t279.5 -2.5q172 -2 258.5 -93t86.5 -238v-138q0 -161 -129 -236q-54 -30 -113 -35q65 -8 145 -71q41 -32 69 -90t28 -130v-119q0 -337 -358 -337q-446 0 -554 22l4 28h546q309 0 310 287v119q0 71 -31.5 124.5t-79.5 82.5q-92 54 -195 58 l-429 13v29l429 11q130 2 220 62.5t90 181.5v138q0 140 -84.5 211.5t-216.5 71.5h-575z" />
<glyph unicode="4" horiz-adv-x="1153" d="M54 475l616 994h54l-611 -996h758v475l20 150h28v-625h181v-27l-181 -21v-421h-48v421h-793z" />
<glyph unicode="5" horiz-adv-x="1302" d="M207 12v28h610q115 0 197 77.5t82 219.5v191q0 138 -73 217q-68 72 -209 72h-306q-92 0 -171.5 -76.5t-79.5 -174.5h-48l44 903h849v-48h-803l-34 -688q19 38 86.5 85t162.5 47h303q328 0 327 -333v-199q0 -96 -32 -167.5t-84 -105.5q-102 -69 -211 -68q-465 0 -610 20z " />
<glyph unicode="6" horiz-adv-x="1275" d="M176 731.5q0 404.5 96.5 577t248.5 172.5q389 0 547 -18v-30h-540q-90 0 -154.5 -66.5t-94.5 -173.5q-54 -193 -55 -402q190 22 569 21q186 0 254.5 -75.5t68.5 -217.5v-222q0 -299 -323 -299h-239q-87 0 -152 36.5t-117 122.5q-109 170 -109 574.5zM224 762 q0 -716 330 -716h239q277 0 277 247v226q0 144 -71.5 193.5t-205.5 49.5h-569z" />
<glyph unicode="7" horiz-adv-x="1073" d="M80 1421v48h879l33 -46l-478 -1423h-56l477 1421h-855z" />
<glyph unicode="8" horiz-adv-x="1314" d="M203 309v199q0 104 65 165.5t136 61.5q-201 34 -201 267v130q0 191 92 269t261 78h233q165 0 245 -82.5t80 -264.5v-130q0 -87 -52.5 -160.5t-132.5 -79.5q184 -52 185 -256v-197q0 -92 -32 -157.5t-86 -95.5q-94 -56 -209 -56h-231q-98 0 -168 25t-105.5 58.5 t-54.5 81.5q-25 65 -25 144zM251 303q0 -132 83 -193.5t222 -61.5h231q111 0 194.5 61.5t83.5 193.5v211q0 150 -102 187q-72 26 -170 25h-259q-94 0 -188.5 -52t-94.5 -160v-211zM251 992q0 -147 94 -187q74 -33 189 -33h259q132 0 202 68.5t70 151.5v136q0 163 -67 233 t-209 70h-233q-163 0 -234 -72t-71 -231v-136z" />
<glyph unicode="9" horiz-adv-x="1275" d="M163 950v222q0 299 323 299h238q86 0 152 -36.5t120 -122.5q106 -170 106 -574.5t-96.5 -577t-248.5 -172.5q-389 0 -546 18v30h540q90 0 154 66.5t95 174.5q54 193 54 401q-190 -22 -568 -21q-186 0 -254.5 76t-68.5 217zM209 950q0 -144 71 -193.5t206 -49.5h568 q0 716 -330 716h-238q-277 0 -277 -247v-226z" />
<glyph unicode=":" horiz-adv-x="354" d="M138 24v125q0 24 25 23h21q25 0 25 -23v-125q0 -24 -25 -24h-21q-25 0 -25 24zM138 913v127q0 24 25 23h21q25 0 25 -23v-127q0 -22 -25 -22h-21q-25 0 -25 22z" />
<glyph unicode=";" horiz-adv-x="344" d="M138 26v125q0 26 25 25h19q25 0 25 -25v-225q0 -37 -15.5 -50.5t-24 -13.5t-25.5 2v12q32 0 32 30v94h-11q-25 0 -25 26zM138 913v127q0 24 25 23h21q25 0 25 -23v-127q0 -22 -25 -22h-21q-25 0 -25 22z" />
<glyph unicode="&#x3c;" horiz-adv-x="963" d="M136 693v40l691 385v-55l-630 -351l630 -373v-56z" />
<glyph unicode="=" horiz-adv-x="965" d="M54 425v48h857v-48h-857zM54 946v48h857v-48h-857z" />
<glyph unicode="&#x3e;" horiz-adv-x="963" d="M136 283v56l630 373l-630 351v55l691 -385v-40z" />
<glyph unicode="?" horiz-adv-x="1067" d="M54 1435v28q174 20 506 20h18q211 0 296 -90.5t85 -280.5v-203q0 -200 -124 -271q-88 -50 -261 -50q-68 0 -151 8v-205h-52v245h213q163 0 245 63t82 210v203q0 179 -81 251t-272 72h-504zM362 24v125q0 24 23 23h25q22 0 21 -23v-125q0 -24 -21 -24h-25q-23 0 -23 24z " />
<glyph unicode="@" horiz-adv-x="1737" d="M176 0v699q0 151 75 234q32 36 100 65.5t163 29.5h401q127 0 217 -65.5t90 -215.5v-747h-32l-14 128l-30 -15q-263 -131 -422 -131h-6q-106 0 -179 66.5t-72 168.5v106q0 123 68.5 195t190.5 72h448q2 76 2 114.5t-2 38.5q0 120 -70 178t-195 58h-395q-290 0 -290 -280 v-699q0 -163 84.5 -235t205.5 -72h640q307 0 307 307v1028q0 149 -78.5 238.5t-228.5 89.5h-781v29q98 19 454 20h125h202q165 -4 260 -99.5t95 -277.5v-1028q0 -358 -355 -358h-640q-157 0 -247.5 93t-90.5 265zM514 274.5q0 -43.5 1 -46.5q0 -90 60.5 -144t163.5 -54h8 q78 0 206.5 41.5t220.5 85.5v405l-437 -20q-75 -4 -139 -40q-83 -44 -83 -183q-1 -1 -1 -44.5z" />
<glyph unicode="A" horiz-adv-x="1322" d="M122 0l550 1469h69l525 -1469h-52l-182 508h-668l-190 -508h-52zM381 556h632l-306 865z" />
<glyph unicode="B" horiz-adv-x="1201" d="M217 0v1469h507q209 0 295 -95t86 -252t-77.5 -248t-180.5 -104q88 -19 176.5 -113.5t88.5 -246.5q0 -410 -388 -410h-507zM265 50h459q339 0 339 364q0 138 -98 234.5t-230 96.5h-11h-459v-695zM265 793h459q144 0 237 82q96 86 96 244t-82 230t-251 72h-459v-628z" />
<glyph unicode="C" horiz-adv-x="1143" d="M149 739q0 186 18.5 313.5t71.5 232.5q102 201 397 201q171 0 429 -49v-28q-28 4 -52.5 6t-58 5t-72.5 6t-79 5q-121 6 -167 6q-157 0 -247 -56q-192 -120 -192 -641v-5q0 -699 441 -699q186 0 367 18l60 6v-28q-237 -44 -429 -44q-487 0 -487 751z" />
<glyph unicode="D" horiz-adv-x="1346" d="M217 0v1469h507q131 0 228.5 -49t151.5 -123.5t89 -178.5q52 -168 52 -344t-30.5 -300.5t-90 -233t-163.5 -174.5t-237 -66h-507zM265 48h459q121 0 215.5 64t148.5 167q109 205 109 451q0 347 -121.5 519t-351.5 172h-459v-1373z" />
<glyph unicode="E" horiz-adv-x="1167" d="M217 247v961q0 139 70.5 200t170.5 61h11l596 -20v-28h-596q-204 0 -204 -213v-455l721 -10v-29l-721 -9v-458q0 -125 60 -165t165 -40h575v-28l-573 -20h-38.5t-65.5 7t-83 31q-88 52 -88 215z" />
<glyph unicode="F" horiz-adv-x="1167" d="M217 0v1208q0 139 70.5 200t170.5 61h11l596 -20v-28h-596q-204 0 -204 -213v-455l721 -10v-29l-721 -9v-705h-48z" />
<glyph unicode="G" horiz-adv-x="1243" d="M149 730.5q0 108.5 3 181t13.5 153.5t29 139t51.5 114.5t79 90.5q100 77 285 77t476 -55v-38l-86 12q-259 33 -384 33h-4q-124 -1 -194.5 -33t-112.5 -87.5t-68 -145.5q-40 -151 -40 -433q0 -385 83.5 -543t315.5 -158q138 0 392 75l84 25v592h-430v29q80 22 243 22 t235 -6v-775h-28l-16 109q-65 -35 -212.5 -77t-257.5 -42t-186.5 24t-124.5 78.5t-78.5 115.5t-44 155.5t-18.5 176.5t-5 190.5z" />
<glyph unicode="H" horiz-adv-x="1331" d="M217 0v1469h48v-734h883v734h49v-1469h-49v686h-883v-686h-48z" />
<glyph unicode="I" horiz-adv-x="400" d="M217 0v1469h48v-1469h-48z" />
<glyph unicode="J" horiz-adv-x="699" d="M94 42l8 29q113 -33 157 -33t84 3t79.5 31t66 93.5t26.5 165.5v1138h49v-1138q0 -218 -104 -295q-62 -46 -167 -46q-117 0 -199 52z" />
<glyph unicode="K" horiz-adv-x="1189" d="M217 0v1469h48v-709h305l484 709h58l-498 -732l498 -737h-60l-484 712h-301v-712h-50z" />
<glyph unicode="L" horiz-adv-x="1121" d="M217 253v1216h48v-1216q0 -125 61 -165t164 -40h554v-48h-554q-115 0 -185 40q-88 50 -88 213z" />
<glyph unicode="M" horiz-adv-x="1599" d="M149 0l162 1469h72l427 -1387l420 1387h76l169 -1469h-48l-163 1411l-425 -1411h-54l-434 1411l-154 -1411h-48z" />
<glyph unicode="N" horiz-adv-x="1333" d="M217 0v1469h50l884 -1377v1377h48v-1469h-48l-886 1377v-1377h-48z" />
<glyph unicode="O" horiz-adv-x="1354" d="M176 726.5q0 200.5 24 340t64.5 221t114 124.5t146.5 55t179 12t172 -8t132 -34t107 -77.5t73 -133.5q64 -157 64 -502q0 -367 -84 -538q-38 -80 -109 -123t-148.5 -57t-198 -14t-194.5 12t-146.5 53t-111 120.5t-61.5 214t-23 335zM224 696.5q0 -152.5 18.5 -273 t50.5 -197.5t95.5 -117t136.5 -54.5t201.5 -14.5t211.5 24t148.5 95.5t91.5 208t26 327t-13 308t-43 194.5t-67 124.5t-98.5 71.5t-119.5 31t-136 7t-119.5 -3t-93.5 -12t-85.5 -30t-69.5 -54.5t-58 -86t-41 -125t-27.5 -172t-8.5 -252z" />
<glyph unicode="P" horiz-adv-x="1172" d="M163 0v1469h553q71 0 124 -12.5t112 -51.5q118 -80 118 -337q0 -116 -24.5 -199.5t-56.5 -125.5t-86 -64t-91 -26t-101.5 -4t-279 7.5t-220.5 11.5v-668h-48zM211 697h505q142 0 222.5 75t80.5 285q0 261 -130 328q-71 34 -173 34h-505v-722z" />
<glyph unicode="Q" horiz-adv-x="1354" d="M176 726.5q0 200.5 24 340t64.5 221t114 124.5t146.5 55t179 12t172 -8t132 -34t107 -77.5t73 -133.5q64 -157 64 -502q0 -367 -84 -538q-38 -80 -109 -123t-148.5 -57t-198 -14t-194.5 12t-146.5 53t-111 120.5t-61.5 214t-23 335zM224 696.5q0 -152.5 18.5 -273 t50.5 -197.5t95.5 -117t136.5 -54.5t201.5 -14.5t211.5 24t148.5 95.5t91.5 208t26 327t-13 308t-43 194.5t-67 124.5t-98.5 71.5t-119.5 31t-136 7t-119.5 -3t-93.5 -12t-85.5 -30t-69.5 -54.5t-58 -86t-41 -125t-27.5 -172t-8.5 -252zM699 -67h27q29 -76 90 -112 t122.5 -36t141.5 22v-48q-68 -23 -105 -23h-2q-38 1 -46 3q-78 2 -144.5 53t-83.5 141z" />
<glyph unicode="R" horiz-adv-x="1151" d="M163 0v1469h553q71 0 124 -12.5t112 -51.5q118 -80 118 -337q0 -266 -107 -352q-52 -40 -99 -52.5t-113 -14.5l323 -649h-51l-324 649q-470 8 -488 19v-668h-48zM211 697h505q69 0 117 12.5t94 49.5q92 78 92 309q0 251 -130 317q-71 34 -173 34h-505v-722z" />
<glyph unicode="S" horiz-adv-x="1176" d="M176 992v132q0 203 99.5 280t300.5 77t433 -37v-27l-445 16h-26q-147 0 -230.5 -67.5t-83.5 -241.5v-132q0 -147 72 -197t223 -50h230q184 0 254.5 -77.5t70.5 -217.5v-137q0 -205 -122 -273q-100 -56 -268 -56q-84 0 -245.5 9t-225.5 21v30q132 -12 471 -12 q159 0 250.5 60.5t91.5 220.5v137q0 130 -64.5 188.5t-212.5 58.5h-225q-220 0 -291 90q-34 44 -45.5 90t-11.5 115z" />
<glyph unicode="T" horiz-adv-x="1211" d="M94 1421v48h1040v-48h-502v-1421h-48v1421h-490z" />
<glyph unicode="U" horiz-adv-x="1370" d="M217 642v827h48v-827q0 -193 18 -272t30 -123t37 -76.5t44.5 -55.5t55.5 -36.5t60 -23t68 -11.5q75 -6 151 -6t124.5 5t106 24t94 59.5t70.5 104.5q62 123 62 411v827h49v-827q0 -205 -23.5 -291t-39.5 -135t-45 -83.5t-52 -59.5t-62.5 -40t-65.5 -24t-72 -13 q-67 -6 -204 -6t-215 30q-173 64 -219 344q-20 115 -20 278z" />
<glyph unicode="V" horiz-adv-x="1322" d="M122 1469h52l508 -1421l532 1421h52l-550 -1469h-67z" />
<glyph unicode="W" horiz-adv-x="1948" d="M122 1469h52l508 -1421l492 1421h52l-207 -604l328 -817l497 1421h48l-509 -1469h-69l-320 795l-278 -795h-67z" />
<glyph unicode="X" horiz-adv-x="1133" d="M122 1469h62l414 -690l417 690h63l-448 -741l438 -728h-63l-407 676l-407 -676h-63l440 728z" />
<glyph unicode="Y" horiz-adv-x="1241" d="M122 1469h54l458 -885l498 885h54l-527 -948v-521h-48v521z" />
<glyph unicode="Z" horiz-adv-x="1101" d="M94 0v48l869 1373h-869v48h929v-48l-868 -1373h868v-48h-929z" />
<glyph unicode="[" horiz-adv-x="655" d="M231 -76v1421q0 116 44 216q27 58 84.5 93.5t144.5 35.5h100v-48h-100q-104 0 -164.5 -72.5t-60.5 -224.5v-1421q0 -133 54 -215t171 -82h100v-48h-100q-87 0 -145 35t-84 93q-44 100 -44 217z" />
<glyph unicode="\" horiz-adv-x="709" d="M54 1545h38l565 -1689h-39z" />
<glyph unicode="]" horiz-adv-x="655" d="M54 -373h101q116 0 170 82t54 215v1421q0 152 -60 224.5t-164 72.5h-101v48h101q86 0 144.5 -35t83.5 -94q44 -100 44 -216v-1421q0 -117 -44 -217q-26 -58 -84 -93t-144 -35h-101v48z" />
<glyph unicode="^" horiz-adv-x="816" d="M136 1065l266 262h40l240 -262h-36l-225 232l-249 -232h-36z" />
<glyph unicode="_" horiz-adv-x="1320" d="M54 -2v48h1212v-48h-1212z" />
<glyph unicode="`" horiz-adv-x="402" d="M54 1333h53l242 -268h-28z" />
<glyph unicode="a" horiz-adv-x="1042" d="M109 253v122q0 127 71 197t195 70h365h121q2 67 2 100t-2 35q0 265 -273 265q-144 0 -446 -46v27q253 62 467 63q130 0 215 -76.5t85 -232.5v-777h-30l-18 128l-32 -13q-289 -127 -454 -127q-114 0 -190 70t-76 195zM157 263q0 -117 63 -171q69 -56 152.5 -56t201 29 t201.5 59l86 33v457l-486 -20q-218 -8 -218 -219v-112z" />
<glyph unicode="b" d="M163 0v1576h44v-574q90 36 205.5 58t189.5 22q371 0 371 -554q0 -205 -76 -361q-40 -83 -115 -131t-175.5 -48t-227 45t-170.5 86l-20 -119h-26zM209 147q216 -111 393 -111q138 0 230.5 122.5t92.5 387t-88 376.5t-242.5 112t-385.5 -61v-826z" />
<glyph unicode="c" horiz-adv-x="1005" d="M136 534.5q0 168.5 24 279.5t74.5 166.5t109 75.5t184 20t355.5 -53v-27q-219 32 -346 32t-176.5 -18t-91.5 -71q-85 -98 -85 -413q0 -297 89 -400q43 -50 93 -69t126 -19q147 0 345 33l63 9v-32q-197 -56 -414 -58q-82 0 -139.5 20t-109 75t-76.5 168t-25 281.5z" />
<glyph unicode="d" d="M136 528q0 554 370 554q74 0 190 -22t208 -58v574h42v-1576h-27l-19 119q-44 -41 -171 -86t-227 -45t-175.5 48t-113.5 131q-77 158 -77 361zM184 549q0 -277 91 -395t231 -118q176 0 394 111v826q-232 60 -394 61q-71 0 -123 -21t-100 -74q-99 -108 -99 -390z" />
<glyph unicode="e" horiz-adv-x="1055" d="M193 929q46 107 192 134q61 11 151 11h14q80 0 128 -6q52 -6 109.5 -26.5t87.5 -57.5q73 -90 73 -287q0 -113 -67 -154t-207 -41h-490q0 -293 86 -385q45 -46 94.5 -62.5t170 -16.5t392.5 40v-32q-203 -56 -425 -56q-214 0 -290 124q-75 123 -76 400q0 284 57 415z M184 548h490q169 0 207 66q19 34 19 117q0 77 -22 143q-22 68 -71.5 100.5t-107 42t-182 9.5t-195.5 -33.5t-104.5 -133.5t-33.5 -311z" />
<glyph unicode="f" horiz-adv-x="770" d="M54 1017v29l174 19v199q0 163 42 237q18 31 56 54t90 23q220 0 300 -23v-25h-285q-94 0 -124 -66t-30 -200v-199h357v-48h-357v-1017h-49v1017h-174z" />
<glyph unicode="g" horiz-adv-x="1147" d="M122 -44l25 211q-19 24 -19 74t44.5 92t126.5 44q-175 71 -175 314q0 199 81.5 289t263.5 90h627v-28l-223 -21q123 -88 123 -330q0 -113 -59 -218q-32 -56 -102.5 -91t-170.5 -35h-313q-38 0 -86 -14q-93 -26 -93 -100q0 -54 53.5 -83t107.5 -29h414q138 0 214.5 -72.5 t76.5 -195.5v-106q0 -289 -301 -289h-302q-144 0 -228.5 81.5t-84.5 227.5v189zM172 132v-365q0 -79 29.5 -134.5t75.5 -82.5q81 -44 158 -44h302q253 0 253 241v106q0 98 -57.5 159.5t-185.5 61.5h-410q-48 0 -89 15t-59 30zM172 691q0 -293 284 -293h205q150 0 218.5 83 t68.5 226.5t-59.5 228.5t-141.5 85h-297q-157 0 -217.5 -84.5t-60.5 -245.5z" />
<glyph unicode="h" d="M163 0v1574h48v-632q216 142 433 142q153 0 241 -100.5t88 -240.5v-743h-48v743q0 130 -75 211.5t-203 81.5t-222 -28.5t-214 -94.5v-913h-48z" />
<glyph unicode="i" horiz-adv-x="341" d="M136 1249v124q0 23 23 23h2h21q23 0 23 -23v-124q0 -25 -23 -25h-21q-25 0 -25 25zM144 0v1065h49v-1065h-49z" />
<glyph unicode="j" horiz-adv-x="394" d="M163 1249v124q0 23 21 23h2h23q24 0 24 -23v-124q0 -25 -24 -25h-23q-23 0 -23 25zM174 -542v1607h48v-1073v-207.5t-21 -326.5h-27z" />
<glyph unicode="k" horiz-adv-x="998" d="M163 0v1570h48v-934h120l538 429h77l-567 -454l565 -611h-71l-542 588h-120v-588h-48z" />
<glyph unicode="l" horiz-adv-x="597" d="M163 379v1193h48v-1193q0 -247 94 -303q32 -17 46.5 -20.5t96.5 -16.5t96 -13v-26h-134q-127 0 -187 91t-60 288z" />
<glyph unicode="m" horiz-adv-x="1867" d="M163 0v1065h28l20 -123q216 142 424 142t296 -165q84 65 222 115t252 50q153 0 241 -100.5t88 -240.5v-743h-48v743q0 124 -76 208.5t-205 84.5q-201 0 -463 -141q32 -77 31 -152v-743h-48v743q0 124 -76.5 208.5t-203 84.5t-220.5 -28.5t-214 -94.5v-913h-48z" />
<glyph unicode="n" d="M163 0v1065h28l20 -123q216 142 433 142q153 0 241 -100.5t88 -240.5v-743h-48v743q0 124 -76.5 208.5t-203 84.5t-220.5 -28.5t-214 -94.5v-913h-48z" />
<glyph unicode="o" horiz-adv-x="1149" d="M136 530.5q0 308.5 96.5 427t344.5 118.5t343 -132t95 -427t-95 -411t-348.5 -116t-344.5 116t-91 424.5zM184 525q0 -163 23.5 -260.5t77.5 -145.5t118 -64.5t169.5 -16.5t172.5 18t122 68q100 98 100 393q0 316 -108 418q-53 54 -119 73.5t-167.5 19.5t-163.5 -15 t-118 -64t-81.5 -155t-25.5 -269z" />
<glyph unicode="p" d="M163 -538v1603h26l22 -117q44 40 169.5 85t226 45t175.5 -48.5t115 -129.5q76 -157 76 -362q0 -554 -371 -554q-75 0 -189 22t-204 59v-603h-46zM211 92q231 -60 384.5 -60t241.5 111.5t88 376.5t-92 387.5t-231 122.5q-175 0 -391 -111v-827z" />
<glyph unicode="q" horiz-adv-x="1119" d="M136 538.5q0 258.5 92.5 399t277.5 140.5q304 0 453 -24v-1596h-48v600q-88 -36 -207.5 -57t-215 -21t-169.5 41t-114 119q-69 140 -69 398.5zM184 538q0 -257 71.5 -383.5t240 -126.5t415.5 62v940h-405q-322 0 -322 -492z" />
<glyph unicode="r" horiz-adv-x="850" d="M163 0v1065h23l25 -134q82 46 131 71.5t135.5 50.5t180 25t139.5 -17v-46q-69 15 -131 15h-9q-55 0 -95 -6q-42 -6 -69 -12.5t-74.5 -25.5t-63.5 -25.5t-73.5 -35t-70.5 -34.5v-891h-48z" />
<glyph unicode="s" horiz-adv-x="1011" d="M109 728v93q0 129 63 192t213 63q276 0 464 -19v-27h-464q-124 0 -176 -49.5t-52 -159.5v-93q0 -90 36 -136q30 -38 192 -38h257q118 0 190 -59.5t72 -169.5v-99q0 -156 -85 -200q-68 -36 -177 -36q-299 0 -489 20v28h489q159 0 195 83q18 40 18 105v99q0 79 -55 130 t-158 51h-257q-157 0 -216.5 39t-59.5 183z" />
<glyph unicode="t" horiz-adv-x="701" d="M54 1019v33l168 16l17 297h31v-297h352v-49h-352v-642q0 -247 96 -301q32 -19 45.5 -22.5t96 -16.5t96.5 -13v-26h-135q-126 0 -186.5 91t-60.5 288v642h-168z" />
<glyph unicode="u" d="M136 325v743h48v-743q0 -124 76.5 -208.5t203 -84.5t221 28t215.5 95v913h48v-1066h-29l-19 124q-217 -142 -434 -142q-153 0 -241.5 100.5t-88.5 240.5z" />
<glyph unicode="v" horiz-adv-x="1042" d="M54 1065h48l415 -998l425 998h48l-446 -1065h-52z" />
<glyph unicode="w" horiz-adv-x="1559" d="M54 1065h50l394 -1005l383 1005h48l-148 -399l273 -606l405 1005h46l-425 -1065h-52l-271 611l-233 -611h-53z" />
<glyph unicode="x" horiz-adv-x="963" d="M65 0l385 534l-385 531h63l354 -487l353 487h65l-386 -531l386 -534h-65l-353 488l-354 -488h-63z" />
<glyph unicode="y" horiz-adv-x="1061" d="M56 1065h53l297 -832q66 -182 203 -183l343 1015h50l-468 -1402l-92 -205h-25l175 542q-169 8 -234 220z" />
<glyph unicode="z" horiz-adv-x="952" d="M80 1017v48h795v-48l-703 -967h703v-48h-762v48l697 967h-730z" />
<glyph unicode="{" horiz-adv-x="609" d="M54 642v55q181 15 181 146v473q0 271 158 344q67 30 163 30v-48q-139 0 -206 -74t-67 -252v-473q0 -71 -46 -117t-115 -56q67 -9 113 -56.5t46 -109.5v-580q0 -167 66.5 -232t208.5 -65v-48q-213 0 -275 116q-30 56 -39 106t-9 123v572q0 68 -54.5 107t-111.5 39h-13z " />
<glyph unicode="|" horiz-adv-x="509" d="M233 -144v1689h48v-1689h-48z" />
<glyph unicode="}" horiz-adv-x="609" d="M54 -373q142 0 208.5 65t66.5 232v580q0 61 46 109t113 57q-69 10 -115 56t-46 117v473q0 177 -67 251.5t-206 74.5v48q193 0 264 -116q57 -98 57 -258v-473q0 -131 181 -146v-55h-12q-58 0 -112.5 -39t-54.5 -107v-572q0 -73 -8.5 -123t-39.5 -106q-61 -116 -275 -116 v48z" />
<glyph unicode="~" horiz-adv-x="948" d="M136 1148q84 72 130.5 94t84.5 22t129.5 -73t121.5 -73q72 0 201 106l11 -14q-40 -40 -67 -62q-71 -62 -145 -62q-44 0 -133.5 73t-112.5 73t-38 -2t-31.5 -9t-26 -11t-29.5 -17t-27 -18t-30 -22t-30 -21z" />
<glyph unicode="&#xa1;" horiz-adv-x="535" d="M224 777v127q0 19 25 19h21q25 0 25 -19v-127q0 -26 -25 -26h-21q-25 0 -25 26zM239 -542l10 1076h24l10 -1076h-44z" />
<glyph unicode="&#xa2;" horiz-adv-x="979" d="M109 514.5q0 159.5 19 260t49 159t82 90t105 42t130 10.5v165h36v-167q163 -10 327 -51v-27q-219 32 -346.5 32t-177.5 -18t-92 -71q-84 -98 -84 -413q0 -299 88 -400q44 -50 94 -69t127 -19q144 0 342 33l63 9v-32q-174 -50 -341 -56v-157h-36v155q-98 0 -159.5 17 t-117.5 70t-82 165.5t-26 272z" />
<glyph unicode="&#xa3;" horiz-adv-x="1205" d="M136 0v28l145 20v655h-145v27l145 17v266q0 261 98 360q62 62 135 76q103 20 225 20l333 -18v-28h-329q-113 0 -180 -12.5t-125.5 -53.5t-83.5 -123.5t-25 -220.5v-266l582 -17v-27h-582v-655h739v-48h-932z" />
<glyph unicode="&#xa5;" horiz-adv-x="1172" d="M54 1469h59l453 -774l491 774h61l-526 -825h413v-28h-415v-191h415v-27h-415v-398h-48v398h-393v27h393v191h-393v28h391z" />
<glyph unicode="&#xa7;" horiz-adv-x="1121" d="M149 709v124q0 167 110 186q-111 20 -110 165v141q0 134 74 191.5t187 57.5q299 0 490 -21v-28h-490q-213 0 -213 -200v-141q0 -88 48 -116t165 -28h299q164 0 216 -44t50 -161v-125q0 -49 -5 -81.5t-30 -62.5t-69 -34q67 -14 84.5 -56.5t17.5 -107.5v-148 q0 -156 -90 -200q-75 -37 -186 -36q-283 0 -475 20v28h475q116 0 172 41.5t56 146.5v148q0 90 -37 117t-179 27h-299q-144 0 -188 20q-73 34 -73 177zM197 709q0 -41 14 -97q4 -15 21 -25.5t26 -16.5t41 -8t46 -2h364q149 0 182.5 23t33.5 127v125q0 98 -41 128.5t-175 30.5 h-299q-159 0 -184 -35q-30 -44 -29 -128v-122z" />
<glyph unicode="&#xa8;" horiz-adv-x="850" d="M136 1167q0 35 34.5 35t34.5 -35t-34.5 -35t-34.5 35zM646 1168q0 34 35 34t35 -35t-34 -35q-16 0 -26 10t-10 26z" />
<glyph unicode="&#xa9;" horiz-adv-x="1733" d="M149 735.5q0 109.5 12.5 206t47 195t86.5 170.5t139 117t198 45h514q112 0 196.5 -53t128.5 -130.5t73 -183.5q42 -159 42 -361.5t-45.5 -365t-147.5 -269t-247 -106.5h-514q-130 0 -229.5 76.5t-151.5 194.5t-77 236.5t-25 228zM176 722q0 -245 109 -457 q54 -104 144 -170.5t203 -66.5h514q178 0 294.5 188t116.5 523q0 203 -38 354.5t-133 249.5t-240 98h-514q-147 0 -255 -93q-201 -170 -201 -626zM502 723.5q0 237.5 78.5 342t210.5 104.5q166 0 357 -34v-18q-169 25 -357 24q-261 0 -261 -416q0 -199 61.5 -301t199.5 -102 q233 0 369 32v-18q-151 -42 -369 -42q-134 0 -211.5 95.5t-77.5 333z" />
<glyph unicode="&#xaa;" horiz-adv-x="722" d="M80 584v27h562v-27h-562zM80 929v92q0 82 54.5 131.5t146.5 49.5q163 -2 244 -2t81 2v46.5v17.5q0 184 -217 185q-132 0 -285 -32v20q138 44 310 44q96 0 160 -51t64 -155v-518h-20l-12 98l-22 -10q-191 -96 -288 -96t-156.5 47t-59.5 131zM115 935q0 -153 178 -152 q54 0 132.5 24t128.5 48l52 24v303l-313 -8q-178 0 -178 -165v-74z" />
<glyph unicode="&#xab;" horiz-adv-x="1099" d="M136 710l410 410l36 -34l-377 -376l389 -383l-36 -36zM506 710l413 410l33 -34l-378 -376l389 -383l-36 -36z" />
<glyph unicode="&#xac;" horiz-adv-x="1067" d="M136 564v48h795v-293h-48v245h-747z" />
<glyph unicode="&#xad;" horiz-adv-x="678" d="M54 558v48h570v-48h-570z" />
<glyph unicode="&#xae;" horiz-adv-x="1733" d="M149 735.5q0 109.5 12.5 206t47 195t86.5 170.5t139 117t198 45h514q112 0 196.5 -53t128.5 -130.5t73 -183.5q42 -159 42 -361.5t-45.5 -365t-147.5 -269t-247 -106.5h-514q-130 0 -229.5 76.5t-151.5 194.5t-77 236.5t-25 228zM176 722q0 -245 109 -457 q54 -104 144 -170.5t203 -66.5h514q178 0 294.5 188t116.5 523q0 203 -38 354.5t-133 249.5t-240 98h-514q-147 0 -255 -93q-201 -170 -201 -626zM572 307v857h355q117 0 183 -53.5t66 -199.5q0 -100 -32 -143q-18 -22 -33 -37t-42 -21.5t-41 -10.5q-24 -4 -74 -4l222 -388 h-34l-223 386l-319 10v-396h-28zM600 720h339q111 0 160 37.5t49 157t-53 170.5t-156 51h-339v-416z" />
<glyph unicode="&#xaf;" horiz-adv-x="776" d="M136 1065v31h506v-31h-506z" />
<glyph unicode="&#xb0;" horiz-adv-x="678" d="M136 1268q0 86 60.5 146.5t144.5 60.5t142.5 -60.5t58.5 -146.5t-58.5 -145.5t-142.5 -59.5t-144.5 59.5t-60.5 145.5zM165 1269q0 -72 52 -123.5t124.5 -51.5t122.5 51.5t50 123.5t-50 124.5t-122.5 52.5t-124.5 -52.5t-52 -124.5z" />
<glyph unicode="&#xb1;" horiz-adv-x="1073" d="M153 275v48h774v-48h-774zM153 825v48h362v364h49v-364h363v-48h-363v-363h-49v363h-362z" />
<glyph unicode="&#xb4;" horiz-adv-x="402" d="M54 1065l243 268h52l-267 -268h-28z" />
<glyph unicode="&#xb5;" horiz-adv-x="1243" d="M245 -542v1610h48v-743q0 -124 76.5 -208.5t203 -84.5t220.5 28t214 95v913h48v-1066h-27l-21 124q-216 -142 -421 -142t-293 154v-680h-48z" />
<glyph unicode="&#xb6;" horiz-adv-x="1147" d="M109 1002v186q0 134 93 207.5t219 73.5h673v-52h-138v-1417h-49v1421h-329v-1963h-48v1275q-30 -20 -97 -21h-12q-149 0 -230.5 82.5t-81.5 207.5zM157 1005q0 -76 31.5 -129t80.5 -77q84 -39 152 -39h109v661h-109q-124 0 -194 -67t-70 -170v-179z" />
<glyph unicode="&#xb7;" horiz-adv-x="529" d="M231 755v24q0 25 24 24h22q25 0 24 -24v-24q0 -25 -24 -25h-22q-24 0 -24 25z" />
<glyph unicode="&#xb8;" horiz-adv-x="535" d="M136 -333l65 10q48 7 72 15.5t50 32.5t34.5 69t8.5 81.5v50.5h34q0 -155 -40.5 -214t-162.5 -59h-61v14z" />
<glyph unicode="&#xba;" horiz-adv-x="764" d="M80 1114.5q0 210.5 59.5 287.5t245 77t241.5 -76t56 -288.5t-57 -289t-240.5 -76.5t-244 77.5t-60.5 288zM104 584v27h562v-27h-562zM113 1081.5q0 -170.5 54.5 -235.5t215.5 -65t214.5 61.5t53.5 265.5t-49.5 271.5t-216.5 67.5q-113 0 -166.5 -25.5t-79.5 -97.5 t-26 -242.5z" />
<glyph unicode="&#xbb;" horiz-adv-x="1099" d="M136 327l390 383l-377 376l31 34l414 -410l-422 -419zM506 327l389 383l-378 376l37 34l409 -410l-421 -419z" />
<glyph unicode="&#xbf;" horiz-adv-x="1063" d="M107 36q0 201 124 271q88 50 261 51q69 0 150 -9v205h53v-245h-213q-163 0 -245 -63.5t-82 -209.5v-205q0 -178 81.5 -249.5t271.5 -71.5h503v-27q-174 -20 -505 -21h-18q-211 0 -296 89t-85 280v205zM634 795v124q0 25 23 25h23q25 0 25 -25v-124q0 -25 -25 -25h-23 q-23 0 -23 25z" />
<glyph unicode="&#xc0;" horiz-adv-x="1322" d="M122 0l550 1469h69l525 -1469h-52l-182 508h-668l-190 -508h-52zM381 556h632l-306 865zM425 1867h52l243 -268h-27z" />
<glyph unicode="&#xc1;" horiz-adv-x="1322" d="M122 0l550 1469h69l525 -1469h-52l-182 508h-668l-190 -508h-52zM381 556h632l-306 865zM693 1599l242 268h53l-268 -268h-27z" />
<glyph unicode="&#xc2;" horiz-adv-x="1322" d="M122 0l550 1469h69l525 -1469h-52l-182 508h-668l-190 -508h-52zM381 556h632l-306 865zM433 1599l266 261h40l240 -261h-35l-226 232l-249 -232h-36z" />
<glyph unicode="&#xc3;" horiz-adv-x="1322" d="M122 0l550 1469h69l525 -1469h-52l-182 508h-668l-190 -508h-52zM368 1662q84 73 130 95t84 22t129.5 -73.5t121.5 -73.5q73 0 201 107l12 -15q-41 -40 -67 -62q-73 -62 -146 -63q-44 0 -133 73.5t-112.5 73.5t-38.5 -2t-31 -9t-26 -11t-30 -17t-27.5 -18t-30.5 -22.5 t-29 -21.5zM381 556h632l-306 865z" />
<glyph unicode="&#xc4;" horiz-adv-x="1322" d="M122 0l550 1469h69l525 -1469h-52l-182 508h-668l-190 -508h-52zM381 556h632l-306 865zM417 1634.5q0 14.5 9 25t24.5 10.5t25.5 -10.5t10 -22t-7 -19.5q-8 -18 -26 -18.5t-27 10t-9 25zM927 1635.5q0 13.5 10.5 24t25 10.5t24 -10.5t9.5 -21t-2 -16.5t-6 -13 q-10 -10 -25 -10t-25.5 11.5t-10.5 25z" />
<glyph unicode="&#xc5;" horiz-adv-x="1322" d="M122 0l550 1469h69l525 -1469h-52l-182 508h-668l-190 -508h-52zM381 556h632l-306 865zM504 1685q0 -71 27 -118.5t74.5 -74.5t117.5 -27t128 59.5t58 145.5t-58 146.5t-142.5 60.5t-144.5 -60.5t-60 -131.5zM532 1669.5q0 72.5 52 124.5t124.5 52t122.5 -52t50 -124.5 t-50 -123.5t-122.5 -51t-124.5 51t-52 123.5z" />
<glyph unicode="&#xc6;" horiz-adv-x="1871" d="M80 0l755 1184q104 164 149 207q80 78 224 78h24l538 -20v-28h-538q-88 0 -114 -10t-42.5 -16t-25 -22.5t-13.5 -25t-7 -33.5l-2 -35q-2 -12 -1 -43.5t1 -47.5v-435l662 -10v-29l-662 -9v-458q0 -125 60 -165t164 -40h518v-28l-518 -20h-17q-109 0 -182.5 48t-73.5 201 v263h-517l-322 -506h-60zM494 554h485v765z" />
<glyph unicode="&#xc7;" horiz-adv-x="1143" d="M149 739q0 186 18.5 313.5t71.5 232.5q102 201 397 201q171 0 429 -49v-28q-28 4 -52.5 6t-58 5t-72.5 6t-79 5q-121 6 -167 6q-157 0 -247 -56q-193 -121 -192 -646q0 -699 441 -699q186 0 367 18l60 6v-28q-237 -44 -429 -44q-487 0 -487 751zM427 -331l65 10 q48 7 72 15.5t50 32.5t34.5 69t8.5 81.5v49.5h34q0 -154 -40 -213t-163 -59h-61v14z" />
<glyph unicode="&#xc8;" horiz-adv-x="1167" d="M217 247v961q0 139 70.5 200t170.5 61h11l596 -20v-28h-596q-204 0 -204 -213v-455l721 -10v-29l-721 -9v-458q0 -125 60 -165t165 -40h575v-28l-573 -20h-38.5t-65.5 7t-83 31q-88 52 -88 215zM402 1856h52l243 -266h-29z" />
<glyph unicode="&#xc9;" horiz-adv-x="1167" d="M217 247v961q0 139 70.5 200t170.5 61h11l596 -20v-28h-596q-204 0 -204 -213v-455l721 -10v-29l-721 -9v-458q0 -125 60 -165t165 -40h575v-28l-573 -20h-38.5t-65.5 7t-83 31q-88 52 -88 215zM666 1590l243 266h52l-266 -266h-29z" />
<glyph unicode="&#xca;" horiz-adv-x="1167" d="M217 247v961q0 139 70.5 200t170.5 61h11l596 -20v-28h-596q-204 0 -204 -213v-455l721 -10v-29l-721 -9v-458q0 -125 60 -165t165 -40h575v-28l-573 -20h-38.5t-65.5 7t-83 31q-88 52 -88 215zM402 1599l264 261h41l241 -261h-37l-225 232l-249 -232h-35z" />
<glyph unicode="&#xcb;" horiz-adv-x="1167" d="M217 247v961q0 139 70.5 200t170.5 61h11l596 -20v-28h-596q-204 0 -204 -213v-455l721 -10v-29l-721 -9v-458q0 -125 60 -165t165 -40h575v-28l-573 -20h-38.5t-65.5 7t-83 31q-88 52 -88 215zM360 1691q0 35 33.5 35t33.5 -35t-33.5 -35t-33.5 35zM869 1691q0 35 35 35 t35 -35t-33 -35q-14 0 -25.5 11t-11.5 24z" />
<glyph unicode="&#xcc;" horiz-adv-x="400" d="M-40 1867h52l243 -268h-29zM217 0v1469h48v-1469h-48z" />
<glyph unicode="&#xcd;" horiz-adv-x="400" d="M217 0v1469h48v-1469h-48zM226 1599l243 268h52l-266 -268h-29z" />
<glyph unicode="&#xce;" horiz-adv-x="400" d="M-32 1599l265 261h40l241 -261h-37l-224 232l-249 -232h-36zM217 0v1469h48v-1469h-48z" />
<glyph unicode="&#xcf;" horiz-adv-x="400" d="M-48 1638.5q0 10.5 9 21t24 10.5t25 -10.5t10 -21t-3 -16.5t-7 -11.5t-11 -8.5t-14.5 -3t-14 3t-10.5 8.5t-6 11.5t-2 16.5zM217 0v1469h48v-1469h-48zM462 1635.5q0 13.5 10 24t25 10.5t24 -10.5t9 -21t-2 -16.5t-7 -13q-9 -10 -24 -10t-25 11.5t-10 25z" />
<glyph unicode="&#xd0;" horiz-adv-x="1346" d="M86 735v27h131v707h488q130 0 227.5 -49t151.5 -123.5t88 -178.5q52 -168 52 -344t-30 -300.5t-89 -233t-163.5 -174.5t-236.5 -66h-488v735h-131zM265 48h440q120 0 214 64t149 167q109 205 108 451q0 347 -121.5 519t-349.5 172h-440v-659h319v-27h-319v-687z" />
<glyph unicode="&#xd1;" horiz-adv-x="1333" d="M217 0v1469h50l884 -1377v1377h48v-1469h-48l-886 1377v-1377h-48zM369 1662q100 90 142.5 103.5t76.5 13.5t124.5 -73.5t123.5 -73.5t78 22t62.5 36t59.5 49l12 -15q-96 -96 -155 -115q-29 -10 -66.5 -10t-126 73.5t-111.5 73.5t-38 -2t-32 -9t-27 -11t-29 -17 t-26.5 -18t-31.5 -22.5t-28 -21.5z" />
<glyph unicode="&#xd2;" horiz-adv-x="1354" d="M176 726.5q0 200.5 24 340t64.5 221t114 124.5t146.5 55t179 12t172 -8t132 -34t107 -77.5t73 -133.5q64 -157 64 -502q0 -367 -84 -538q-38 -80 -109 -123t-148.5 -57t-198 -14t-194.5 12t-146.5 53t-111 120.5t-61.5 214t-23 335zM224 696.5q0 -152.5 18.5 -273 t50.5 -197.5t95.5 -117t136.5 -54.5t201.5 -14.5t211.5 24t148.5 95.5t91.5 208t26 327t-13 308t-43 194.5t-67 124.5t-98.5 71.5t-119.5 31t-136 7t-119.5 -3t-93.5 -12t-85.5 -30t-69.5 -54.5t-58 -86t-41 -125t-27.5 -172t-8.5 -252zM433 1867h53l242 -268h-27z" />
<glyph unicode="&#xd3;" horiz-adv-x="1354" d="M176 726.5q0 200.5 24 340t64.5 221t114 124.5t146.5 55t179 12t172 -8t132 -34t107 -77.5t73 -133.5q64 -157 64 -502q0 -367 -84 -538q-38 -80 -109 -123t-148.5 -57t-198 -14t-194.5 12t-146.5 53t-111 120.5t-61.5 214t-23 335zM224 696.5q0 -152.5 18.5 -273 t50.5 -197.5t95.5 -117t136.5 -54.5t201.5 -14.5t211.5 24t148.5 95.5t91.5 208t26 327t-13 308t-43 194.5t-67 124.5t-98.5 71.5t-119.5 31t-136 7t-119.5 -3t-93.5 -12t-85.5 -30t-69.5 -54.5t-58 -86t-41 -125t-27.5 -172t-8.5 -252zM701 1599l243 268h52l-268 -268h-27z " />
<glyph unicode="&#xd4;" horiz-adv-x="1354" d="M176 726.5q0 200.5 24 340t64.5 221t114 124.5t146.5 55t179 12t172 -8t132 -34t107 -77.5t73 -133.5q64 -157 64 -502q0 -367 -84 -538q-38 -80 -109 -123t-148.5 -57t-198 -14t-194.5 12t-146.5 53t-111 120.5t-61.5 214t-23 335zM224 696.5q0 -152.5 18.5 -273 t50.5 -197.5t95.5 -117t136.5 -54.5t201.5 -14.5t211.5 24t148.5 95.5t91.5 208t26 327t-13 308t-43 194.5t-67 124.5t-98.5 71.5t-119.5 31t-136 7t-119.5 -3t-93.5 -12t-85.5 -30t-69.5 -54.5t-58 -86t-41 -125t-27.5 -172t-8.5 -252zM442 1599l265 261h40l241 -261h-36 l-226 232l-249 -232h-35z" />
<glyph unicode="&#xd5;" horiz-adv-x="1354" d="M176 726.5q0 200.5 24 340t64.5 221t114 124.5t146.5 55t179 12t172 -8t132 -34t107 -77.5t73 -133.5q64 -157 64 -502q0 -367 -84 -538q-38 -80 -109 -123t-148.5 -57t-198 -14t-194.5 12t-146.5 53t-111 120.5t-61.5 214t-23 335zM224 696.5q0 -152.5 18.5 -273 t50.5 -197.5t95.5 -117t136.5 -54.5t201.5 -14.5t211.5 24t148.5 95.5t91.5 208t26 327t-13 308t-43 194.5t-67 124.5t-98.5 71.5t-119.5 31t-136 7t-119.5 -3t-93.5 -12t-85.5 -30t-69.5 -54.5t-58 -86t-41 -125t-27.5 -172t-8.5 -252zM375 1662q85 73 131 95t84 22 t129 -73.5t122 -73.5q72 0 201 107l12 -15q-41 -40 -66 -62q-73 -62 -147 -63q-44 0 -133.5 73.5t-112.5 73.5t-38 -2t-31 -9t-26 -11t-30 -17t-27.5 -18t-30.5 -22.5t-29 -21.5z" />
<glyph unicode="&#xd6;" horiz-adv-x="1354" d="M176 726.5q0 200.5 24 340t64.5 221t114 124.5t146.5 55t179 12t172 -8t132 -34t107 -77.5t73 -133.5q64 -157 64 -502q0 -367 -84 -538q-38 -80 -109 -123t-148.5 -57t-198 -14t-194.5 12t-146.5 53t-111 120.5t-61.5 214t-23 335zM224 696.5q0 -152.5 18.5 -273 t50.5 -197.5t95.5 -117t136.5 -54.5t201.5 -14.5t211.5 24t148.5 95.5t91.5 208t26 327t-13 308t-43 194.5t-67 124.5t-98.5 71.5t-119.5 31t-136 7t-119.5 -3t-93.5 -12t-85.5 -30t-69.5 -54.5t-58 -86t-41 -125t-27.5 -172t-8.5 -252zM425 1634.5q0 14.5 9.5 25t24 10.5 t25 -10.5t10.5 -22t-6 -19.5q-8 -18 -26 -18.5t-27.5 10t-9.5 25zM935 1635.5q0 13.5 10.5 24t25.5 10.5t24 -10.5t9 -21t-2 -16.5t-6 -13q-10 -10 -25 -10t-25.5 11.5t-10.5 25z" />
<glyph unicode="&#xd8;" horiz-adv-x="1354" d="M176 690.5q0 417.5 89 598.5q40 80 113.5 123t146.5 55t202.5 12t223 -22t154.5 -88l65 100h36l-80 -124q126 -163 126 -621q0 -367 -84 -538q-38 -80 -109 -123t-148.5 -57t-210 -14t-224 20t-153.5 82l-62 -94h-37l77 119q-125 154 -125 571.5zM224 724 q0 -419 107 -559l747 1160q-56 65 -142.5 85.5t-186.5 20.5t-141.5 -3t-93.5 -12t-85.5 -30t-69.5 -54.5t-58 -86t-40 -125.5q-37 -133 -37 -396zM351 140q57 -56 142 -78t223.5 -22t221.5 24t148.5 95.5t91.5 208t26 356.5q0 422 -106 574z" />
<glyph unicode="&#xd9;" horiz-adv-x="1370" d="M217 642v827h48v-827q0 -193 18 -272t30 -123t37 -76.5t44.5 -55.5t55.5 -36.5t60 -23t68 -11.5q75 -6 151 -6t124.5 5t106 24t94 59.5t70.5 104.5q62 123 62 411v827h49v-827q0 -205 -23.5 -291t-39.5 -135t-45 -83.5t-52 -59.5t-62.5 -40t-65.5 -24t-72 -13 q-67 -6 -204 -6t-215 30q-173 64 -219 344q-20 115 -20 278zM446 1867h52l241 -268h-29z" />
<glyph unicode="&#xda;" horiz-adv-x="1370" d="M217 642v827h48v-827q0 -193 18 -272t30 -123t37 -76.5t44.5 -55.5t55.5 -36.5t60 -23t68 -11.5q75 -6 151 -6t124.5 5t106 24t94 59.5t70.5 104.5q62 123 62 411v827h49v-827q0 -205 -23.5 -291t-39.5 -135t-45 -83.5t-52 -59.5t-62.5 -40t-65.5 -24t-72 -13 q-67 -6 -204 -6t-215 30q-173 64 -219 344q-20 115 -20 278zM710 1599l246 268h51l-268 -268h-29z" />
<glyph unicode="&#xdb;" horiz-adv-x="1370" d="M217 642v827h48v-827q0 -193 18 -272t30 -123t37 -76.5t44.5 -55.5t55.5 -36.5t60 -23t68 -11.5q75 -6 151 -6t124.5 5t106 24t94 59.5t70.5 104.5q62 123 62 411v827h49v-827q0 -205 -23.5 -291t-39.5 -135t-45 -83.5t-52 -59.5t-62.5 -40t-65.5 -24t-72 -13 q-67 -6 -204 -6t-215 30q-173 64 -219 344q-20 115 -20 278zM454 1599l264 261h41l241 -261h-37l-224 232l-249 -232h-36z" />
<glyph unicode="&#xdc;" horiz-adv-x="1370" d="M217 642v827h48v-827q0 -193 18 -272t30 -123t37 -76.5t44.5 -55.5t55.5 -36.5t60 -23t68 -11.5q75 -6 151 -6t124.5 5t106 24t94 59.5t70.5 104.5q62 123 62 411v827h49v-827q0 -205 -23.5 -291t-39.5 -135t-45 -83.5t-52 -59.5t-62.5 -40t-65.5 -24t-72 -13 q-67 -6 -204 -6t-215 30q-173 64 -219 344q-20 115 -20 278zM435 1634.5q0 35.5 34.5 35.5t34.5 -35.5t-34.5 -35.5t-34.5 35.5zM946 1636q0 34 34.5 34t34.5 -35.5t-34 -35.5q-14 0 -24.5 11.5t-10.5 25.5z" />
<glyph unicode="&#xdd;" horiz-adv-x="1241" d="M122 1469h54l458 -885l498 885h54l-527 -948v-521h-48v521zM640 1599l243 268h52l-267 -268h-28z" />
<glyph unicode="&#xde;" horiz-adv-x="1111" d="M163 0v1463h48v-283h435q353 0 354 -427q0 -322 -165 -412q-52 -28 -94 -35t-95 -7q-358 8 -435 20v-319h-48zM211 347h435q151 0 228.5 92.5t77.5 317.5q0 260 -142 335q-74 40 -164 40h-435v-785z" />
<glyph unicode="&#xdf;" horiz-adv-x="1135" d="M163 0v1136q0 184 106 303.5t311 119.5q142 0 237.5 -34.5t134.5 -91.5q48 -67 48 -137t-22 -131.5t-67.5 -121t-100.5 -97.5q-38 -31 -96.5 -71t-83.5 -58q-65 -48 -64.5 -114.5t53.5 -97.5t129.5 -40t152.5 -22t130.5 -57t54.5 -126v-95q0 -135 -85.5 -208t-232.5 -73 q-197 0 -347 30v28q191 -10 309.5 -10t175.5 23t84 62q48 70 48 148v95q2 68 -51.5 102t-130.5 43t-153.5 20t-131 52t-54.5 116t39.5 117.5t123.5 100.5t120.5 83t82.5 92q71 98 71 195.5t-71 153.5q-94 76 -285.5 76t-289 -98.5t-97.5 -276.5v-1136h-48z" />
<glyph unicode="&#xe0;" horiz-adv-x="1042" d="M109 253v122q0 127 71 197t195 70h365h121q2 67 2 100t-2 35q0 265 -273 265q-144 0 -446 -46v27q253 62 467 63q130 0 215 -76.5t85 -232.5v-777h-30l-18 128l-32 -13q-289 -127 -454 -127q-114 0 -190 70t-76 195zM157 263q0 -117 63 -171q69 -56 152.5 -56t201 29 t201.5 59l86 33v457l-486 -20q-218 -8 -218 -219v-112zM263 1473h53l242 -267h-28z" />
<glyph unicode="&#xe1;" horiz-adv-x="1042" d="M109 253v122q0 127 71 197t195 70h365h121q2 67 2 100t-2 35q0 265 -273 265q-144 0 -446 -46v27q253 62 467 63q130 0 215 -76.5t85 -232.5v-777h-30l-18 128l-32 -13q-289 -127 -454 -127q-114 0 -190 70t-76 195zM157 263q0 -117 63 -171q69 -56 152.5 -56t201 29 t201.5 59l86 33v457l-486 -20q-218 -8 -218 -219v-112zM517 1206l243 267h52l-266 -267h-29z" />
<glyph unicode="&#xe2;" horiz-adv-x="1042" d="M109 253v122q0 127 71 197t195 70h365h121q2 67 2 100t-2 35q0 265 -273 265q-144 0 -446 -46v27q253 62 467 63q130 0 215 -76.5t85 -232.5v-777h-30l-18 128l-32 -13q-289 -127 -454 -127q-114 0 -190 70t-76 195zM157 263q0 -117 63 -171q69 -56 152.5 -56t201 29 t201.5 59l86 33v457l-486 -20q-218 -8 -218 -219v-112zM267 1206l265 261h40l240 -261h-35l-225 231l-249 -231h-36z" />
<glyph unicode="&#xe3;" horiz-adv-x="1042" d="M109 253v122q0 127 71 197t195 70h365h121q2 67 2 100t-2 35q0 265 -273 265q-144 0 -446 -46v27q253 62 467 63q130 0 215 -76.5t85 -232.5v-777h-30l-18 128l-32 -13q-289 -127 -454 -127q-114 0 -190 70t-76 195zM157 263q0 -117 63 -171q69 -56 152.5 -56t201 29 t201.5 59l86 33v457l-486 -20q-218 -8 -218 -219v-112zM191 1289q84 72 130.5 94t84.5 22t129 -73.5t122 -73.5q72 0 200 107l12 -15q-40 -40 -66 -61q-73 -62 -146 -63q-45 0 -134.5 73.5t-112.5 73.5t-37.5 -2t-31 -9.5t-26.5 -11t-30 -16.5t-27 -18.5t-30 -22t-29 -21.5z " />
<glyph unicode="&#xe4;" horiz-adv-x="1042" d="M109 253v122q0 127 71 197t195 70h365h121q2 67 2 100t-2 35q0 265 -273 265q-144 0 -446 -46v27q253 62 467 63q130 0 215 -76.5t85 -232.5v-777h-30l-18 128l-32 -13q-289 -127 -454 -127q-114 0 -190 70t-76 195zM157 263q0 -117 63 -171q69 -56 152.5 -56t201 29 t201.5 59l86 33v457l-486 -20q-218 -8 -218 -219v-112zM249 1307.5q0 35.5 34.5 35.5t34.5 -35.5t-34.5 -35.5t-34.5 35.5zM759 1308q0 35 35 35t35 -35.5t-34 -35.5q-16 0 -26 10.5t-10 25.5z" />
<glyph unicode="&#xe5;" horiz-adv-x="1042" d="M109 253v122q0 127 71 197t195 70h365h121q2 67 2 100t-2 35q0 265 -273 265q-144 0 -446 -46v27q253 62 467 63q130 0 215 -76.5t85 -232.5v-777h-30l-18 128l-32 -13q-289 -127 -454 -127q-114 0 -190 70t-76 195zM157 263q0 -117 63 -171q69 -56 152.5 -56t201 29 t201.5 59l86 33v457l-486 -20q-218 -8 -218 -219v-112zM327 1350.5q0 86.5 60.5 146.5t144.5 60t142.5 -60t58.5 -146.5t-58.5 -145.5t-142.5 -59t-144.5 59t-60.5 145.5zM355 1351q0 -72 52.5 -123.5t124.5 -51.5t122.5 51.5t50.5 123.5t-50.5 124.5t-122.5 52.5 t-124.5 -52.5t-52.5 -124.5z" />
<glyph unicode="&#xe6;" horiz-adv-x="1783" d="M109 253v58q0 126 71 196.5t195 70.5h365h121q2 98 2 147.5t-2 51.5q0 265 -273 265q-144 0 -446 -46v27q253 62 469 63q103 0 182.5 -52.5t106.5 -160.5q28 115 115.5 157t252.5 42q213 0 266 -28q82 -42 104 -100q38 -90 38 -212.5t-67 -164t-208 -41.5h-490 q-2 -56 -2 -106.5t3 -112.5t13 -117.5t44.5 -89t89.5 -48.5q163 -40 597 24v-32q-199 -56 -442 -56q-186 0 -255 56q-32 29 -43.5 42.5t-24.5 39.5l-36 -13q-309 -125 -480 -125q-114 0 -190 70t-76 195zM157 263q0 -117 63 -171q69 -56 151.5 -56t201 33t202.5 67l86 35 v371l-486 -12q-218 -6 -218 -219v-48zM911 572h490q177 0 211 66q16 32 16 94.5t-8 115t-31.5 86t-44.5 52t-71 25.5q-78 12 -203 12q-222 0 -288.5 -84t-70.5 -367z" />
<glyph unicode="&#xe7;" horiz-adv-x="1005" d="M136 534.5q0 168.5 24 279.5t74.5 166.5t109 75.5t184 20t355.5 -53v-27q-219 32 -346 32t-176.5 -18t-91.5 -71q-85 -98 -85 -413q0 -297 89 -400q43 -50 93 -69t126 -19q147 0 345 33l63 9v-32q-197 -56 -414 -58q-82 0 -139.5 20t-109 75t-76.5 168t-25 281.5z M319 -329l66 10q48 7 72.5 15.5t50.5 32.5t34 69t8 81.5v49.5h34q0 -154 -40 -213t-163 -59h-62v14z" />
<glyph unicode="&#xe8;" horiz-adv-x="1055" d="M136.5 518q0.5 281 56.5 411q46 107 192 134q60 10 150.5 10.5t142.5 -5t109.5 -26.5t87.5 -58q73 -90 73 -287q0 -113 -67 -154t-207 -41h-490q0 -293 86 -385q45 -46 94.5 -62.5t170 -16.5t392.5 40v-32q-203 -56 -425 -56q-215 0 -290.5 123.5t-75 404.5zM184 548h490 q169 0 207 66q18 33 18.5 113t-21 147.5t-71.5 100t-107.5 42t-182 9.5t-195.5 -33.5t-104.5 -133.5t-33.5 -311zM291 1453h52l243 -267h-28z" />
<glyph unicode="&#xe9;" horiz-adv-x="1055" d="M136.5 518q0.5 281 56.5 411q46 107 192 134q60 10 150.5 10.5t142.5 -5t109.5 -26.5t87.5 -58q73 -90 73 -287q0 -113 -67 -154t-207 -41h-490q0 -293 86 -385q45 -46 94.5 -62.5t170 -16.5t392.5 40v-32q-203 -56 -425 -56q-215 0 -290.5 123.5t-75 404.5zM184 548h490 q169 0 207 66q18 33 18.5 113t-21 147.5t-71.5 100t-107.5 42t-182 9.5t-195.5 -33.5t-104.5 -133.5t-33.5 -311zM546 1186l243 267h52l-267 -267h-28z" />
<glyph unicode="&#xea;" horiz-adv-x="1055" d="M136.5 518q0.5 281 56.5 411q46 107 192 134q60 10 150.5 10.5t142.5 -5t109.5 -26.5t87.5 -58q73 -90 73 -287q0 -113 -67 -154t-207 -41h-490q0 -293 86 -385q45 -46 94.5 -62.5t170 -16.5t392.5 40v-32q-203 -56 -425 -56q-215 0 -290.5 123.5t-75 404.5zM184 548h490 q169 0 207 66q18 33 18.5 113t-21 147.5t-71.5 100t-107.5 42t-182 9.5t-195.5 -33.5t-104.5 -133.5t-33.5 -311zM270 1186l266 261h40l241 -261h-36l-225 231l-249 -231h-37z" />
<glyph unicode="&#xeb;" horiz-adv-x="1055" d="M136.5 518q0.5 281 56.5 411q46 107 192 134q60 10 150.5 10.5t142.5 -5t109.5 -26.5t87.5 -58q73 -90 73 -287q0 -113 -67 -154t-207 -41h-490q0 -293 86 -385q45 -46 94.5 -62.5t170 -16.5t392.5 40v-32q-203 -56 -425 -56q-215 0 -290.5 123.5t-75 404.5zM184 548h490 q169 0 207 66q18 33 18.5 113t-21 147.5t-71.5 100t-107.5 42t-182 9.5t-195.5 -33.5t-104.5 -133.5t-33.5 -311zM267 1287.5q0 35.5 34 35.5t34 -35.5t-34 -35.5t-34 35.5zM777 1289q0 34 35 34t35 -35.5t-35 -35.5q-13 0 -24 10.5t-11 26.5z" />
<glyph unicode="&#xec;" horiz-adv-x="372" d="M-94 1463h52l243 -266h-29zM163 0v1065h48v-1065h-48z" />
<glyph unicode="&#xed;" horiz-adv-x="372" d="M163 0v1065h48v-1065h-48zM172 1197l244 266h51l-266 -266h-29z" />
<glyph unicode="&#xee;" horiz-adv-x="372" d="M-86 1197l264 260h41l241 -260h-37l-224 230l-249 -230h-36zM163 0v1065h48v-1065h-48z" />
<glyph unicode="&#xef;" horiz-adv-x="372" d="M-104 1232.5q0 16.5 10 25t25 8.5t24 -8.5t9 -22t-4 -21.5q-8 -17 -26 -17t-28 9.5t-10 26zM163 0v1065h48v-1065h-48zM406 1231.5q0 15.5 10.5 25t26 9.5t25 -8.5t9.5 -22t-6 -21.5q-7 -17 -25.5 -17t-29 9.5t-10.5 25z" />
<glyph unicode="&#xf0;" horiz-adv-x="1082" d="M109 525q0 274 80.5 407t276.5 133h140q114 0 187.5 -45t93.5 -87q-54 289 -205 440l-322 -128l-11 27l310 123q-157 132 -382 135v42q255 0 430 -159l256 102l12 -27l-245 -97q237 -251 237 -861q0 -285 -94 -407.5t-267 -122.5h-140q-201 0 -279 125.5t-78 399.5z M157 528.5q0 -147.5 20 -243.5t62 -146.5t95 -68.5t132 -18h140q184 0 253 141q60 128 60 337q0 271 -78 381q-33 45 -93 75.5t-142 30.5h-140q-73 0 -125 -20t-96 -71t-66 -150.5t-22 -247z" />
<glyph unicode="&#xf1;" d="M163 0v1065h28l20 -123q216 142 433 142q153 0 241 -100.5t88 -240.5v-743h-48v743q0 124 -76.5 208.5t-203 84.5t-220.5 -28.5t-214 -94.5v-913h-48zM228 1266q85 73 131.5 95t84.5 22t129 -73t122 -73q72 0 200 106l12 -14q-40 -40 -68 -65q-71 -60 -144 -60 q-44 0 -134 73t-113 73t-38 -1.5t-30.5 -8.5t-26 -11t-30.5 -17.5t-27 -18t-30 -22t-29 -21.5z" />
<glyph unicode="&#xf2;" horiz-adv-x="1149" d="M136 530.5q0 308.5 96.5 427t344.5 118.5t343 -132t95 -427t-95 -411t-348.5 -116t-344.5 116t-91 424.5zM184 525q0 -163 23.5 -260.5t77.5 -145.5t118 -64.5t169.5 -16.5t172.5 18t122 68q100 98 100 393q0 316 -108 418q-53 54 -119 73.5t-167.5 19.5t-163.5 -15 t-118 -64t-81.5 -155t-25.5 -269zM293 1463h52l243 -266h-28z" />
<glyph unicode="&#xf3;" horiz-adv-x="1149" d="M136 530.5q0 308.5 96.5 427t344.5 118.5t343 -132t95 -427t-95 -411t-348.5 -116t-344.5 116t-91 424.5zM184 525q0 -163 23.5 -260.5t77.5 -145.5t118 -64.5t169.5 -16.5t172.5 18t122 68q100 98 100 393q0 316 -108 418q-53 54 -119 73.5t-167.5 19.5t-163.5 -15 t-118 -64t-81.5 -155t-25.5 -269zM560 1197l243 266h52l-267 -266h-28z" />
<glyph unicode="&#xf4;" horiz-adv-x="1149" d="M136 530.5q0 308.5 96.5 427t344.5 118.5t343 -132t95 -427t-95 -411t-348.5 -116t-344.5 116t-91 424.5zM184 525q0 -163 23.5 -260.5t77.5 -145.5t118 -64.5t169.5 -16.5t172.5 18t122 68q100 98 100 393q0 316 -108 418q-53 54 -119 73.5t-167.5 19.5t-163.5 -15 t-118 -64t-81.5 -155t-25.5 -269zM301 1197l265 260h40l241 -260h-37l-224 230l-249 -230h-36z" />
<glyph unicode="&#xf5;" horiz-adv-x="1149" d="M136 530.5q0 308.5 96.5 427t344.5 118.5t343 -132t95 -427t-95 -411t-348.5 -116t-344.5 116t-91 424.5zM184 525q0 -163 23.5 -260.5t77.5 -145.5t118 -64.5t169.5 -16.5t172.5 18t122 68q100 98 100 393q0 316 -108 418q-53 54 -119 73.5t-167.5 19.5t-163.5 -15 t-118 -64t-81.5 -155t-25.5 -269zM235 1258q84 73 130.5 95t84.5 22t129 -73.5t122 -73.5q72 0 201 107l11 -14q-40 -40 -66 -65q-73 -59 -146 -59q-44 0 -134 73t-113 73t-37.5 -2t-31 -9t-26.5 -11.5t-30 -17t-27 -17.5t-30 -22t-29 -21z" />
<glyph unicode="&#xf6;" horiz-adv-x="1149" d="M136 530.5q0 308.5 96.5 427t344.5 118.5t343 -132t95 -427t-95 -411t-348.5 -116t-344.5 116t-91 424.5zM184 525q0 -163 23.5 -260.5t77.5 -145.5t118 -64.5t169.5 -16.5t172.5 18t122 68q100 98 100 393q0 316 -108 418q-53 54 -119 73.5t-167.5 19.5t-163.5 -15 t-118 -64t-81.5 -155t-25.5 -269zM285 1235.5q0 13.5 9 22t24 8.5t25 -8.5t10 -22t-5 -21.5t-13 -12.5t-17 -4.5t-17 4.5t-12 12.5t-4 21.5zM795 1229.5q0 13.5 4 20.5q9 16 28 16q36 0 36 -34q0 -23 -12 -29t-24.5 -6t-22 9.5t-9.5 23z" />
<glyph unicode="&#xf7;" horiz-adv-x="1105" d="M136 684v49h835v-49h-835zM526 319v85q0 24 24 23h22q25 0 24 -23v-85q0 -24 -24 -24h-22q-24 0 -24 24zM526 992v86q0 24 24 24h22q25 0 24 -24v-86q0 -23 -24 -23h-22q-24 0 -24 23z" />
<glyph unicode="&#xf8;" horiz-adv-x="1149" d="M136.5 525q-0.5 314 96 432.5t324.5 118.5t328 -92l63 81h36l-78 -104q110 -124 109.5 -431.5t-95.5 -423.5t-333 -116t-336 90l-58 -80h-36l74 100q-94 111 -94.5 425zM184 517q0 -266 79 -373l594 802q-83 82 -283 82q-102 0 -164.5 -15t-118.5 -65q-107 -95 -107 -431 zM281 121q81 -83 293 -83q104 0 170 17.5t121 66.5q102 95 102 389t-92 412z" />
<glyph unicode="&#xf9;" d="M136 325v743h48v-743q0 -124 76.5 -208.5t203 -84.5t221 28t215.5 95v913h48v-1066h-29l-19 124q-217 -142 -434 -142q-153 0 -241.5 100.5t-88.5 240.5zM261 1463h52l243 -266h-28z" />
<glyph unicode="&#xfa;" d="M136 325v743h48v-743q0 -124 76.5 -208.5t203 -84.5t221 28t215.5 95v913h48v-1066h-29l-19 124q-217 -142 -434 -142q-153 0 -241.5 100.5t-88.5 240.5zM528 1197l242 266h53l-267 -266h-28z" />
<glyph unicode="&#xfb;" d="M136 325v743h48v-743q0 -124 76.5 -208.5t203 -84.5t221 28t215.5 95v913h48v-1066h-29l-19 124q-217 -142 -434 -142q-153 0 -241.5 100.5t-88.5 240.5zM269 1197l265 260h40l240 -260h-35l-225 230l-249 -230h-36z" />
<glyph unicode="&#xfc;" d="M136 325v743h48v-743q0 -124 76.5 -208.5t203 -84.5t221 28t215.5 95v913h48v-1066h-29l-19 124q-217 -142 -434 -142q-153 0 -241.5 100.5t-88.5 240.5zM253 1232.5q0 16.5 8.5 25t24 8.5t25.5 -8.5t10 -22t-5 -21.5q-8 -17 -27 -17t-27.5 9.5t-8.5 26zM762 1229.5 q0 13.5 4 20.5q10 16 29 16q36 0 36 -34q0 -23 -12 -29t-24 -6t-22.5 9.5t-10.5 23z" />
<glyph unicode="&#xfd;" horiz-adv-x="1061" d="M56 1065h53l297 -832q66 -182 203 -183l343 1015h50l-468 -1402l-92 -205h-25l175 542q-169 8 -234 220zM514 1197l245 266h51l-268 -266h-28z" />
<glyph unicode="&#xfe;" horiz-adv-x="1127" d="M189 -542v2112h48v-624q48 36 194.5 87t241.5 51t166.5 -46t108.5 -127q72 -154 71 -375q0 -307 -92 -440q-36 -50 -102 -83t-150.5 -33t-217 21.5t-220.5 56.5v-600h-48zM237 86q207 -58 433 -58q161 0 231 122.5t70 381.5t-81.5 381.5t-219.5 122.5q-26 0 -56 -4 t-53 -7.5t-59 -14t-53.5 -15.5t-59.5 -20.5t-51 -18t-54 -21t-47 -18.5v-831z" />
<glyph unicode="&#xff;" horiz-adv-x="1061" d="M56 1065h53l297 -832q66 -182 203 -183l343 1015h50l-468 -1402l-92 -205h-25l175 542q-169 8 -234 220zM239 1231.5q0 34.5 34 34.5t34 -34.5t-34 -34.5t-34 34.5zM749 1232q0 34 35 34t35 -34.5t-34 -34.5q-14 0 -25 9.5t-11 25.5z" />
<glyph unicode="&#x100;" horiz-adv-x="1322" d="M122 0l550 1469h69l525 -1469h-52l-182 508h-668l-190 -508h-52zM381 556h632l-306 865zM454 1599v31h505v-31h-505z" />
<glyph unicode="&#x101;" horiz-adv-x="1042" d="M109 253v122q0 127 71 197t195 70h365h121q2 67 2 100t-2 35q0 265 -273 265q-144 0 -446 -46v27q253 62 467 63q130 0 215 -76.5t85 -232.5v-777h-30l-18 128l-32 -13q-289 -127 -454 -127q-114 0 -190 70t-76 195zM157 263q0 -117 63 -171q69 -56 152.5 -56t201 29 t201.5 59l86 33v457l-486 -20q-218 -8 -218 -219v-112zM279 1206v31h506v-31h-506z" />
<glyph unicode="&#x102;" horiz-adv-x="1322" d="M122 0l550 1469h69l525 -1469h-52l-182 508h-668l-190 -508h-52zM381 556h632l-306 865zM492 1829h27q0 -85 58.5 -143t136.5 -58q93 0 152 57t59 144h29q0 -107 -72 -168.5t-161 -61.5t-159 64t-70 166z" />
<glyph unicode="&#x103;" horiz-adv-x="1042" d="M109 253v122q0 127 71 197t195 70h365h121q2 67 2 100t-2 35q0 265 -273 265q-144 0 -446 -46v27q253 62 467 63q130 0 215 -76.5t85 -232.5v-777h-30l-18 128l-32 -13q-289 -127 -454 -127q-114 0 -190 70t-76 195zM157 263q0 -117 63 -171q69 -56 152.5 -56t201 29 t201.5 59l86 33v457l-486 -20q-218 -8 -218 -219v-112zM311 1435h28q0 -85 59.5 -142.5t137.5 -57.5q92 0 150.5 56.5t58.5 143.5h27q0 -107 -70 -168t-160 -61t-160.5 63.5t-70.5 165.5z" />
<glyph unicode="&#x104;" horiz-adv-x="1322" d="M122 0l550 1469h69l525 -1469h-52l-182 508h-668l-190 -508h-52zM381 556h632l-306 865zM1065 -187.5q0 49.5 39.5 99.5t125.5 88h24q-64 -26 -107.5 -73.5t-43.5 -117.5q0 -23 16.5 -59.5t69 -60.5t119.5 -24h11v-29q-20 -2 -52 -2t-83.5 18.5t-81.5 60.5 q-37 50 -37 99.5z" />
<glyph unicode="&#x105;" horiz-adv-x="1125" d="M147 253v122q0 127 71 197t196 70h364h122v100v35q0 265 -274 265q-144 0 -446 -46v27q253 62 466 63q130 0 216 -76.5t86 -232.5v-777h-31l-17 128l-33 -13q-289 -127 -453 -127q-115 0 -191 70t-76 195zM195 263q0 -117 66 -171q66 -56 149.5 -56t200.5 29t203 59 l86 33v457l-486 -20q-219 -8 -219 -219v-112zM757 -189.5q0 30.5 22 72.5q38 71 144 117h25q-81 -32 -117 -87t-36 -110.5t60 -96.5t147 -41h9v-29q-19 -2 -59.5 -2t-99.5 32.5t-86 88.5q-9 25 -9 55.5z" />
<glyph unicode="&#x106;" horiz-adv-x="1143" d="M149 739q0 186 18.5 313.5t71.5 232.5q102 201 397 201q171 0 429 -49v-28q-28 4 -52.5 6t-58 5t-72.5 6t-79 5q-121 6 -167 6q-157 0 -247 -56q-193 -121 -192 -646q0 -699 441 -699q186 0 367 18l60 6v-28q-237 -44 -429 -44q-487 0 -487 751zM636 1605l243 268h52 l-267 -268h-28z" />
<glyph unicode="&#x107;" horiz-adv-x="1005" d="M136 534.5q0 168.5 24 279.5t74.5 166.5t109 75.5t184 20t355.5 -53v-27q-219 32 -346 32t-176.5 -18t-91.5 -71q-85 -98 -85 -413q0 -297 89 -400q43 -50 93 -69t126 -19q147 0 345 33l63 9v-32q-197 -56 -414 -58q-82 0 -139.5 20t-109 75t-76.5 168t-25 281.5z M532 1197l243 266h52l-267 -266h-28z" />
<glyph unicode="&#x108;" horiz-adv-x="1143" d="M149 739q0 186 18.5 313.5t71.5 232.5q102 201 397 201q171 0 429 -49v-28q-28 4 -52.5 6t-58 5t-72.5 6t-79 5q-121 6 -167 6q-157 0 -247 -56q-193 -121 -192 -646q0 -699 441 -699q186 0 367 18l60 6v-28q-237 -44 -429 -44q-487 0 -487 751zM398 1605l264 262h41 l241 -262h-37l-225 232l-249 -232h-35z" />
<glyph unicode="&#x109;" horiz-adv-x="1005" d="M136 534.5q0 168.5 24 279.5t74.5 166.5t109 75.5t184 20t355.5 -53v-27q-219 32 -346 32t-176.5 -18t-91.5 -71q-85 -98 -85 -413q0 -297 89 -400q43 -50 93 -69t126 -19q147 0 345 33l63 9v-32q-197 -56 -414 -58q-82 0 -139.5 20t-109 75t-76.5 168t-25 281.5z M267 1197l265 260h40l240 -260h-35l-225 230l-249 -230h-36z" />
<glyph unicode="&#x10a;" horiz-adv-x="1143" d="M149 739q0 186 18.5 313.5t71.5 232.5q102 201 397 201q171 0 429 -49v-28q-28 4 -52.5 6t-58 5t-72.5 6t-79 5q-121 6 -167 6q-157 0 -247 -56q-193 -121 -192 -646q0 -699 441 -699q186 0 367 18l60 6v-28q-237 -44 -429 -44q-487 0 -487 751zM662 1630v124q0 25 24 25 h21q24 0 23 -25v-124q0 -25 -23 -25h-21q-24 0 -24 25z" />
<glyph unicode="&#x10b;" horiz-adv-x="1005" d="M136 534.5q0 168.5 24 279.5t74.5 166.5t109 75.5t184 20t355.5 -53v-27q-219 32 -346 32t-176.5 -18t-91.5 -71q-85 -98 -85 -413q0 -297 89 -400q43 -50 93 -69t126 -19q147 0 345 33l63 9v-32q-197 -56 -414 -58q-82 0 -139.5 20t-109 75t-76.5 168t-25 281.5z M517 1220v125q0 24 25 24h24q25 0 24 -24v-125q0 -24 -24 -23h-24q-25 -1 -25 23z" />
<glyph unicode="&#x10c;" horiz-adv-x="1143" d="M149 739q0 186 18.5 313.5t71.5 232.5q102 201 397 201q171 0 429 -49v-28q-28 4 -52.5 6t-58 5t-72.5 6t-79 5q-121 6 -167 6q-157 0 -247 -56q-193 -121 -192 -646q0 -699 441 -699q186 0 367 18l60 6v-28q-237 -44 -429 -44q-487 0 -487 751zM408 1867h32l226 -231 l251 231h37l-266 -262h-44z" />
<glyph unicode="&#x10d;" horiz-adv-x="1005" d="M136 534.5q0 168.5 24 279.5t74.5 166.5t109 75.5t184 20t355.5 -53v-27q-219 32 -346 32t-176.5 -18t-91.5 -71q-85 -98 -85 -413q0 -297 89 -400q43 -50 93 -69t126 -19q147 0 345 33l63 9v-32q-197 -56 -414 -58q-82 0 -139.5 20t-109 75t-76.5 168t-25 281.5z M299 1457h32l227 -231l250 231h37l-265 -260h-44z" />
<glyph unicode="&#x10e;" horiz-adv-x="1346" d="M217 0v1469h507q131 0 228.5 -49t151.5 -123.5t89 -178.5q52 -168 52 -344t-30.5 -300.5t-90 -233t-163.5 -174.5t-237 -66h-507zM265 48h459q121 0 215.5 64t148.5 167q109 205 109 451q0 347 -121.5 519t-351.5 172h-459v-1373zM444 1850h31l228 -230l251 230h36 l-266 -260h-44z" />
<glyph unicode="&#x10f;" d="M136 528q0 554 370 554q74 0 190 -22t208 -58v574h42v-1576h-27l-19 119q-44 -41 -171 -86t-227 -45t-175.5 48t-113.5 131q-77 158 -77 361zM184.5 552.5q-0.5 -279.5 90.5 -398t231 -118.5q176 0 394 111v826q-232 60 -394 61q-71 0 -123 -21t-100 -74 q-98 -107 -98.5 -386.5zM1074 1435v135h50v-135l-12 -269h-24z" />
<glyph unicode="&#x110;" horiz-adv-x="1346" d="M86 735v27h131v707h488q130 0 227.5 -49t151.5 -123.5t88 -178.5q52 -168 52 -344t-30 -300.5t-89 -233t-163.5 -174.5t-236.5 -66h-488v735h-131zM265 48h440q120 0 214 64t149 167q109 205 108 451q0 347 -121.5 519t-349.5 172h-440v-659h319v-27h-319v-687z" />
<glyph unicode="&#x111;" d="M136 528q0 554 372 554q74 0 189 -22t207 -58v285h-266v27h266v262h44v-262h166v-27h-166v-1287h-27l-19 119q-44 -41 -171 -86t-227 -45t-175.5 48t-115.5 131q-77 156 -77 361zM184 545.5q0 -264.5 92.5 -387t231.5 -122.5q176 0 394 111v826q-232 60 -386 60.5 t-243 -111.5t-89 -376.5z" />
<glyph unicode="&#x112;" horiz-adv-x="1167" d="M217 247v961q0 139 70.5 200t170.5 61h11l596 -20v-28h-596q-204 0 -204 -213v-455l721 -10v-29l-721 -9v-458q0 -125 60 -165t165 -40h575v-28l-573 -20h-38.5t-65.5 7t-83 31q-88 52 -88 215zM417 1595v31h506v-31h-506z" />
<glyph unicode="&#x113;" horiz-adv-x="1055" d="M136.5 518q0.5 281 56.5 411q46 107 192 134q60 10 150.5 10.5t142.5 -5t109.5 -26.5t87.5 -58q73 -90 73 -287q0 -113 -67 -154t-207 -41h-490q0 -293 86 -385q45 -46 94.5 -62.5t170 -16.5t392.5 40v-32q-203 -56 -425 -56q-215 0 -290.5 123.5t-75 404.5zM184 548h490 q169 0 207 66q18 33 18.5 113t-21 147.5t-71.5 100t-107.5 42t-182 9.5t-195.5 -33.5t-104.5 -133.5t-33.5 -311zM289 1197v29h506v-29h-506z" />
<glyph unicode="&#x116;" horiz-adv-x="1167" d="M217 247v961q0 139 70.5 200t170.5 61h11l596 -20v-28h-596q-204 0 -204 -213v-455l721 -10v-29l-721 -9v-458q0 -125 60 -165t165 -40h575v-28l-573 -20h-38.5t-65.5 7t-83 31q-88 52 -88 215zM636 1624v124q0 25 25 24h21q25 0 25 -24v-124q0 -25 -25 -25h-21 q-25 0 -25 25z" />
<glyph unicode="&#x117;" horiz-adv-x="1055" d="M136.5 518q0.5 281 56.5 411q46 107 192 134q60 10 150.5 10.5t142.5 -5t109.5 -26.5t87.5 -58q73 -90 73 -287q0 -113 -67 -154t-207 -41h-490q0 -293 86 -385q45 -46 94.5 -62.5t170 -16.5t392.5 40v-32q-203 -56 -425 -56q-215 0 -290.5 123.5t-75 404.5zM184 548h490 q169 0 207 66q18 33 18.5 113t-21 147.5t-71.5 100t-107.5 42t-182 9.5t-195.5 -33.5t-104.5 -133.5t-33.5 -311zM546 1220v125q0 24 24 24h24q24 0 24 -24v-125q0 -24 -24 -23h-24q-24 -1 -24 23z" />
<glyph unicode="&#x118;" horiz-adv-x="1167" d="M217 247v961q0 139 70.5 200t170.5 61h11l596 -20v-28h-596q-204 0 -204 -213v-455l721 -10v-29l-721 -9v-458q0 -125 60 -165t165 -40h575v-28l-573 -20h-38.5t-65.5 7t-83 31q-88 52 -88 215zM877 -171q0 49 39.5 98.5t125.5 88.5h23q-64 -27 -107 -73.5t-43 -118.5 q0 -23 16.5 -58.5t68.5 -60t120 -24.5h10v-28q-20 -4 -52 -4t-83 19t-82 62q-36 50 -36 99z" />
<glyph unicode="&#x119;" horiz-adv-x="1055" d="M136.5 518q0.5 281 56.5 411q46 107 192 134q60 10 150.5 10.5t142.5 -5t109.5 -26.5t87.5 -58q73 -90 73 -287q0 -113 -67 -154t-207 -41h-490q0 -293 86 -385q45 -46 94.5 -62.5t170 -16.5t392.5 40v-32q-203 -56 -425 -56q-215 0 -290.5 123.5t-75 404.5zM184 548h490 q169 0 207 66q18 33 18.5 113t-21 147.5t-71.5 100t-107.5 42t-182 9.5t-195.5 -33.5t-104.5 -133.5t-33.5 -311zM737 -143.5q0 30.5 22 72.5q38 71 145 117h23q-80 -32 -116 -87t-36 -110.5t60 -96.5t146 -41h11v-29q-20 -1 -60.5 -1t-100 32t-84.5 90q-10 23 -10 53.5z " />
<glyph unicode="&#x11a;" horiz-adv-x="1167" d="M217 247v961q0 139 70.5 200t170.5 61h11l596 -20v-28h-596q-204 0 -204 -213v-455l721 -10v-29l-721 -9v-458q0 -125 60 -165t165 -40h575v-28l-573 -20h-38.5t-65.5 7t-83 31q-88 52 -88 215zM412 1850h32l226 -230l251 230h36l-264 -260h-44z" />
<glyph unicode="&#x11b;" horiz-adv-x="1055" d="M136.5 518q0.5 281 56.5 411q46 107 192 134q60 10 150.5 10.5t142.5 -5t109.5 -26.5t87.5 -58q73 -90 73 -287q0 -113 -67 -154t-207 -41h-490q0 -293 86 -385q45 -46 94.5 -62.5t170 -16.5t392.5 40v-32q-203 -56 -425 -56q-215 0 -290.5 123.5t-75 404.5zM184 548h490 q169 0 207 66q18 33 18.5 113t-21 147.5t-71.5 100t-107.5 42t-182 9.5t-195.5 -33.5t-104.5 -133.5t-33.5 -311zM307 1457h32l227 -231l251 231h36l-265 -260h-44z" />
<glyph unicode="&#x11c;" horiz-adv-x="1243" d="M149 730.5q0 108.5 3 181t13.5 153.5t29 139t51.5 114.5t79 90.5q100 77 285 77t476 -55v-38l-86 12q-263 33 -387.5 32.5t-195 -32.5t-112.5 -87.5t-68 -145.5q-40 -151 -40 -433q0 -385 83.5 -543t315.5 -158q138 0 392 75l84 25v592h-430v29q80 22 243 22t235 -6v-775 h-28l-16 109q-65 -35 -212.5 -77t-257.5 -42t-186.5 24t-124.5 78.5t-78.5 115.5t-44 155.5t-18.5 176.5t-5 190.5zM383 1605l266 262h39l241 -262h-36l-225 232l-249 -232h-36z" />
<glyph unicode="&#x11d;" horiz-adv-x="1147" d="M122 -44l25 211q-19 24 -19 74t44.5 92t126.5 44q-175 71 -175 314q0 199 81.5 289t263.5 90h627v-28l-223 -21q123 -88 123 -330q0 -113 -59 -218q-32 -56 -102.5 -91t-170.5 -35h-313q-38 0 -86 -14q-93 -26 -93 -100q0 -54 53.5 -83t107.5 -29h414q138 0 214.5 -72.5 t76.5 -195.5v-106q0 -289 -301 -289h-302q-144 0 -228.5 81.5t-84.5 227.5v189zM172 132v-365q0 -79 29.5 -134.5t75.5 -82.5q81 -44 158 -44h302q253 0 253 241v106q0 98 -57.5 159.5t-185.5 61.5h-410q-48 0 -89 15t-59 30zM172 691q0 -293 284 -293h205q150 0 218.5 83 t68.5 226.5t-59.5 228.5t-141.5 85h-297q-157 0 -217.5 -84.5t-60.5 -245.5zM295 1199l265 260h40l241 -260h-36l-225 230l-249 -230h-36z" />
<glyph unicode="&#x11e;" horiz-adv-x="1243" d="M149 730.5q0 108.5 3 181t13.5 153.5t29 139t51.5 114.5t79 90.5q100 77 285 77t476 -55v-38l-86 12q-263 33 -387.5 32.5t-195 -32.5t-112.5 -87.5t-68 -145.5q-40 -151 -40 -433q0 -385 83.5 -543t315.5 -158q138 0 392 75l84 25v592h-430v29q80 22 243 22t235 -6v-775 h-28l-16 109q-65 -35 -212.5 -77t-257.5 -42t-186.5 24t-124.5 78.5t-78.5 115.5t-44 155.5t-18.5 176.5t-5 190.5zM456 1835h28q0 -85 58 -143t136 -58q92 0 151.5 57t59.5 144h28q0 -107 -71 -168.5t-160.5 -61.5t-159.5 64t-70 166z" />
<glyph unicode="&#x11f;" horiz-adv-x="1147" d="M122 -44l25 211q-19 24 -19 74t44.5 92t126.5 44q-175 71 -175 314q0 199 81.5 289t263.5 90h627v-28l-223 -21q123 -88 123 -330q0 -113 -59 -218q-32 -56 -102.5 -91t-170.5 -35h-313q-38 0 -86 -14q-93 -26 -93 -100q0 -54 53.5 -83t107.5 -29h414q138 0 214.5 -72.5 t76.5 -195.5v-106q0 -289 -301 -289h-302q-144 0 -228.5 81.5t-84.5 227.5v189zM172 132v-365q0 -79 29.5 -134.5t75.5 -82.5q81 -44 158 -44h302q253 0 253 241v106q0 98 -57.5 159.5t-185.5 61.5h-410q-48 0 -89 15t-59 30zM172 691q0 -293 284 -293h205q150 0 218.5 83 t68.5 226.5t-59.5 228.5t-141.5 85h-297q-157 0 -217.5 -84.5t-60.5 -245.5zM329 1425h29q0 -84 57.5 -142.5t136.5 -58.5q92 0 151 57.5t59 143.5h29q0 -107 -71 -167.5t-161 -60.5t-160 63t-70 165z" />
<glyph unicode="&#x120;" horiz-adv-x="1243" d="M149 730.5q0 108.5 3 181t13.5 153.5t29 139t51.5 114.5t79 90.5q100 77 285 77t476 -55v-38l-86 12q-263 33 -387.5 32.5t-195 -32.5t-112.5 -87.5t-68 -145.5q-40 -151 -40 -433q0 -385 83.5 -543t315.5 -158q138 0 392 75l84 25v592h-430v29q80 22 243 22t235 -6v-775 h-28l-16 109q-65 -35 -212.5 -77t-257.5 -42t-186.5 24t-124.5 78.5t-78.5 115.5t-44 155.5t-18.5 176.5t-5 190.5zM651 1630v124q0 25 23 25h25q24 0 23 -25v-124q0 -25 -23 -25h-25q-23 0 -23 25z" />
<glyph unicode="&#x121;" horiz-adv-x="1147" d="M122 -44l25 211q-19 24 -19 74t44.5 92t126.5 44q-175 71 -175 314q0 199 81.5 289t263.5 90h627v-28l-223 -21q123 -88 123 -330q0 -113 -59 -218q-32 -56 -102.5 -91t-170.5 -35h-313q-38 0 -86 -14q-93 -26 -93 -100q0 -54 53.5 -83t107.5 -29h414q138 0 214.5 -72.5 t76.5 -195.5v-106q0 -289 -301 -289h-302q-144 0 -228.5 81.5t-84.5 227.5v189zM172 132v-365q0 -79 29.5 -134.5t75.5 -82.5q81 -44 158 -44h302q253 0 253 241v106q0 98 -57.5 159.5t-185.5 61.5h-410q-48 0 -89 15t-59 30zM172 691q0 -293 284 -293h205q150 0 218.5 83 t68.5 226.5t-59.5 228.5t-141.5 85h-297q-157 0 -217.5 -84.5t-60.5 -245.5zM542 1220v125q0 24 24 24h24q24 0 24 -24v-125q0 -24 -24 -23h-24q-24 -1 -24 23z" />
<glyph unicode="&#x122;" horiz-adv-x="1243" d="M149 730.5q0 108.5 3 181t13.5 153.5t29 139t51.5 114.5t79 90.5q100 77 285 77t476 -55v-38l-86 12q-263 33 -387.5 32.5t-195 -32.5t-112.5 -87.5t-68 -145.5q-40 -151 -40 -433q0 -385 83.5 -543t315.5 -158q138 0 392 75l84 25v592h-430v29q80 22 243 22t235 -6v-775 h-28l-16 109q-65 -35 -212.5 -77t-257.5 -42t-186.5 24t-124.5 78.5t-78.5 115.5t-44 155.5t-18.5 176.5t-5 190.5zM632 -144q0 22 23 22h17q23 0 23 -22v-203q0 -32 -14.5 -45.5t-22 -13.5t-22.5 2v11q28 0 28 27v85h-9q-23 0 -23 24v113z" />
<glyph unicode="&#x123;" horiz-adv-x="1147" d="M122 -44l25 207q-23 22 -23 78t45.5 96t129.5 40q-175 71 -175 314q0 199 81.5 289t263.5 90h627v-28l-223 -21q123 -88 123 -330q0 -245 -189 -320q-60 -24 -143 -24h-313q-113 0 -154 -48q-23 -25 -23 -60.5t39 -64.5q56 -42 138 -53l396 -50q126 -16 208.5 -72.5 t82.5 -165.5v-66q0 -155 -81 -234q-74 -75 -220 -75h-302q-144 0 -228.5 81.5t-84.5 227.5v189zM172 134v-367q0 -173 137 -233q59 -28 126 -28h302q115 0 184 63t69 198v57q0 86 -59.5 132t-177.5 62l-414 56q-96 12 -148 48zM172 691q0 -293 284 -293h205q216 0 272 184 q14 50 15 109q0 161 -59.5 245.5t-141.5 84.5h-297q-157 0 -217.5 -84.5t-60.5 -245.5zM546 1210v203q0 33 14 45.5t22 12.5t22 -2v-10q-31 0 -30 -28v-84h12q23 0 23 -24v-113q0 -22 -23 -22h-18q-22 0 -22 22z" />
<glyph unicode="&#x124;" horiz-adv-x="1331" d="M217 0v1469h48v-734h883v734h49v-1469h-49v686h-883v-686h-48zM433 1599l266 261h40l240 -261h-35l-226 232l-249 -232h-36z" />
<glyph unicode="&#x125;" d="M-54 1694l265 261h40l241 -261h-36l-225 231l-249 -231h-36zM203 0v1574h48v-632q216 142 433 142q153 0 241 -100.5t88 -240.5v-743h-48v743q0 130 -75.5 211.5t-202.5 81.5t-221.5 -28.5t-214.5 -94.5v-913h-48z" />
<glyph unicode="&#x126;" horiz-adv-x="1331" d="M86 1078v29h131v362h48v-362h883v362h49v-362h130v-29h-130v-1078h-49v686h-883v-686h-48v1078h-131zM265 735h883v343h-883v-343z" />
<glyph unicode="&#x127;" d="M23 1266v29h140v279h48v-279h289v-29h-289v-324q216 142 433 142q153 0 241 -100.5t88 -240.5v-743h-48v743q0 130 -75 211.5t-203 81.5t-222 -28.5t-214 -94.5v-913h-48v1266h-140z" />
<glyph unicode="&#x128;" horiz-adv-x="400" d="M-98 1662q84 73 130 95t84.5 22t129.5 -73.5t122 -73.5q72 0 200 107l12 -15q-40 -40 -66 -62q-73 -62 -146 -63q-45 0 -134.5 73.5t-112.5 73.5t-37.5 -2t-31 -9t-26.5 -11t-30 -17t-27 -18t-30 -22.5t-29 -21.5zM217 0v1469h48v-1469h-48z" />
<glyph unicode="&#x129;" horiz-adv-x="372" d="M-153 1258q84 73 130.5 95t84.5 22t129.5 -73.5t121.5 -73.5q72 0 201 107l12 -14q-40 -40 -68 -65q-71 -59 -145 -59q-44 0 -133.5 73t-112.5 73t-38 -2t-31 -9t-26 -11.5t-30 -17t-27 -17.5t-30 -22t-29 -21zM163 0v1065h48v-1065h-48z" />
<glyph unicode="&#x12a;" horiz-adv-x="400" d="M-12 1599v31h506v-31h-506zM217 0v1469h48v-1469h-48z" />
<glyph unicode="&#x12b;" horiz-adv-x="372" d="M-67 1197v29h507v-29h-507zM163 0v1065h48v-1065h-48z" />
<glyph unicode="&#x12e;" horiz-adv-x="400" d="M66.5 -187.5q0.5 49.5 39 99.5t125.5 88h24q-81 -32 -117 -86t-36 -110.5t60 -97.5t147 -41h10v-29q-19 -2 -51.5 -2t-84 18.5t-81.5 60.5q-36 50 -35.5 99.5zM217 0v1469h48v-1469h-48z" />
<glyph unicode="&#x12f;" horiz-adv-x="341" d="M32 -189.5q0 30.5 24 72.5q36 71 143 117h23q-80 -32 -115.5 -87t-35.5 -110.5t60 -96.5t146 -41h10v-29q-19 -2 -60 -2t-99.5 32.5t-83.5 88.5q-12 25 -12 55.5zM174 1249v124q0 24 25 23h21q23 0 23 -23v-124q0 -25 -23 -25h-21q-25 0 -25 25zM182 0v1065h49v-1065h-49 z" />
<glyph unicode="&#x130;" horiz-adv-x="400" d="M205 1624v124q0 25 23 24h25q24 0 24 -24v-124q0 -25 -24 -25h-25q-23 0 -23 25zM217 0v1469h48v-1469h-48z" />
<glyph unicode="&#x131;" horiz-adv-x="372" d="M163 0v1065h48v-1065h-48z" />
<glyph unicode="&#x134;" horiz-adv-x="699" d="M94 42l8 29q113 -33 157 -33t84 3t79.5 31t66 93.5t26.5 165.5v1138h49v-1138q0 -218 -104 -295q-62 -46 -167 -46q-117 0 -199 52zM267 1599l265 261h40l240 -261h-35l-225 232l-249 -232h-36z" />
<glyph unicode="&#x135;" horiz-adv-x="341" d="M-121 1197l265 260h42l239 -260h-34l-226 232l-249 -232h-37zM140 -542v1607h49v-1073v-207.5t-22 -326.5h-27z" />
<glyph unicode="&#x136;" horiz-adv-x="1189" d="M217 0v1469h48v-709h305l484 709h58l-498 -732l498 -737h-60l-484 712h-301v-712h-50zM612 -136q0 22 22 21h19q22 0 21 -21v-203q0 -32 -14 -45.5t-22 -13.5t-22 3v10q29 0 28 27v85h-10q-22 0 -22 24v113z" />
<glyph unicode="&#x137;" horiz-adv-x="998" d="M163 0v1570h48v-934h120l538 429h77l-567 -454l565 -611h-71l-542 588h-120v-588h-48zM524 -136q0 24 22 23h18q22 0 22 -23v-201q0 -32 -14 -45t-22 -13t-22 2v10q29 0 28 28v85h-10q-23 0 -22 23v111z" />
<glyph unicode="&#x138;" horiz-adv-x="948" d="M163 0v1065h48v-505h231l395 505h58l-411 -529l383 -536h-60l-365 512h-231v-512h-48z" />
<glyph unicode="&#x139;" horiz-adv-x="1121" d="M217 253v1216h48v-1216q0 -125 61 -165t164 -40h554v-48h-554q-115 0 -185 40q-88 50 -88 213zM235 1590l242 266h53l-267 -266h-28z" />
<glyph unicode="&#x13a;" horiz-adv-x="597" d="M163 379v1193h48v-1193q0 -247 94 -303q32 -17 46.5 -20.5t96.5 -16.5t96 -13v-26h-134q-127 0 -187 91t-60 288zM172 1691l244 268h51l-266 -268h-29z" />
<glyph unicode="&#x13b;" horiz-adv-x="1121" d="M217 253v1216h48v-1216q0 -125 61 -165t164 -40h554v-48h-554q-115 0 -185 40q-88 50 -88 213zM612 -136q0 24 22 23h19q22 0 21 -23v-201q0 -32 -14 -45t-22 -13t-22 2v10q29 0 28 28v85h-10q-22 0 -22 23v111z" />
<glyph unicode="&#x13c;" horiz-adv-x="597" d="M163 379v1193h48v-1193q0 -247 94 -303q32 -17 46.5 -20.5t96.5 -16.5t96 -13v-26h-134q-127 0 -187 91t-60 288zM247 -136q0 24 22 23h18q23 0 22 -23v-201q0 -32 -14 -45t-22 -13t-22 2v10q28 0 28 28v85h-10q-23 0 -22 23v111z" />
<glyph unicode="&#x13d;" horiz-adv-x="1121" d="M217 253v1216h48v-1216q0 -125 61 -165t164 -40h554v-48h-554q-115 0 -185 40q-88 50 -88 213zM435 1415v134h51v-134l-13 -269h-23z" />
<glyph unicode="&#x13e;" horiz-adv-x="597" d="M163 379v1193h48v-1193q0 -186 45 -251.5t159.5 -83.5t128.5 -18v-26h-144q-121 0 -179 87t-58 292zM412 1435v135h50v-135l-12 -269h-25z" />
<glyph unicode="&#x141;" horiz-adv-x="1121" d="M52 722v42l165 73v632h48v-612l241 104v-40l-241 -104v-564q0 -125 61 -165t164 -40h554v-48h-554q-115 0 -185 40q-88 50 -88 213v542z" />
<glyph unicode="&#x142;" horiz-adv-x="597" d="M23 801v42l140 72v657h48v-630l266 138l-2 -40l-264 -140v-521q0 -186 45 -251.5t159.5 -83.5t128.5 -18v-26h-144q-121 0 -179 87t-58 292v496z" />
<glyph unicode="&#x143;" horiz-adv-x="1333" d="M217 0v1469h50l884 -1377v1377h48v-1469h-48l-886 1377v-1377h-48zM707 1599l245 268h52l-269 -268h-28z" />
<glyph unicode="&#x144;" d="M163 0v1065h28l20 -123q216 142 433 142q153 0 241 -100.5t88 -240.5v-743h-48v743q0 124 -76.5 208.5t-203 84.5t-220.5 -28.5t-214 -94.5v-913h-48zM554 1204l243 267h52l-267 -267h-28z" />
<glyph unicode="&#x145;" horiz-adv-x="1333" d="M217 0v1469h50l884 -1377v1377h48v-1469h-48l-886 1377v-1377h-48zM678 -144q0 22 23 22h17q23 0 23 -22v-203q0 -32 -14.5 -45.5t-22 -13.5t-22.5 2v11q28 0 28 27v85h-9q-23 0 -23 24v113z" />
<glyph unicode="&#x146;" d="M163 0v1065h28l20 -123q216 142 433 142q153 0 241 -100.5t88 -240.5v-743h-48v743q0 124 -76.5 208.5t-203 84.5t-220.5 -28.5t-214 -94.5v-913h-48zM538 -136q0 24 22 23h18q23 0 22 -23v-201q0 -32 -14 -45t-22 -13t-22 2v10q28 0 28 28v85h-10q-23 0 -22 23v111z" />
<glyph unicode="&#x147;" horiz-adv-x="1333" d="M217 0v1469h50l884 -1377v1377h48v-1469h-48l-886 1377v-1377h-48zM433 1860h33l229 -230l249 230h35l-265 -261h-44z" />
<glyph unicode="&#x148;" d="M163 0v1065h28l20 -123q216 142 433 142q153 0 241 -100.5t88 -240.5v-743h-48v743q0 124 -76.5 208.5t-203 84.5t-220.5 -28.5t-214 -94.5v-913h-48zM295 1465h32l227 -230l251 230h36l-265 -261h-44z" />
<glyph unicode="&#x14a;" horiz-adv-x="1333" d="M217 0v1469h50l884 -1373v1373h48v-1638q0 -114 -17.5 -182t-60.5 -105.5t-99.5 -48t-152.5 -10.5v36q14 2 55 6t68 8.5t64.5 23t53.5 48.5q41 76 41 222v171l-884 1373v-1373h-50z" />
<glyph unicode="&#x14b;" horiz-adv-x="1135" d="M163 0v1065h23l25 -123q80 46 130 69q147 73 292.5 73t242.5 -101.5t97 -239.5v-923q0 -278 -305 -312l-24 30q128 23 203.5 88t77.5 196v921q0 113 -85 203t-207.5 90t-215 -33.5t-206.5 -95.5v-907h-48z" />
<glyph unicode="&#x14c;" horiz-adv-x="1354" d="M176 726.5q0 200.5 24 340t64.5 221t114 124.5t146.5 55t179 12t172 -8t132 -34t107 -77.5t73 -133.5q64 -157 64 -502q0 -367 -84 -538q-38 -80 -109 -123t-148.5 -57t-198 -14t-194.5 12t-146.5 53t-111 120.5t-61.5 214t-23 335zM224 696.5q0 -152.5 18.5 -273 t50.5 -197.5t95.5 -117t136.5 -54.5t201.5 -14.5t211.5 24t148.5 95.5t91.5 208t26 327t-13 308t-43 194.5t-67 124.5t-98.5 71.5t-119.5 31t-136 7t-119.5 -3t-93.5 -12t-85.5 -30t-69.5 -54.5t-58 -86t-41 -125t-27.5 -172t-8.5 -252zM462 1599v31h505v-31h-505z" />
<glyph unicode="&#x14d;" horiz-adv-x="1149" d="M136 530.5q0 308.5 96.5 427t344.5 118.5t343 -132t95 -427t-95 -411t-348.5 -116t-344.5 116t-91 424.5zM184 525q0 -163 23.5 -260.5t77.5 -145.5t118 -64.5t169.5 -16.5t172.5 18t122 68q100 98 100 393q0 316 -108 418q-53 54 -119 73.5t-167.5 19.5t-163.5 -15 t-118 -64t-81.5 -155t-25.5 -269zM321 1197v29h506v-29h-506z" />
<glyph unicode="&#x150;" horiz-adv-x="1354" d="M176 726.5q0 200.5 24 340t64.5 221t114 124.5t146.5 55t179 12t172 -8t132 -34t107 -77.5t73 -133.5q64 -157 64 -502q0 -367 -84 -538q-38 -80 -109 -123t-148.5 -57t-198 -14t-194.5 12t-146.5 53t-111 120.5t-61.5 214t-23 335zM224 696.5q0 -152.5 18.5 -273 t50.5 -197.5t95.5 -117t136.5 -54.5t201.5 -14.5t211.5 24t148.5 95.5t91.5 208t26 327t-13 308t-43 194.5t-67 124.5t-98.5 71.5t-119.5 31t-136 7t-119.5 -3t-93.5 -12t-85.5 -30t-69.5 -54.5t-58 -86t-41 -125t-27.5 -172t-8.5 -252zM562 1599l241 268h52l-265 -268h-28z M839 1599l245 268h52l-269 -268h-28z" />
<glyph unicode="&#x151;" horiz-adv-x="1149" d="M136 530.5q0 308.5 96.5 427t344.5 118.5t343 -132t95 -427t-95 -411t-348.5 -116t-344.5 116t-91 424.5zM184 525q0 -163 23.5 -260.5t77.5 -145.5t118 -64.5t169.5 -16.5t172.5 18t122 68q100 98 100 393q0 316 -108 418q-53 54 -119 73.5t-167.5 19.5t-163.5 -15 t-118 -64t-81.5 -155t-25.5 -269zM421 1197l241 266h52l-264 -266h-29zM699 1197l245 266h52l-270 -266h-27z" />
<glyph unicode="&#x152;" horiz-adv-x="2114" d="M176 726.5q0 200.5 24 340t64.5 221t114 124.5t146.5 55t182.5 12t177 -9t132.5 -37q131 -58 185 -243q0 147 68.5 213t173.5 66h11l536 -20v-28h-536q-205 0 -205 -213q0 -306 2 -455l659 -10v-29l-659 -9l-2 -458q0 -125 60.5 -165t164.5 -40h516v-28l-516 -20h-24 q-110 0 -179.5 56.5t-69.5 222.5q-53 -168 -166 -224.5t-322 -56.5q-122 0 -196 12t-146.5 53t-111 120.5t-61.5 214t-23 335zM224 696.5q0 -152.5 18.5 -273t50.5 -197.5t95.5 -117t136.5 -54.5t189 -14.5q199 0 299.5 55.5t144.5 204t44 387t-20 362t-54 200t-98.5 116.5 t-134.5 53t-158 13t-129.5 -3t-93.5 -12t-85.5 -30t-69.5 -54.5t-58 -86t-41 -125t-27.5 -172t-8.5 -252z" />
<glyph unicode="&#x153;" horiz-adv-x="1886" d="M136 530.5q0 308.5 96.5 427t341.5 118.5q179 0 277.5 -66t134.5 -205q30 164 116 216.5t271 52.5q84 0 136 -5.5t109.5 -26.5t87.5 -58q73 -90 73 -287q0 -113 -67 -154t-207 -41h-490q0 -293 87 -385q44 -46 93.5 -62.5t170 -16.5t392.5 40v-32q-203 -56 -425 -56 q-159 0 -236.5 62.5t-106.5 200.5q-36 -142 -133 -202.5t-283 -60.5q-256 0 -347 116t-91 424.5zM184 525q0 -163 23.5 -260.5t77.5 -145.5t118 -64.5t169.5 -16.5t172.5 18t122 68q100 98 100 393q0 316 -108 418q-53 54 -119 73.5t-167.5 19.5t-163.5 -15t-118 -64 t-81.5 -155t-25.5 -269zM1015 548h490q169 0 207 66q18 33 18 113t-21 147.5t-71 100t-107.5 42t-182 9.5t-195.5 -33.5t-104.5 -133.5t-33.5 -311z" />
<glyph unicode="&#x154;" horiz-adv-x="1151" d="M163 0v1469h553q71 0 124 -12.5t112 -51.5q118 -80 118 -337q0 -266 -107 -352q-52 -40 -99 -52.5t-113 -14.5l323 -649h-51l-324 649q-470 8 -488 19v-668h-48zM211 697h505q69 0 117 12.5t94 49.5q92 78 92 309q0 251 -130 317q-71 34 -173 34h-505v-722zM564 1590 l243 266h52l-267 -266h-28z" />
<glyph unicode="&#x155;" horiz-adv-x="850" d="M163 0v1065h23l25 -134q82 46 131 71.5t135.5 50.5t180 25t139.5 -17v-46q-69 14 -131 14.5t-104.5 -6t-69 -12.5t-74 -25t-63.5 -25.5t-73.5 -35t-70.5 -34.5v-891h-48zM466 1199l243 266h51l-266 -266h-28z" />
<glyph unicode="&#x156;" horiz-adv-x="1151" d="M163 0v1469h553q71 0 124 -12.5t112 -51.5q118 -80 118 -337q0 -266 -107 -352q-52 -40 -99 -52.5t-113 -14.5l323 -649h-51l-324 649q-470 8 -488 19v-668h-48zM211 697h505q69 0 117 12.5t94 49.5q92 78 92 309q0 251 -130 317q-71 34 -173 34h-505v-722zM552 -136 q0 24 22 23h18q22 0 22 -23v-201q0 -32 -14 -45t-22 -13t-22 2v10q28 0 28 28v85h-10q-22 0 -22 23v111z" />
<glyph unicode="&#x157;" horiz-adv-x="850" d="M147 -136q0 24 22 23h17q23 0 23 -23v-201q0 -32 -14.5 -45t-22 -13t-21.5 2v10q28 0 27 28v85h-9q-23 0 -22 23v111zM155 0v1065h23l25 -134q82 46 131 71.5t135.5 50.5t180 25t139.5 -17v-46q-69 14 -131 14.5t-104 -6t-69 -12.5t-74 -25t-63.5 -25.5t-73.5 -35 t-71 -34.5v-891h-48z" />
<glyph unicode="&#x158;" horiz-adv-x="1151" d="M163 0v1469h553q71 0 124 -12.5t112 -51.5q118 -80 118 -337q0 -266 -107 -352q-52 -40 -99 -52.5t-113 -14.5l323 -649h-51l-324 649q-470 8 -488 19v-668h-48zM211 697h505q69 0 117 12.5t94 49.5q92 78 92 309q0 251 -130 317q-71 34 -173 34h-505v-722zM325 1850h33 l226 -230l251 230h36l-265 -260h-44z" />
<glyph unicode="&#x159;" horiz-adv-x="850" d="M163 0v1065h23l25 -134q82 46 131 71.5t135.5 50.5t180 25t139.5 -17v-46q-69 14 -131 14.5t-104.5 -6t-69 -12.5t-74 -25t-63.5 -25.5t-73.5 -35t-70.5 -34.5v-891h-48zM207 1459h32l227 -231l250 231h37l-265 -260h-44z" />
<glyph unicode="&#x15a;" horiz-adv-x="1176" d="M176 992v132q0 203 99.5 280t300.5 77t433 -37v-27l-445 16h-26q-147 0 -230.5 -67.5t-83.5 -241.5v-132q0 -147 72 -197t223 -50h230q184 0 254.5 -77.5t70.5 -217.5v-137q0 -205 -122 -273q-100 -56 -268 -56q-84 0 -245.5 9t-225.5 21v30q132 -12 471 -12 q159 0 250.5 60.5t91.5 220.5v137q0 130 -64.5 188.5t-212.5 58.5h-225q-220 0 -291 90q-34 44 -45.5 90t-11.5 115zM609 1601l242 268h53l-268 -268h-27z" />
<glyph unicode="&#x15b;" horiz-adv-x="1011" d="M109 728v93q0 129 63 192t213 63q276 0 464 -19v-27h-464q-124 0 -176 -49.5t-52 -159.5v-93q0 -90 36 -136q30 -38 192 -38h257q118 0 190 -59.5t72 -169.5v-99q0 -156 -85 -200q-68 -36 -177 -36q-299 0 -489 20v28h489q159 0 195 83q18 40 18 105v99q0 79 -55 130 t-158 51h-257q-157 0 -216.5 39t-59.5 183zM508 1206l243 267h52l-267 -267h-28z" />
<glyph unicode="&#x15c;" horiz-adv-x="1176" d="M176 992v132q0 203 99.5 280t300.5 77t433 -37v-27l-445 16h-26q-147 0 -230.5 -67.5t-83.5 -241.5v-132q0 -147 72 -197t223 -50h230q184 0 254.5 -77.5t70.5 -217.5v-137q0 -205 -122 -273q-100 -56 -268 -56q-84 0 -245.5 9t-225.5 21v30q132 -12 471 -12 q159 0 250.5 60.5t91.5 220.5v137q0 130 -64.5 188.5t-212.5 58.5h-225q-220 0 -291 90q-34 44 -45.5 90t-11.5 115zM341 1601l265 262h40l241 -262h-36l-225 232l-249 -232h-36z" />
<glyph unicode="&#x15d;" horiz-adv-x="1011" d="M109 728v93q0 129 63 192t213 63q276 0 464 -19v-27h-464q-124 0 -176 -49.5t-52 -159.5v-93q0 -90 36 -136q30 -38 192 -38h257q118 0 190 -59.5t72 -169.5v-99q0 -156 -85 -200q-68 -36 -177 -36q-299 0 -489 20v28h489q159 0 195 83q18 40 18 105v99q0 79 -55 130 t-158 51h-257q-157 0 -216.5 39t-59.5 183zM226 1197l266 260h40l240 -260h-35l-225 230l-249 -230h-37z" />
<glyph unicode="&#x15e;" horiz-adv-x="1176" d="M176 992v132q0 203 99.5 280t300.5 77t433 -37v-27l-445 16h-26q-147 0 -230.5 -67.5t-83.5 -241.5v-132q0 -147 72 -197t223 -50h230q184 0 254.5 -77.5t70.5 -217.5v-137q0 -205 -122 -273q-100 -56 -268 -56q-84 0 -245.5 9t-225.5 21v30q132 -12 471 -12 q159 0 250.5 60.5t91.5 220.5v137q0 130 -64.5 188.5t-212.5 58.5h-225q-220 0 -291 90q-34 44 -45.5 90t-11.5 115zM417 -349l65 10q48 8 72 15.5t50 32t34 70t8 81.5v50h34q0 -155 -40 -214.5t-163 -59.5h-60v15z" />
<glyph unicode="&#x15f;" horiz-adv-x="1011" d="M109 728v93q0 129 63 192t213 63q276 0 464 -19v-27h-464q-124 0 -176 -49.5t-52 -159.5v-93q0 -90 36 -136q30 -38 192 -38h257q118 0 190 -59.5t72 -169.5v-99q0 -156 -85 -200q-68 -36 -177 -36q-299 0 -489 20v28h489q159 0 195 83q18 40 18 105v99q0 79 -55 130 t-158 51h-257q-157 0 -216.5 39t-59.5 183zM293 -337l65 10q48 8 72 16t50 32t33.5 69t7.5 81.5v50.5h35q0 -155 -40.5 -214t-162.5 -59h-60v14z" />
<glyph unicode="&#x160;" horiz-adv-x="1176" d="M176 992v132q0 203 99.5 280t300.5 77t433 -37v-27l-445 16h-26q-147 0 -230.5 -67.5t-83.5 -241.5v-132q0 -147 72 -197t223 -50h230q184 0 254.5 -77.5t70.5 -217.5v-137q0 -205 -122 -273q-100 -56 -268 -56q-84 0 -245.5 9t-225.5 21v30q132 -12 471 -12 q159 0 250.5 60.5t91.5 220.5v137q0 130 -64.5 188.5t-212.5 58.5h-225q-220 0 -291 90q-34 44 -45.5 90t-11.5 115zM373 1863h33l226 -231l251 231h36l-264 -262h-44z" />
<glyph unicode="&#x161;" horiz-adv-x="1011" d="M109 728v93q0 129 63 192t213 63q276 0 464 -19v-27h-464q-124 0 -176 -49.5t-52 -159.5v-93q0 -90 36 -136q30 -38 192 -38h257q118 0 190 -59.5t72 -169.5v-99q0 -156 -85 -200q-68 -36 -177 -36q-299 0 -489 20v28h489q159 0 195 83q18 40 18 105v99q0 79 -55 130 t-158 51h-257q-157 0 -216.5 39t-59.5 183zM251 1467h32l227 -230l250 230h37l-265 -261h-44z" />
<glyph unicode="&#x162;" horiz-adv-x="1211" d="M94 1421v48h1040v-48h-502v-1421h-48v1421h-490zM362 -349l63 10q48 8 72 15.5t50.5 32t34.5 70t8 81.5v50h34q0 -155 -40 -214.5t-163 -59.5h-59v15z" />
<glyph unicode="&#x163;" horiz-adv-x="701" d="M54 1019v33l168 16l17 297h31v-297h352v-49h-352v-642q0 -247 96 -301q32 -19 45.5 -22.5t96 -16.5t96.5 -13v-26h-135q-126 0 -186.5 91t-60.5 288v642h-168zM165 -362l63 11q48 8 72.5 16t50.5 32t34 69t8 81v51h34q0 -155 -40 -214t-163 -59h-59v13z" />
<glyph unicode="&#x164;" horiz-adv-x="1211" d="M94 1421v48h1040v-48h-502v-1421h-48v1421h-490zM341 1860h32l227 -230l251 230h36l-265 -261h-44z" />
<glyph unicode="&#x165;" horiz-adv-x="676" d="M54 1019v33l168 16l17 297h31v-297h352v-49h-352v-638q0 -243 88 -299q32 -19 48 -22q155 -33 198 -32v-26h-146q-119 0 -177.5 87t-58.5 292v638h-168zM435 1467v134h51v-134l-13 -268h-23z" />
<glyph unicode="&#x166;" horiz-adv-x="1211" d="M94 1421v48h1040v-48h-502v-570h301v-28h-301v-823h-48v823h-261v28h261v570h-490z" />
<glyph unicode="&#x167;" horiz-adv-x="676" d="M54 1019v33l168 16l17 297h31v-297h352v-49h-352v-353h251v-28h-251v-257q0 -243 88 -299q32 -19 48 -22q155 -33 198 -32v-26h-146q-119 0 -177.5 87t-58.5 292v257h-162v28h162v353h-168z" />
<glyph unicode="&#x168;" horiz-adv-x="1370" d="M217 642v827h48v-827q0 -193 18 -272t30 -123t37 -76.5t44.5 -55.5t55.5 -36.5t60 -23t68 -11.5q75 -6 151 -6t124.5 5t106 24t94 59.5t70.5 104.5q62 123 62 411v827h49v-827q0 -205 -23.5 -291t-39.5 -135t-45 -83.5t-52 -59.5t-62.5 -40t-65.5 -24t-72 -13 q-67 -6 -204 -6t-215 30q-173 64 -219 344q-20 115 -20 278zM385 1662q102 90 144.5 103.5t76.5 13.5t124.5 -73.5t123.5 -73.5t78 22t62 36t58 49l11 -15q-94 -96 -152 -115q-28 -10 -66 -10t-126.5 73.5t-120.5 73.5q-42 0 -68 -13t-35 -17t-25 -15t-23 -17t-26 -19 t-28 -20z" />
<glyph unicode="&#x169;" d="M136 325v743h48v-743q0 -124 76.5 -208.5t203 -84.5t221 28t215.5 95v913h48v-1066h-29l-19 124q-217 -142 -434 -142q-153 0 -241.5 100.5t-88.5 240.5zM203 1258q84 73 130 95t84.5 22t129.5 -73.5t121 -73.5q73 0 201 107l12 -14q-40 -40 -67 -65q-72 -59 -146 -59 q-44 0 -133 73t-112 73t-38.5 -2t-31.5 -9t-25.5 -11.5t-30 -17t-27.5 -17.5t-30 -22t-29 -21z" />
<glyph unicode="&#x16a;" horiz-adv-x="1370" d="M217 642v827h48v-827q0 -193 18 -272t30 -123t37 -76.5t44.5 -55.5t55.5 -36.5t60 -23t68 -11.5q75 -6 151 -6t124.5 5t106 24t94 59.5t70.5 104.5q62 123 62 411v827h49v-827q0 -205 -23.5 -291t-39.5 -135t-45 -83.5t-52 -59.5t-62.5 -40t-65.5 -24t-72 -13 q-67 -6 -204 -6t-215 30q-173 64 -219 344q-20 115 -20 278zM473 1599v31h506v-31h-506z" />
<glyph unicode="&#x16b;" d="M136 325v743h48v-743q0 -124 76.5 -208.5t203 -84.5t221 28t215.5 95v913h48v-1066h-29l-19 124q-217 -142 -434 -142q-153 0 -241.5 100.5t-88.5 240.5zM289 1197v29h506v-29h-506z" />
<glyph unicode="&#x16c;" horiz-adv-x="1370" d="M217 642v827h48v-827q0 -193 18 -272t30 -123t37 -76.5t44.5 -55.5t55.5 -36.5t60 -23t68 -11.5q75 -6 151 -6t124.5 5t106 24t94 59.5t70.5 104.5q62 123 62 411v827h49v-827q0 -205 -23.5 -291t-39.5 -135t-45 -83.5t-52 -59.5t-62.5 -40t-65.5 -24t-72 -13 q-67 -6 -204 -6t-215 30q-173 64 -219 344q-20 115 -20 278zM494 1829h27q0 -56 28.5 -102.5t73.5 -72.5t97 -26q90 0 148.5 57t58.5 144h29q0 -127 -103 -193q-58 -37 -138.5 -37t-150.5 64t-70 166z" />
<glyph unicode="&#x16d;" d="M136 325v743h48v-743q0 -124 76.5 -208.5t203 -84.5t221 28t215.5 95v913h48v-1066h-29l-19 124q-217 -142 -434 -142q-153 0 -241.5 100.5t-88.5 240.5zM311 1425h28q0 -84 58.5 -142.5t136.5 -58.5q92 0 151.5 57.5t59.5 143.5h27q0 -107 -71 -167.5t-160 -60.5 t-159.5 63t-70.5 165z" />
<glyph unicode="&#x16e;" horiz-adv-x="1370" d="M217 642v827h48v-827q0 -193 18 -272t30 -123t37 -76.5t44.5 -55.5t55.5 -36.5t60 -23t68 -11.5q75 -6 151 -6t124.5 5t106 24t94 59.5t70.5 104.5q62 123 62 411v827h49v-827q0 -205 -23.5 -291t-39.5 -135t-45 -83.5t-52 -59.5t-62.5 -40t-65.5 -24t-72 -13 q-67 -6 -204 -6t-215 30q-173 64 -219 344q-20 115 -20 278zM521 1804q0 56 28.5 103.5t75.5 75.5t116 28t127.5 -60.5t58.5 -146.5t-58.5 -145.5t-127.5 -59.5t-116 27.5t-75.5 74.5t-28.5 103zM550 1804.5q0 -72.5 52.5 -123.5t124.5 -51t122.5 51t50.5 123.5t-50.5 124.5 t-122.5 52t-124.5 -52t-52.5 -124.5z" />
<glyph unicode="&#x16f;" d="M136 325v743h48v-743q0 -124 76.5 -208.5t203 -84.5t221 28t215.5 95v913h48v-1066h-29l-19 124q-217 -142 -434 -142q-153 0 -241.5 100.5t-88.5 240.5zM339 1401q0 87 60.5 146.5t144.5 59.5t142.5 -59.5t58.5 -146.5t-58.5 -145.5t-142.5 -58.5t-144.5 58.5 t-60.5 145.5zM368 1401q0 -72 51.5 -123.5t124 -51.5t122.5 51.5t50 123.5t-50 124.5t-122.5 52.5t-124 -52.5t-51.5 -124.5z" />
<glyph unicode="&#x170;" horiz-adv-x="1370" d="M217 642v827h48v-827q0 -193 18 -272t30 -123t37 -76.5t44.5 -55.5t55.5 -36.5t60 -23t68 -11.5q75 -6 151 -6t124.5 5t106 24t94 59.5t70.5 104.5q62 123 62 411v827h49v-827q0 -205 -23.5 -291t-39.5 -135t-45 -83.5t-52 -59.5t-62.5 -40t-65.5 -24t-72 -13 q-67 -6 -204 -6t-215 30q-173 64 -219 344q-20 115 -20 278zM572 1599l242 268h53l-267 -268h-28zM851 1599l243 268h52l-267 -268h-28z" />
<glyph unicode="&#x171;" d="M136 325v743h48v-743q0 -124 76.5 -208.5t203 -84.5t221 28t215.5 95v913h48v-1066h-29l-19 124q-217 -142 -434 -142q-153 0 -241.5 100.5t-88.5 240.5zM389 1197l241 266h52l-265 -266h-28zM666 1197l245 266h52l-268 -266h-29z" />
<glyph unicode="&#x172;" horiz-adv-x="1370" d="M217 642v827h48v-827q0 -193 18 -272t30 -123t37 -76.5t44.5 -55.5t55.5 -36.5t60 -23t68 -11.5q75 -6 151 -6t124.5 5t106 24t94 59.5t70.5 104.5q62 123 62 411v827h49v-827q0 -205 -23.5 -291t-39.5 -135t-45 -83.5t-52 -59.5t-62.5 -40t-65.5 -24t-72 -13 q-67 -6 -204 -6t-215 30q-173 64 -219 344q-20 115 -20 278zM550 -197.5q0 30.5 24 73.5q37 70 142 116h25q-80 -32 -116.5 -87.5t-36.5 -110.5t60.5 -96t146.5 -41h10v-28q-20 -2 -60 -2t-99.5 32t-83.5 88q-12 25 -12 55.5z" />
<glyph unicode="&#x173;" horiz-adv-x="1274" d="M184 325v743h49v-743q0 -124 76 -208.5t202.5 -84.5t221 28t215.5 95v913h48v-1066h-29l-19 124q-217 -142 -434 -142q-153 0 -241.5 100.5t-88.5 240.5zM805 -188q0 31 22 73q38 71 144 117h25q-81 -32 -117 -87t-36 -110.5t60 -96.5t147 -41h9v-29q-19 -2 -59.5 -2 t-99.5 32.5t-86 90.5q-9 22 -9 53z" />
<glyph unicode="&#x174;" horiz-adv-x="1948" d="M122 1469h52l508 -1421l492 1421h52l-207 -604l328 -817l497 1421h48l-509 -1469h-69l-320 795l-278 -795h-67zM735 1599l265 261h40l241 -261h-36l-226 232l-249 -232h-35z" />
<glyph unicode="&#x175;" horiz-adv-x="1559" d="M54 1065h50l394 -1005l383 1005h48l-148 -399l273 -606l405 1005h46l-425 -1065h-52l-271 611l-233 -611h-53zM526 1197l265 260h40l241 -260h-36l-226 230l-248 -230h-36z" />
<glyph unicode="&#x176;" horiz-adv-x="1241" d="M122 1469h54l458 -885l498 885h54l-527 -948v-521h-48v521zM381 1599l265 261h40l241 -261h-36l-225 232l-249 -232h-36z" />
<glyph unicode="&#x177;" horiz-adv-x="1061" d="M56 1065h53l297 -832q66 -182 203 -183l343 1015h50l-468 -1402l-92 -205h-25l175 542q-169 8 -234 220zM257 1197l264 260h41l241 -260h-37l-224 230l-249 -230h-36z" />
<glyph unicode="&#x178;" horiz-adv-x="1241" d="M122 1469h54l458 -885l498 885h54l-527 -948v-521h-48v521zM366 1634.5q0 14.5 8.5 25t24 10.5t25 -10.5t9.5 -22t-6 -19.5q-8 -18 -26 -18.5t-26.5 10t-8.5 25zM875 1635.5q0 13.5 10 24t25 10.5t24.5 -10.5t9.5 -21t-2.5 -16.5t-6.5 -13q-10 -10 -25 -10t-25 11.5 t-10 25z" />
<glyph unicode="&#x179;" horiz-adv-x="1101" d="M94 0v48l869 1373h-869v48h929v-48l-868 -1373h868v-48h-929zM586 1599l241 268h52l-265 -268h-28z" />
<glyph unicode="&#x17a;" horiz-adv-x="952" d="M80 1017v48h795v-48l-703 -967h703v-48h-762v48l697 967h-730zM466 1186l243 267h51l-266 -267h-28z" />
<glyph unicode="&#x17b;" horiz-adv-x="1101" d="M94 0v48l869 1373h-869v48h929v-48l-868 -1373h868v-48h-929zM524 1624v124q0 25 24 24h22q25 0 24 -24v-124q0 -25 -24 -25h-22q-24 0 -24 25z" />
<glyph unicode="&#x17c;" horiz-adv-x="952" d="M80 1017v48h795v-48l-703 -967h703v-48h-762v48l697 967h-730zM442 1220v125q0 24 24 24h24q24 0 24 -24v-125q0 -24 -24 -23h-24q-24 -1 -24 23z" />
<glyph unicode="&#x17d;" horiz-adv-x="1101" d="M94 0v48l869 1373h-869v48h929v-48l-868 -1373h868v-48h-929zM285 1860h33l228 -230l249 230h36l-265 -261h-45z" />
<glyph unicode="&#x17e;" horiz-adv-x="952" d="M80 1017v48h795v-48l-703 -967h703v-48h-762v48l697 967h-730zM249 1457h32l227 -231l251 231h36l-265 -260h-44z" />
<glyph unicode="&#x192;" horiz-adv-x="1205" d="M54 -385l6 23h151q108 0 170 97q62 102 85 194q30 131 48 247l104 669h-204l7 50h205l20 120q50 301 91 404q76 186 232 186q111 0 183 -23l-6 -25h-177q-130 0 -190 -164q-50 -144 -84 -378l-21 -122h289l-7 -48h-290l-104 -669q-12 -74 -17 -107t-21 -108.5 t-31.5 -114.5t-43.5 -96t-60 -87q-80 -73 -189.5 -73t-145.5 25z" />
<glyph unicode="&#x2c6;" horiz-adv-x="816" d="M136 1065l266 262h40l240 -262h-36l-225 232l-249 -232h-36z" />
<glyph unicode="&#x2c7;" horiz-adv-x="816" d="M136 1327h33l226 -231l251 231h36l-265 -262h-44z" />
<glyph unicode="&#x2d8;" horiz-adv-x="728" d="M136 1293h29q0 -85 58 -143t137 -58q92 0 151 57t59 144h28q0 -107 -71 -168.5t-160.5 -61.5t-160 64t-70.5 166z" />
<glyph unicode="&#x2d9;" horiz-adv-x="341" d="M124 1160v125q0 24 25 23h22q24 0 24 -23v-125q0 -24 -24 -24h-22q-25 0 -25 24z" />
<glyph unicode="&#x2da;" horiz-adv-x="678" d="M136 1268q0 86 60.5 146.5t144.5 60.5t142.5 -60.5t58.5 -146.5t-58.5 -145.5t-142.5 -59.5t-144.5 59.5t-60.5 145.5zM165 1269q0 -72 52 -123.5t124.5 -51.5t122.5 51.5t50 123.5t-50 124.5t-122.5 52.5t-124.5 -52.5t-52 -124.5z" />
<glyph unicode="&#x2db;" horiz-adv-x="517" d="M128 -189.5q0 30.5 25 72.5q36 71 142 117h24q-80 -32 -116 -87t-36 -110.5t60 -96.5t146 -41h10v-29q-19 -2 -59.5 -2t-99.5 32.5t-84 88.5q-12 25 -12 55.5z" />
<glyph unicode="&#x2dc;" horiz-adv-x="948" d="M136 1148q84 72 130.5 94t84.5 22t129.5 -73t121.5 -73q72 0 201 106l11 -14q-40 -40 -67 -62q-71 -62 -145 -62q-44 0 -133.5 73t-112.5 73t-38 -2t-31.5 -9t-26 -11t-29.5 -17t-27 -18t-30 -22t-30 -21z" />
<glyph unicode="&#x2dd;" horiz-adv-x="689" d="M54 1065l243 268h52l-267 -268h-28zM333 1065l243 268h52l-266 -268h-29z" />
<glyph unicode="&#x3a9;" horiz-adv-x="1591" d="M172 780.5q0 100.5 14.5 190.5t54.5 187.5t106.5 167t181.5 113.5t266 44q610 0 610 -715q0 -195 -91.5 -394.5t-275.5 -327.5l377 -22v-24h-458v48q205 134 302 324t97 400q0 282 -107 460q-127 203 -454 203q-331 0 -458 -200q-117 -181 -117 -473q0 -222 91 -380 t315 -334v-48h-442v24l368 24q-243 182 -319 379q-36 97 -48.5 175t-12.5 178.5z" />
<glyph unicode="&#x3c0;" horiz-adv-x="1209" d="M54 1017v48h1003v-48h-258v-684q0 -157 44 -225t145 -68h166v-28q-103 -23 -166 -22q-127 0 -182 75t-55 268v684h-476v-1017h-49v1017h-172z" />
<glyph unicode="&#x2000;" horiz-adv-x="1005" />
<glyph unicode="&#x2001;" horiz-adv-x="2011" />
<glyph unicode="&#x2002;" horiz-adv-x="1005" />
<glyph unicode="&#x2003;" horiz-adv-x="2011" />
<glyph unicode="&#x2004;" horiz-adv-x="670" />
<glyph unicode="&#x2005;" horiz-adv-x="502" />
<glyph unicode="&#x2006;" horiz-adv-x="335" />
<glyph unicode="&#x2007;" horiz-adv-x="335" />
<glyph unicode="&#x2008;" horiz-adv-x="251" />
<glyph unicode="&#x2009;" horiz-adv-x="402" />
<glyph unicode="&#x200a;" horiz-adv-x="111" />
<glyph unicode="&#x2010;" horiz-adv-x="678" d="M54 558v48h570v-48h-570z" />
<glyph unicode="&#x2011;" horiz-adv-x="678" d="M54 558v48h570v-48h-570z" />
<glyph unicode="&#x2012;" horiz-adv-x="678" d="M54 558v48h570v-48h-570z" />
<glyph unicode="&#x2013;" horiz-adv-x="1057" d="M54 552v50h950v-50h-950z" />
<glyph unicode="&#x2014;" horiz-adv-x="1505" d="M54 556v50h1397v-50h-1397z" />
<glyph unicode="&#x2018;" horiz-adv-x="339" d="M130 1182v209q0 44 18.5 62t28 17t30.5 -3v-14q-38 2 -38 -38v-74h13q12 0 21.5 -9t9.5 -24v-126q0 -32 -31 -31h-23q-29 0 -29 31z" />
<glyph unicode="&#x2019;" horiz-adv-x="339" d="M128 1308l2 129q0 32 31 32h21q31 0 31 -32l-2 -211q0 -44 -17.5 -61t-28 -17t-31.5 4v14q38 -2 38 36v77h-13q-31 0 -31 29z" />
<glyph unicode="&#x201a;" horiz-adv-x="339" d="M130 30v127q0 34 31 34h21q31 0 31 -34v-209q0 -44 -18.5 -62t-29 -17t-29.5 3v13q38 -2 38 39v76h-13q-31 0 -31 30z" />
<glyph unicode="&#x201c;" horiz-adv-x="511" d="M119 1182v209q0 44 18 62t27.5 17l28.5 -3v-14q-36 2 -36 -38v-74h12q13 0 22.5 -9t9.5 -24v-126q0 -32 -32 -31h-22q-28 0 -28 31zM311 1182v209q0 44 18 62t29 17t29 -3v-14q-38 2 -38 -38v-74h15q13 0 21 -9t8 -24v-126q0 -32 -29 -31h-23q-30 0 -30 31z" />
<glyph unicode="&#x201d;" horiz-adv-x="509" d="M119 1308v129q0 32 30 32h22q30 0 30 -32v-211q0 -44 -17 -61t-28.5 -17t-31.5 4v14q37 -2 37 36v77h-12q-30 0 -30 29zM311 1308v129q0 32 30 32h25q28 0 27 -32v-211q0 -44 -16.5 -61t-28 -17t-30.5 4v14q38 -2 37 36v77h-14q-30 0 -30 29z" />
<glyph unicode="&#x201e;" horiz-adv-x="509" d="M119 34v127q0 34 30 34h22q30 0 30 -34v-209q0 -44 -17 -62t-28.5 -17t-31.5 3v13q37 -2 37 38v77h-12q-30 0 -30 30zM311 34v127q0 34 30 34h25q28 0 27 -34v-209q0 -44 -16.5 -62t-28 -17t-30.5 3v13q38 -2 37 38v77h-14q-30 0 -30 30z" />
<glyph unicode="&#x2020;" horiz-adv-x="798" d="M54 1028v27l321 8l10 482h29l9 -482l322 -8v-27l-322 -11l-11 -1161h-29l-8 1161z" />
<glyph unicode="&#x2021;" horiz-adv-x="852" d="M54 389v28l325 8l-4 592l-321 11v27l321 8l10 482h29l9 -482l322 -8v-27l-322 -11l-6 -592l328 -8v-28l-328 -10l-5 -523h-29l-4 523z" />
<glyph unicode="&#x2022;" horiz-adv-x="643" d="M231 735v60q0 70 66 70h48q71 0 71 -70v-60q0 -65 -71 -65h-48q-66 0 -66 65z" />
<glyph unicode="&#x2026;" horiz-adv-x="1620" d="M219 24v125q0 24 24 23h22q24 0 24 -23v-125q0 -24 -24 -24h-22q-24 0 -24 24zM764 24v125q0 24 25 23h21q25 0 25 -23v-125q0 -24 -25 -24h-21q-25 0 -25 24zM1310 24v125q0 24 25 23h21q25 0 25 -23v-125q0 -24 -25 -24h-21q-25 0 -25 24z" />
<glyph unicode="&#x202f;" horiz-adv-x="402" />
<glyph unicode="&#x2030;" horiz-adv-x="2767" d="M115 952v266q0 132 55.5 191.5t202.5 59.5h203q142 0 198.5 -59.5t56.5 -191.5v-266q0 -133 -56.5 -192t-202.5 -59h-203q-142 0 -198 59t-56 192zM144 952q0 -127 52.5 -174.5t172.5 -47.5h203q123 0 176 46.5t53 175.5v266q0 121 -49 171t-176 50h-203 q-124 0 -176.5 -46t-52.5 -175v-266zM486 0l879 1469h42l-879 -1469h-42zM1086 257v267q0 133 56.5 192t202.5 59h202q143 0 199 -59t56 -192v-267q0 -133 -56 -192t-202 -59h-203q-142 0 -198.5 59t-56.5 192zM1116 257q0 -127 52 -174t173 -47h203q122 0 175 46t53 175 v267q0 121 -49 171t-176 50h-202q-125 0 -177 -46t-52 -175v-267zM1938 257v267q0 133 56.5 192t203.5 59h202q142 0 199 -59t57 -192v-267q0 -133 -56.5 -192t-203.5 -59h-203q-142 0 -198.5 59t-56.5 192zM1969 257q0 -127 52.5 -174t171.5 -47h203q123 0 176 46t53 175 v267q0 121 -49.5 171t-175.5 50h-202q-124 0 -176.5 -46t-52.5 -175v-267z" />
<glyph unicode="&#x2039;" horiz-adv-x="709" d="M136 710l414 408l32 -32l-381 -376l393 -383l-36 -34z" />
<glyph unicode="&#x203a;" horiz-adv-x="709" d="M136 327l390 383l-382 376l36 32l414 -408l-425 -417z" />
<glyph unicode="&#x2044;" horiz-adv-x="322" d="M-245 0l775 1545h36l-775 -1545h-36z" />
<glyph unicode="&#x205f;" horiz-adv-x="502" />
<glyph unicode="&#x20ac;" horiz-adv-x="1193" d="M54 546v28l177 6v283l-177 6v26l177 9v35t1 62.5t10 98.5t25 110t50 100.5t85 90.5q116 85 314.5 85t415.5 -40v-29q-301 20 -420.5 20t-199 -31t-123.5 -77t-70 -121q-40 -114 -40 -304l570 -7v-28l-570 -6v-283l570 -8v-28h-307q-269 0 -266 -7t3 -13 q0 -201 112.5 -342.5t309.5 -145.5h74q151 0 305 16l60 8v-30q-181 -42 -439 -42q-119 0 -232 64q-68 38 -119 96.5t-85 160t-34 229.5z" />
<glyph unicode="&#x2122;" horiz-adv-x="1412" d="M54 1441v28h520v-28h-245v-673h-28v673h-247zM653 768l54 701h21l291 -657l268 657h23l63 -701h-25l-57 637l-259 -637h-23l-283 639l-48 -639h-25z" />
<glyph unicode="&#x2202;" horiz-adv-x="1352" d="M155 454q0 226 122.5 327.5t383 101.5t423.5 -111q0 326 -107.5 495.5t-370.5 169.5q-191 0 -371 -112l-13 23q115 77 193.5 107.5t196.5 30.5q278 0 399 -183t121 -526q0 -315 -113 -540q-58 -115 -157.5 -181t-229.5 -66q-209 0 -343 119t-134 345zM203 456.5 q0 -205.5 122.5 -312t302.5 -106.5q111 0 196 54.5t133 133.5t79 182q48 164 48 337q-56 30 -189 60t-240 30q-226 0 -339 -86.5t-113 -292z" />
<glyph unicode="&#x2206;" horiz-adv-x="1480" d="M54 0l679 1469h39l655 -1469h-1373zM134 48h1214l-593 1345z" />
<glyph unicode="&#x220f;" horiz-adv-x="1179" d="M54 1421v48h1072v-48h-174v-1421h-48v1421h-629v-1421h-49v1421h-172z" />
<glyph unicode="&#x2211;" horiz-adv-x="1137" d="M109 -347l429 889l-429 879v48h975v-48h-917l427 -879l-427 -889h917v-55h-975v55z" />
<glyph unicode="&#x221a;" horiz-adv-x="1187" d="M54 670v48h207l279 -636l546 1523h48l-572 -1605h-36l-295 670h-177z" />
<glyph unicode="&#x221e;" horiz-adv-x="1647" d="M136 676.5q0 70.5 4 112.5t20 92t47 78q74 73 222 73q102 0 212 -95.5t182 -206.5q65 104 180 203t215.5 99t164 -30.5t89 -88.5t33.5 -107t8 -124.5t-10.5 -130.5t-41.5 -107q-56 -104 -241 -105q-120 0 -225.5 95.5t-171.5 211.5q-64 -125 -166.5 -216t-211 -91 t-168.5 26t-89 78.5t-40.5 107.5t-11.5 125.5zM184 689.5q0 -161.5 55.5 -232t189.5 -70.5q193 0 370 301q-81 119 -184 207.5t-186 88.5q-142 0 -193.5 -66.5t-51.5 -228zM847 688q72 -126 171.5 -213.5t201.5 -87.5q144 0 194.5 75.5t50.5 224t-49 223t-196 74.5 q-82 0 -193.5 -93.5t-179.5 -202.5z" />
<glyph unicode="&#x222b;" horiz-adv-x="912" d="M54 -362h193q46 0 78.5 12.5t52.5 48.5t30.5 66t16.5 103q6 100 6 308v839q0 309 27 410q44 180 203 180q120 0 198 -19v-29h-197q-66 0 -106.5 -32.5t-55 -115t-18 -143t-3.5 -132.5v-958v-184q0 -140 -11.5 -190.5t-28 -94.5t-39.5 -65q-58 -52 -143 -52 q-175 0 -203 21v27z" />
<glyph unicode="&#x2248;" horiz-adv-x="948" d="M136 504q84 72 130.5 94t84.5 22t129.5 -73.5t121.5 -73.5q72 0 201 107l11 -14q-40 -40 -67 -64q-71 -60 -145 -60q-44 0 -133.5 73t-112.5 73t-38 -2t-31.5 -9t-26 -11t-29.5 -17t-27 -18t-30 -22t-30 -21zM136 857q84 72 130.5 94t84.5 22t129.5 -73t121.5 -73 q72 0 201 106l11 -14q-40 -40 -67 -64q-71 -60 -145 -60q-44 0 -133.5 73.5t-112.5 73.5t-38 -2.5t-31.5 -9.5t-26 -11t-29.5 -17t-27 -18t-30 -22t-30 -21z" />
<glyph unicode="&#x2260;" horiz-adv-x="965" d="M54 425v48h269l288 473h-557v48h584l92 150h36l-92 -150h237v-48h-265l-286 -473h551v-48h-582l-105 -172h-35l104 172h-239z" />
<glyph unicode="&#x2264;" horiz-adv-x="1025" d="M136 257v48h759v-48h-759zM136 853v40l691 386v-55l-630 -351l630 -373v-56z" />
<glyph unicode="&#x2265;" horiz-adv-x="1025" d="M136 257v48h759v-48h-759zM201 444v56l630 373l-630 351v55l694 -386v-40z" />
<glyph unicode="&#x25ca;" horiz-adv-x="1075" d="M54 749l465 720h49l453 -720l-453 -749h-49zM109 749l435 -697l425 697l-425 678z" />
<glyph unicode="&#xe000;" horiz-adv-x="1063" d="M0 0v1063h1063v-1063h-1063z" />
</font>
</defs>
</svg>
