<?xml version="1.0" standalone="no"?>
<!DOCTYPE svg PUBLIC "-//W3C//DTD SVG 1.1//EN" "http://www.w3.org/Graphics/SVG/1.1/DTD/svg11.dtd" >
<svg xmlns="http://www.w3.org/2000/svg">
<metadata></metadata>
<defs>
<font id="exodemibold" horiz-adv-x="1097" >
<font-face units-per-em="2048" ascent="1638" descent="-410" />
<missing-glyph horiz-adv-x="501" />
<glyph unicode="&#xfb01;" horiz-adv-x="1243" d="M34 875v157l179 33v91q0 181 114 301q117 121 311 121q80 0 223.5 -19t208.5 -42v-142l-361 14q-8 2 -32 2t-63.5 -9t-79.5 -34q-88 -53 -88 -200v-83l706 -19v-1046h-235v875h-471v-875h-233v875h-179z" />
<glyph unicode="&#xfb02;" horiz-adv-x="1444" d="M34 875v157l179 33v97q0 203 95.5 309.5t275.5 106.5l576 -2v-1168q0 -115 22 -156t78 -61q136 -42 151 -42v-149h-211q-144 0 -208.5 85.5t-64.5 293.5v1010h-297q-94 0 -139 -48t-45 -179v-97h261v-190h-263v-875h-233v875h-177z" />
<glyph horiz-adv-x="0" />
<glyph unicode="&#xd;" horiz-adv-x="1697" />
<glyph unicode=" "  horiz-adv-x="501" />
<glyph unicode="&#x09;" horiz-adv-x="501" />
<glyph unicode="&#xa0;" horiz-adv-x="501" />
<glyph unicode="!" horiz-adv-x="543" d="M144 46v157q0 50 49 50h152q23 0 34.5 -14.5t11.5 -35.5v-157q0 -46 -46 -46h-152q-20 0 -34.5 13t-14.5 33zM147 1467h246l-24 -1074h-200z" />
<glyph unicode="&#x22;" horiz-adv-x="842" d="M144 1335v134h227v-134l-20 -270h-184zM473 1335v134h228v-134l-21 -270h-184z" />
<glyph unicode="#" horiz-adv-x="1420" d="M34 437l24 161h311l45 275h-312l26 161h316l73 435h161l-74 -435h277l73 435h160l-72 -435h349l-26 -161h-350l-44 -277h350l-24 -161h-358l-74 -435h-160l74 435l-279 2l-75 -437h-160l74 437h-305zM530 598l280 -2l45 277h-281z" />
<glyph unicode="$" horiz-adv-x="1145" d="M94 981v129q2 207 115 291q100 77 273 80v173h152v-177q178 -12 368 -50v-182q-428 19 -502.5 19t-123.5 -31t-49 -137v-94q0 -89 46 -125t131 -36h214q337 0 337 -374v-112q0 -221 -134 -303q-111 -69 -262 -68h-25v-164h-152v170q-195 14 -342 50v179q18 -2 60.5 -4 t87.5 -4t99 -4q123 -4 225 -4q211 0 211 146v101q0 102 -59 136q-32 23 -88 23h-210q-95 0 -165 26t-108 65t-63 91q-36 86 -36 190z" />
<glyph unicode="%" horiz-adv-x="1924" d="M73 959v253q0 133 59 195t205 62h203q144 0 203.5 -62t59.5 -195v-253q0 -200 -141 -243q-50 -15 -126 -15h-203q-142 0 -201 62t-59 196zM245 979q0 -60 22 -83t84 -23h166q73 0 93 23t20 83v211q0 64 -23 85.5t-86 21.5h-166q-85 0 -102 -43q-8 -22 -8 -64v-211zM431 0 l890 1469h180l-885 -1469h-185zM1124 263v252q0 133 59.5 195t205.5 62h204q187 0 238 -113q24 -54 23 -144v-252q0 -135 -58.5 -197t-205.5 -62h-205q-142 0 -201.5 63t-59.5 196zM1297 283q0 -60 22 -83.5t84 -23.5h169q70 0 90 23t20 84v211q0 65 -23 85.5t-83 20.5h-169 q-84 0 -101 -40q-9 -23 -9 -66v-211z" />
<glyph unicode="&#x26;" horiz-adv-x="1331" d="M56 408q0 186 166 331l153 130l-112 157q-67 96 -66 180q0 107 69 178t151 81q91 12 209.5 12t336.5 -52v-167h-357q-151 0 -150 -72q0 -50 63 -140l388 -529l239 234l78 -94l-112 -215l-78 -89l259 -353h-274l-150 205l-136 -125q-100 -90 -251 -90q-78 0 -157 30 q-114 42 -191.5 153.5t-77.5 234.5zM279 439q0 -75 43.5 -130.5t86.5 -77.5t70 -22t35 2q55 4 100 46l123 116l-243 324l-123 -105q-92 -78 -92 -153z" />
<glyph unicode="'" horiz-adv-x="419" d="M94 1335v134h235v-134l-20 -270h-192z" />
<glyph unicode="(" horiz-adv-x="726" d="M126 644.5q0 182.5 35.5 356t85.5 297.5q104 259 184 378l36 50h226q-46 -71 -110 -202t-108 -251.5t-79.5 -291.5t-35.5 -311t19 -267.5t48 -229.5t64 -198t71 -168q74 -144 112 -202l19 -26h-226q-46 53 -111 168t-110 230t-82.5 300t-37.5 367.5z" />
<glyph unicode=")" horiz-adv-x="726" d="M34 -421q46 64 109.5 189t107.5 243.5t80.5 294.5t36.5 340t-34.5 332t-84.5 296q-100 265 -180 396l-35 56h225q48 -65 113 -188t109.5 -241.5t81.5 -294t37 -358t-35 -365.5t-86 -303q-102 -251 -184 -353l-36 -44h-225z" />
<glyph unicode="*" horiz-adv-x="866" d="M84 1136v101l280 52l9 -163zM207 833l50 272l157 -37l-111 -265zM339 1444l98 35l141 -242l-151 -65zM395 944l89 136l225 -180l-58 -83zM490 1146l238 156l55 -86l-191 -195z" />
<glyph unicode="+" horiz-adv-x="992" d="M80 612v205h313v315h205v-315h317v-205h-317v-315h-205v315h-313z" />
<glyph unicode="," horiz-adv-x="529" d="M144 50v151q0 54 51 54h144q48 0 48 -54v-224q0 -162 -176 -161q-18 0 -33 4l-23 4v84q28 0 42 10q20 13 20 46v36h-22q-23 0 -37 13t-14 37z" />
<glyph unicode="-" horiz-adv-x="709" d="M40 479v205h630v-205h-630z" />
<glyph unicode="." horiz-adv-x="533" d="M144 46v157q0 50 49 50h148q50 0 50 -50v-157q0 -46 -50 -46h-148q-22 0 -35.5 13t-13.5 33z" />
<glyph unicode="/" horiz-adv-x="872" d="M34 -144l564 1689h243l-564 -1689h-243z" />
<glyph unicode="0" horiz-adv-x="1274" d="M119 345v771q0 171 98.5 262t261.5 91h329q183 0 265.5 -96t82.5 -249v-779q0 -173 -91.5 -259t-256.5 -86h-329q-166 0 -263 86t-97 259zM351 375q0 -86 49.5 -121t118.5 -35h243q161 0 161 154v723q0 154 -155 154h-254q-87 0 -125 -46t-38 -108v-721z" />
<glyph unicode="1" horiz-adv-x="735" d="M69 1146v154l302 169h231v-1469h-233v1230z" />
<glyph unicode="2" horiz-adv-x="1185" d="M69 1268v173q302 48 609 49q217 0 326 -136q98 -126 98 -306q0 -131 -76 -265q-82 -142 -157.5 -223t-123.5 -127t-103 -92q-88 -74 -152 -122h612v-219h-1020v207q121 80 253 185.5t215.5 185t158.5 161.5q160 178 160 309q0 220 -249 220h-551z" />
<glyph unicode="3" horiz-adv-x="1177" d="M50 1254v163q163 58 434 58q100 0 213 -2q164 -2 259.5 -96t95.5 -249v-117q0 -224 -145 -281q145 -70 145 -295v-98q0 -170 -94 -260.5t-276 -90.5h-116h-38.5t-66 1t-74.5 2t-66.5 4t-71 7t-60.5 10q-60 10 -127 32l3 165h541q110 0 160.5 28t50.5 127v84 q0 65 -27.5 103.5t-67.5 52.5t-104 16l-432 16v185l432 20q107 6 155 44t48 121v96q0 154 -203 154h-568z" />
<glyph unicode="4" horiz-adv-x="1231" d="M34 450l566 1019h261l-493 -903h439v365l66 153h167v-518h159v-181l-159 -44v-337h-233v337h-705z" />
<glyph unicode="5" horiz-adv-x="1201" d="M128 40v180h582q161 0 161 159v165q0 60 -11 82.5t-22 36t-28 21.5q-34 20 -92 21h-230q-60 0 -99.5 -32.5t-39.5 -98.5h-217l44 895h876v-219h-654l-19 -387q65 58 237 58q45 0 95.5 -2t58.5 -4q115 -2 191 -50q142 -88 142 -303v-215q0 -219 -166 -309 q-86 -46 -190 -46q-205 0 -316.5 8t-302.5 40z" />
<glyph unicode="6" horiz-adv-x="1229" d="M111 773.5q0 187.5 29 329.5t80 218q97 149 236 156q64 4 132 4q233 0 496 -42v-177h-532q-201 0 -209 -423q219 40 452 40q289 0 329 -222q8 -46 8 -103v-236q0 -320 -345 -320h-291q-73 0 -128 20t-105 71t-82 136.5t-51 223t-19 325zM343 668q0 -168 15 -232.5 t30.5 -102.5t36.5 -63q48 -53 123 -53h207q74 0 109.5 26.5t35.5 111.5v177q0 79 -35.5 107.5t-105.5 28.5h-416z" />
<glyph unicode="7" horiz-adv-x="1105" d="M50 1250v219h938l67 -117l-505 -1352h-261l475 1250h-714z" />
<glyph unicode="8" horiz-adv-x="1260" d="M126 327v165q0 180 165 220q-165 67 -165 290v130q0 199 109 277q96 71 259 70h301q170 0 254.5 -82.5t84.5 -264.5v-117q4 -138 -82 -203q-29 -22 -68 -29q54 -10 90 -63q62 -86 60 -208v-181q0 -331 -341 -331h-299q-309 0 -356 219q-12 51 -12 108zM360 345 q0 -69 38.5 -101.5t127.5 -32.5h227q66 0 107.5 34t41.5 100v165q0 68 -39.5 103.5t-105.5 35.5h-245q-153 0 -152 -139v-165zM360 992q0 -79 45 -110t107 -31h245q118 0 138 88q6 22 7 53v110q0 120 -69 152q-30 12 -80 12h-227q-88 0 -127 -30t-39 -134v-110z" />
<glyph unicode="9" horiz-adv-x="1229" d="M102 923v235q0 320 344 319h293q72 0 127 -19t105 -71t83 -137q68 -184 68 -545q0 -527 -216 -665q-58 -38 -135.5 -42t-159.5 -4q-249 0 -460 44v175h529q203 0 209 425q-219 -42 -449 -42q-203 0 -275 97q-63 86 -63 230zM333 944q0 -77 36.5 -107t105.5 -30h414 q0 210 -30 300q-36 102 -93 134q-36 17 -82 17h-207q-74 0 -109 -27t-35 -111v-176z" />
<glyph unicode=":" horiz-adv-x="533" d="M144 46v157q0 50 49 50h148q50 0 50 -50v-157q0 -46 -50 -46h-148q-22 0 -35.5 13t-13.5 33zM144 861v156q0 50 49 51h148q50 0 50 -51v-156q0 -46 -50 -47h-148q-30 0 -39.5 17t-9.5 30z" />
<glyph unicode=";" horiz-adv-x="537" d="M144 50v151q0 24 14 39t37 15h144q48 0 48 -54v-224q0 -162 -176 -161q-18 0 -33 4l-23 4v84q28 0 42 10q20 13 20 46v36h-22q-20 0 -35.5 15t-15.5 35zM147 861v156q0 50 48 51h148q50 0 50 -51v-156q0 -46 -50 -47h-148q-28 0 -38 17t-10 30z" />
<glyph unicode="&#x3c;" horiz-adv-x="921" d="M84 596v225l753 301v-222l-490 -190l490 -210v-227z" />
<glyph unicode="=" horiz-adv-x="936" d="M40 389v205h857v-205h-857zM40 817v204h857v-204h-857z" />
<glyph unicode="&#x3e;" horiz-adv-x="921" d="M84 273v227l490 210l-490 190v224l753 -303v-225z" />
<glyph unicode="?" horiz-adv-x="1087" d="M34 1262v175q287 48 472 49q46 0 94 -3q310 0 398 -240q22 -69 21 -145v-167q0 -201 -119 -289q-96 -69 -254 -68q-44 0 -92 6v-189h-201v368h251q82 3 133.5 44.5t51.5 129.5v143q0 98 -57.5 142t-181.5 44h-516zM331 46v157q0 50 48 50h151q48 0 48 -50v-157 q0 -46 -48 -46h-151q-22 0 -35 13t-13 33z" />
<glyph unicode="@" horiz-adv-x="1723" d="M111 14v643q0 182 102 280q40 38 113.5 64.5t171.5 26.5h402q335 0 335 -302v-726h-157l-34 121l-17 -15q-18 -14 -48.5 -34t-69.5 -40q-92 -50 -202.5 -50t-179.5 74t-69 181v92q0 177 128 243q65 33 153 32h301v82v28q0 69 -33.5 93t-106.5 24h-402q-140 0 -175 -86 q-13 -38 -14 -94v-623q0 -168 124 -204q31 -8 65 -8h678q119 0 163 52t44 160v958q0 113 -56.5 172.5t-150.5 59.5h-810v143q96 20 257.5 37t246 17h95.5h211q178 -2 292 -107.5t114 -321.5v-958q0 -413 -398 -413h-686q-175 0 -281 99.5t-106 299.5zM662 265q0 -35 30 -61 t72 -26h4h4q133 0 268 95v193l-278 -26q-101 -10 -100 -109v-32v-34z" />
<glyph unicode="A" horiz-adv-x="1372" d="M76 0l512 1469h257l492 -1469h-255l-113 355h-519l-115 -355h-259zM515 568h394l-193 584z" />
<glyph unicode="B" horiz-adv-x="1205" d="M136 0v1469h590q303 0 381 -245q23 -67 23 -164t-47 -186t-148 -112q88 -17 150.5 -106.5t62.5 -232.5q0 -423 -418 -423h-594zM369 213h355q191 0 191 220q0 100 -47 166.5t-144 66.5h-355v-453zM369 871h347q91 0 137.5 50t46.5 150.5t-53.5 142.5t-130.5 42h-347v-385 z" />
<glyph unicode="C" horiz-adv-x="1151" d="M94 742.5q0 144.5 13.5 254.5t46 205.5t89.5 155.5q117 128 367 128h4q247 0 480 -61v-182l-16 1q-17 1 -44 3t-63 4.5t-78 4.5t-86 6q-97 4 -172 4t-121.5 -10.5t-85.5 -43t-59 -92.5q-42 -124 -42 -388.5t66.5 -394.5t238.5 -130q186 0 394 12l68 3v-182 q-197 -52 -468 -52q-144 0 -229.5 35t-142.5 98t-93.5 157.5t-51.5 207t-15 257z" />
<glyph unicode="D" horiz-adv-x="1323" d="M136 0v1469h597q514 0 514 -741q0 -311 -119 -511q-60 -102 -161.5 -159.5t-233.5 -57.5h-597zM369 215h349q102 0 169 68q126 127 126 447q0 381 -136 482q-62 44 -159 44h-349v-1041z" />
<glyph unicode="E" horiz-adv-x="1137" d="M132 273v907q0 188 133 257q40 19 76 25.5t58 6.5t305.5 -10t365.5 -22v-190h-601q-74 0 -92 -37q-11 -28 -11 -76v-291l615 -20v-191l-615 -20v-291q2 -84 55 -99q27 -5 69 -5h580v-189q-65 -7 -484 -28l-138 -6h-37.5t-53.5 3t-76 20t-76 45q-73 68 -73 211z" />
<glyph unicode="F" horiz-adv-x="1137" d="M132 0v1178q0 155 83.5 223t198.5 68q7 0 290.5 -10t365.5 -22v-190h-601q-74 0 -92 -37q-11 -28 -11 -76v-291l615 -20v-191l-615 -20v-612h-234z" />
<glyph unicode="G" horiz-adv-x="1231" d="M94 761q0 116 10.5 219.5t41 203t82.5 161.5q115 140 342 141q280 0 544 -63v-180q-2 0 -35 3t-85 7.5t-113 8.5q-149 10 -269 10q-172 0 -228.5 -118t-56.5 -420.5t56 -410.5q58 -112 228 -112q61 0 135.5 22t116.5 46l44 24v313h-252v148q134 50 349 50q64 0 136 -6 v-808h-169l-60 98q-139 -108 -355 -108h-4q-237 0 -343 159q-94 144 -111 419q-4 77 -4 193z" />
<glyph unicode="H" horiz-adv-x="1277" d="M136 0v1469h233v-650h577v650h232v-1469h-232v602h-577v-602h-233z" />
<glyph unicode="I" horiz-adv-x="469" d="M136 0v1469h233v-1469h-233z" />
<glyph unicode="J" horiz-adv-x="716" d="M60 44l5 178q4 0 29 -2.5t45 -5.5t54.5 -5t53 2t45 9.5t39 22t27.5 36.5q25 39 25 124v7v1059h233v-1138q0 -61 -5 -106t-30 -101.5t-71 -87.5q-75 -46 -220.5 -46t-229.5 54z" />
<glyph unicode="K" horiz-adv-x="1233" d="M136 0v1469h226v-630h136l404 630h274l-469 -734l469 -735h-274l-404 626h-134v-626h-228z" />
<glyph unicode="L" horiz-adv-x="1095" d="M136 273v1196h233v-1146q0 -76 43 -92q30 -11 82 -12h544v-219h-609q-212 0 -268 136q-25 57 -25 137z" />
<glyph unicode="M" horiz-adv-x="1665" d="M94 0l117 1469h323l297 -1084l293 1084h322l128 -1469h-229l-95 1059l-289 -1059h-254l-297 1059l-85 -1059h-231z" />
<glyph unicode="N" horiz-adv-x="1360" d="M136 0v1469h237l655 -1038v1038h232v-1469h-232l-657 1032v-1032h-235z" />
<glyph unicode="O" horiz-adv-x="1348" d="M111 734.5q0 134.5 14.5 248t41 192.5t68.5 135.5t87.5 88.5t108.5 50q102 31 221 31h4q121 0 180 -6.5t124.5 -24.5t109.5 -50t85.5 -88.5t64.5 -134.5q54 -174 54 -452q0 -404 -114 -559q-78 -107 -193 -141q-113 -33 -272 -33q-62 0 -131 5q-141 10 -198 42.5 t-98.5 69t-68.5 92t-48 129t-30.5 172.5t-9.5 233.5zM343 719q0 -91 5 -162t16 -127.5t31.5 -93.5t45.5 -62t63 -39q72 -24 183.5 -24t173.5 19t105 75.5t59.5 155.5t16.5 229.5t-4 203.5t-16.5 128.5t-25 95.5t-38 66t-48.5 41.5t-61 23.5q-58 11 -129 11t-99.5 -1 t-65 -6.5t-57.5 -16t-47 -29.5t-39.5 -47t-28.5 -67t-22.5 -92t-12.5 -122t-5 -160z" />
<glyph unicode="P" horiz-adv-x="1191" d="M109 0v1469h621q207 0 304 -122q84 -107 84 -321q0 -124 -26.5 -216t-63 -139t-93 -73t-95.5 -31t-67 -5t-54 1t-119 9q-245 25 -259 30v-602h-232zM341 775h375q81 0 124 52t43 196q-2 163 -78 209q-37 22 -89 22h-375v-479z" />
<glyph unicode="Q" horiz-adv-x="1348" d="M111 734.5q0 134.5 14.5 248t40 192.5t67.5 135.5t86.5 88.5t107.5 50q102 31 222 31h4q122 -1 181 -7t124 -24t109.5 -50t87 -88.5t65.5 -134.5q54 -174 54 -452q0 -404 -116 -559q-78 -107 -193 -141q-114 -33 -272 -33q-62 0 -131 5q-141 10 -198 42.5t-98.5 69 t-67.5 92t-47 129t-30.5 172.5t-9.5 233.5zM343 704.5q0 -116.5 11.5 -203.5t32.5 -147.5t65 -90.5q76 -52 210.5 -52t196.5 19t106 75.5t60.5 155.5t16.5 223t-4 193t-11.5 121t-22 92t-29 68t-39.5 47t-47 30.5t-56 16.5q-56 8 -124.5 8t-99.5 -2t-70 -8.5t-61 -22 t-47 -41.5t-39.5 -65t-26.5 -95.5t-17 -130.5t-5 -190.5zM614 -67h141q63 -75 175 -75h3q69 0 151 25v-202q-56 -16 -117 -16t-120.5 16t-109.5 49q-111 68 -123 203z" />
<glyph unicode="R" horiz-adv-x="1207" d="M109 0v1469h638q377 0 377 -452q0 -285 -126 -375q-42 -30 -61.5 -37t-53.5 -17l289 -588h-261l-267 572l-303 28v-600h-232zM343 789h385q42 0 66.5 7t48.5 27q46 42 46 187.5t-42 195.5t-119 50h-385v-467z" />
<glyph unicode="S" horiz-adv-x="1179" d="M111 981v129q0 211 115 295q57 41 125 58.5t118 17.5h115t225 -17t243 -37v-184q-85 6 -267 13q-189 6 -267 6t-126.5 -28t-48.5 -138v-94q0 -98 40 -129.5t134 -31.5h253q257 0 318 -229q17 -66 17 -145v-112q0 -255 -178 -331q-92 -40 -228 -40q-330 0 -542 56v184 q215 -22 376 -22h7q163 0 192.5 4.5t66.5 17.5q74 29 74 125v101q0 76 -32.5 117.5t-112.5 41.5h-246q-98 0 -169.5 26t-109.5 63t-61 91q-31 80 -31 185v7z" />
<glyph unicode="T" horiz-adv-x="1179" d="M73 1250v219h1061v-219h-420v-1250h-232v1250h-409z" />
<glyph unicode="U" horiz-adv-x="1342" d="M136 642v827h233v-827q0 -205 37 -291q19 -48 42 -76t66 -42q64 -24 154.5 -24t132.5 7.5t85 33t68 71.5q53 104 53 321v827h236v-827q0 -249 -53 -375q-29 -67 -57 -116t-75 -78t-83 -47t-94 -26q-86 -10 -186 -10h-29q-239 0 -317 50q-36 25 -83 72t-71 114 q-58 169 -59 416z" />
<glyph unicode="V" horiz-adv-x="1364" d="M76 1469h249l366 -1148l383 1148h249l-504 -1469h-261z" />
<glyph unicode="W" horiz-adv-x="1968" d="M76 1469h249l363 -1134l300 1134h253l-115 -412l245 -730l309 1142h249l-426 -1469h-260l-226 657l-198 -657h-261z" />
<glyph unicode="X" horiz-adv-x="1254" d="M76 1469h257l309 -544l314 544h256l-440 -730l430 -739h-256l-304 540l-303 -540h-257l428 739z" />
<glyph unicode="Y" horiz-adv-x="1298" d="M76 1469h253l322 -728l353 728h252l-492 -990v-479h-232v479z" />
<glyph unicode="Z" horiz-adv-x="1121" d="M60 0v219l717 1031h-717v219h1003v-219l-695 -1031h695v-219h-1003z" />
<glyph unicode="[" horiz-adv-x="659" d="M144 -40v1365q0 142 61 245q72 120 255 120h168v-204h-126q-58 0 -91.5 -47.5t-33.5 -136.5v-1336q0 -88 33.5 -135.5t91.5 -47.5h126v-204h-168q-135 0 -205.5 66t-89.5 150q-21 83 -21 165z" />
<glyph unicode="\" horiz-adv-x="872" d="M34 1545h243l564 -1689h-243z" />
<glyph unicode="]" horiz-adv-x="659" d="M34 -217h125q58 0 91 47.5t33 135.5v1336q0 89 -33 136.5t-91 47.5h-125v204h167q184 0 255 -120q59 -102 59 -245v-1365q0 -191 -84 -291q-32 -38 -91 -64t-139 -26h-167v204z" />
<glyph unicode="^" horiz-adv-x="776" d="M84 1065l223 268h185l201 -268h-172l-126 130l-138 -130h-173z" />
<glyph unicode="_" horiz-adv-x="1352" d="M40 -2v205h1272v-205h-1272z" />
<glyph unicode="`" horiz-adv-x="485" d="M34 1341h225l195 -276h-167z" />
<glyph unicode="a" horiz-adv-x="1040" d="M69 265v108q0 125 74 204.5t237.5 79.5h253.5h90q2 46 2 69t-2 23q0 82 -36.5 112t-113.5 30q-149 0 -472 -22v150q193 67 504 67q350 0 351 -329v-757h-180l-53 122q-6 -11 -59 -41.5t-141.5 -61.5t-161.5 -31q-137 0 -215 80.5t-78 196.5zM301 293q0 -62 28.5 -84.5 t82.5 -22.5t133 22.5t129 44.5l50 22v229l-324 -25q-98 -10 -99 -115v-71z" />
<glyph unicode="b" horiz-adv-x="1113" d="M102 0v1576h231v-569q104 47 203.5 61t159 14t115.5 -19t94.5 -56.5t63.5 -84.5t38 -114q25 -118 25 -280q0 -540 -350 -540q-88 0 -190.5 40.5t-156.5 84.5l-48 -113h-185zM335 270q142 -75 301 -75q80 0 121.5 80t41.5 240.5t-20 240t-53 105.5t-90 26q-165 0 -301 -44 v-573z" />
<glyph unicode="c" horiz-adv-x="994" d="M84 549.5q0 147.5 25 257.5t75.5 167.5t109.5 79.5t141 22q269 0 480 -61v-148q-224 12 -328.5 12t-123.5 -2t-43.5 -9t-37.5 -21t-27 -39t-22 -63q-15 -86 -15 -223t20 -210t58.5 -98t118.5 -25q161 0 350 14l64 4v-153q-104 -44 -217 -54q-36 -2 -54 -4t-57 -3t-53 -2 t-57 -1h-81.5t-87.5 13t-95.5 49t-76 95.5t-48 157t-18.5 245z" />
<glyph unicode="d" horiz-adv-x="1113" d="M84 528q0 331 98 451q83 102 251 103q73 0 172.5 -20t177.5 -55v569h230v-1576h-184l-48 113q-54 -44 -155.5 -84.5t-192.5 -40.5q-349 0 -349 540zM318 515q0 -320 160 -320h1q159 0 302 75v573q-136 44 -302 44q-54 0 -88 -26q-73 -58 -73 -346z" />
<glyph unicode="e" horiz-adv-x="1053" d="M84 535q0 302 79 409q59 80 150 106q90 24 203.5 24t167 -4.5t107.5 -17t86 -38.5t58 -68q50 -77 51 -255q0 -259 -289 -260h-379q0 -157 51 -203q29 -26 65.5 -34t213.5 -8t317 23v-163q-164 -56 -530 -56q-201 0 -276 121.5t-75 423.5zM318 612h333q102 0 102 87 q0 120 -33.5 152t-157.5 32q-159 0 -191 -36q-42 -46 -47.5 -107.5t-5.5 -127.5z" />
<glyph unicode="f" horiz-adv-x="806" d="M34 875v157l177 33v199q0 313 289 314q142 0 275 -48v-143l-213 2h-8q-56 0 -85 -26q-22 -17 -23.5 -59t-1.5 -82v-157h263v-190h-263v-875h-233v875h-177z" />
<glyph unicode="g" horiz-adv-x="1119" d="M80 215q0 62 31 113t92 67q-62 40 -90.5 121.5t-28.5 174.5q0 189 93 284t269 95h640v-147l-134 -36q2 -4 10.5 -22t11.5 -25t9.5 -27t10.5 -38q6 -50 6 -101.5t-8 -97.5t-31.5 -98.5t-60.5 -90.5q-87 -88 -251 -88h-272q-82 0 -82 -52q0 -58 82 -58h364 q138 0 216.5 -78.5t78.5 -223.5v-120q0 -229 -189 -291q-58 -18 -135 -18h-300q-147 0 -237.5 78.5t-90.5 230.5v149l88 108q-42 26 -67 77.5t-25 113.5zM318 0v-211q0 -82 38.5 -107t103.5 -25h216q75 0 101 33t26 95v93q0 74 -44 98q-27 13 -73 14h-282q-42 0 -86 10z M318 691q0 -193 149 -193h144q88 0 121.5 53t33.5 142.5t-34.5 134.5t-122.5 45h-136q-94 0 -128 -59q-27 -49 -27 -123z" />
<glyph unicode="h" d="M102 0v1572h233v-624q4 4 41.5 29t74.5 45t104 41t138 21q166 0 244 -101.5t78 -260.5v-722h-232v724q0 163 -141 163q-92 0 -154.5 -23t-152.5 -77v-787h-233z" />
<glyph unicode="i" horiz-adv-x="433" d="M84 1228v153q0 52 48 52h171q46 0 46 -52v-153q0 -46 -46 -46h-171q-19 0 -33.5 13t-14.5 33zM98 0v1065h233v-1065h-233z" />
<glyph unicode="j" horiz-adv-x="467" d="M102 1228v153q0 52 49 52h170q23 0 35 -15t12 -37v-153q0 -46 -47 -46h-170q-23 0 -36 13t-13 33zM119 -542v1607h232v-1073v-40q0 -329 -66 -494h-166z" />
<glyph unicode="k" horiz-adv-x="1075" d="M102 0v1570h233v-869h67l341 364h301l-428 -459l428 -606h-280l-362 510h-67v-510h-233z" />
<glyph unicode="l" horiz-adv-x="617" d="M102 379v1193h233v-1164q0 -113 24 -157t76 -60q136 -42 151 -42v-149h-213q-132 0 -201.5 88t-69.5 291z" />
<glyph unicode="m" horiz-adv-x="1771" d="M102 0v1065h181l52 -119q4 4 33.5 23t35.5 23t32 19t36 20t34 15.5t40 13.5t40 10q38 10 118.5 10t154.5 -38t108 -107q189 144 400 145q159 0 241 -99.5t82 -264.5v-716h-233v718q0 79 -38 122t-103.5 43t-115.5 -10q-102 -15 -193 -84v-71v-718h-232v718q0 79 -39 122 t-115.5 43t-136 -22t-149.5 -78v-783h-233z" />
<glyph unicode="n" d="M102 0v1065h181l52 -117l43.5 29t74.5 46t103 41t137 20q166 0 244 -101.5t78 -260.5v-722h-232v724q0 163 -141 163q-92 0 -154.5 -23t-152.5 -77v-787h-233z" />
<glyph unicode="o" horiz-adv-x="1129" d="M84 554q0 183 47 303t148.5 169.5t286.5 49.5q274 0 377 -120.5t103 -428.5t-103.5 -422.5t-376.5 -114.5q-138 0 -229.5 28t-148 93t-80.5 162.5t-24 280.5zM318 522q0 -80 5.5 -134.5t21 -90.5t33 -58t47.5 -34q50 -16 125.5 -16t110 5t68 22t50.5 53q34 79 34 203 q1 124 -5 187q-4 57 -17.5 98.5t-29.5 64.5t-47 35q-48 19 -124 21h-38q-47 0 -70 -3q-32 -4 -63.5 -17t-48.5 -36t-30 -64.5t-17.5 -98.5t-4.5 -137z" />
<glyph unicode="p" horiz-adv-x="1113" d="M102 -542v1607h185l46 -109q54 42 157.5 82t191.5 40q349 0 350 -540q0 -319 -99 -446q-83 -108 -248 -108h-3q-72 0 -172 20t-177 52v-598h-231zM333 222q138 -44 303 -44q56 0 88 27q75 58 75 325q0 180 -41.5 260.5t-121.5 80.5q-159 0 -303 -76v-573z" />
<glyph unicode="q" horiz-adv-x="1113" d="M84 538q0 540 383 540q280 0 544 -57v-1563h-232v600q-140 -78 -308 -78h-4q-224 0 -306 152q-77 139 -77 406zM318 479q0 -19 1.5 -59.5t4.5 -58.5t9 -50t15.5 -47t23 -36t32.5 -29q46 -25 111 -25q123 0 264 46v667h-277q-88 0 -127 -62q-42 -66 -48 -125.5t-7.5 -87.5 t-1.5 -71v-62z" />
<glyph unicode="r" horiz-adv-x="842" d="M102 0v1065h189l44 -134q58 46 98 72.5t106.5 50.5t148.5 24t115 -15v-226q-52 8 -152.5 8t-170.5 -25t-145 -94v-726h-233z" />
<glyph unicode="s" horiz-adv-x="1017" d="M69 705v92q-1 279 276 279q155 0 323.5 -12t228.5 -34v-155h-497q-65 0 -82 -20t-17 -70v-65q0 -56 23 -70t76 -14h276q138 0 207 -74t69 -194v-107q0 -271 -261 -271q-153 0 -340.5 14t-237.5 36v153h519q86 0 86 82v68q0 42 -19 63t-67 21h-272q-149 0 -220 63.5 t-71 214.5z" />
<glyph unicode="t" horiz-adv-x="762" d="M34 877v140l181 51l44 297h189v-297h264v-191h-264v-467q0 -113 25 -158t75 -61q136 -42 151 -42v-149h-222q-262 0 -262 381v496h-181z" />
<glyph unicode="u" d="M84 345v720h234v-724q0 -82 37.5 -121.5t116 -39.5t140.5 22t152 79v784h234v-1065h-181l-53 117q-15 -8 -51.5 -31.5t-54.5 -33.5t-52 -26t-60 -24q-69 -20 -138 -20q-167 0 -245.5 101t-78.5 262z" />
<glyph unicode="v" horiz-adv-x="1111" d="M34 1065h251l269 -776l275 776h249l-402 -1065h-253z" />
<glyph unicode="w" horiz-adv-x="1639" d="M34 1065h251l249 -776l223 776h237l-87 -306l196 -470l253 776h251l-366 -1065h-255l-187 435l-140 -435h-264z" />
<glyph unicode="x" horiz-adv-x="1111" d="M40 0l376 534l-374 531h283l229 -351l235 351h283l-377 -537l360 -528h-266l-233 349l-231 -349h-285z" />
<glyph unicode="y" horiz-adv-x="1141" d="M36 1065h247l211 -776q12 -44 32 -58t33 -18t22 -4t19 1l11 1l246 854h246l-404 -1402l-149 -205h-161l165 542q-219 0 -291 253z" />
<glyph unicode="z" horiz-adv-x="936" d="M50 861v204h837v-204l-498 -654h498v-205h-807v203l516 656h-546z" />
<glyph unicode="{" horiz-adv-x="641" d="M34 578v182q94 10 117 25q42 34 42 82v449q0 167 105.5 270.5t312.5 103.5v-204q-93 0 -139.5 -48.5t-46.5 -177.5v-403q0 -83 -49 -129t-135 -58q82 -13 132 -61.5t50 -118.5v-518q0 -197 173 -196h15v-197q-223 0 -321.5 94t-98.5 251v547q0 56 -42 81.5t-73.5 25.5 h-41.5z" />
<glyph unicode="|" horiz-adv-x="492" d="M147 -144v1689h204v-1689h-204z" />
<glyph unicode="}" horiz-adv-x="641" d="M34 -224h12q173 0 173 198v516q0 71 50 119t133 61q-84 12 -134.5 58.5t-50.5 128.5v403q0 129 -45.5 177.5t-137.5 48.5v204q207 0 311.5 -103.5t104.5 -270.5v-449q0 -86 116 -103q16 0 45 -4v-182h-41.5t-74.5 -25t-43 -82v-547q0 -157 -97.5 -251t-320.5 -94v197z " />
<glyph unicode="~" horiz-adv-x="854" d="M84 1166l26 26t27 26t25 22t28.5 22t28.5 17.5t32 15t34 7.5t52 4t96.5 -34.5t102.5 -34.5h20t56 13q47 18 110 66l48 -106q-4 -4 -25 -27t-44 -45t-68 -47.5t-91 -25.5t-116.5 35.5t-102.5 35.5t-59 -7t-42 -14.5t-45 -24t-47 -25.5z" />
<glyph unicode="&#xa1;" horiz-adv-x="547" d="M149 -542l22 1068h200l24 -1068h-246zM151 728v151q0 42 48 46h142q28 -2 38 -20t10 -32v-143q-2 -54 -44 -54h-146q-48 0 -48 52z" />
<glyph unicode="&#xa2;" horiz-adv-x="979" d="M69 550.5q0 150.5 25 261.5q44 197 193 247q56 18 100 18.5t53 0.5v194h154v-202q172 -17 306 -55v-148q-225 14 -336.5 14t-136.5 -4t-53.5 -23t-42.5 -57q-30 -87 -30 -249.5t19 -236.5t59 -100.5t119 -26.5q163 0 351 17l62 4v-153q-130 -54 -319 -62v-183h-155v181 h-36.5t-86 12t-99.5 47t-79.5 95.5t-49 159t-17.5 249z" />
<glyph unicode="&#xa3;" horiz-adv-x="1177" d="M84 0v182l138 37v423h-138v124l138 42v178q0 270 101 375q91 92 271 104q50 4 111 4q112 0 321 -23l68 -9v-185h-382q-170 0 -204 -34q-41 -42 -46.5 -99.5t-5.5 -116.5v-195l479 -32v-133h-479v-423h636v-219h-1008z" />
<glyph unicode="&#xa5;" horiz-adv-x="1245" d="M34 1469h253l322 -668l347 668h258l-446 -803h274v-149h-320v-82h320v-146h-320v-289h-232v289h-306v146h306v82h-306v149h262z" />
<glyph unicode="&#xa7;" horiz-adv-x="1093" d="M94 1184v113q0 140 74.5 208.5t188.5 68.5t306 -13.5t262 -24.5v-167h-508q-46 0 -68 -18t-22 -64v-97q0 -79 92 -78h288q162 0 229.5 -63t65.5 -190v-91q0 -176 -105 -202q102 -15 103 -185v-124q0 -169 -91 -225q-78 -48 -187.5 -48t-299 13t-253.5 26v166h495 q52 0 77 14t25 58v105q0 57 -40 69q-17 6 -54 7h-289q-144 0 -215.5 52t-71.5 192v91q0 134 48 180q25 23 61 35q-111 43 -111 192zM327 724q0 -54 22 -70t76 -16h239q69 0 85.5 20t16.5 68v95q0 48 -9 66q-20 28 -93 28h-239q-59 0 -78.5 -20t-19.5 -78v-93z" />
<glyph unicode="&#xa8;" horiz-adv-x="904" d="M84 1168q0 46 33.5 78.5t80.5 32.5t79 -32.5t32 -78.5t-32 -79.5t-79 -33.5t-80.5 33.5t-33.5 79.5zM596 1168q0 46 33 78.5t80.5 32.5t79.5 -32.5t32 -78.5t-32 -79.5t-79.5 -33.5t-80.5 33.5t-33 79.5z" />
<glyph unicode="&#xa9;" horiz-adv-x="1613" d="M94 739q0 730 490 730h494q408 0 439 -590q4 -65 4 -140q0 -460 -194 -643q-102 -96 -249 -96h-494q-182 0 -295 119q-149 158 -185 449q-10 85 -10 171zM257 703.5q0 -121.5 33 -249t109 -212.5t185 -85h486q179 2 249 251q40 132 39 331q0 266 -42 379 q-50 131 -128 171q-48 24 -110 23h-494q-115 0 -182 -58q-58 -50 -81.5 -111t-37 -117.5t-20 -128.5t-6.5 -193.5zM454 733q0 437 289 437q66 0 174.5 -14t189.5 -34v-132q-168 24 -337 23q-80 0 -116 -67t-36 -211.5t34 -213.5t125 -69q147 0 343 32v-133 q-157 -56 -371 -56q-215 0 -272 220q-23 90 -23 218z" />
<glyph unicode="&#xaa;" horiz-adv-x="732" d="M50 530v132h632v-132h-632zM50 933v78q0 83 54.5 135.5t165.5 52.5h170h58q2 42 0 44q0 52 -27 70t-83.5 18t-112 -2t-111 -7.5t-90.5 -5.5v115q196 52 343 52q263 0 263 -221v-503h-134l-48 92q-4 -8 -37.5 -31t-90.5 -46t-83 -23q-155 0 -211 90q-26 42 -26 92z M226 967q0 -68 87 -67.5t185 56.5v136l-201 -14q-71 -8 -71 -73v-38z" />
<glyph unicode="&#xab;" horiz-adv-x="1141" d="M84 710l414 408l136 -134l-279 -274l287 -281l-134 -136zM502 710l413 408l135 -134l-280 -274l287 -281l-132 -136z" />
<glyph unicode="&#xac;" horiz-adv-x="1015" d="M80 494v197h855v-372h-196v175h-659z" />
<glyph unicode="&#xad;" horiz-adv-x="709" d="M40 479v205h630v-205h-630z" />
<glyph unicode="&#xae;" horiz-adv-x="1613" d="M94 739q0 730 490 730h494q408 0 439 -590q4 -65 4 -140q0 -460 -194 -643q-102 -96 -249 -96h-494q-182 0 -295 119q-149 158 -185 449q-10 85 -10 171zM257 703.5q0 -121.5 33 -249t109 -212.5t185 -85h486q179 2 249 251q40 132 39 331q0 266 -42 379 q-50 131 -128 171q-48 24 -110 23h-494q-115 0 -182 -58q-58 -50 -81.5 -111t-37 -117.5t-20 -128.5t-6.5 -193.5zM508 307v857h361q269 0 269 -264q0 -147 -58 -201q-44 -44 -113 -61l179 -331h-179l-172 327l-125 25v-352h-162zM670 775h183q78 0 100 22t22 97t-30 94 t-92 19h-183v-232z" />
<glyph unicode="&#xaf;" horiz-adv-x="754" d="M84 1065v147h586v-147h-586z" />
<glyph unicode="&#xb0;" horiz-adv-x="575" d="M84 1268.5q0 56.5 28 103.5t75.5 75t102.5 28t101 -28t73.5 -75t27.5 -103.5t-27.5 -103.5t-73.5 -74.5t-101 -27.5t-102.5 27.5t-75.5 74.5t-28 103.5zM193 1268q0 -40 28 -67t68 -27t68 27t28 67t-28 68.5t-68 28.5t-68 -28.5t-28 -68.5z" />
<glyph unicode="&#xb1;" horiz-adv-x="1023" d="M96 153v205h835v-205h-835zM96 770v205h314v314h204v-314h317v-205h-317v-316h-204v316h-314z" />
<glyph unicode="&#xb4;" horiz-adv-x="485" d="M34 1065l192 276h228l-253 -276h-167z" />
<glyph unicode="&#xb5;" horiz-adv-x="1183" d="M153 345v720h232v-724q0 -82 38.5 -121.5t102.5 -39.5t116 13q78 18 191 88v784h232v-1065h-180l-52 117q-10 -4 -40.5 -23.5t-42 -25.5t-38 -21t-43 -21t-43.5 -14q-56 -20 -120 -20t-121 24v-558h-232v887z" />
<glyph unicode="&#xb6;" horiz-adv-x="1159" d="M69 1002v186q0 136 89 208.5t223 72.5h747v-188h-119v-1281h-182v1285h-155v-1827h-182v1289q-2 0 -19 -10q-40 -27 -90 -25q-155 0 -233.5 82.5t-78.5 207.5zM251 1017q0 -122 136 -122h103v390h-103q-52 0 -84.5 -18t-42 -43t-9.5 -62v-145z" />
<glyph unicode="&#xb7;" horiz-adv-x="533" d="M144 693v156q0 50 49 51h148q50 0 50 -51v-156q0 -46 -50 -47h-148q-30 0 -39.5 16.5t-9.5 30.5z" />
<glyph unicode="&#xb8;" horiz-adv-x="494" d="M84 -251l96 31q50 22 59 78q2 23 2 68h171q0 -157 -46.5 -218t-170.5 -61h-111v102z" />
<glyph unicode="&#xba;" horiz-adv-x="785" d="M50 1114q0 205 74.5 284t271 79t270 -80.5t73.5 -293.5q0 -132 -31.5 -207t-105.5 -110t-207 -35q-194 0 -269.5 79t-75.5 284zM76 534v130h636v-130h-636zM235 1109q0 -73 9 -114t33 -60.5t48 -23.5t72.5 -4t71.5 4t46 22.5t31 58.5q8 46 8 120t-7 115t-30 62t-47 26.5 t-74.5 5.5t-75.5 -5.5t-48 -26.5t-30 -64t-7 -116z" />
<glyph unicode="&#xbb;" horiz-adv-x="1141" d="M84 429l287 281l-279 274l136 134l414 -408l-423 -417zM502 429l285 281l-279 274l136 134l413 -408l-423 -417z" />
<glyph unicode="&#xbf;" horiz-adv-x="1089" d="M69 20q-2 186 120 279q98 72 257 72q40 0 86 -5v188h203v-368q-82 2 -145.5 2.5t-120.5 -2t-102.5 -50.5t-48.5 -128q-2 -115 -2 -140q0 -81 53.5 -133.5t158.5 -52.5h10h517q-1 0 0 -67q0 -82 -1 -105q-288 -50 -472 -50q-46 0 -71 1l-25 1q-117 0 -202 35.5t-129 92.5 q-86 115 -86 261v169zM512 747v148q0 22 14 36.5t34 14.5h145q48 -2 48 -46v-153q-2 -48 -44 -50h-153q-42 8 -44 50z" />
<glyph unicode="&#xc0;" horiz-adv-x="1372" d="M76 0l512 1469h257l492 -1469h-255l-113 355h-519l-115 -355h-259zM381 1875h225l195 -276h-167zM515 568h394l-193 584z" />
<glyph unicode="&#xc1;" horiz-adv-x="1372" d="M76 0l512 1469h257l492 -1469h-255l-113 355h-519l-115 -355h-259zM515 568h394l-193 584zM634 1599l193 276h227l-253 -276h-167z" />
<glyph unicode="&#xc2;" horiz-adv-x="1372" d="M76 0l512 1469h257l492 -1469h-255l-113 355h-519l-115 -355h-259zM414 1599l222 268h185l198 -268h-170l-127 129l-136 -129h-172zM515 568h394l-193 584z" />
<glyph unicode="&#xc3;" horiz-adv-x="1372" d="M76 0l512 1469h257l492 -1469h-255l-113 355h-519l-115 -355h-259zM373 1700q139 137 241 137q52 -2 120.5 -36.5t82.5 -34.5h16q69 0 178 74l48 -106q-44 -44 -68 -64.5t-70 -44.5t-68 -24q-73 0 -140 34.5t-102 34.5q-54 0 -84.5 -14t-60 -31.5t-47.5 -25.5zM515 568 h394l-193 584z" />
<glyph unicode="&#xc4;" horiz-adv-x="1372" d="M76 0l512 1469h257l492 -1469h-255l-113 355h-519l-115 -355h-259zM349 1712q0 46 33.5 78.5t79.5 32.5t78 -32.5t32 -78.5t-32 -79.5t-78 -33.5t-79.5 33.5t-33.5 79.5zM515 568h394l-193 584zM861 1712q0 46 33 78.5t79 32.5t78.5 -32.5t32.5 -78.5t-32.5 -79.5 t-78.5 -33.5t-79 33.5t-33 79.5z" />
<glyph unicode="&#xc5;" horiz-adv-x="1372" d="M76 0l512 1469h257l492 -1469h-255l-113 355h-519l-115 -355h-259zM514 1685q0 -71 27 -118.5t74 -74.5t102 -27t102.5 27t74.5 74.5t27 118.5t-59 131.5t-143.5 60.5t-144.5 -60.5t-60 -131.5zM515 568h394l-193 584zM622 1671q0 39 28 67t67.5 28t67.5 -27 q12 -14 18.5 -31.5t6.5 -46.5t-26.5 -56t-66 -27t-67.5 27t-28 66z" />
<glyph unicode="&#xc6;" horiz-adv-x="1890" d="M50 0l580 1176q86 174 201 235q106 58 221 58h88q19 0 305.5 -10t368.5 -22v-190h-590q-72 0 -88 -37q-12 -26 -14 -72v-301l606 -23v-188l-606 -20v-288q0 -50 12 -62.5t15 -17.5t14 -9.5t14 -5.5t17 -2t16 -1h18.5h18.5l565 -1v-193q-69 -9 -552 -32l-56 -2 q-19 -2 -40.5 -2t-53.5 3t-75 18t-76 43q-70 62 -70 189v171h-377l-205 -414h-257zM614 626h275v564z" />
<glyph unicode="&#xc7;" horiz-adv-x="1151" d="M94 711.5q0 149.5 9.5 246t30.5 182.5t57.5 148t91.5 107q109 90 307 91q268 0 504 -61v-182l-16 1q-17 1 -44 3t-63 4.5t-78 4.5t-86 6q-97 4 -172 4t-121.5 -10.5t-85.5 -43t-59 -92.5q-42 -124 -42 -388.5t66.5 -394.5t238.5 -130q186 0 394 12l68 3v-182 q-197 -52 -468 -52q-170 0 -268.5 53t-156 154.5t-82.5 234t-25 282zM305 -249l95 30q50 23 58 79q4 23 4 67h168q0 -156 -46 -218t-170 -62h-109v104z" />
<glyph unicode="&#xc8;" horiz-adv-x="1137" d="M132 273v907q0 111 47 179t106.5 89t97.5 21t321.5 -10t365.5 -22v-190h-601q-74 0 -92 -37q-11 -28 -11 -76v-291l615 -20v-191l-615 -20v-291q2 -84 55 -99q27 -5 69 -5h580v-189q-65 -7 -484 -28l-138 -6h-37.5t-53.5 3t-76 20t-76 45q-73 69 -73 211zM339 1869h225 l195 -276h-167z" />
<glyph unicode="&#xc9;" horiz-adv-x="1137" d="M132 273v907q0 111 47 179t106.5 89t97.5 21t321.5 -10t365.5 -22v-190h-601q-74 0 -92 -37q-11 -28 -11 -76v-291l615 -20v-191l-615 -20v-291q2 -84 55 -99q27 -5 69 -5h580v-189q-65 -7 -484 -28l-138 -6h-37.5t-53.5 3t-76 20t-76 45q-73 69 -73 211zM562 1593 l193 274h226l-253 -274h-166z" />
<glyph unicode="&#xca;" horiz-adv-x="1137" d="M132 273v907q0 111 47 179t106.5 89t97.5 21t321.5 -10t365.5 -22v-190h-601q-74 0 -92 -37q-11 -28 -11 -76v-291l615 -20v-191l-615 -20v-291q2 -84 55 -99q27 -5 69 -5h580v-189q-65 -7 -484 -28l-138 -6h-37.5t-53.5 3t-76 20t-76 45q-73 69 -73 211zM333 1599 l223 268h185l198 -268h-171l-126 129l-136 -129h-173z" />
<glyph unicode="&#xcb;" horiz-adv-x="1137" d="M132 273v907q0 111 47 179t106.5 89t97.5 21t321.5 -10t365.5 -22v-190h-601q-74 0 -92 -37q-11 -28 -11 -76v-291l615 -20v-191l-615 -20v-291q2 -84 55 -99q27 -5 69 -5h580v-189q-65 -7 -484 -28l-138 -6h-37.5t-53.5 3t-76 20t-76 45q-73 69 -73 211zM263 1706 q0 46 33 78t79 32t78.5 -32t32.5 -78t-32.5 -79.5t-78.5 -33.5t-79 33.5t-33 79.5zM775 1706q0 46 33 78t79 32t78.5 -32t32.5 -78t-32.5 -79.5t-78.5 -33.5t-79 33.5t-33 79.5z" />
<glyph unicode="&#xcc;" horiz-adv-x="469" d="M-84 1875h226l193 -276h-166zM136 0v1469h233v-1469h-233z" />
<glyph unicode="&#xcd;" horiz-adv-x="469" d="M136 0v1469h233v-1469h-233zM169 1599l195 276h224l-253 -276h-166z" />
<glyph unicode="&#xce;" horiz-adv-x="469" d="M-52 1599l224 268h186l198 -268h-171l-126 129l-138 -129h-173zM136 0v1469h233v-1469h-233z" />
<glyph unicode="&#xcf;" horiz-adv-x="469" d="M-117 1712q0 46 34.5 78.5t80.5 32.5t78.5 -32.5t32.5 -78.5t-32.5 -79.5t-78.5 -33.5t-80.5 33.5t-34.5 79.5zM136 0v1469h233v-1469h-233zM398 1712q0 46 33 78.5t79 32.5t78 -32.5t32 -78.5t-32 -79.5t-78 -33.5t-79 33.5t-33 79.5z" />
<glyph unicode="&#xd0;" horiz-adv-x="1323" d="M6 686v124h130v657q0 2 597 2q514 0 514 -741q0 -311 -119 -511q-58 -102 -159.5 -159.5t-235.5 -57.5h-597v686h-130zM369 215h349q291 0 291 515q0 293 -80 412q-74 108 -211 108h-349v-440h243v-124h-243v-471z" />
<glyph unicode="&#xd1;" horiz-adv-x="1360" d="M136 0v1469h237l655 -1038v1038h232v-1469h-232l-657 1032v-1032h-235zM355 1700q66 65 122.5 101t114 35t123.5 -35.5t81.5 -34.5h17.5q69 0 180 74l48 -106q-46 -44 -69 -64.5t-69.5 -44.5t-68.5 -24q-73 0 -140 34.5t-103 34.5q-54 0 -84.5 -14t-59.5 -31.5t-46 -25.5 z" />
<glyph unicode="&#xd2;" horiz-adv-x="1348" d="M111 746.5q0 122.5 14.5 236t41 192.5t68.5 135.5t87.5 88.5t108.5 50q104 31 225 30.5t180 -6.5t124.5 -24t109.5 -50t85.5 -88.5t64.5 -134.5q54 -174 54 -452q0 -404 -114 -559q-78 -107 -193 -141q-142 -42 -377 -30q-117 6 -168 24t-89 39t-66 51t-54.5 70.5 t-44 93.5t-32 119.5t-20 149.5t-5.5 205.5zM343 716.5q0 -104.5 7.5 -183.5t24 -138.5t41 -93.5t66.5 -56q71 -34 194 -34t185 19t105 75.5t59.5 155.5t16.5 219.5t-3 182.5t-10.5 112.5t-16 89t-24 68t-29 50.5t-38 35t-45.5 22.5t-53 13.5q-52 6 -116.5 6t-95.5 -2 t-70 -8.5t-61 -22t-48 -41.5t-39.5 -65t-26.5 -94.5t-18 -130.5t-5 -179.5zM358 1875h226l193 -276h-166z" />
<glyph unicode="&#xd3;" horiz-adv-x="1348" d="M111 746.5q0 122.5 14.5 236t41 192.5t68.5 135.5t87.5 88.5t108.5 50q104 31 225 30.5t180 -6.5t124.5 -24t109.5 -50t85.5 -88.5t64.5 -134.5q54 -174 54 -452q0 -404 -114 -559q-78 -107 -193 -141q-142 -42 -377 -30q-117 6 -168 24t-89 39t-66 51t-54.5 70.5 t-44 93.5t-32 119.5t-20 149.5t-5.5 205.5zM343 716.5q0 -104.5 7.5 -183.5t24 -138.5t41 -93.5t66.5 -56q71 -34 194 -34t185 19t105 75.5t59.5 155.5t16.5 219.5t-3 182.5t-10.5 112.5t-16 89t-24 68t-29 50.5t-38 35t-45.5 22.5t-53 13.5q-52 6 -116.5 6t-95.5 -2 t-70 -8.5t-61 -22t-48 -41.5t-39.5 -65t-26.5 -94.5t-18 -130.5t-5 -179.5zM611 1599l194 276h225l-253 -276h-166z" />
<glyph unicode="&#xd4;" horiz-adv-x="1348" d="M111 746.5q0 122.5 14.5 236t41 192.5t68.5 135.5t87.5 88.5t108.5 50q104 31 225 30.5t180 -6.5t124.5 -24t109.5 -50t85.5 -88.5t64.5 -134.5q54 -174 54 -452q0 -404 -114 -559q-78 -107 -193 -141q-142 -42 -377 -30q-117 6 -168 24t-89 39t-66 51t-54.5 70.5 t-44 93.5t-32 119.5t-20 149.5t-5.5 205.5zM343 716.5q0 -104.5 7.5 -183.5t24 -138.5t41 -93.5t66.5 -56q71 -34 194 -34t185 19t105 75.5t59.5 155.5t16.5 219.5t-3 182.5t-10.5 112.5t-16 89t-24 68t-29 50.5t-38 35t-45.5 22.5t-53 13.5q-52 6 -116.5 6t-95.5 -2 t-70 -8.5t-61 -22t-48 -41.5t-39.5 -65t-26.5 -94.5t-18 -130.5t-5 -179.5zM391 1599l223 268h185l199 -268h-171l-126 129l-137 -129h-173z" />
<glyph unicode="&#xd5;" horiz-adv-x="1348" d="M111 746.5q0 122.5 14.5 236t41 192.5t68.5 135.5t87.5 88.5t108.5 50q104 31 225 30.5t180 -6.5t124.5 -24t109.5 -50t85.5 -88.5t64.5 -134.5q54 -174 54 -452q0 -404 -114 -559q-78 -107 -193 -141q-142 -42 -377 -30q-117 6 -168 24t-89 39t-66 51t-54.5 70.5 t-44 93.5t-32 119.5t-20 149.5t-5.5 205.5zM343 716.5q0 -104.5 7.5 -183.5t24 -138.5t41 -93.5t66.5 -56q71 -34 194 -34t185 19t105 75.5t59.5 155.5t16.5 219.5t-3 182.5t-10.5 112.5t-16 89t-24 68t-29 50.5t-38 35t-45.5 22.5t-53 13.5q-52 6 -116.5 6t-95.5 -2 t-70 -8.5t-61 -22t-48 -41.5t-39.5 -65t-26.5 -94.5t-18 -130.5t-5 -179.5zM351 1700q66 65 122.5 101t113.5 35t123.5 -35.5t82 -34.5h17.5q67 0 180 74l48 -106q-46 -44 -69 -64.5t-69.5 -44.5t-68.5 -24q-72 0 -140.5 34.5t-102.5 34.5q-54 0 -84.5 -14t-60 -31.5 t-45.5 -25.5z" />
<glyph unicode="&#xd6;" horiz-adv-x="1348" d="M111 746.5q0 122.5 14.5 236t41 192.5t68.5 135.5t87.5 88.5t108.5 50q104 31 225 30.5t180 -6.5t124.5 -24t109.5 -50t85.5 -88.5t64.5 -134.5q54 -174 54 -452q0 -404 -114 -559q-78 -107 -193 -141q-142 -42 -377 -30q-117 6 -168 24t-89 39t-66 51t-54.5 70.5 t-44 93.5t-32 119.5t-20 149.5t-5.5 205.5zM327 1712q0 46 33 78.5t79.5 32.5t78.5 -32.5t32 -78.5t-32 -79.5t-78.5 -33.5t-79.5 33.5t-33 79.5zM343 716.5q0 -104.5 7.5 -183.5t24 -138.5t41 -93.5t66.5 -56q71 -34 194 -34t185 19t105 75.5t59.5 155.5t16.5 219.5 t-3 182.5t-10.5 112.5t-16 89t-24 68t-29 50.5t-38 35t-45.5 22.5t-53 13.5q-52 6 -116.5 6t-95.5 -2t-70 -8.5t-61 -22t-48 -41.5t-39.5 -65t-26.5 -94.5t-18 -130.5t-5 -179.5zM839 1712q0 46 33.5 78.5t79.5 32.5t77.5 -32.5t31.5 -78.5t-31.5 -79.5t-77.5 -33.5 t-79.5 33.5t-33.5 79.5z" />
<glyph unicode="&#xd8;" horiz-adv-x="1360" d="M117 734.5q0 413.5 122 575.5q42 56 86 88.5t110 50.5q104 31 246 30.5t229.5 -15.5t152.5 -59l42 64h142l-96 -144q130 -171 130 -601q0 -404 -115 -559q-78 -107 -195 -141q-107 -32 -256 -32t-241.5 16t-160.5 65l-48 -73h-141l107 159q-114 162 -114 575.5z M349.5 688q-0.5 -199 41.5 -297l542 823q-38 31 -91 38.5t-118 7.5t-91.5 -1t-59.5 -5t-53 -11.5t-45 -22t-39.5 -34.5t-30.5 -50.5t-25 -68t-16 -90.5q-14 -90 -14.5 -289zM450 273q70 -62 249 -62q107 0 167.5 19t104.5 75.5t60.5 155.5t16.5 317t-46 329z" />
<glyph unicode="&#xd9;" horiz-adv-x="1342" d="M136 642v827h233v-827q0 -205 37 -291q19 -48 42 -76t66 -42q64 -24 154.5 -24t132.5 7.5t85 33t68 71.5q53 104 53 321v827h236v-827q0 -249 -53 -375q-29 -67 -57 -116t-75 -78t-83 -47t-94 -26q-86 -10 -186 -10h-29q-239 0 -317 50q-36 25 -83 72t-71 114 q-58 169 -59 416zM353 1875h225l194 -276h-166z" />
<glyph unicode="&#xda;" horiz-adv-x="1342" d="M136 642v827h233v-827q0 -205 37 -291q19 -48 42 -76t66 -42q64 -24 154.5 -24t132.5 7.5t85 33t68 71.5q53 104 53 321v827h236v-827q0 -249 -53 -375q-29 -67 -57 -116t-75 -78t-83 -47t-94 -26q-86 -10 -186 -10h-29q-239 0 -317 50q-36 25 -83 72t-71 114 q-58 169 -59 416zM606 1599l193 276h227l-254 -276h-166z" />
<glyph unicode="&#xdb;" horiz-adv-x="1342" d="M136 642v827h233v-827q0 -205 37 -291q19 -48 42 -76t66 -42q64 -24 154.5 -24t132.5 7.5t85 33t68 71.5q53 104 53 321v827h236v-827q0 -249 -53 -375q-29 -67 -57 -116t-75 -78t-83 -47t-94 -26q-86 -10 -186 -10h-29q-239 0 -317 50q-36 25 -83 72t-71 114 q-58 169 -59 416zM385 1599l224 268h184l199 -268h-169l-128 129l-137 -129h-173z" />
<glyph unicode="&#xdc;" horiz-adv-x="1342" d="M136 642v827h233v-827q0 -205 37 -291q19 -48 42 -76t66 -42q64 -24 154.5 -24t132.5 7.5t85 33t68 71.5q53 104 53 321v827h236v-827q0 -249 -53 -375q-29 -67 -57 -116t-75 -78t-83 -47t-94 -26q-86 -10 -186 -10h-29q-239 0 -317 50q-36 25 -83 72t-71 114 q-58 169 -59 416zM321 1712q0 46 33 78.5t79 32.5t79.5 -32.5t33.5 -78.5t-33.5 -79.5t-79.5 -33.5t-79 33.5t-33 79.5zM833 1712q0 46 33.5 78.5t79.5 32.5t77.5 -32.5t31.5 -78.5t-31.5 -79.5t-77.5 -33.5t-79.5 33.5t-33.5 79.5z" />
<glyph unicode="&#xdd;" horiz-adv-x="1298" d="M76 1469h253l322 -728l353 728h252l-492 -990v-479h-232v479zM582 1599l195 276h227l-253 -276h-169z" />
<glyph unicode="&#xde;" horiz-adv-x="1103" d="M102 0v1463h233v-283h331q353 -2 353 -427q0 -322 -164 -412q-79 -40 -189 -42q-7 0 -32 -1t-33.5 -1t-30.5 1t-34 2t-35.5 4t-44.5 7q-69 13 -121 26v-337h-233zM335 510h276h24.5t49 9t52.5 33q48 48 48 201q-2 149 -63 186q-44 28 -111 28h-276v-457z" />
<glyph unicode="&#xdf;" horiz-adv-x="1145" d="M102 0v1136q0 182 123.5 304.5t344.5 122.5q140 0 242.5 -34.5t154.5 -93.5q87 -98 87 -225q0 -94 -42.5 -178t-79.5 -119.5t-77.5 -71.5t-53.5 -50q-44 -44 -44 -84.5t37 -62.5t89 -41t104.5 -44t89.5 -78.5t37 -127.5v-74q2 -224 -214 -281q-56 -14 -105.5 -14t-88 2 t-75.5 8t-59 9t-59.5 10t-45.5 10v170l274 -13q56 0 97 32.5t43 88.5v67q0 64 -124 103q-50 16 -101.5 38.5t-87.5 70.5t-36 108.5t9 95.5t35 71q40 55 157 147q90 74 90 180q0 166 -244 166t-244 -276v-1072h-233z" />
<glyph unicode="&#xe0;" horiz-adv-x="1040" d="M69 265v108q0 125 74 204.5t237.5 79.5h253.5h90q2 46 2 69t-2 23q0 82 -36.5 112t-113.5 30q-149 0 -472 -22v150q193 67 504 67q350 0 351 -331v-755h-180l-53 121q-6 -10 -59 -40.5t-141.5 -61.5t-161.5 -31q-137 0 -215 80.5t-78 196.5zM201 1481h224l195 -275h-166z M301 293q0 -62 28.5 -85.5t82.5 -23.5t133 23.5t129 45.5l50 22v229l-324 -25q-98 -10 -99 -115v-71z" />
<glyph unicode="&#xe1;" horiz-adv-x="1040" d="M69 265v108q0 125 74 204.5t237.5 79.5h253.5h90q2 46 2 69t-2 23q0 82 -36.5 112t-113.5 30q-149 0 -472 -22v150q193 67 504 67q350 0 351 -331v-755h-180l-53 121q-6 -10 -59 -40.5t-141.5 -61.5t-161.5 -31q-137 0 -215 80.5t-78 196.5zM301 293q0 -62 28.5 -85.5 t82.5 -23.5t133 23.5t129 45.5l50 22v229l-324 -25q-98 -10 -99 -115v-71zM446 1206l194 275h225l-253 -275h-166z" />
<glyph unicode="&#xe2;" horiz-adv-x="1040" d="M69 265v108q0 125 74 204.5t237.5 79.5h253.5h90q2 46 2 69t-2 23q0 82 -36.5 112t-113.5 30q-149 0 -472 -22v150q193 67 504 67q350 0 351 -331v-755h-180l-53 121q-6 -10 -59 -40.5t-141.5 -61.5t-161.5 -31q-137 0 -215 80.5t-78 196.5zM228 1206l224 267h184 l199 -267h-171l-126 129l-136 -129h-174zM301 293q0 -62 28.5 -85.5t82.5 -23.5t133 23.5t129 45.5l50 22v229l-324 -25q-98 -10 -99 -115v-71z" />
<glyph unicode="&#xe3;" horiz-adv-x="1040" d="M69 265v108q0 125 74 204.5t237.5 79.5h253.5h90q2 46 2 69t-2 23q0 82 -36.5 112t-113.5 30q-149 0 -472 -22v150q193 67 504 67q350 0 351 -331v-755h-180l-53 121q-6 -10 -59 -40.5t-141.5 -61.5t-161.5 -31q-137 0 -215 80.5t-78 196.5zM182 1306q65 65 121.5 101.5 t113 35t124.5 -35.5t82.5 -34h18.5q67 0 179 74l46 -106q-44 -44 -67 -64.5t-70.5 -44.5t-67.5 -24q-74 0 -141 34.5t-102 34.5q-55 0 -85.5 -14t-59.5 -31.5t-46 -25.5zM301 293q0 -62 28.5 -85.5t82.5 -23.5t133 23.5t129 45.5l50 22v229l-324 -25q-98 -10 -99 -115v-71z " />
<glyph unicode="&#xe4;" horiz-adv-x="1040" d="M69 265v108q0 125 74 204.5t237.5 79.5h253.5h90q2 46 2 69t-2 23q0 82 -36.5 112t-113.5 30q-149 0 -472 -22v150q193 67 504 67q350 0 351 -331v-755h-180l-53 121q-6 -10 -59 -40.5t-141.5 -61.5t-161.5 -31q-137 0 -215 80.5t-78 196.5zM161 1318.5q0 46.5 32.5 79.5 t80 33t79.5 -33t32 -79.5t-32 -79.5t-78.5 -33t-80 33t-33.5 79.5zM301 293q0 -62 28.5 -85.5t82.5 -23.5t133 23.5t129 45.5l50 22v229l-324 -25q-98 -10 -99 -115v-71zM672 1318.5q0 46.5 33.5 79.5t80.5 33t79 -33t32 -71t-14 -65q-32 -56 -87 -56t-89.5 33t-34.5 79.5z " />
<glyph unicode="&#xe5;" horiz-adv-x="1040" d="M69 265v108q0 125 74 204.5t237.5 79.5h253.5h90q2 46 2 69t-2 23q0 82 -36.5 112t-113.5 30q-149 0 -472 -22v150q193 67 504 67q350 0 351 -331v-755h-180l-53 121q-6 -10 -59 -40.5t-141.5 -61.5t-161.5 -31q-137 0 -215 80.5t-78 196.5zM301 293q0 -62 28.5 -85.5 t82.5 -23.5t133 23.5t129 45.5l50 22v229l-324 -25q-98 -10 -99 -115v-71zM329 1379q0 50 27 97t74 74.5t102.5 27.5t102.5 -27.5t74.5 -74.5t27.5 -118t-59.5 -130.5t-144.5 -59.5t-144.5 59.5t-59.5 151.5zM437 1372q0 -39 28.5 -66t67.5 -27t66 27t27 66t-27 67t-66 28 t-67.5 -28t-28.5 -67z" />
<glyph unicode="&#xe6;" horiz-adv-x="1711" d="M69 273v74q0 124 74 203.5t237.5 78.5t253.5 -1t90 2q2 62 2 93.5t-2 33.5q0 82 -36.5 112.5t-139 30.5t-446.5 -25v151q168 67 498 68q189 0 271 -96q56 50 134.5 67t175 17t143.5 -3t96 -12.5t81.5 -26.5t61.5 -44t46 -67q34 -86 34 -220.5t-71 -194.5t-218 -60h-379 q0 -199 93 -239q44 -20 125 -20q291 0 431 20v-161q-165 -56 -530 -56q-113 0 -178 34.5t-119 103.5q-14 -26 -171 -83t-266 -57q-135 0 -213 80.5t-78 196.5zM301 299q0 -65 27 -85.5t82.5 -20.5t134.5 23t129 45l50 22v203l-324 -24q-98 -10 -99 -117v-46zM975 628h333 q103 0 103 86q0 121 -32 149t-159 28h-6q-126 0 -145 -10t-38.5 -23t-26 -31.5t-14.5 -45.5q-14 -44 -15 -153z" />
<glyph unicode="&#xe7;" horiz-adv-x="994" d="M84 549.5q0 147.5 25 257.5t75.5 168.5t109.5 80.5t129.5 22t146.5 -4q195 -16 345 -59v-148q-224 14 -336 14t-137 -4t-51.5 -23t-41.5 -57q-32 -87 -31.5 -232.5t10 -211.5t33.5 -104t59.5 -51.5t105.5 -13.5q151 0 339 17l64 4v-153q-104 -44 -217 -54q-36 -4 -54 -5 t-57 -3t-53 -2h-57h-80.5t-87.5 13t-96.5 49t-76 96.5t-48 158t-18.5 245zM329 -251l96 31q39 15 50 47t11 99h171q0 -157 -46.5 -219t-170.5 -62h-111v104z" />
<glyph unicode="&#xe8;" horiz-adv-x="1053" d="M84 502.5q0 269.5 48 380.5q25 60 58.5 97t90.5 58q96 36 222.5 36t180 -4.5t107.5 -17t86 -38.5t58 -68q50 -77 51 -255q0 -261 -289 -262h-379q0 -155 51 -201q29 -26 65.5 -34t213.5 -8t317 23v-163q-164 -56 -530 -56q-201 0 -276 121.5t-75 391zM219 1469h227 l192 -272h-167zM318 612h333q102 0 102 87q0 120 -33.5 152t-157.5 32q-159 0 -191 -36q-42 -46 -47.5 -107.5t-5.5 -127.5z" />
<glyph unicode="&#xe9;" horiz-adv-x="1053" d="M84 502.5q0 269.5 48 380.5q25 60 58.5 97t90.5 58q96 36 222.5 36t180 -4.5t107.5 -17t86 -38.5t58 -68q50 -77 51 -255q0 -261 -289 -262h-379q0 -155 51 -201q29 -26 65.5 -34t213.5 -8t317 23v-163q-164 -56 -530 -56q-201 0 -276 121.5t-75 391zM318 612h333 q102 0 102 87q0 120 -33.5 152t-157.5 32q-159 0 -191 -36q-42 -46 -47.5 -107.5t-5.5 -127.5zM460 1197l193 272h226l-253 -272h-166z" />
<glyph unicode="&#xea;" horiz-adv-x="1053" d="M84 502.5q0 269.5 48 380.5q25 60 58.5 97t90.5 58q96 36 222.5 36t180 -4.5t107.5 -17t86 -38.5t58 -68q50 -77 51 -255q0 -261 -289 -262h-379q0 -155 51 -201q29 -26 65.5 -34t213.5 -8t317 23v-163q-164 -56 -530 -56q-201 0 -276 121.5t-75 391zM237 1197l223 268 h184l199 -268h-171l-126 128l-136 -128h-173zM318 612h333q102 0 102 87q0 120 -33.5 152t-157.5 32q-159 0 -191 -36q-42 -46 -47.5 -107.5t-5.5 -127.5z" />
<glyph unicode="&#xeb;" horiz-adv-x="1053" d="M84 502.5q0 269.5 48 380.5q25 60 58.5 97t90.5 58q96 36 222.5 36t180 -4.5t107.5 -17t86 -38.5t58 -68q50 -77 51 -255q0 -261 -289 -262h-379q0 -155 51 -201q29 -26 65.5 -34t213.5 -8t317 23v-163q-164 -56 -530 -56q-201 0 -276 121.5t-75 391zM169 1308 q0 46 33 79.5t79 33.5t78 -33.5t32 -79.5t-32 -78.5t-78 -32.5t-79 32.5t-33 78.5zM318 612h333q102 0 102 87q0 120 -33.5 152t-157.5 32q-159 0 -191 -36q-42 -46 -47.5 -107.5t-5.5 -127.5zM680 1308q0 46 33.5 79.5t79.5 33.5t78.5 -33.5t32.5 -79.5t-32.5 -78.5 t-78.5 -32.5t-79.5 32.5t-33.5 78.5z" />
<glyph unicode="&#xec;" horiz-adv-x="435" d="M-119 1469h228l192 -272h-167zM102 0v1065h233v-1065h-233z" />
<glyph unicode="&#xed;" horiz-adv-x="435" d="M102 0v1065h233v-1065h-233zM134 1197l195 272h225l-253 -272h-167z" />
<glyph unicode="&#xee;" horiz-adv-x="435" d="M-84 1197l222 268h185l198 -268h-170l-127 128l-136 -128h-172zM102 0v1065h233v-1065h-233z" />
<glyph unicode="&#xef;" horiz-adv-x="435" d="M-149 1308q0 46 33.5 79.5t79.5 33.5t78 -33.5t32 -79.5t-32 -78.5t-78 -32.5t-79.5 32.5t-33.5 78.5zM102 0v1065h233v-1065h-233zM364 1308q0 46 32.5 79.5t78.5 33.5t78.5 -33.5t32.5 -79.5t-32.5 -78.5t-78.5 -32.5t-78.5 32.5t-32.5 78.5z" />
<glyph unicode="&#xf0;" horiz-adv-x="1080" d="M69 525q0 272 85 406t281 134h145q117 0 148 -21q-42 136 -128 218l-251 -110l-54 116l172 77q-82 34 -212 34q-20 0 -42 -2v195q306 0 480 -121l202 91l57 -119l-153 -67q216 -253 216 -826q0 -530 -371 -530h-209q-200 0 -283 126.5t-83 398.5zM301 543q0 -118 10 -181 t34 -93t49 -38.5t72 -8.5h150q98 0 132.5 71t34.5 251t-32.5 241.5t-134.5 61.5h-150q-60 0 -93.5 -22t-52.5 -93t-19 -189z" />
<glyph unicode="&#xf1;" d="M102 0v1065h181l52 -117l43.5 29t74.5 46t103 41t137 20q166 0 244 -101.5t78 -260.5v-722h-232v724q0 163 -141 163q-92 0 -154.5 -23t-152.5 -77v-787h-233zM217 1304q64 65 120 101t113.5 35t124.5 -35t82 -34h19q67 0 179 75l47 -107q-109 -104 -165 -123 q-30 -10 -46 -10q-69 0 -136 34t-101 34q-56 0 -86.5 -13.5t-59.5 -31t-45 -25.5z" />
<glyph unicode="&#xf2;" horiz-adv-x="1129" d="M84 554q0 183 47 303t148.5 169.5t286.5 49.5q274 0 377 -120.5t103 -428.5t-103.5 -422.5t-376.5 -114.5q-138 0 -229.5 28t-148 93t-80.5 162.5t-24 280.5zM243 1469h224l195 -272h-166zM318 522q0 -80 5.5 -134.5t21 -90.5t33 -58t47.5 -34q50 -16 125.5 -16t110 5 t68 22t50.5 53q34 80 33.5 206.5t-5 183.5t-17.5 98.5t-29 64.5t-47 35q-48 19 -124 20.5t-108 -2.5t-63.5 -17t-48.5 -36t-30 -64.5t-17.5 -98.5t-4.5 -137z" />
<glyph unicode="&#xf3;" horiz-adv-x="1129" d="M84 554q0 183 47 303t148.5 169.5t286.5 49.5q274 0 377 -120.5t103 -428.5t-103.5 -422.5t-376.5 -114.5q-138 0 -229.5 28t-148 93t-80.5 162.5t-24 280.5zM318 522q0 -80 5.5 -134.5t21 -90.5t33 -58t47.5 -34q50 -16 125.5 -16t110 5t68 22t50.5 53q34 80 33.5 206.5 t-5 183.5t-17.5 98.5t-29 64.5t-47 35q-48 19 -124 20.5t-108 -2.5t-63.5 -17t-48.5 -36t-30 -64.5t-17.5 -98.5t-4.5 -137zM482 1197l194 272h226l-253 -272h-167z" />
<glyph unicode="&#xf4;" horiz-adv-x="1129" d="M84 554q0 183 47 303t148.5 169.5t286.5 49.5q274 0 377 -120.5t103 -428.5t-103.5 -422.5t-376.5 -114.5q-138 0 -229.5 28t-148 93t-80.5 162.5t-24 280.5zM269 1197l223 268h184l199 -268h-170l-127 128l-136 -128h-173zM318 522q0 -80 5.5 -134.5t21 -90.5t33 -58 t47.5 -34q50 -16 125.5 -16t110 5t68 22t50.5 53q34 80 33.5 206.5t-5 183.5t-17.5 98.5t-29 64.5t-47 35q-48 19 -124 20.5t-108 -2.5t-63.5 -17t-48.5 -36t-30 -64.5t-17.5 -98.5t-4.5 -137z" />
<glyph unicode="&#xf5;" horiz-adv-x="1129" d="M84 554q0 183 47 303t148.5 169.5t286.5 49.5q274 0 377 -120.5t103 -428.5t-103.5 -422.5t-376.5 -114.5q-138 0 -229.5 28t-148 93t-80.5 162.5t-24 280.5zM235 1297q65 64 121 100t113 35t124.5 -35t82.5 -34h19q66 0 178 74l46 -106q-109 -104 -164 -123 q-31 -9 -46 -9q-69 0 -136 33.5t-102 33.5q-55 0 -85.5 -13.5t-59.5 -31t-45 -24.5zM318 522q0 -80 5.5 -134.5t21 -90.5t33 -58t47.5 -34q50 -16 125.5 -16t110 5t68 22t50.5 53q34 80 33.5 206.5t-5 183.5t-17.5 98.5t-29 64.5t-47 35q-48 19 -124 20.5t-108 -2.5 t-63.5 -17t-48.5 -36t-30 -64.5t-17.5 -98.5t-4.5 -137z" />
<glyph unicode="&#xf6;" horiz-adv-x="1129" d="M84 554q0 183 47 303t148.5 169.5t286.5 49.5q274 0 377 -120.5t103 -428.5t-103.5 -422.5t-376.5 -114.5q-138 0 -229.5 28t-148 93t-80.5 162.5t-24 280.5zM199 1308q0 46 33 79.5t79.5 33.5t78 -33.5t31.5 -79.5t-31.5 -78.5t-78 -32.5t-79.5 32.5t-33 78.5zM318 522 q0 -80 5.5 -134.5t21 -90.5t33 -58t47.5 -34q50 -16 125.5 -16t110 5t68 22t50.5 53q34 80 33.5 206.5t-5 183.5t-17.5 98.5t-29 64.5t-47 35q-48 19 -124 20.5t-108 -2.5t-63.5 -17t-48.5 -36t-30 -64.5t-17.5 -98.5t-4.5 -137zM710 1308q0 46 33.5 79.5t79.5 33.5 t78 -33.5t32 -79.5t-32 -78.5t-78 -32.5t-79.5 32.5t-33.5 78.5z" />
<glyph unicode="&#xf7;" horiz-adv-x="1011" d="M84 606v204h843v-204h-843zM393 323v127q0 48 49 48h130q46 0 46 -48v-127q0 -46 -46 -46h-130q-23 0 -36 13.5t-13 32.5zM393 956v124q0 50 49 50h130q46 0 46 -50v-124q0 -47 -46 -47h-130q-36 0 -47 30q-2 9 -2 17z" />
<glyph unicode="&#xf8;" horiz-adv-x="1155" d="M86 0l100 130q-88 117 -88 362t47.5 365t148.5 169.5t289.5 49.5t291.5 -55l34 44h146l-92 -117q96 -121 96 -425t-103 -418.5t-376 -114.5q-205 0 -311 64l-43 -54h-140zM331 502q0 -100 27 -159l381 506q-44 30 -127.5 30t-115.5 -4t-63 -17t-48 -36t-30.5 -64.5 t-18.5 -98.5t-5 -157zM408 226q44 -38 163.5 -37.5t162.5 22.5t59 58q34 80 34 243.5t-32 226.5z" />
<glyph unicode="&#xf9;" d="M84 345v720h234v-724q0 -82 37.5 -121.5t116 -39.5t140.5 22t152 79v784h234v-1065h-181l-53 117q-15 -8 -51.5 -31.5t-54.5 -33.5t-52 -26t-60 -24q-69 -20 -138 -20q-167 0 -245.5 101t-78.5 262zM219 1469h225l194 -272h-167z" />
<glyph unicode="&#xfa;" d="M84 345v720h234v-724q0 -82 37.5 -121.5t116 -39.5t140.5 22t152 79v784h234v-1065h-181l-53 117q-15 -8 -51.5 -31.5t-54.5 -33.5t-52 -26t-60 -24q-69 -20 -138 -20q-167 0 -245.5 101t-78.5 262zM458 1197l195 272h224l-253 -272h-166z" />
<glyph unicode="&#xfb;" d="M84 345v720h234v-724q0 -82 37.5 -121.5t116 -39.5t140.5 22t152 79v784h234v-1065h-181l-53 117q-15 -8 -51.5 -31.5t-54.5 -33.5t-52 -26t-60 -24q-69 -20 -138 -20q-167 0 -245.5 101t-78.5 262zM239 1197l223 268h184l199 -268h-171l-126 128l-136 -128h-173z" />
<glyph unicode="&#xfc;" d="M84 345v720h234v-724q0 -82 37.5 -121.5t116 -39.5t140.5 22t152 79v784h234v-1065h-181l-53 117q-15 -8 -51.5 -31.5t-54.5 -33.5t-52 -26t-60 -24q-69 -20 -138 -20q-167 0 -245.5 101t-78.5 262zM174 1308q0 46 33.5 79.5t79.5 33.5t78.5 -33.5t32.5 -79.5 t-32.5 -78.5t-78.5 -32.5t-79.5 32.5t-33.5 78.5zM686 1308q0 46 33.5 79.5t79.5 33.5t78 -33.5t32 -79.5t-32 -78.5t-78 -32.5t-79.5 32.5t-33.5 78.5z" />
<glyph unicode="&#xfd;" horiz-adv-x="1141" d="M36 1065h247l211 -776q12 -44 32 -58t33 -18t22 -4t19 1l11 1l246 854h246l-404 -1402l-149 -205h-161l165 542q-219 0 -291 253zM486 1197l194 272h226l-253 -272h-167z" />
<glyph unicode="&#xfe;" horiz-adv-x="1113" d="M119 -542v2112h232v-622q58 46 159 88t189 42q349 0 349 -546q0 -321 -96 -446q-85 -110 -253 -110q-75 0 -173.5 20t-174.5 56v-594h-232zM351 213q42 -12 68.5 -18t40 -8.5t35.5 -5.5t32.5 -4t34.5 -2t29 -2t32.5 -1.5t48.5 -0.5t48 15t48 53q46 75 46 289 q0 341 -161 341q-153 -6 -302 -80v-576z" />
<glyph unicode="&#xff;" horiz-adv-x="1141" d="M36 1065h247l211 -776q12 -44 32 -58t33 -18t22 -4t19 1l11 1l246 854h246l-404 -1402l-149 -205h-161l165 542q-219 0 -291 253zM203 1308q0 46 33 79.5t79.5 33.5t78 -33.5t31.5 -79.5t-31.5 -78.5t-78 -32.5t-79.5 32.5t-33 78.5zM714 1308q0 46 33.5 79.5t79.5 33.5 t78 -33.5t32 -79.5t-32 -78.5t-78 -32.5t-79.5 32.5t-33.5 78.5z" />
<glyph unicode="&#x100;" horiz-adv-x="1372" d="M76 0l512 1469h257l492 -1469h-255l-113 355h-519l-115 -355h-259zM423 1599v147h586v-147h-586zM515 568h394l-193 584z" />
<glyph unicode="&#x101;" horiz-adv-x="1040" d="M69 265v108q0 125 74 204.5t237.5 79.5h253.5h90q2 46 2 69t-2 23q0 82 -36.5 112t-113.5 30q-149 0 -472 -22v150q193 67 504 67q350 0 351 -331v-755h-180l-53 121q-6 -10 -59 -40.5t-141.5 -61.5t-161.5 -31q-137 0 -215 80.5t-78 196.5zM251 1206v146h586v-146h-586z M301 293q0 -62 28.5 -85.5t82.5 -23.5t133 23.5t129 45.5l50 22v229l-324 -25q-98 -10 -99 -115v-71z" />
<glyph unicode="&#x102;" horiz-adv-x="1372" d="M76 0l512 1469h257l492 -1469h-255l-113 355h-519l-115 -355h-259zM486 1829h108q0 -73 61 -107q28 -14 72.5 -14t78 32t33.5 89h109q0 -71 -33 -125q-66 -104 -201 -105q-130 0 -197 107q-31 52 -31 123zM515 568h394l-193 584z" />
<glyph unicode="&#x103;" horiz-adv-x="1040" d="M69 265v108q0 125 74 204.5t237.5 79.5h253.5h90q2 46 2 69t-2 23q0 82 -36.5 112t-113.5 30q-149 0 -472 -22v150q193 67 504 67q350 0 351 -331v-755h-180l-53 121q-6 -10 -59 -40.5t-141.5 -61.5t-161.5 -31q-137 0 -215 80.5t-78 196.5zM301 293q0 -62 28.5 -85.5 t82.5 -23.5t133 23.5t129 45.5l50 22v229l-324 -25q-98 -10 -99 -115v-71zM313 1435h108q0 -52 35.5 -86.5t89.5 -34.5t87 32.5t33 88.5h109q0 -71 -32 -125q-67 -104 -201 -104q-94 0 -161.5 63.5t-67.5 165.5z" />
<glyph unicode="&#x104;" horiz-adv-x="1372" d="M76 0l512 1469h257l492 -1469h-255l-113 355h-519l-115 -355h-259zM515 568h394l-193 584zM1015 -189q0 118 151 191h100q-104 -82 -104 -153q0 -28 25 -51.5t87 -23.5h5v-143q-25 -4 -55.5 -4t-80 16t-84.5 60q-44 58 -44 108z" />
<glyph unicode="&#x105;" horiz-adv-x="1040" d="M69 265v108q0 125 74 204.5t237.5 79.5h253.5h90q2 46 2 69t-2 23q0 82 -36.5 112t-113.5 30q-149 0 -472 -22v150q193 67 504 67q350 0 351 -331v-755h-180l-53 121q-6 -10 -59 -40.5t-141.5 -61.5t-161.5 -31q-137 0 -215 80.5t-78 196.5zM301 293q0 -62 28.5 -85.5 t82.5 -23.5t133 23.5t129 45.5l50 22v229l-324 -25q-98 -10 -99 -115v-71zM670 -191q0 118 151 191h100q-104 -80 -104 -153q0 -28 25 -51.5t89 -23.5h2v-141q-25 -6 -55.5 -6t-79.5 17t-84 59q-44 60 -44 108z" />
<glyph unicode="&#x106;" horiz-adv-x="1151" d="M94 711.5q0 149.5 9.5 246t30.5 182.5t57.5 148t91.5 107q109 90 307 91q268 0 504 -61v-182l-16 1q-17 1 -44 3t-63 4.5t-78 4.5t-86 6q-97 4 -172 4t-121.5 -10.5t-85.5 -43t-59 -92.5q-42 -124 -42 -388.5t66.5 -394.5t238.5 -130q186 0 394 12l68 3v-182 q-197 -52 -468 -52q-170 0 -268.5 53t-156 154.5t-82.5 234t-25 282zM580 1605l195 274h225l-253 -274h-167z" />
<glyph unicode="&#x107;" horiz-adv-x="994" d="M84 534q0 132 18.5 228.5t47 155.5t74.5 95q81 62 211 63q269 0 480 -61v-148q-224 12 -336 12t-136 -4t-51.5 -23t-42.5 -55q-32 -88 -31.5 -250t20.5 -235t58.5 -98t118.5 -25q161 0 350 14l64 4v-153q-104 -44 -217 -54q-36 -2 -54 -4t-57 -3t-53 -2t-57 -1h-81.5 t-87.5 13t-95.5 49t-76 95.5t-48 157t-18.5 229.5zM464 1199l193 274h226l-253 -274h-166z" />
<glyph unicode="&#x108;" horiz-adv-x="1151" d="M94 711.5q0 149.5 9.5 246t30.5 182.5t57.5 148t91.5 107q109 90 307 91q268 0 504 -61v-182l-16 1q-17 1 -44 3t-63 4.5t-78 4.5t-86 6q-97 4 -172 4t-121.5 -10.5t-85.5 -43t-59 -92.5q-42 -124 -42 -388.5t66.5 -394.5t238.5 -130q186 0 394 12l68 3v-182 q-197 -52 -468 -52q-170 0 -268.5 53t-156 154.5t-82.5 234t-25 282zM360 1605l222 270h184l199 -270h-170l-127 129l-136 -129h-172z" />
<glyph unicode="&#x109;" horiz-adv-x="994" d="M84 534q0 132 18.5 228.5t47 155.5t74.5 95q81 62 211 63q269 0 480 -61v-148q-224 12 -336 12t-136 -4t-51.5 -23t-42.5 -55q-32 -88 -31.5 -250t20.5 -235t58.5 -98t118.5 -25q161 0 350 14l64 4v-153q-104 -44 -217 -54q-36 -2 -54 -4t-57 -3t-53 -2t-57 -1h-81.5 t-87.5 13t-95.5 49t-76 95.5t-48 157t-18.5 229.5zM247 1199l222 268h186l200 -268h-171l-126 128l-139 -128h-172z" />
<glyph unicode="&#x10a;" horiz-adv-x="1151" d="M94 711.5q0 149.5 9.5 246t30.5 182.5t57.5 148t91.5 107q109 90 307 91q268 0 504 -61v-182l-16 1q-17 1 -44 3t-63 4.5t-78 4.5t-86 6q-97 4 -172 4t-121.5 -10.5t-85.5 -43t-59 -92.5q-42 -124 -42 -388.5t66.5 -394.5t238.5 -130q186 0 394 12l68 3v-182 q-197 -52 -468 -52q-170 0 -268.5 53t-156 154.5t-82.5 234t-25 282zM558 1654v136q0 50 48 50h129q23 0 34.5 -14t11.5 -36v-136q0 -46 -46 -47h-129q-23 0 -35.5 14t-12.5 33z" />
<glyph unicode="&#x10b;" horiz-adv-x="994" d="M84 534q0 132 18.5 228.5t47 155.5t74.5 95q81 62 211 63q269 0 480 -61v-148q-224 12 -336 12t-136 -4t-51.5 -23t-42.5 -55q-32 -88 -31.5 -250t20.5 -235t58.5 -98t118.5 -25q161 0 350 14l64 4v-153q-104 -44 -217 -54q-36 -2 -54 -4t-57 -3t-53 -2t-57 -1h-81.5 t-87.5 13t-95.5 49t-76 95.5t-48 157t-18.5 229.5zM466 1249v136q0 50 48 50h128q22 0 34 -14t12 -36v-136q0 -47 -46 -47h-128q-23 0 -35.5 12t-12.5 35z" />
<glyph unicode="&#x10c;" horiz-adv-x="1151" d="M94 711.5q0 149.5 9.5 246t30.5 182.5t57.5 148t91.5 107q109 90 307 91q268 0 504 -61v-182l-16 1q-17 1 -44 3t-63 4.5t-78 4.5t-86 6q-97 4 -172 4t-121.5 -10.5t-85.5 -43t-59 -92.5q-42 -124 -42 -388.5t66.5 -394.5t238.5 -130q186 0 394 12l68 3v-182 q-197 -52 -468 -52q-170 0 -268.5 53t-156 154.5t-82.5 234t-25 282zM373 1875h171l138 -129l126 129h171l-207 -270h-184z" />
<glyph unicode="&#x10d;" horiz-adv-x="994" d="M84 534q0 132 18.5 228.5t47 155.5t74.5 95q81 62 211 63q269 0 480 -61v-148q-224 12 -336 12t-136 -4t-51.5 -23t-42.5 -55q-32 -88 -31.5 -250t20.5 -235t58.5 -98t118.5 -25q161 0 350 14l64 4v-153q-104 -44 -217 -54q-36 -2 -54 -4t-57 -3t-53 -2t-57 -1h-81.5 t-87.5 13t-95.5 49t-76 95.5t-48 157t-18.5 229.5zM239 1467h171l138 -128l126 128h171l-207 -268h-184z" />
<glyph unicode="&#x10e;" horiz-adv-x="1323" d="M136 0v1469h597q514 0 514 -741q0 -311 -119 -511q-60 -102 -161.5 -159.5t-233.5 -57.5h-597zM335 1860h171l140 -128l124 128h172l-205 -267h-185zM369 215h349q102 0 169 68q126 127 126 447q0 381 -136 482q-62 44 -159 44h-349v-1041z" />
<glyph unicode="&#x10f;" horiz-adv-x="1179" d="M84 528q0 331 98 451q83 102 251 103q73 0 172.5 -20t177.5 -55v569h230v-1576h-184l-46 113q-80 -65 -183.5 -95t-166.5 -30q-349 0 -349 540zM318 515q0 -321 160 -320.5t305 75.5v573q-138 44 -304 44q-54 0 -88 -26q-73 -58 -73 -346zM1114 1433v134h177v-134 l-21 -269h-136z" />
<glyph unicode="&#x110;" horiz-adv-x="1323" d="M6 686v124h130v657q0 2 597 2q514 0 514 -741q0 -311 -119 -511q-58 -102 -159.5 -159.5t-235.5 -57.5h-597v686h-130zM369 215h349q291 0 291 515q0 293 -80 412q-74 108 -211 108h-349v-440h243v-124h-243v-471z" />
<glyph unicode="&#x111;" horiz-adv-x="1123" d="M80 528q0 331 98 451q83 102 251 103q73 0 172.5 -20t177.5 -55v215h-225v123h225v231h230v-231h137v-123h-137v-1222h-184l-46 113q-56 -44 -159 -84.5t-191 -40.5q-349 0 -349 540zM313 515q0 -321 160.5 -320.5t305.5 75.5v573q-138 44 -304 44q-56 0 -88 -26 q-74 -58 -74 -346z" />
<glyph unicode="&#x112;" horiz-adv-x="1137" d="M132 273v907q0 111 47 179t106.5 89t97.5 21t321.5 -10t365.5 -22v-190h-601q-74 0 -92 -37q-11 -28 -11 -76v-291l615 -20v-191l-615 -20v-291q2 -84 55 -99q27 -5 69 -5h580v-189q-65 -7 -484 -28l-138 -6h-37.5t-53.5 3t-76 20t-76 45q-73 69 -73 211zM337 1597v147 h586v-147h-586z" />
<glyph unicode="&#x113;" horiz-adv-x="1053" d="M84 502.5q0 269.5 48 380.5q25 60 58.5 97t90.5 58q96 36 222.5 36t180 -4.5t107.5 -17t86 -38.5t58 -68q50 -77 51 -255q0 -261 -289 -262h-379q0 -155 51 -201q29 -26 65.5 -34t213.5 -8t317 23v-163q-164 -56 -530 -56q-201 0 -276 121.5t-75 391zM255 1195v148h586 v-148h-586zM318 612h333q102 0 102 87q0 120 -33.5 152t-157.5 32q-159 0 -191 -36q-42 -46 -47.5 -107.5t-5.5 -127.5z" />
<glyph unicode="&#x116;" horiz-adv-x="1137" d="M132 273v907q0 111 47 179t106.5 89t97.5 21t321.5 -10t365.5 -22v-190h-601q-74 0 -92 -37q-11 -28 -11 -76v-291l615 -20v-191l-615 -20v-291q2 -84 55 -99q27 -5 69 -5h580v-189q-65 -7 -484 -28l-138 -6h-37.5t-53.5 3t-76 20t-76 45q-73 69 -73 211zM538 1642v137 q0 50 48 50h128q23 0 34.5 -14.5t11.5 -35.5v-137q0 -47 -46 -47h-128q-22 0 -35 13.5t-13 33.5z" />
<glyph unicode="&#x117;" horiz-adv-x="1053" d="M84 502.5q0 269.5 48 380.5q25 60 58.5 97t90.5 58q96 36 222.5 36t180 -4.5t107.5 -17t86 -38.5t58 -68q50 -77 51 -255q0 -261 -289 -262h-379q0 -155 51 -201q29 -26 65.5 -34t213.5 -8t317 23v-163q-164 -56 -530 -56q-201 0 -276 121.5t-75 391zM318 612h333 q102 0 102 87q0 120 -33.5 152t-157.5 32q-159 0 -191 -36q-42 -46 -47.5 -107.5t-5.5 -127.5zM433 1243v136q0 50 49 50h129q22 0 34 -14t12 -36v-136q0 -46 -46 -46h-129q-19 0 -34 13t-15 33z" />
<glyph unicode="&#x118;" horiz-adv-x="1137" d="M132 273v907q0 111 47 179t106.5 89t97.5 21t321.5 -10t365.5 -22v-190h-601q-74 0 -92 -37q-11 -28 -11 -76v-291l615 -20v-191l-615 -20v-291q2 -84 55 -99q27 -5 69 -5h580v-189q-65 -7 -484 -28l-138 -6h-37.5t-53.5 3t-76 20t-76 45q-73 69 -73 211zM819 -163 q0 119 150 191h101q-104 -80 -105 -152q0 -29 25 -53t90 -24h2v-140q-25 -6 -55.5 -6t-80 17t-81.5 60q-46 59 -46 107z" />
<glyph unicode="&#x119;" horiz-adv-x="1053" d="M84 502.5q0 269.5 48 380.5q25 60 58.5 97t90.5 58q96 36 222.5 36t180 -4.5t107.5 -17t86 -38.5t58 -68q50 -77 51 -255q0 -261 -289 -262h-379q0 -155 51 -201q29 -26 65.5 -34t213.5 -8t317 23v-163q-164 -56 -530 -56q-201 0 -276 121.5t-75 391zM318 612h333 q102 0 102 87q0 120 -33.5 152t-157.5 32q-159 0 -191 -36q-42 -46 -47.5 -107.5t-5.5 -127.5zM714 -144q0 119 153 190h98q-104 -80 -104 -153q0 -28 26 -51.5t88 -23.5h4v-143q-24 -4 -56 -4t-80 17t-83 59q-46 58 -46 109z" />
<glyph unicode="&#x11a;" horiz-adv-x="1137" d="M132 273v907q0 111 47 179t106.5 89t97.5 21t321.5 -10t365.5 -22v-190h-601q-74 0 -92 -37q-11 -28 -11 -76v-291l615 -20v-191l-615 -20v-291q2 -84 55 -99q27 -5 69 -5h580v-189q-65 -7 -484 -28l-138 -6h-37.5t-53.5 3t-76 20t-76 45q-73 69 -73 211zM335 1860h171 l138 -128l126 128h172l-207 -267h-185z" />
<glyph unicode="&#x11b;" horiz-adv-x="1053" d="M84 502.5q0 269.5 48 380.5q25 60 58.5 97t90.5 58q96 36 222.5 36t180 -4.5t107.5 -17t86 -38.5t58 -68q50 -77 51 -255q0 -261 -289 -262h-379q0 -155 51 -201q29 -26 65.5 -34t213.5 -8t317 23v-163q-164 -56 -530 -56q-201 0 -276 121.5t-75 391zM249 1457h172 l139 -128l126 128h171l-206 -267h-185zM318 612h333q102 0 102 87q0 120 -33.5 152t-157.5 32q-159 0 -191 -36q-42 -46 -47.5 -107.5t-5.5 -127.5z" />
<glyph unicode="&#x11c;" horiz-adv-x="1231" d="M94 739.5q0 137.5 10.5 241t41 203t82.5 161.5q115 140 342 141q280 0 544 -61v-182q-2 0 -35 3t-85 7.5t-113 8.5q-149 10 -269 10q-172 0 -228.5 -118t-56.5 -420.5t56 -410.5q58 -112 228 -112q132 0 296 92v313h-252v150q134 48 349 48q64 0 136 -4v-810h-169l-60 98 q-140 -109 -359 -108q-219 0 -330 136q-96 123 -120 374q-8 102 -8 239.5zM368 1605l222 270h185l200 -270h-170l-127 129l-138 -129h-172z" />
<glyph unicode="&#x11d;" horiz-adv-x="1119" d="M80 215q0 62 31 113t92 67q-62 40 -90.5 121.5t-28.5 174.5q0 189 93 284t269 95h640v-147l-134 -36q2 -4 10.5 -22t11.5 -25t9.5 -27t10.5 -38q6 -50 6 -101.5t-8 -97.5t-31.5 -98.5t-60.5 -90.5q-87 -88 -251 -88h-272q-82 0 -82 -52q0 -58 82 -58h364 q138 0 216.5 -78.5t78.5 -223.5v-120q0 -229 -189 -291q-58 -18 -135 -18h-300q-147 0 -237.5 78.5t-90.5 230.5v149l88 108q-42 26 -67 77.5t-25 113.5zM253 1199l222 266h186l198 -266h-171l-126 128l-137 -128h-172zM318 0v-211q0 -82 38.5 -108t105.5 -26h214 q75 0 101 34t26 96v93q0 86 -58 104q-25 8 -59 8h-282q-42 0 -86 10zM318 691q0 -193 149 -193h144q88 0 121.5 53t33.5 142.5t-34.5 133.5t-122.5 44h-136q-90 0 -122.5 -49t-32.5 -131z" />
<glyph unicode="&#x11e;" horiz-adv-x="1231" d="M94 739.5q0 137.5 10.5 241t41 203t82.5 161.5q115 140 342 141q280 0 544 -61v-182q-2 0 -35 3t-85 7.5t-113 8.5q-149 10 -269 10q-172 0 -228.5 -118t-56.5 -420.5t56 -410.5q58 -112 228 -112q132 0 296 92v313h-252v150q134 48 349 48q64 0 136 -4v-810h-169l-60 98 q-140 -109 -359 -108q-219 0 -330 136q-96 123 -120 374q-8 102 -8 239.5zM431 1835h109q0 -73 60 -107q28 -14 73 -14t78.5 32.5t33.5 88.5h108q0 -107 -68 -168.5t-146.5 -61.5t-130.5 27.5t-84.5 80.5t-32.5 122z" />
<glyph unicode="&#x11f;" horiz-adv-x="1119" d="M80 215q0 62 31 113t92 67q-62 40 -90.5 121.5t-28.5 174.5q0 189 93 284t269 95h640v-147l-134 -36q2 -4 10.5 -22t11.5 -25t9.5 -27t10.5 -38q6 -50 6 -101.5t-8 -97.5t-31.5 -98.5t-60.5 -90.5q-87 -88 -251 -88h-272q-82 0 -82 -52q0 -58 82 -58h364 q138 0 216.5 -78.5t78.5 -223.5v-120q0 -229 -189 -291q-58 -18 -135 -18h-300q-147 0 -237.5 78.5t-90.5 230.5v149l88 108q-42 26 -67 77.5t-25 113.5zM318 0v-211q0 -82 38.5 -108t105.5 -26h214q75 0 101 34t26 96v93q0 86 -58 104q-25 8 -59 8h-282q-42 0 -86 10z M318 691q0 -193 149 -193h144q88 0 121.5 53t33.5 142.5t-34.5 133.5t-122.5 44h-136q-90 0 -122.5 -49t-32.5 -131zM325 1427h108q0 -54 35.5 -87.5t89 -33.5t87 32.5t33.5 88.5h109q0 -107 -68 -167.5t-163.5 -60.5t-163 63t-67.5 165z" />
<glyph unicode="&#x120;" horiz-adv-x="1231" d="M94 739.5q0 137.5 10.5 241t41 203t82.5 161.5q115 140 342 141q280 0 544 -61v-182q-2 0 -35 3t-85 7.5t-113 8.5q-149 10 -269 10q-172 0 -228.5 -118t-56.5 -420.5t56 -410.5q58 -112 228 -112q132 0 296 92v313h-252v150q134 48 349 48q64 0 136 -4v-810h-169l-60 98 q-140 -109 -359 -108q-219 0 -330 136q-96 123 -120 374q-8 102 -8 239.5zM544 1652v136q0 50 48 50h128q23 0 34.5 -14t11.5 -36v-136q0 -46 -46 -47h-128q-23 0 -35.5 14t-12.5 33z" />
<glyph unicode="&#x121;" horiz-adv-x="1119" d="M80 215q0 62 31 113t92 67q-62 40 -90.5 121.5t-28.5 174.5q0 189 93 284t269 95h640v-147l-134 -36q2 -4 10.5 -22t11.5 -25t9.5 -27t10.5 -38q6 -50 6 -101.5t-8 -97.5t-31.5 -98.5t-60.5 -90.5q-87 -88 -251 -88h-272q-82 0 -82 -52q0 -58 82 -58h364 q138 0 216.5 -78.5t78.5 -223.5v-120q0 -229 -189 -291q-58 -18 -135 -18h-300q-147 0 -237.5 78.5t-90.5 230.5v149l88 108q-42 26 -67 77.5t-25 113.5zM318 0v-211q0 -82 38.5 -108t105.5 -26h214q75 0 101 34t26 96v93q0 86 -58 104q-25 8 -59 8h-282q-42 0 -86 10z M318 691q0 -193 149 -193h144q88 0 121.5 53t33.5 142.5t-34.5 133.5t-122.5 44h-136q-90 0 -122.5 -49t-32.5 -131zM450 1247v136q0 50 48 50h128q23 0 34.5 -14t11.5 -36v-136q0 -47 -46 -47h-128q-23 0 -35.5 13.5t-12.5 33.5z" />
<glyph unicode="&#x122;" horiz-adv-x="1231" d="M94 739.5q0 137.5 10.5 241t41 203t82.5 161.5q115 140 342 141q280 0 544 -61v-182q-2 0 -35 3t-85 7.5t-113 8.5q-149 10 -269 10q-172 0 -228.5 -118t-56.5 -420.5t56 -410.5q58 -112 228 -112q132 0 296 92v313h-252v150q134 48 349 48q64 0 136 -4v-810h-169l-60 98 q-140 -109 -359 -108q-219 0 -330 136q-96 123 -120 374q-8 102 -8 239.5zM526 -201q0 48 44 48h131q44 0 44 -48v-201q0 -147 -161 -146q-16 0 -28 2l-22 4v78q27 -2 38 8q18 12 18 42v33h-20q-44 0 -44 44v136z" />
<glyph unicode="&#x123;" horiz-adv-x="1119" d="M80 213q0 68 30 119t93 63q-62 40 -90.5 121.5t-28.5 174.5q0 189 93 284t269 95h640v-147l-134 -36q2 -4 10.5 -22t11.5 -25t9.5 -27t10.5 -38q6 -50 6 -101.5t-8 -97.5t-31.5 -98.5t-60.5 -90.5q-87 -88 -251 -88h-272q-82 0 -82 -54q0 -32 20 -43t62 -18l347 -40 q151 -18 231.5 -90t80.5 -221v-66q0 -229 -189 -291q-58 -18 -135 -18h-300q-147 0 -237.5 78.5t-90.5 230.5v157l96 106q-100 62 -100 183zM317.5 684.5q0.5 -194.5 149.5 -194.5h144q86 0 120.5 57t34.5 148.5t-34.5 137.5t-122.5 46h-136q-156 0 -155.5 -194.5zM318 -6 v-205q0 -82 38.5 -108t103.5 -26h216q75 0 101 34t26 96v46q0 100 -142 117l-244 32zM442 1239v200q0 147 158 147q15 0 30 -2l23 -4v-79q-27 2 -39 -7q-17 -12 -18 -41v-34h20q45 0 45 -44v-136q0 -48 -45 -49h-130q-44 0 -44 49z" />
<glyph unicode="&#x124;" horiz-adv-x="1277" d="M136 0v1469h233v-650h577v650h232v-1469h-232v602h-577v-602h-233zM353 1599l223 268h184l199 -268h-168l-129 129l-136 -129h-173z" />
<glyph unicode="&#x125;" d="M-136 1691l222 270h184l199 -270h-170l-127 130l-136 -130h-172zM48 0v1572h233v-624q4 4 41.5 29t74 45t104 41t137.5 21q167 0 245 -101.5t78 -260.5v-722h-233v724q0 163 -140 163q-92 0 -154.5 -23t-152.5 -77v-787h-233z" />
<glyph unicode="&#x126;" horiz-adv-x="1356" d="M32 1036v122h127v311h232v-311h576v311h233v-311h123v-122h-123v-1036h-233v602h-576v-602h-232v1036h-127zM391 819h576v217h-576v-217z" />
<glyph unicode="&#x127;" horiz-adv-x="1115" d="M-23 1216v125h144v231h237v-231h240v-123h-240v-268q82 48 118 67t107.5 43t105 24h36.5h10q224 0 282 -221q16 -61 17 -139v-724h-237v722q-2 85 -36.5 126t-109.5 41q-135 -6 -293 -102v-787h-237v1216h-144z" />
<glyph unicode="&#x128;" horiz-adv-x="469" d="M-90 1700q65 65 121.5 101t113 35t123.5 -35.5t83.5 -34.5h17.5q67 0 179 74l46 -106q-44 -44 -67 -64.5t-70 -44.5t-68 -24q-72 0 -140.5 34.5t-101.5 34.5q-54 0 -84.5 -14t-60.5 -31.5t-46 -25.5zM136 0v1469h233v-1469h-233z" />
<glyph unicode="&#x129;" horiz-adv-x="435" d="M-124 1297q66 64 122 100t113.5 35t123.5 -35t82 -34h18q67 0 179 74l48 -106q-47 -44 -70 -64t-69 -44t-68 -24q-73 0 -139.5 33.5t-102.5 33.5q-54 0 -84.5 -13.5t-60.5 -31t-46 -24.5zM102 0v1065h233v-1065h-233z" />
<glyph unicode="&#x12a;" horiz-adv-x="469" d="M-40 1599v147h586v-147h-586zM136 0v1469h233v-1469h-233z" />
<glyph unicode="&#x12b;" horiz-adv-x="435" d="M-74 1197v148h586v-148h-586zM102 0v1065h233v-1065h-233z" />
<glyph unicode="&#x12e;" horiz-adv-x="469" d="M62 -191q0 118 151 191h100q-104 -80 -104 -153q0 -28 25 -51.5t87 -23.5h4v-141q-24 -6 -55 -6t-80.5 17t-82.5 59q-44 60 -45 108zM136 0v1469h233v-1469h-233z" />
<glyph unicode="&#x12f;" horiz-adv-x="433" d="M24 -191q0 118 150 191h101q-103 -80 -104 -153q0 -28 24.5 -51.5t87.5 -23.5h4v-141q-24 -6 -55 -6t-80.5 17t-82.5 59q-45 60 -45 108zM84 1228v153q0 52 48 52h171q46 0 46 -52v-153q0 -46 -46 -46h-171q-19 0 -33.5 13t-14.5 33zM98 0v1065h233v-1065h-233z" />
<glyph unicode="&#x130;" horiz-adv-x="469" d="M136 0v1469h233v-1469h-233zM140 1645v138q0 50 49 50h129q22 0 34 -14.5t12 -35.5v-138q0 -46 -46 -46h-129q-19 0 -34 13.5t-15 32.5z" />
<glyph unicode="&#x131;" horiz-adv-x="435" d="M102 0v1065h233v-1065h-233z" />
<glyph unicode="&#x134;" horiz-adv-x="716" d="M60 44l5 178q4 0 29 -2.5t45 -5.5t54.5 -5t53 2t45 9.5t39 22t27.5 36.5q26 40 25 131v1059h233v-1138q0 -61 -5 -106t-30 -101.5t-71 -87.5q-75 -46 -220.5 -46t-229.5 54zM197 1599l222 268h185l199 -268h-171l-126 129l-137 -129h-172z" />
<glyph unicode="&#x135;" horiz-adv-x="467" d="M-69 1199l224 306h184l201 -306h-157l-142 153l-149 -153h-161zM121 -542v1607h239v-1073v-34q0 -307 -67 -500h-172z" />
<glyph unicode="&#x136;" horiz-adv-x="1233" d="M136 0v1469h226v-630h136l404 630h274l-469 -734l469 -735h-274l-404 626h-134v-626h-228zM514 -191q0 48 44 49h130q44 0 45 -49v-200q0 -147 -161 -147q-15 0 -28 2l-23 6v76q52 -2 57 37v11v35h-20q-44 0 -44 44v136z" />
<glyph unicode="&#x137;" horiz-adv-x="1075" d="M102 0v1570h233v-869h67l341 364h301l-428 -459l428 -606h-280l-362 510h-67v-510h-233zM431 -191q0 48 46 49h129q44 0 45 -49v-200q0 -145 -153 -145q-29 0 -56 6v76q24 -2 37 8q16 12 17 40v35h-19q-46 0 -46 44v136z" />
<glyph unicode="&#x138;" horiz-adv-x="1103" d="M102 0v1065h233v-443h127l327 443h283l-400 -535l364 -530h-277l-303 433h-119l-2 -433h-233z" />
<glyph unicode="&#x139;" horiz-adv-x="1095" d="M136 273v1196h233v-1146q0 -76 43 -92q30 -11 82 -12h544v-219h-609q-212 0 -268 136q-25 57 -25 137zM169 1599l195 276h224l-253 -276h-166z" />
<glyph unicode="&#x13a;" horiz-adv-x="617" d="M102 379v1193h233v-1164q0 -113 24 -157t76 -60q136 -42 151 -42v-149h-213q-132 0 -201.5 88t-69.5 291zM176 1691l193 276h227l-253 -276h-167z" />
<glyph unicode="&#x13b;" horiz-adv-x="1095" d="M136 273v1196h233v-1146q0 -76 43 -92q30 -11 82 -12h544v-219h-609q-212 0 -268 136q-25 57 -25 137zM492 -189q0 50 46 51h128q44 0 44 -51v-198q0 -147 -158 -147q-16 0 -31 2l-19 4v78q24 -2 38 8q18 12 18 40v33h-20q-46 0 -46 46v134z" />
<glyph unicode="&#x13c;" horiz-adv-x="617" d="M102 379v1193h233v-1164q0 -113 24 -157t76 -60q136 -42 151 -42v-149h-213q-132 0 -201.5 88t-69.5 291zM233 -189q0 48 46 49h129q44 0 44 -49v-200q0 -144 -159 -145q-16 0 -30 2l-20 4v76q25 0 38 8q16 14 16 42v33h-18q-46 0 -46 46v134z" />
<glyph unicode="&#x13d;" horiz-adv-x="1095" d="M136 273v1196h233v-1146q0 -76 43 -92q30 -11 82 -12h544v-219h-609q-212 0 -268 136q-25 57 -25 137zM504 1415v134h176v-134l-19 -269h-135z" />
<glyph unicode="&#x13e;" horiz-adv-x="676" d="M102 379v1193h233v-1164q0 -115 21 -156t79 -61q136 -42 151 -42v-149h-213q-144 0 -207.5 85.5t-63.5 293.5zM473 1433v134h178v-134l-21 -269h-134z" />
<glyph unicode="&#x141;" horiz-adv-x="1133" d="M16 624v136l160 69v640h234v-540l245 105v-134l-245 -107v-470q0 -76 42 -92q30 -11 82 -12h544v-219h-609q-212 0 -268 136q-25 56 -25 137v420z" />
<glyph unicode="&#x142;" horiz-adv-x="695" d="M20 716v137l154 66v653h234v-555l253 111l-2 -136l-251 -109v-475q0 -113 25 -157t75 -60q136 -42 151 -42v-149h-211q-132 0 -203 88t-71 291v404z" />
<glyph unicode="&#x143;" horiz-adv-x="1360" d="M136 0v1469h237l655 -1038v1038h232v-1469h-232l-657 1032v-1032h-235zM628 1599l195 276h225l-253 -276h-167z" />
<glyph unicode="&#x144;" d="M102 0v1065h181l52 -117l43.5 29t74.5 46t103 41t137 20q166 0 244 -101.5t78 -260.5v-722h-232v724q0 163 -141 163q-92 0 -154.5 -23t-152.5 -77v-787h-233zM471 1204l193 273h227l-253 -273h-167z" />
<glyph unicode="&#x145;" horiz-adv-x="1360" d="M136 0v1469h237l655 -1038v1038h232v-1469h-232l-657 1032v-1032h-235zM584 -191q0 48 46 49h129q44 0 44 -49v-200q0 -147 -159 -147q-16 0 -30 2l-20 6v76q24 -2 38 8q16 12 17 40v35h-19q-46 0 -46 44v136z" />
<glyph unicode="&#x146;" d="M102 0v1065h181l52 -117l43.5 29t74.5 46t103 41t137 20q166 0 244 -101.5t78 -260.5v-722h-232v724q0 163 -141 163q-92 0 -154.5 -23t-152.5 -77v-787h-233zM448 -191q0 48 44 49h130q42 0 42 -49v-200q0 -145 -150 -145q-31 0 -58 6v76q24 -2 38 8q18 12 18 40v35h-20 q-44 0 -44 44v136z" />
<glyph unicode="&#x147;" horiz-adv-x="1360" d="M136 0v1469h237l655 -1038v1038h232v-1469h-232l-657 1032v-1032h-235zM408 1867h172l138 -128l125 128h172l-207 -268h-184z" />
<glyph unicode="&#x148;" d="M102 0v1065h181l52 -117l43.5 29t74.5 46t103 41t137 20q166 0 244 -101.5t78 -260.5v-722h-232v724q0 163 -141 163q-92 0 -154.5 -23t-152.5 -77v-787h-233zM269 1473h173l138 -128l125 128h172l-207 -269h-184z" />
<glyph unicode="&#x14a;" horiz-adv-x="1358" d="M136 0v1469h237l653 -1023v1023h232v-1624q0 -266 -208 -333q-91 -30 -209 -29q-31 0 -60 2v170q12 2 47 8t51 9t44.5 12t42 23t30.5 34q30 39 30 127v132l-655 1032l-2 -1032h-233z" />
<glyph unicode="&#x14b;" horiz-adv-x="1115" d="M102 0v1065h181l52 -117q16 9 45.5 27.5t46.5 28t44 25t49 23t50 16.5q52 16 130.5 16t142 -29t101.5 -80q72 -100 71 -255v-720l-2 -153q-4 -86 -30.5 -153t-64 -105.5t-91.5 -65.5q-78 -40 -183 -61l-68 124q129 58 161 105q44 62 46 148v885q0 163 -141 163 q-92 0 -154.5 -23t-152.5 -77v-787h-233z" />
<glyph unicode="&#x14c;" horiz-adv-x="1348" d="M111 746.5q0 122.5 14.5 236t41 192.5t68.5 135.5t87.5 88.5t108.5 50q104 31 225 30.5t180 -6.5t124.5 -24t109.5 -50t85.5 -88.5t64.5 -134.5q54 -174 54 -452q0 -404 -114 -559q-78 -107 -193 -141q-142 -42 -377 -30q-117 6 -168 24t-89 39t-66 51t-54.5 70.5 t-44 93.5t-32 119.5t-20 149.5t-5.5 205.5zM343 716.5q0 -104.5 7.5 -183.5t24 -138.5t41 -93.5t66.5 -56q71 -34 194 -34t185 19t105 75.5t59.5 155.5t16.5 219.5t-3 182.5t-10.5 112.5t-16 89t-24 68t-29 50.5t-38 35t-45.5 22.5t-53 13.5q-52 6 -116.5 6t-95.5 -2 t-70 -8.5t-61 -22t-48 -41.5t-39.5 -65t-26.5 -94.5t-18 -130.5t-5 -179.5zM402 1599v147h586v-147h-586z" />
<glyph unicode="&#x14d;" horiz-adv-x="1129" d="M84 554q0 183 47 303t148.5 169.5t286.5 49.5q274 0 377 -120.5t103 -428.5t-103.5 -422.5t-376.5 -114.5q-138 0 -229.5 28t-148 93t-80.5 162.5t-24 280.5zM273 1197v148h586v-148h-586zM318 522q0 -80 5.5 -134.5t21 -90.5t33 -58t47.5 -34q50 -16 125.5 -16t110 5 t68 22t50.5 53q34 80 33.5 206.5t-5 183.5t-17.5 98.5t-29 64.5t-47 35q-48 19 -124 20.5t-108 -2.5t-63.5 -17t-48.5 -36t-30 -64.5t-17.5 -98.5t-4.5 -137z" />
<glyph unicode="&#x150;" horiz-adv-x="1348" d="M111 746.5q0 122.5 14.5 236t41 192.5t68.5 135.5t87.5 88.5t108.5 50q104 31 225 30.5t180 -6.5t124.5 -24t109.5 -50t85.5 -88.5t64.5 -134.5q54 -174 54 -452q0 -404 -114 -559q-78 -107 -193 -141q-142 -42 -377 -30q-117 6 -168 24t-89 39t-66 51t-54.5 70.5 t-44 93.5t-32 119.5t-20 149.5t-5.5 205.5zM343 716.5q0 -104.5 7.5 -183.5t24 -138.5t41 -93.5t66.5 -56q71 -34 194 -34t185 19t105 75.5t59.5 155.5t16.5 219.5t-3 182.5t-10.5 112.5t-16 89t-24 68t-29 50.5t-38 35t-45.5 22.5t-53 13.5q-52 6 -116.5 6t-95.5 -2 t-70 -8.5t-61 -22t-48 -41.5t-39.5 -65t-26.5 -94.5t-18 -130.5t-5 -179.5zM462 1599l195 276h224l-253 -276h-166zM759 1599l195 276h226l-253 -276h-168z" />
<glyph unicode="&#x151;" horiz-adv-x="1129" d="M84 554q0 183 47 303t148.5 169.5t286.5 49.5q274 0 377 -120.5t103 -428.5t-103.5 -422.5t-376.5 -114.5q-138 0 -229.5 28t-148 93t-80.5 162.5t-24 280.5zM318 522q0 -80 5.5 -134.5t21 -90.5t33 -58t47.5 -34q50 -16 125.5 -16t110 5t68 22t50.5 53q34 80 33.5 206.5 t-5 183.5t-17.5 98.5t-29 64.5t-47 35q-48 19 -124 20.5t-108 -2.5t-63.5 -17t-48.5 -36t-30 -64.5t-17.5 -98.5t-4.5 -137zM333 1197l193 272h227l-253 -272h-167zM630 1197l195 272h225l-253 -272h-167z" />
<glyph unicode="&#x152;" horiz-adv-x="2057" d="M111 741.5q0 127.5 14.5 241t41 192.5t68.5 135.5t86.5 88.5t109.5 50q102 31 254 30.5t250.5 -24.5t164.5 -94q64 109 212 108q12 0 291.5 -10t361.5 -22v-190h-586q-75 0 -92 -37q-12 -28 -13 -76v-291l605 -20v-191l-605 -20v-291q0 -76 42 -93q31 -11 82 -11h567 v-189q-69 -9 -552 -32l-57 -2h-31q-169 0 -231 108q-67 -65 -163 -87.5t-200.5 -22.5t-153.5 3t-103.5 12t-93.5 26t-79 44t-67 66t-52 94.5t-39.5 125.5t-23 160.5t-8.5 218zM343 694.5q0 -106.5 11.5 -193.5t32.5 -147.5t65 -90.5q78 -52 241 -52q159 0 236 56 q113 80 113 457q0 201 -16.5 277.5t-30.5 116.5t-38 66t-47 41.5t-61 23.5q-60 11 -128 11t-94.5 -1t-59.5 -5t-53 -11.5t-45 -22t-39 -34.5t-30.5 -50.5t-25 -68t-17 -89t-11.5 -114.5t-3 -169.5z" />
<glyph unicode="&#x153;" horiz-adv-x="1777" d="M84 554q0 183 47 303t148.5 169.5t286.5 49.5q253 0 353 -111q65 83 203 100q60 8 147 8.5t139.5 -4t107 -17t86.5 -38.5t60 -68q48 -77 48 -255q0 -259 -289 -260h-377v-21q0 -127 47 -175.5t167 -48.5q291 0 432 23v-163q-165 -56 -530 -56q-174 0 -247 100 q-100 -100 -347 -100q-138 0 -229.5 28t-148 93t-80.5 162.5t-24 280.5zM318 522q0 -80 5.5 -134.5t21 -90.5t33 -58t47.5 -34q50 -16 119.5 -16t103.5 4t61.5 13t44 29t29 43t18.5 65q7 73 7 207t-20 204.5t-70 97.5t-127 27t-109 -4t-63.5 -17t-48.5 -36t-30 -64.5 t-17.5 -98.5t-4.5 -137zM1044 612h331q102 0 102 87q0 120 -33 152t-133.5 32t-140.5 -8q-98 -16 -118 -115q-8 -42 -8 -84v-64z" />
<glyph unicode="&#x154;" horiz-adv-x="1207" d="M109 0v1469h638q377 0 377 -452q0 -285 -126 -375q-42 -30 -61.5 -37t-53.5 -17l289 -588h-261l-267 572l-303 28v-600h-232zM343 789h385q42 0 66.5 7t48.5 27q46 42 46 187.5t-42 195.5t-119 50h-385v-467zM517 1593l193 274h227l-253 -274h-167z" />
<glyph unicode="&#x155;" horiz-adv-x="842" d="M102 0v1065h189l44 -134q58 46 98 72.5t106.5 50.5t148.5 24t115 -15v-226q-52 8 -135.5 8t-135.5 -10q-100 -23 -197 -109v-726h-233zM395 1199l193 274h226l-252 -274h-167z" />
<glyph unicode="&#x156;" horiz-adv-x="1207" d="M109 0v1469h638q377 0 377 -452q0 -285 -126 -375q-42 -30 -61.5 -37t-53.5 -17l289 -588h-261l-267 572l-303 28v-600h-232zM343 789h385q42 0 66.5 7t48.5 27q46 42 46 187.5t-42 195.5t-119 50h-385v-467zM492 -186q0 48 44 48h130q43 0 43 -48v-201q0 -144 -159 -145 q-16 0 -29 2l-21 4v76q24 0 38 8q18 14 18 42v32h-20q-44 0 -44 47v135z" />
<glyph unicode="&#x157;" horiz-adv-x="842" d="M96 0v1065h189l44 -134q58 46 98 72.5t107.5 50.5t148.5 24t116 -15v-226q-54 8 -154.5 8t-170.5 -25t-145 -94v-726h-233zM100 -191q0 48 44 49h131q43 0 43 -49v-200q0 -147 -159 -147q-16 0 -29 2l-21 6v76q24 -2 38 8q18 12 18 40v35h-21q-44 0 -44 44v136z" />
<glyph unicode="&#x158;" horiz-adv-x="1207" d="M109 0v1469h638q377 0 377 -452q0 -285 -126 -375q-42 -30 -61.5 -37t-53.5 -17l289 -588h-261l-267 572l-303 28v-600h-232zM295 1867h172l139 -128l124 128h174l-207 -268h-185zM343 789h385q42 0 66.5 7t48.5 27q46 42 46 187.5t-42 195.5t-119 50h-385v-467z" />
<glyph unicode="&#x159;" horiz-adv-x="842" d="M102 0v1065h189l44 -134q58 46 98 72.5t106.5 50.5t148.5 24t115 -15v-226q-52 8 -135.5 8t-135.5 -10q-100 -23 -197 -109v-726h-233zM149 1465h172l139 -128l126 128h171l-207 -266h-184z" />
<glyph unicode="&#x15a;" horiz-adv-x="1179" d="M111 981v129q0 211 115 295q107 77 308 76q115 0 275 -17t243 -37v-184q-85 6 -267 13q-189 6 -267 6t-126.5 -28t-48.5 -138v-94q0 -98 40 -129.5t134 -31.5h253q223 0 298 -173q38 -86 37 -201v-112q0 -255 -178 -331q-92 -40 -228 -40q-330 0 -542 56v184 q220 -22 383 -21.5t192.5 4.5t66.5 17q74 29 74 125v101q0 50 -12 84q-26 75 -133 75h-246q-98 0 -169.5 26t-109.5 63t-61 91q-31 81 -31 192zM532 1601l194 276h226l-253 -276h-167z" />
<glyph unicode="&#x15b;" horiz-adv-x="1017" d="M69 705v92q0 279 276 279q155 0 323.5 -12t228.5 -34v-155h-497q-65 0 -82 -20t-17 -70v-65q0 -56 23 -70t76 -14h276q138 0 207 -74t69 -196v-105q0 -271 -261 -271q-153 0 -340.5 14t-237.5 36v153h519q86 0 86 82v68q0 42 -19 63t-67 21h-272q-149 0 -220 63.5 t-71 214.5zM425 1202l195 275h225l-253 -275h-167z" />
<glyph unicode="&#x15c;" horiz-adv-x="1179" d="M111 981v129q0 211 115 295q107 77 308 76q115 0 275 -17t243 -37v-184q-85 6 -267 13q-189 6 -267 6t-126.5 -28t-48.5 -138v-94q0 -98 40 -129.5t134 -31.5h253q223 0 298 -173q38 -86 37 -201v-112q0 -255 -178 -331q-92 -40 -228 -40q-330 0 -542 56v184 q220 -22 383 -21.5t192.5 4.5t66.5 17q74 29 74 125v101q0 50 -12 84q-26 75 -133 75h-246q-98 0 -169.5 26t-109.5 63t-61 91q-31 81 -31 192zM319 1601l225 270h184l199 -270h-170l-127 129l-138 -129h-173z" />
<glyph unicode="&#x15d;" horiz-adv-x="1017" d="M69 705v92q0 279 276 279q155 0 323.5 -12t228.5 -34v-155h-497q-65 0 -82 -20t-17 -70v-65q0 -56 23 -70t76 -14h276q138 0 207 -74t69 -196v-105q0 -271 -261 -271q-153 0 -340.5 14t-237.5 36v153h519q86 0 86 82v68q0 42 -19 63t-67 21h-272q-149 0 -220 63.5 t-71 214.5zM207 1197l222 268h185l200 -268h-170l-129 128l-136 -128h-172z" />
<glyph unicode="&#x15e;" horiz-adv-x="1179" d="M111 981v129q0 211 115 295q107 77 308 76q115 0 275 -17t243 -37v-184q-85 6 -267 13q-189 6 -267 6t-126.5 -28t-48.5 -138v-94q0 -98 40 -129.5t134 -31.5h253q223 0 298 -173q38 -86 37 -201v-112q0 -255 -178 -331q-92 -40 -228 -40q-330 0 -542 56v184 q220 -22 383 -21.5t192.5 4.5t66.5 17q74 29 74 125v101q0 50 -12 84q-26 75 -133 75h-246q-98 0 -169.5 26t-109.5 63t-61 91q-31 81 -31 192zM393 -265l95 30q40 15 51 47.5t11 99.5h168q0 -157 -45 -219t-171 -62h-109v104z" />
<glyph unicode="&#x15f;" horiz-adv-x="1017" d="M69 705v92q0 279 276 279q155 0 323.5 -12t228.5 -34v-155h-497q-65 0 -82 -20t-17 -70v-65q0 -56 23 -70t76 -14h276q138 0 207 -74t69 -196v-105q0 -271 -261 -271q-153 0 -340.5 14t-237.5 36v153h519q86 0 86 82v68q0 42 -19 63t-67 21h-272q-149 0 -220 63.5 t-71 214.5zM215 -253l94 31q38 15 50 47t12 99h169q0 -157 -46 -219.5t-171 -62.5h-108v105z" />
<glyph unicode="&#x160;" horiz-adv-x="1179" d="M111 981v129q0 211 115 295q107 77 308 76q115 0 275 -17t243 -37v-184q-85 6 -267 13q-189 6 -267 6t-126.5 -28t-48.5 -138v-94q0 -98 40 -129.5t134 -31.5h253q223 0 298 -173q38 -86 37 -201v-112q0 -255 -178 -331q-92 -40 -228 -40q-330 0 -542 56v184 q220 -22 383 -21.5t192.5 4.5t66.5 17q74 29 74 125v101q0 50 -12 84q-26 75 -133 75h-246q-98 0 -169.5 26t-109.5 63t-61 91q-31 81 -31 192zM316 1871h170l140 -129l125 129h170l-205 -270h-184z" />
<glyph unicode="&#x161;" horiz-adv-x="1017" d="M69 705v92q0 279 276 279q155 0 323.5 -12t228.5 -34v-155h-497q-65 0 -82 -20t-17 -70v-65q0 -56 23 -70t76 -14h276q138 0 207 -74t69 -196v-105q0 -271 -261 -271q-153 0 -340.5 14t-237.5 36v153h519q86 0 86 82v68q0 42 -19 63t-67 21h-272q-149 0 -220 63.5 t-71 214.5zM215 1471h172l139 -128l125 128h172l-207 -269h-185z" />
<glyph unicode="&#x162;" horiz-adv-x="1179" d="M73 1250v219h1061v-219h-420v-1250h-232v1250h-409zM249 -267l96 30q38 17 49.5 49.5t11.5 97.5h170q0 -157 -46 -218t-170 -61h-111v102z" />
<glyph unicode="&#x163;" horiz-adv-x="762" d="M34 877v140l181 51l44 297h189v-297h264v-191h-264v-467q0 -113 25 -158t75 -61q136 -42 151 -42v-149h-222q-262 0 -262 381v496h-181zM140 -269l95 30q50 22 58 78q4 25 4 69h169q0 -157 -46.5 -219t-170.5 -62h-109v104z" />
<glyph unicode="&#x164;" horiz-adv-x="1179" d="M73 1250v219h1061v-219h-420v-1250h-232v1250h-409zM287 1867h173l138 -128l124 128h173l-207 -268h-184z" />
<glyph unicode="&#x165;" horiz-adv-x="796" d="M34 877v140l181 51l44 297h189v-297h264v-191h-264v-467q0 -113 25 -158t75 -61q136 -42 151 -42v-149h-222q-262 0 -262 381v496h-181zM564 1471v134h177v-134l-21 -269h-134z" />
<glyph unicode="&#x166;" horiz-adv-x="1167" d="M54 1250v219h1062v-219h-421v-373h212v-122h-212v-755h-233v755h-213v122h213v373h-408z" />
<glyph unicode="&#x167;" horiz-adv-x="745" d="M34 877v140l181 51l44 297h189v-297h264v-191h-264v-231h182v-122h-182v-114q2 -159 42 -191q18 -14 104 -40t92 -26v-153h-207q-138 0 -201 87t-63 294v143h-148v122h148v231h-181z" />
<glyph unicode="&#x168;" horiz-adv-x="1342" d="M136 642v827h233v-827q0 -205 37 -291q19 -48 42 -76t66 -42q64 -24 154.5 -24t132.5 7.5t85 33t68 71.5q53 104 53 321v827h236v-827q0 -249 -53 -375q-29 -67 -57 -116t-75 -78t-83 -47t-94 -26q-86 -10 -186 -10h-29q-239 0 -317 50q-36 25 -83 72t-71 114 q-58 169 -59 416zM345 1694q67 65 123 100t113 34t123 -34.5t82.5 -34.5t18.5 -1q66 0 179 77l48 -107q-46 -44 -69.5 -64.5t-69.5 -45.5t-68 -25q-72 0 -139.5 35.5t-103.5 35.5q-54 0 -84.5 -15t-60 -31.5t-46.5 -24.5z" />
<glyph unicode="&#x169;" d="M84 345v720h234v-724q0 -82 37.5 -121.5t116 -39.5t140.5 22t152 79v784h234v-1065h-181l-53 117q-15 -8 -51.5 -31.5t-54.5 -33.5t-52 -26t-60 -24q-69 -20 -138 -20q-167 0 -245.5 101t-78.5 262zM199 1297q67 64 122.5 100t113 35t123.5 -35t82.5 -34h18.5 q66 0 178 74l48 -106q-46 -44 -69 -64t-70 -44t-68 -24q-72 0 -140.5 33.5t-102.5 33.5q-54 0 -84 -13.5t-60 -31t-46 -24.5z" />
<glyph unicode="&#x16a;" horiz-adv-x="1342" d="M136 642v827h233v-827q0 -205 37 -291q19 -48 42 -76t66 -42q64 -24 154.5 -24t132.5 7.5t85 33t68 71.5q53 104 53 321v827h236v-827q0 -249 -53 -375q-29 -67 -57 -116t-75 -78t-83 -47t-94 -26q-86 -10 -186 -10h-29q-239 0 -317 50q-36 25 -83 72t-71 114 q-58 169 -59 416zM395 1599v147h586v-147h-586z" />
<glyph unicode="&#x16b;" d="M84 345v720h234v-724q0 -82 37.5 -121.5t116 -39.5t140.5 22t152 79v784h234v-1065h-181l-53 117q-15 -8 -51.5 -31.5t-54.5 -33.5t-52 -26t-60 -24q-69 -20 -138 -20q-167 0 -245.5 101t-78.5 262zM249 1197v148h586v-148h-586z" />
<glyph unicode="&#x16c;" horiz-adv-x="1342" d="M136 642v827h233v-827q0 -205 37 -291q19 -48 42 -76t66 -42q64 -24 154.5 -24t132.5 7.5t85 33t68 71.5q53 104 53 321v827h236v-827q0 -249 -53 -375q-29 -67 -57 -116t-75 -78t-83 -47t-94 -26q-86 -10 -186 -10h-29q-239 0 -317 50q-36 25 -83 72t-71 114 q-58 169 -59 416zM458 1829h108q0 -73 60 -107q29 -14 74 -14t77.5 32t32.5 89h109q0 -71 -32 -125q-67 -104 -201 -105q-94 0 -161 64t-67 166z" />
<glyph unicode="&#x16d;" d="M84 345v720h234v-724q0 -82 37.5 -121.5t116 -39.5t140.5 22t152 79v784h234v-1065h-181l-53 117q-15 -8 -51.5 -31.5t-54.5 -33.5t-52 -26t-60 -24q-69 -20 -138 -20q-167 0 -245.5 101t-78.5 262zM321 1425h108q0 -52 35.5 -86.5t90 -34.5t87 32.5t32.5 88.5h109 q0 -107 -68.5 -167.5t-163.5 -60.5t-162.5 63t-67.5 165z" />
<glyph unicode="&#x16e;" horiz-adv-x="1342" d="M136 642v827h233v-827q0 -205 37 -291q19 -48 42 -76t66 -42q64 -24 154.5 -24t132.5 7.5t85 33t68 71.5q53 104 53 321v827h236v-827q0 -249 -53 -375q-29 -67 -57 -116t-75 -78t-83 -47t-94 -26q-86 -10 -186 -10h-29q-239 0 -317 50q-36 25 -83 72t-71 114 q-58 169 -59 416zM485.5 1804q0.5 56 27.5 103.5t74 75.5t117.5 28t129.5 -60.5t59 -146.5t-59 -145.5t-143 -59.5q-119 0 -177 101q-29 48 -28.5 104zM594 1804q0 -40 28.5 -67t67 -27t66 27t27.5 57.5t-7.5 47t-18.5 31.5q-29 28 -67.5 27.5t-67 -28.5t-28.5 -68z" />
<glyph unicode="&#x16f;" d="M84 345v720h234v-724q0 -82 37.5 -121.5t116 -39.5t140.5 22t152 79v784h234v-1065h-181l-53 117q-15 -8 -51.5 -31.5t-54.5 -33.5t-52 -26t-60 -24q-69 -20 -138 -20q-167 0 -245.5 101t-78.5 262zM337 1407.5q0 49.5 28 96.5t75.5 75t102.5 28t101.5 -28t73.5 -75 t27 -103t-27 -103.5t-73.5 -74t-94.5 -26.5t-86.5 15.5t-65.5 43t-44 65t-17 87zM448 1394q0 -33 28 -60.5t67 -27.5t66 27.5t27 67.5t-27 68t-60.5 28t-55.5 -13t-33.5 -35t-11.5 -55z" />
<glyph unicode="&#x170;" horiz-adv-x="1342" d="M136 642v827h233v-827q0 -205 37 -291q19 -48 42 -76t66 -42q64 -24 154.5 -24t132.5 7.5t85 33t68 71.5q53 104 53 321v827h236v-827q0 -249 -53 -375q-29 -67 -57 -116t-75 -78t-83 -47t-94 -26q-86 -10 -186 -10h-29q-239 0 -317 50q-36 25 -83 72t-71 114 q-58 169 -59 416zM458 1599l193 276h226l-253 -276h-166zM755 1599l193 276h226l-253 -276h-166z" />
<glyph unicode="&#x171;" d="M84 345v720h234v-724q0 -82 37.5 -121.5t116 -39.5t140.5 22t152 79v784h234v-1065h-181l-53 117q-15 -8 -51.5 -31.5t-54.5 -33.5t-52 -26t-60 -24q-69 -20 -138 -20q-167 0 -245.5 101t-78.5 262zM309 1197l195 272h224l-253 -272h-166zM606 1197l195 272h225 l-254 -272h-166z" />
<glyph unicode="&#x172;" horiz-adv-x="1342" d="M136 642v827h233v-827q0 -205 37 -291q19 -48 42 -76t66 -42q64 -24 154.5 -24t132.5 7.5t85 33t68 71.5q53 104 53 321v827h236v-827q0 -249 -53 -375q-29 -67 -57 -116t-75 -78t-83 -47t-94 -26q-86 -10 -186 -10h-29q-239 0 -317 50q-36 25 -83 72t-71 114 q-58 169 -59 416zM488 -195q0 119 150 189h101q-104 -80 -105 -151q0 -30 26 -54t89 -24h2v-140q-25 -6 -56 -6t-80 17t-81 61q-46 58 -46 108z" />
<glyph unicode="&#x173;" d="M84 345v720h234v-724q0 -82 37.5 -121.5t116 -39.5t140.5 22t152 79v784h234v-1065h-181l-53 117q-15 -8 -51.5 -31.5t-54.5 -33.5t-52 -26t-60 -24q-69 -20 -138 -20q-167 0 -245.5 101t-78.5 262zM709 -193q0 119 152 191h98q-103 -80 -104 -153q0 -28 26 -52t88 -24h4 v-140q-26 -6 -57 -6t-79 17t-82 59q-46 60 -46 108z" />
<glyph unicode="&#x174;" horiz-adv-x="1968" d="M76 1469h249l363 -1134l300 1134h253l-115 -412l245 -730l309 1142h249l-426 -1469h-260l-226 657l-198 -657h-261zM716 1593l223 267h185l201 -267h-171l-126 129l-139 -129h-173z" />
<glyph unicode="&#x175;" horiz-adv-x="1639" d="M34 1065h251l249 -776l223 776h237l-87 -306l196 -470l253 776h251l-366 -1065h-255l-187 435l-140 -435h-264zM532 1190l223 267h184l199 -267h-171l-126 129l-136 -129h-173z" />
<glyph unicode="&#x176;" horiz-adv-x="1298" d="M76 1469h253l322 -728l353 728h252l-492 -990v-479h-232v479zM349 1593l223 267h185l200 -267h-170l-128 129l-138 -129h-172z" />
<glyph unicode="&#x177;" horiz-adv-x="1141" d="M36 1065h247l211 -776q12 -44 32 -58t33 -18t22 -4t19 1l11 1l246 854h246l-404 -1402l-149 -205h-161l165 542q-219 0 -291 253zM267 1197l223 268h184l199 -268h-170l-127 128l-136 -128h-173z" />
<glyph unicode="&#x178;" horiz-adv-x="1298" d="M76 1469h253l322 -728l353 728h252l-492 -990v-479h-232v479zM299 1712q0 46 33.5 78.5t79.5 32.5t77.5 -32.5t31.5 -78.5t-31.5 -79.5t-77.5 -33.5t-79.5 33.5t-33.5 79.5zM810 1712q0 46 33.5 78.5t79.5 32.5t78.5 -32.5t32.5 -78.5t-32.5 -79.5t-78.5 -33.5 t-79.5 33.5t-33.5 79.5z" />
<glyph unicode="&#x179;" horiz-adv-x="1121" d="M60 0v219l717 1031h-717v219h1003v-219l-695 -1031h695v-219h-1003zM477 1599l195 276h225l-253 -276h-167z" />
<glyph unicode="&#x17a;" horiz-adv-x="936" d="M50 861v204h837v-204l-498 -654h498v-205h-807v203l516 656h-546zM385 1197l195 272h225l-253 -272h-167z" />
<glyph unicode="&#x17b;" horiz-adv-x="1121" d="M60 0v219l717 1031h-717v219h1003v-219l-695 -1031h695v-219h-1003zM450 1645v138q0 50 48 50h128q23 0 34.5 -14.5t11.5 -35.5v-138q0 -46 -46 -46h-128q-20 0 -34 13.5t-14 32.5z" />
<glyph unicode="&#x17c;" horiz-adv-x="936" d="M50 861v204h837v-204l-498 -654h498v-205h-807v203l516 656h-546zM358 1243v136q0 50 48 50h128q23 0 34.5 -14t11.5 -36v-136q0 -46 -46 -46h-128q-20 0 -34 13t-14 33z" />
<glyph unicode="&#x17d;" horiz-adv-x="1121" d="M60 0v219l717 1031h-717v219h1003v-219l-695 -1031h695v-219h-1003zM257 1867h172l139 -128l127 128h170l-206 -268h-186z" />
<glyph unicode="&#x17e;" horiz-adv-x="936" d="M50 861v204h837v-204l-498 -654h498v-205h-807v203l516 656h-546zM167 1465h170l140 -128l125 128h170l-204 -268h-185z" />
<glyph unicode="&#x192;" horiz-adv-x="1187" d="M34 -360l22 147h147q134 0 188 280q10 46 21 109l92 592h-186l31 193h185l10 54q92 590 393 590q111 0 201 -42q15 -8 18 -8l-22 -146h-142q-69 0 -109 -62q-44 -65 -60 -131q-26 -96 -42 -201l-11 -56h251l-31 -191h-249l-92 -592q-48 -298 -121 -421 q-66 -111 -157 -144q-52 -20 -117 -20.5t-132.5 18t-87.5 31.5z" />
<glyph unicode="&#x2c6;" horiz-adv-x="776" d="M84 1065l223 268h185l201 -268h-172l-128 130l-136 -130h-173z" />
<glyph unicode="&#x2c7;" horiz-adv-x="776" d="M84 1333h173l138 -129l124 129h174l-207 -268h-185z" />
<glyph unicode="&#x2d8;" horiz-adv-x="628" d="M84 1293h109q0 -52 35 -86.5t89 -34.5t87 32.5t33 88.5h109q0 -107 -68 -168.5t-163.5 -61.5t-163 64t-67.5 166z" />
<glyph unicode="&#x2d9;" horiz-adv-x="391" d="M84 1102v137q0 50 48 50h129q22 0 34 -14.5t12 -35.5v-137q0 -47 -46 -47h-129q-19 0 -33.5 13.5t-14.5 33.5z" />
<glyph unicode="&#x2da;" horiz-adv-x="575" d="M84 1268.5q0 56.5 28 103.5t75.5 75t102.5 28t101 -28t73.5 -75t27.5 -103.5t-27.5 -103.5t-73.5 -74.5t-101 -27.5t-102.5 27.5t-75.5 74.5t-28 103.5zM195 1268q0 -40 28 -67t67 -27t66 27t27 60.5t-12 54.5q-28 48 -74 48.5t-74 -28t-28 -68.5z" />
<glyph unicode="&#x2db;" horiz-adv-x="429" d="M82 -191q0 118 153 191h98q-104 -80 -105 -153q0 -28 26.5 -51.5t88.5 -23.5h4v-143q-27 -4 -57.5 -4t-78.5 17t-83 59q-46 58 -46 108z" />
<glyph unicode="&#x2dc;" horiz-adv-x="854" d="M84 1166q138 136 241 136q52 -2 118.5 -36t82.5 -34h18q68 0 178 74l48 -106q-108 -103 -166 -122q-29 -10 -44.5 -10h-38.5q-32 2 -101 35t-84 33h-27t-33 -4t-39 -12t-32 -15t-36 -19t-39 -21z" />
<glyph unicode="&#x2dd;" horiz-adv-x="787" d="M34 1065l192 276h228l-253 -276h-167zM331 1065l195 276h225l-253 -276h-167z" />
<glyph unicode="&#x3a9;" horiz-adv-x="1542" d="M111 759.5q0 125.5 18 218t64 186.5t118 163t191.5 112.5t267 43.5t261 -39t187 -104.5t119.5 -157.5q86 -169 86 -386.5t-43 -345t-176 -233.5l229 -20v-197h-485v220q184 133 222 304q20 96 20 248q0 492 -418 492q-429 0 -429 -502q0 -239 59 -337q62 -100 190 -205 v-220h-470v201l240 19q-190 123 -232 314q-19 100 -19 225.5z" />
<glyph unicode="&#x3c0;" horiz-adv-x="1287" d="M34 847v218h1124v-218h-208v-485q0 -100 31.5 -136.5t106.5 -36.5h166v-137q-90 -62 -237.5 -62t-224 86.5t-76.5 276.5v494h-291v-847h-232v847h-159z" />
<glyph unicode="&#x2000;" horiz-adv-x="1005" />
<glyph unicode="&#x2001;" horiz-adv-x="2011" />
<glyph unicode="&#x2002;" horiz-adv-x="1005" />
<glyph unicode="&#x2003;" horiz-adv-x="2011" />
<glyph unicode="&#x2004;" horiz-adv-x="670" />
<glyph unicode="&#x2005;" horiz-adv-x="502" />
<glyph unicode="&#x2006;" horiz-adv-x="335" />
<glyph unicode="&#x2007;" horiz-adv-x="335" />
<glyph unicode="&#x2008;" horiz-adv-x="251" />
<glyph unicode="&#x2009;" horiz-adv-x="402" />
<glyph unicode="&#x200a;" horiz-adv-x="111" />
<glyph unicode="&#x2010;" horiz-adv-x="709" d="M40 479v205h630v-205h-630z" />
<glyph unicode="&#x2011;" horiz-adv-x="709" d="M40 479v205h630v-205h-630z" />
<glyph unicode="&#x2012;" horiz-adv-x="709" d="M40 479v205h630v-205h-630z" />
<glyph unicode="&#x2013;" horiz-adv-x="1029" d="M40 473v207h950v-207h-950z" />
<glyph unicode="&#x2014;" horiz-adv-x="1476" d="M40 477v207h1397v-207h-1397z" />
<glyph unicode="&#x2018;" horiz-adv-x="527" d="M136 1065v241q0 65 25 107t61 56q54 23 88.5 23t44.5 -2l26 -4v-97q-30 0 -46 -12q-19 -18 -19 -54v-46h21q54 0 54 -55v-157q0 -58 -54 -58h-151q-50 0 -50 58z" />
<glyph unicode="&#x2019;" horiz-adv-x="527" d="M136 1277v156q0 58 55 59h150q50 0 50 -59v-243q0 -62 -25 -104t-61 -56q-56 -23 -89.5 -23h-43.5l-25 4v96h4q62 0 62 69v46h-22q-24 0 -39.5 13.5t-15.5 41.5z" />
<glyph unicode="&#x201a;" horiz-adv-x="527" d="M136 52v159q0 58 55 58h150q50 0 50 -58v-243q0 -65 -25 -106.5t-61 -56.5q-54 -23 -88.5 -22.5t-44.5 2.5l-25 4v96h4q62 0 62 69v44h-22q-24 0 -39.5 13.5t-15.5 40.5z" />
<glyph unicode="&#x201c;" horiz-adv-x="846" d="M124 1063v243q0 65 25 106t62 55q54 23 88 23t44 -2l26 -5v-96q-30 2 -46 -12q-19 -18 -20 -54v-44h22q25 0 39.5 -14t14.5 -41v-159q0 -58 -54 -58h-151q-50 0 -50 58zM469 1063v243q0 65 25 106t62 55q56 23 89 23t46 -2l23 -5v-96h-2q-64 0 -63 -66v-44h23 q25 0 38.5 -14t13.5 -41v-159q0 -58 -52 -58h-151q-52 0 -52 58z" />
<glyph unicode="&#x201d;" horiz-adv-x="846" d="M124 1274v157q0 58 52 59h151q52 0 52 -59v-241q0 -65 -25 -106.5t-61 -55.5q-56 -23 -89 -23t-45 2l-25 4v94h2q65 0 65 69v46h-25q-52 0 -52 54zM469 1274v157q0 58 55 59h150q50 0 50 -59v-241q0 -65 -25 -106.5t-61 -55.5q-56 -23 -89.5 -23t-42.5 2l-24 4v94h2 q65 0 64 69v46h-24q-24 0 -39.5 14t-15.5 40z" />
<glyph unicode="&#x201e;" horiz-adv-x="846" d="M124 52v159q0 58 52 58h151q52 0 52 -58v-243q0 -65 -25 -106.5t-61 -56.5q-56 -23 -89 -22.5t-45 2.5l-25 4v96h2q65 0 65 69v44h-25q-52 0 -52 54zM469 52v159q0 58 55 58h150q50 0 50 -58v-243q0 -65 -25 -106.5t-61 -56.5q-54 -23 -87.5 -22.5t-44.5 2.5l-24 4v96h2 q65 0 64 69v44h-24q-24 0 -39.5 13.5t-15.5 40.5z" />
<glyph unicode="&#x2020;" horiz-adv-x="840" d="M34 935v183l267 22l20 405h203l20 -405l264 -22v-183l-264 -24l-23 -1055h-202l-18 1055z" />
<glyph unicode="&#x2021;" horiz-adv-x="874" d="M34 313v183l271 25l-4 390l-267 24v183l267 22l20 405h203l20 -405l264 -22v-183l-264 -24l-6 -390l270 -25v-183l-278 -24l-9 -433h-202l-8 431z" />
<glyph unicode="&#x2022;" horiz-adv-x="621" d="M144 661v208q0 71 67 70h199q70 0 69 -70v-208q0 -65 -69 -65h-199q-31 0 -49 17t-18 48z" />
<glyph unicode="&#x2026;" horiz-adv-x="1624" d="M510 46v157q0 50 48 50h149q50 0 50 -50v-157q0 -46 -50 -46h-149q-23 0 -35.5 13t-12.5 33zM674 46q0 -20 13.5 -33t34.5 -13h149q50 0 50 46v157q0 50 -50 50h-149q-48 0 -48 -50v-157zM837 46v157q0 50 48 50h149q50 0 50 -50v-157q0 -46 -50 -46h-149q-20 0 -34 13 t-14 33z" />
<glyph unicode="&#x202f;" horiz-adv-x="402" />
<glyph unicode="&#x2030;" horiz-adv-x="2767" d="M73 959v253q0 133 59 195t205 62h203q144 0 203.5 -62t59.5 -195v-253q0 -200 -141 -243q-50 -15 -126 -15h-203q-142 0 -201 62t-59 196zM245 979q0 -60 22 -83t84 -23h166q73 0 93 23t20 83v211q0 64 -23 85.5t-86 21.5h-166q-85 0 -102 -43q-8 -22 -8 -64v-211zM431 0 l890 1469h180l-885 -1469h-185zM1124 263v252q0 133 59.5 195t205.5 62h204q187 0 238 -113q24 -54 23 -144v-252q0 -135 -58.5 -197t-205.5 -62h-205q-142 0 -201.5 63t-59.5 196zM1297 283q0 -60 22 -83.5t84 -23.5h169q70 0 90 23t20 84v211q0 65 -23 85.5t-83 20.5h-169 q-84 0 -101 -40q-9 -23 -9 -66v-211zM1969 263v252q0 89 22 144q50 114 242 113h203q142 0 203 -61.5t61 -195.5v-252q0 -135 -60.5 -197t-207.5 -62h-202q-187 0 -237 115q-24 55 -24 144zM2141 283q0 -60 22 -83.5t85 -23.5h167q74 0 88 21q24 30 23 86v211q0 65 -23 85.5 t-84 20.5h-167q-69 0 -90 -21t-21 -85v-211z" />
<glyph unicode="&#x2039;" horiz-adv-x="714" d="M84 710l414 408l136 -134l-279 -274l287 -281l-134 -136z" />
<glyph unicode="&#x203a;" horiz-adv-x="714" d="M84 429l287 281l-279 274l136 134l414 -408l-423 -417z" />
<glyph unicode="&#x2044;" horiz-adv-x="579" d="M-153 0l711 1495h177l-711 -1495h-177z" />
<glyph unicode="&#x205f;" horiz-adv-x="502" />
<glyph unicode="&#x20ac;" horiz-adv-x="1233" d="M34 506v120l163 16v161l-163 16v112l163 21v5q0 177 38 271q16 42 52 94.5t85 84.5t128.5 55.5t172.5 23.5t253 -20t267 -49v-172q-305 28 -418 27.5t-158 -7.5t-75 -20t-52.5 -37t-33 -46t-19.5 -60q-8 -58 -8 -150l471 -17v-121l-471 -11v-161l471 -16v-120 q-278 -6 -404 -12l-67 -4q0 -165 77.5 -231t215.5 -66q177 0 448 35l30 5v-168q-206 -77 -520 -77q-128 0 -217.5 39.5t-141.5 90.5t-88 147.5t-36 224.5z" />
<glyph unicode="&#x2122;" horiz-adv-x="1404" d="M34 1321v148h548v-148h-191v-553h-165v553h-192zM632 768l69 701h166l144 -435l121 435h172l77 -701h-165l-36 384l-96 -384h-140l-119 384l-30 -384h-163z" />
<glyph unicode="&#x2202;" horiz-adv-x="1279" d="M96 456q0 226 131 351.5t348.5 125.5t331.5 -114q-9 251 -83.5 349t-237.5 98q-102 0 -202.5 -31t-164.5 -71l-47 165q123 80 213 118.5t207 38.5q283 0 416.5 -185t133.5 -524q0 -331 -125 -551q-64 -110 -171 -173t-245.5 -63t-250 49t-183 156.5t-71.5 260.5zM329 462 q0 -121 78.5 -188t194.5 -67q66 0 120.5 35t85.5 86t53 116q35 111 36 209q-113 64 -275 63q-104 0 -170 -34q-123 -62 -123 -220z" />
<glyph unicode="&#x2206;" horiz-adv-x="1438" d="M34 0l625 1469h148l600 -1469h-1373zM362 213h758l-375 917z" />
<glyph unicode="&#x220f;" horiz-adv-x="1300" d="M34 1250v219h1232v-219h-161v-1250h-232v1250h-448v-1250h-232v1250h-159z" />
<glyph unicode="&#x2211;" horiz-adv-x="1155" d="M69 -176l429 718l-429 708v219h1055v-219h-771l426 -708l-426 -718h771v-226h-1055v226z" />
<glyph unicode="&#x221a;" horiz-adv-x="1298" d="M34 514v219h307l203 -414l475 1286h247l-592 -1605h-224l-266 514h-150z" />
<glyph unicode="&#x221e;" horiz-adv-x="1544" d="M84 684.5q0 72.5 14.5 129.5t48.5 109q73 109 279 109t344 -199q58 94 151.5 146.5t200 52.5t175 -28.5t101.5 -80.5q62 -94 63 -239q0 -147 -70 -240q-79 -104 -263 -105q-115 0 -203 45t-157 156q-66 -111 -149 -156t-188.5 -45t-171.5 27t-103 76.5t-54.5 109.5 t-17.5 132.5zM275 707q0 -61 6 -88t22 -49q32 -48 124 -49q131 0 241 163q-44 69 -110 117t-147.5 48t-108.5 -40.5t-27 -101.5zM877 684q109 -163 241 -163q155 0 154 163q0 82 -29 123.5t-125 41.5q-92 0 -179 -87q-34 -34 -62 -78z" />
<glyph unicode="&#x222b;" horiz-adv-x="884" d="M34 -213h144q71 0 101 64q33 67 39 133q7 92 7 192v839q0 590 301 590q121 0 205 -40q16 -8 22 -10v-146h-143q-98 0 -126 -128q-24 -102 -26 -266v-839q0 -440 -146 -544q-60 -42 -147 -42q-157 0 -231 50v147z" />
<glyph unicode="&#x2248;" horiz-adv-x="1036" d="M84 514q125 107 209 130q42 12 94.5 12.5t141.5 -37t136 -37.5t78.5 8t48 15t56 27.5t58.5 28.5l48 -111q-6 -4 -37.5 -31t-42.5 -35.5t-41 -28.5t-50 -28q-58 -24 -109.5 -23.5t-144 38t-137.5 37.5t-71 -5t-49 -12.5t-46 -17.5q-61 -28 -100 -40zM84 875q50 44 83.5 68 t93.5 49t119.5 25t148.5 -36.5t136 -36.5t78.5 6.5t48 13.5t56 27t58.5 30l48 -110q-6 -4 -37.5 -31t-42.5 -36t-41 -29t-50 -28q-58 -23 -109.5 -23t-144 38.5t-145.5 38.5t-92 -12t-85 -33t-81 -32z" />
<glyph unicode="&#x2260;" horiz-adv-x="923" d="M34 389v213h299l125 208h-424v211h548l84 139h137l-85 -139h173v-211h-297l-125 -208h422v-213h-546l-94 -161h-136l94 161h-175z" />
<glyph unicode="&#x2264;" horiz-adv-x="921" d="M84 180v191h755v-191h-755zM84 757v224l753 287v-222l-490 -175l490 -197v-224z" />
<glyph unicode="&#x2265;" horiz-adv-x="921" d="M84 180v191h755v-191h-755zM86 450v224l490 197l-490 175v222l753 -287v-224z" />
<glyph unicode="&#x25ca;" horiz-adv-x="1032" d="M34 749l416 720h148l404 -720l-404 -749h-148zM275 749l249 -448l236 448l-236 427z" />
<glyph unicode="&#xe000;" horiz-adv-x="1063" d="M0 0v1063h1063v-1063h-1063z" />
</font>
</defs>
</svg>
