<?xml version="1.0" standalone="no"?>
<!DOCTYPE svg PUBLIC "-//W3C//DTD SVG 1.1//EN" "http://www.w3.org/Graphics/SVG/1.1/DTD/svg11.dtd" >
<svg xmlns="http://www.w3.org/2000/svg">
<metadata></metadata>
<defs>
<font id="exodemibolditalic" horiz-adv-x="1312" >
<font-face units-per-em="2048" ascent="1638" descent="-410" />
<missing-glyph horiz-adv-x="501" />
<glyph unicode="&#xfb01;" horiz-adv-x="1185" d="M102 875l24 157l187 33l18 111q31 189 156.5 294.5t324.5 107.5h46t182 -19t201 -42l-25 -142l-357 14q-7 2 -30.5 2t-64 -9t-84.5 -34q-100 -51 -122 -200l-12 -83l703 -19l-167 -1046h-233l137 875h-474l-139 -875h-233l139 875h-177z" />
<glyph unicode="&#xfb02;" horiz-adv-x="1384" d="M171 875l26 155l186 35l17 83q36 237 153 332.5t310 95.5l566 -2l-184 -1166q-25 -147 7 -184q18 -22 60 -33q125 -38 132 -38l-25 -153h-165q-142 0 -210 90q-46 60 -46 175q0 52 9 114l159 1008h-305q-100 0 -156 -54t-77 -193l-12 -75h286l-31 -190h-285l-144 -875 h-233l142 875h-180z" />
<glyph horiz-adv-x="0" />
<glyph unicode="&#xd;" horiz-adv-x="2007" />
<glyph unicode=" "  horiz-adv-x="501" />
<glyph unicode="&#x09;" horiz-adv-x="501" />
<glyph unicode="&#xa0;" horiz-adv-x="501" />
<glyph unicode="!" horiz-adv-x="539" d="M151 46l25 157q7 50 57 50h152q44 0 38 -50l-25 -157q-6 -46 -53 -46h-152q-20 0 -32 13t-10 33zM224 400l149 1067h245l-193 -1067h-201z" />
<glyph unicode="&#x22;" horiz-adv-x="844" d="M335 1065l20 270l22 134h227l-22 -134l-63 -270h-184zM664 1065l20 270l23 134h226l-22 -134l-62 -270h-185z" />
<glyph unicode="#" horiz-adv-x="1420" d="M102 437l51 161h309l88 275h-311l52 161h315l143 435h160l-143 -435h278l142 435h161l-143 -435h349l-52 -161h-349l-89 -277h350l-48 -161h-358l-142 -435h-160l142 435l-279 2l-143 -437h-160l143 437h-306zM622 598l282 -2l88 277h-282z" />
<glyph unicode="$" horiz-adv-x="1145" d="M144 40l30 175q16 0 107.5 -4t186 -7t147.5 -3t75 2t47 8t47.5 18t42.5 28q40 32 50 92l16 101q12 76 1 107t-41 41.5t-83 10.5h-210q-153 0 -225 69q-72 71 -84 159q-8 46 -8 85t6 78l20 128q36 235 208 309q94 40 237 44l29 173h152l-28 -177q179 -12 359 -50l-29 -182 q-424 19 -496.5 19t-129 -33.5t-73.5 -134.5l-14 -94q-4 -29 -4.5 -44.5t2 -35.5t18.5 -41q32 -40 136 -40h215q164 0 229 -90q58 -83 58 -179q0 -30 -10 -122l-18 -113q-56 -353 -451 -353h-29l-26 -164h-152l27 170q-195 14 -335 50z" />
<glyph unicode="%" horiz-adv-x="1932" d="M215 909q0 29 5 60l41 253q19 132 85 189.5t222 57.5h202q135 0 187 -66q41 -46 41 -131q0 -32 -6 -70l-40 -252q-16 -92 -46 -145q-65 -104 -260 -104h-202q-126 0 -185 69q-44 54 -44 139zM393.5 935q-0.5 -24 14.5 -43t78 -19h169q68 0 92.5 22t35.5 84l31 211 q6 26 6.5 41.5t-3.5 32.5q-9 33 -93 33h-166q-69 0 -93.5 -22.5t-35.5 -84.5l-31 -211q-4 -20 -4.5 -44zM427 0l1124 1469h179l-1118 -1469h-185zM1170 207q0 28 4 60l40 252q20 133 85.5 192t221.5 59h203q226 0 227 -198q0 -32 -6 -70l-38 -253q-22 -136 -88.5 -191.5 t-221.5 -55.5h-202q-125 0 -183 69q-42 51 -42 136zM1347 235q0 -22 11 -36q20 -25 83 -25h166q69 0 94 22.5t36 84.5l31 211q4 26 4 50t-13 40t-81 16h-167q-68 0 -93 -22t-35 -84l-33 -211q-3 -24 -3 -46z" />
<glyph unicode="&#x26;" horiz-adv-x="1314" d="M115 371q0 203 212 364l185 140l-87 151q-46 84 -46 158q0 24 6 48q20 94 91.5 156.5t159.5 72.5q119 10 188 10t143.5 -6t222.5 -40l-26 -165h-359q-187 0 -187 -90q0 -48 44 -122l307 -536l272 237l69 -87l-140 -241l-94 -90l192 -331h-251l-117 201l-149 -127 q-104 -86 -247 -86q-77 0 -153 30q-111 42 -173.5 145.5t-62.5 207.5zM333 387q0 -50 35 -100q57 -84 153 -84q69 0 134 52l140 122l-189 316l-144 -111q-129 -96 -129 -195z" />
<glyph unicode="'" horiz-adv-x="421" d="M285 1065l20 270l22 134h235l-22 -134l-63 -270h-192z" />
<glyph unicode="(" horiz-adv-x="724" d="M205 309q0 349 120 683q62 176 131 295q140 249 237 353l40 44h234q-54 -67 -136 -192t-144.5 -244.5t-127.5 -293t-92 -323t-29.5 -229t-2.5 -140.5t12.5 -153.5t32.5 -186.5t46 -163q54 -142 86 -196l14 -27h-224q-90 133 -151 380q-46 189 -46 393z" />
<glyph unicode=")" horiz-adv-x="728" d="M-32 -464q54 62 135 186.5t143.5 243t128 295t94.5 343t29 249.5q0 243 -32 390q-58 252 -131 389l-28 52h227q88 -139 148 -387q46 -194 46 -400q0 -335 -117 -677q-60 -176 -127 -296q-136 -245 -227 -345l-40 -43h-249z" />
<glyph unicode="*" horiz-adv-x="864" d="M263 1136l16 101l287 52l-16 -163zM339 833l90 272l153 -37l-155 -265zM544 944l111 136l194 -180l-70 -83zM568 1444l102 35l102 -242l-160 -65zM670 1146l265 156l38 -86l-220 -195z" />
<glyph unicode="+" horiz-adv-x="992" d="M174 612l35 205h312l51 315h205l-51 -315h318l-35 -205h-316l-51 -315h-205l51 315h-314z" />
<glyph unicode="," horiz-adv-x="527" d="M126 -176l14 84q29 0 45 10.5t20 20t6 25.5l6 36h-22q-23 0 -34.5 13t-7.5 37l23 151q8 54 59 54h144q40 0 40 -40v-14l-36 -224q-10 -57 -40 -96q-50 -66 -163 -65q-17 0 -29 4z" />
<glyph unicode="-" horiz-adv-x="709" d="M121 479l34 205h630l-34 -205h-630z" />
<glyph unicode="." horiz-adv-x="531" d="M151 46l25 157q7 50 57 50h148q42 0 42 -36v-14l-25 -157q-8 -46 -57 -46h-148q-22 0 -33 13t-9 33z" />
<glyph unicode="/" horiz-adv-x="874" d="M10 -144l831 1689h243l-831 -1689h-243z" />
<glyph unicode="0" horiz-adv-x="1270" d="M165 270q0 35 7 75l123 771q57 353 402 353h329q94 0 161 -30t100 -78q54 -80 54 -173q0 -33 -8 -64l-123 -779q-30 -176 -125 -260.5t-266 -84.5h-329q-167 0 -255 86q-70 67 -70 184zM406 329q0 -20 3 -36t9.5 -28t14 -20t19.5 -13.5t21 -7.5t25 -4q19 -1 37 -1h17h243 q161 0 186 154l115 723q4 24 4 58t-25 65t-110 31h-255q-162 0 -186 -154l-114 -721q-4 -26 -4 -46z" />
<glyph unicode="1" horiz-adv-x="735" d="M249 1146l24 154q85 0 188 62.5t143 106.5h229l-231 -1469h-233l195 1216q-45 -32 -133 -51t-182 -19z" />
<glyph unicode="2" horiz-adv-x="1181" d="M82 0l35 207q379 233 647 471q102 92 181 192.5t91 177.5q4 30 4 62q0 159 -219 158h-552l28 176q311 46 612 46q137 0 225 -67t113 -152t25 -142t-6 -112.5t-44 -133.5t-84 -142.5t-121 -138.5t-130.5 -122.5t-137.5 -110.5q-96 -74 -207 -150h590l-34 -219h-1016z" />
<glyph unicode="3" horiz-adv-x="1177" d="M69 42l27 165h542q211 0 235 155l14 84q12 82 -8 116q-16 28 -33 35t-28 11t-31 6q-28 4 -71 6l-429 16l31 187l433 18q104 4 146 33.5t59 58t23 71.5l15 96q4 19 4 40.5t-8.5 46.5t-37.5 41q-48 26 -135 26h-568l24 163q173 58 443 58q100 0 213 -2q153 -4 239 -104 q69 -78 69 -189q0 -32 -7 -66l-18 -118q-38 -232 -191 -266q107 -46 107 -216q0 -45 -6 -93l-19 -98q-51 -337 -423 -337h-116h-38.5t-66.5 1t-74 2t-65.5 4t-71 7t-59.5 10q-58 10 -120 32z" />
<glyph unicode="4" horiz-adv-x="1231" d="M104 450l727 1019h269l-638 -903h429l59 365l94 153h166l-82 -518h159l-29 -181l-166 -44l-52 -337h-237l52 337h-700z" />
<glyph unicode="5" horiz-adv-x="1201" d="M134 38l31 181h582q88 0 130 48.5t50 109.5l27 161q3 26 3 48q0 119 -126 119h-229q-83 0 -127 -56q-26 -31 -31 -75h-222l186 895h877l-35 -219h-652l-81 -387q71 58 253 58q31 0 83.5 -2t61.5 -4q147 -4 221 -108q58 -79 59 -189q0 -34 -7 -70l-32 -223 q-30 -184 -151 -269q-90 -65 -260 -66h-119q-218 0 -492 48z" />
<glyph unicode="6" horiz-adv-x="1229" d="M201 446q0 147 30 338t81.5 330.5t115.5 214t127 109.5t133.5 39t140.5 4q237 0 479 -42l-25 -177h-532q-62 0 -112.5 -42t-82.5 -113q-54 -121 -81 -270q227 44 462 44q157 0 223 -76q65 -75 64 -165q0 -36 -8 -102l-36 -241q-27 -167 -126.5 -232t-266.5 -65h-289 q-69 0 -120 20t-93 74q-84 107 -84 352zM427.5 464.5q-0.5 -71.5 8 -109t24.5 -72.5q32 -68 120 -68h209q149 0 170 140l27 177q6 29 6 59.5t-21 53.5t-104 23h-419q-20 -132 -20.5 -203.5z" />
<glyph unicode="7" horiz-adv-x="1105" d="M249 1250l34 219h937l48 -117l-718 -1352h-261l674 1250h-714z" />
<glyph unicode="8" horiz-adv-x="1256" d="M171 269q0 28 7 72l25 165q22 128 116 182q43 24 97 32q-137 54 -137 228q0 34 6 67l20 131q32 199 147 271q102 62 274 62h302q217 0 274 -165q16 -50 16.5 -101t-6.5 -95l-19 -116q-4 -50 -35 -102q-58 -100 -158 -119q120 -34 120 -231q0 -29 -6 -52l-28 -180 q-38 -240 -198 -292q-77 -26 -197 -26h-299q-203 0 -275 104q-46 67 -46 165zM410 304q0 -21 9 -45q20 -48 139 -46h227q90 0 136 54q27 30 33 78l27 165q2 15 2.5 45.5t-29 62t-95.5 31.5h-245q-152 0 -174 -139l-26 -165q-4 -20 -4 -41zM512 957q0 -50 35 -78t97 -28h245 q86 0 121.5 38t44.5 103l19 110q6 34 6 72t-24 66t-104 28h-228q-96 0 -136 -36.5t-56 -129.5l-17 -110q-3 -19 -3 -35z" />
<glyph unicode="9" horiz-adv-x="1227" d="M155 38l27 177h532q50 0 93.5 29t71.5 73.5t52 103.5q36 96 59 217q-227 -42 -464 -42q-157 0 -221 78q-62 79 -62 167q0 36 6 105l34 226q29 169 128 237t265 68h289q299 0 299 -456q0 -257 -67 -523q-75 -291 -224 -420q-84 -72 -180 -78t-175 -6q-245 0 -463 44z M473 896q0 -21 6 -43q16 -45 119 -45h419q18 127 18.5 193.5t-7 126.5t-44 97t-99.5 37h-211q-147 0 -168 -140l-27 -176q-6 -29 -6 -50z" />
<glyph unicode=":" horiz-adv-x="533" d="M151 46l25 157q7 50 57 50h148q42 0 42 -36v-14l-25 -157q-8 -46 -57 -46h-148q-22 0 -33 13t-9 33zM281 861l24 156q7 51 57 51h148q42 0 42 -36v-15l-24 -156q-8 -46 -59 -47h-148q-22 0 -33 12.5t-7 34.5z" />
<glyph unicode=";" horiz-adv-x="533" d="M126 -176l14 84q29 0 45 10.5t20 20t6 25.5l6 36h-22q-20 0 -33 15t-9 35l23 151q2 24 19.5 39t39.5 15h144q40 0 40 -40v-14l-36 -224q-10 -57 -40 -96q-50 -66 -163 -65q-17 0 -29 4zM283 861l24 156q9 51 57 51h148q44 0 44 -36q0 -6 -2 -15l-24 -156q-8 -46 -57 -47 h-148q-22 0 -33 13.5t-9 33.5z" />
<glyph unicode="&#x3c;" horiz-adv-x="918" d="M178 596l37 225l798 303l-34 -224l-539 -199l475 -209l-36 -219z" />
<glyph unicode="=" horiz-adv-x="936" d="M100 389l34 205h858l-35 -205h-857zM167 817l34 204h856l-34 -204h-856z" />
<glyph unicode="&#x3e;" horiz-adv-x="921" d="M128 273l37 227l545 216l-484 195l37 213l702 -303l-34 -225z" />
<glyph unicode="?" horiz-adv-x="1084" d="M233 1268l28 169q295 48 482 49q46 0 92 -3q134 0 224 -58q141 -92 141 -265q0 -34 -5 -68l-27 -183q-32 -208 -163 -283q-96 -52 -246 -52q-55 0 -115 6l-28 -189h-200l57 368q83 -2 146 -2t110.5 1.5t89.5 19t75 56.5t43 99l22 143q4 26 4 48q0 69 -42 106.5t-172 37.5 h-516zM339 46l25 157q7 50 55 50h149q44 0 44 -36q0 -6 -1 -14l-25 -157q-8 -46 -56 -46h-149q-22 0 -34 13t-8 33z" />
<glyph unicode="@" horiz-adv-x="1777" d="M104 -36q0 42 9 88l156 994q30 193 145.5 289t330.5 96h738q317 0 317 -319q0 -50 -10 -108l-100 -675q-27 -172 -120 -251q-88 -72 -249 -72h-157l-48 115q-107 -129 -283 -129q-321 0 -321 383q0 87 16 189q81 530 451 530q321 0 456 -131l-110 -758q80 0 118 32.5 t54 147.5l95 632q19 127 -14 171q-23 30 -48 36q-36 8 -86 8h-739q-135 0 -188 -78q-40 -61 -51 -137l-155 -977q-6 -32 -6 -75t24 -84q37 -57 155 -57h774l-23 -143q-271 -54 -586 -54h-191q-137 0 -223 60q-130 93 -131 277zM710 375.5q0 -66.5 14 -108.5q29 -79 135 -78 q87 0 151 29t128 100l86 555q-100 25 -191 24.5t-121.5 -9.5t-60.5 -34t-54.5 -65t-44 -107.5t-31 -153.5t-11.5 -152.5z" />
<glyph unicode="A" horiz-adv-x="1358" d="M76 0l745 1469h257l259 -1469h-237l-66 355h-520l-181 -355h-257zM614 568h391l-98 594z" />
<glyph unicode="B" horiz-adv-x="1199" d="M136 0l233 1469h585q176 0 258 -86q88 -92 88 -232q0 -43 -3 -88q-16 -126 -83.5 -203t-163.5 -98q74 -11 126 -111q38 -73 38 -174q0 -38 -4 -77q-28 -213 -141 -306.5t-345 -93.5h-588zM404 213h349q188 0 224 220q4 31 4 76t-24 91q-38 68 -134 68h-348zM508 873h341 q91 0 145 48q74 69 74 221q0 44 -35 80t-120 36h-343z" />
<glyph unicode="C" horiz-adv-x="1149" d="M191 514q0 112 26 272t67 287t111 224q137 189 428 189q247 0 496 -67l-30 -184q-230 31 -415 31h-11h-21.5h-25.5t-33.5 -1t-46 -6t-48 -13.5t-46.5 -27t-47 -44.5t-43 -66t-40 -93q-43 -122 -66 -261.5t-23 -238.5t27 -168q48 -132 209 -140h128t347 15l-29 -182 q-172 -52 -473 -52q-149 0 -228 44q-213 113 -213 482z" />
<glyph unicode="D" horiz-adv-x="1323" d="M136 0l233 1467q0 2 579 2q210 0 308 -128q94 -125 109 -295q4 -56 4 -98q0 -121 -21 -241q-57 -362 -204.5 -534.5t-417.5 -172.5h-590zM404 215h331q155 0 250 140.5t131 374.5q22 123 22 226v9q0 291 -245 291h-325z" />
<glyph unicode="E" horiz-adv-x="1127" d="M169 220q0 29 3 61l146 907q43 281 322 281q8 0 284 -10t357 -22l-31 -190h-586q-72 0 -96 -37q-19 -30 -26 -76l-46 -289l600 -20l-31 -191l-605 -18l-46 -295q-3 -18 -3 -32q0 -48 31 -61q30 -11 79 -11h569l-33 -189q-66 -7 -477 -28l-136 -6h-38.5t-72.5 12 q-164 42 -164 214z" />
<glyph unicode="F" horiz-adv-x="1131" d="M132 0l186 1174q26 161 114.5 228t211.5 67q8 0 283 -10t356 -22l-29 -190h-588q-66 0 -90 -30.5t-32 -82.5l-44 -291l600 -20l-30 -191l-608 -20l-96 -612h-234z" />
<glyph unicode="G" horiz-adv-x="1227" d="M219 771.5q26 145.5 56 251t77.5 197.5t109.5 147q133 116 359 116h4h10q226 0 500 -64l-29 -180q-70 10 -218 21q-161 12 -234 12t-107.5 -6t-83.5 -36t-83 -84q-84 -133 -124 -411q-23 -135 -23 -237q0 -289 220 -289h2q64 0 141 26t121 52l46 26l52 303h-255l25 150 q142 48 359 48q61 0 135 -4l-128 -810h-172l-46 109q-52 -50 -142 -85q-98 -36 -209 -36t-189 44q-200 112 -200 472q0 122 26 267.5z" />
<glyph unicode="H" horiz-adv-x="1296" d="M142 0l233 1469h234l-105 -650h576l104 650h233l-233 -1469h-232l96 602h-577l-96 -602h-233z" />
<glyph unicode="I" horiz-adv-x="489" d="M149 0l232 1469h233l-233 -1469h-232z" />
<glyph unicode="J" horiz-adv-x="716" d="M67 44l33 178q103 -13 151 -13q22 0 33 3q34 8 62.5 20.5t46.5 36.5q40 53 55 141l168 1059h233l-181 -1138q-34 -226 -153 -295q-82 -46 -227 -46t-221 54z" />
<glyph unicode="K" horiz-adv-x="1207" d="M136 0l233 1469h225l-100 -630h134l496 630h285l-578 -753l345 -716h-269l-291 626h-154l-98 -626h-228z" />
<glyph unicode="L" horiz-adv-x="1065" d="M172 211q0 30 4 62l193 1196h231l-183 -1146q-2 -14 -2 -26q0 -53 33 -66q28 -12 80 -12h544l-34 -219h-611q-126 0 -190.5 58.5t-64.5 152.5z" />
<glyph unicode="M" horiz-adv-x="1641" d="M115 0l351 1469h313l132 -1084l464 1084h325l-105 -1469h-230l82 1061l-461 -1061h-258l-130 1059l-249 -1059h-234z" />
<glyph unicode="N" horiz-adv-x="1333" d="M136 0l233 1469h231l470 -1042l165 1042h232l-232 -1469h-230l-471 1034l-163 -1034h-235z" />
<glyph unicode="O" horiz-adv-x="1335" d="M193 424q0 53 1 115.5t21 189t43 220t48 164.5t60.5 126.5t67.5 93.5t77 65t85 43t95.5 24t101.5 11t119.5 3t134 -7t122 -28t101.5 -57q96 -83 123 -233q11 -68 11 -122q0 -11 1 -23q0 -45 -2 -96q-2 -64 -23.5 -203.5t-51.5 -245.5t-65 -181.5t-84 -129t-97 -84.5 t-115 -49q-108 -29 -226 -29q-3 1 -5 1q-120 0 -180 6t-122.5 26t-102.5 52q-98 79 -126 225q-12 70 -12 123zM425 444q0 -130 63 -181q40 -31 92 -41.5t143 -10.5t156 19t119 75q100 100 150 419q24 157 24 230.5t-3 114.5t-22 80t-39 61t-60 33q-60 17 -135.5 17 t-103.5 -1t-65 -6.5t-60 -16t-51.5 -29.5t-46.5 -47q-52 -78 -76 -160q-85 -286 -85 -556z" />
<glyph unicode="P" horiz-adv-x="1195" d="M128 0l234 1469h613q147 0 243 -94q84 -80 84 -255q0 -140 -36 -249t-66 -155t-66 -79t-75 -47q-82 -28 -138 -28l-62 2h-48.5t-190 15t-162.5 21l-96 -600h-234zM484 775h367q80 0 132 52t74 196q8 40 8 64.5t-4 53.5t-13.5 54t-32.5 37q-36 24 -88 24h-367z" />
<glyph unicode="Q" horiz-adv-x="1342" d="M197 427.5q0 54.5 1 115.5t21 188.5t43 221t49 163.5t60.5 125.5t67 93.5t78 65t84.5 42t95.5 24t102.5 11t118.5 2t134.5 -8t122.5 -29t102.5 -57q94 -83 119 -233q12 -70 12 -124q1 -19 1 -38q0 -38 -1 -81q-1 -64 -22 -203.5t-52.5 -246t-66.5 -180.5t-84 -127.5 t-96 -83.5t-116 -48q-107 -29 -226 -29q-2 0 -4 1q-121 0 -180 6t-121.5 26t-104.5 54q-98 79 -124 225q-14 70 -14 124.5zM429 444q0 -130 65 -181q38 -31 90 -41.5t144.5 -10.5t156 19t117.5 75q100 100 150 419q27 158 27 241q0 85 -10 126q-9 39 -19 67t-32 47 t-42.5 30.5t-54.5 16.5q-52 8 -118 8t-98.5 -2t-72 -8.5t-64 -22t-54.5 -41.5t-50 -66q-50 -103 -78 -225q-56 -253 -57 -451zM598 -109.5q0 33.5 2 42.5h139q52 -75 168 -75q67 0 154 25l-31 -202q-60 -16 -120.5 -16t-118.5 16q-127 36 -171 130q-22 46 -22 79.5z" />
<glyph unicode="R" horiz-adv-x="1216" d="M128 0l234 1469h622q165 0 251 -113q64 -84 63 -238q0 -172 -42 -276.5t-73 -144.5t-77.5 -66.5t-69.5 -32.5t-52 -10l209 -588h-262l-180 572l-295 22l-94 -594h-234zM488 779h363q208 0 208 321q0 76 -17 108q-31 48 -109 48h-371z" />
<glyph unicode="S" horiz-adv-x="1155" d="M149 40l27 182q163 -19 496 -19q211 0 234 146l15 101q4 30 4 62t-14 56q-22 41 -110 41h-231q-166 0 -238.5 69t-82.5 151q-6 42 -6 77.5t6 77.5l21 146q43 285 280 337q70 14 119 14h57h4q127 0 280.5 -16t243.5 -38l-28 -182q-419 17 -459.5 17h-52.5 q-94 0 -145.5 -29t-66.5 -137l-14 -94q-6 -41 -6 -65q0 -15 2 -23q6 -23 11 -34t19 -19t23 -12t31 -6q29 -2 70 -2h235q155 0 221 -84q66 -85 66 -183q0 -46 -6 -107l-16 -134q-10 -94 -47 -162.5t-82.5 -103.5t-111.5 -55q-93 -28 -222 -28h-9q-331 0 -517 56z" />
<glyph unicode="T" horiz-adv-x="1174" d="M257 1250l36 219h1061l-35 -219h-419l-199 -1250h-234l199 1250h-409z" />
<glyph unicode="U" d="M215 406q0 98 18 234l133 829h234l-134 -851q-16 -96 -16 -182.5t29 -138.5q52 -88 223 -88t255.5 93t118.5 316l134 851h236l-132 -871q-50 -318 -197.5 -463t-442.5 -145q-266 0 -367 129q-92 116 -92 287z" />
<glyph unicode="V" horiz-adv-x="1364" d="M287 1469h245l178 -1146l562 1146h262l-739 -1469h-261z" />
<glyph unicode="W" horiz-adv-x="2020" d="M287 1469h241l182 -1138l540 1138h253l-214 -441l107 -703l546 1144h249l-710 -1469h-255l-104 657l-321 -657h-267z" />
<glyph unicode="X" horiz-adv-x="1260" d="M69 0l547 745l-319 724h251l227 -538l395 538h267l-562 -764l309 -705h-253l-215 515l-379 -515h-268z" />
<glyph unicode="Y" horiz-adv-x="1298" d="M287 1469h251l201 -724l460 724h268l-648 -990l-76 -479h-233l76 479z" />
<glyph unicode="Z" horiz-adv-x="1121" d="M60 0l34 219l877 1031h-714l36 219h1004l-37 -219l-862 -1031h700l-35 -219h-1003z" />
<glyph unicode="[" horiz-adv-x="659" d="M126 -172q0 50 10 110l224 1385q28 169 108.5 246.5t266.5 77.5h160l-32 -203h-126q-40 0 -69 -13q-61 -29 -80 -146l-219 -1361q-9 -48 -9 -74t6 -55q11 -54 98 -54h128l-32 -205h-171q-78 0 -132 29q-131 67 -131 263z" />
<glyph unicode="\" horiz-adv-x="858" d="M277 1545h231l297 -1689h-231z" />
<glyph unicode="]" horiz-adv-x="655" d="M-32 -464l32 205h126q62 0 98.5 34t52.5 125l215 1360q8 50 8 88.5t-12 58.5q-22 37 -93 37h-126l34 203h163q150 0 210 -88q56 -84 57 -182q0 -38 -9 -119l-212 -1396q-23 -147 -91 -230q-80 -96 -279 -96h-174z" />
<glyph unicode="^" horiz-adv-x="776" d="M253 1065l266 270h186l156 -270h-168l-91 141l-146 -141h-203z" />
<glyph unicode="_" horiz-adv-x="1350" d="M44 -2l34 205h1272l-34 -205h-1272z" />
<glyph unicode="`" horiz-adv-x="501" d="M245 1341h217l174 -276h-167z" />
<glyph unicode="a" horiz-adv-x="1084" d="M142 320v6q0 124 22 252q22 132 63.5 223.5t86 144t105 83t109 42t95.5 14.5t113.5 3t202 -29t207.5 -98l-141 -959h-176l-36 113q-44 -46 -144.5 -86.5t-190.5 -40.5t-152.5 28t-108.5 99q-55 79 -55 205zM373 381q0 -63 16 -106q28 -82 124 -82t160 24t139 74l88 574 q-94 31 -162 31h-2q-68 0 -103 -7.5t-58 -15.5t-55 -30t-54 -58q-50 -88 -77 -255q-16 -86 -16 -149z" />
<glyph unicode="b" horiz-adv-x="1113" d="M102 0l249 1576h231l-90 -569q180 75 361 75q80 0 141 -34.5t94 -86.5q48 -88 48 -245q0 -160 -50 -356q-38 -155 -83.5 -215.5t-89.5 -94.5q-78 -62 -208 -62q-104 0 -205.5 41.5t-148.5 83.5l-64 -113h-185zM377 270q133 -75 289 -75q89 0 139 79t78 260q21 108 21 170 v6q0 58 -11 91q-20 86 -118 86q-161 0 -308 -44z" />
<glyph unicode="c" horiz-adv-x="988" d="M147 330.5q0 115.5 21 240t56 222.5t73 153.5t91.5 86t100.5 40t123 9.5t216.5 -17t243.5 -46l-24 -150q-223 16 -334.5 16t-135.5 -4t-54 -23t-51 -57q-44 -89 -78 -273q-18 -122 -18 -182.5t21 -96.5t53.5 -50.5t98.5 -14.5q151 0 343 17l64 4l-24 -153 q-119 -38 -220 -51t-175 -13h-96q-165 2 -245 140q-50 87 -50 202.5z" />
<glyph unicode="d" horiz-adv-x="1103" d="M164 565q16 88 36 159t54.5 142t79.5 115.5t113 72.5t147.5 28t176 -20t168.5 -55l91 569h230l-251 -1576h-184l-30 113q-62 -46 -162.5 -85.5t-193 -39.5t-158.5 49t-95 128q-38 107 -38 207q0 102 16 193zM385 385q0 -190 124 -190h1q156 0 311 75l90 573 q-130 44 -293 44q-54 0 -90 -26q-84 -57 -128 -327q-15 -84 -15 -149z" />
<glyph unicode="e" horiz-adv-x="1055" d="M140 334q0 114 21 227t39.5 175.5t45.5 123.5t65 99.5t93 68.5q104 58 303 58q403 0 403 -269q0 -132 -58 -219.5t-135 -124.5q-142 -69 -295 -69h-4q-76 0 -144 8.5t-93 18.5q-10 -62 -10 -114t20 -82q32 -52 141 -55q38 -2 140.5 -2t317.5 35l-27 -169 q-206 -60 -451 -60q-43 0 -85 2q-191 6 -253 154q-34 80 -34 194zM404 588q50 -6 99 -6t82 1t85 11t91.5 28t71.5 52q42 46 42 107.5t-38 84.5t-144 23q-144 0 -203 -66q-50 -58 -71 -153q-3 -19 -9 -46.5t-6 -35.5z" />
<glyph unicode="f" horiz-adv-x="810" d="M171 875l26 155l186 35l21 117q24 149 63 233q83 161 280 161q164 0 272 -48l-21 -141h-199h-2q-87 0 -115.5 -46t-53.5 -201l-12 -75h286l-31 -190h-285l-144 -875h-233l142 875h-180z" />
<glyph unicode="g" horiz-adv-x="1113" d="M52 -498l24 155h476q76 0 131.5 49t69.5 141l34 222q-151 -77 -287 -77t-209.5 44t-106.5 123q-34 91 -34 199q0 110 19 220q42 257 159.5 380.5t299.5 123.5q142 0 299 -18t247 -36l-190 -1200q-30 -199 -137.5 -287.5t-250.5 -88.5q-27 0 -56 2zM381 355 q0 -169 147 -169q104 0 163.5 13.5t120.5 33.5l107 658h-270q-191 0 -245 -337q-2 -4 -6 -35q-17 -106 -17 -164z" />
<glyph unicode="h" horiz-adv-x="1097" d="M102 0l249 1572h233l-100 -624q6 4 38 23t62 34.5t79 37.5t98 31.5t120 9.5t130 -30q102 -50 125 -195q2 -26 2 -60.5t-8 -76.5l-115 -722h-232l114 724q4 25 5 46q0 117 -119 117q-92 0 -158.5 -23t-164.5 -77l-125 -787h-233z" />
<glyph unicode="i" horiz-adv-x="429" d="M98 0l169 1065h233l-169 -1065h-233zM277 1228l24 153q7 50 57 50h170q38 0 38 -38q0 -6 -2 -12l-22 -153q-6 -46 -54 -46h-170q-20 0 -32 12q-10 10 -9 28v6z" />
<glyph unicode="j" horiz-adv-x="467" d="M32 -542l255 1607h232l-170 -1073q-50 -337 -150 -534h-167zM297 1228l24 153q6 50 56 50h171q38 0 38 -40v-10l-24 -153q-8 -46 -54 -46h-171q-22 0 -33 12q-8 9 -8 23q0 5 1 11z" />
<glyph unicode="k" horiz-adv-x="1032" d="M102 0l249 1570h233l-144 -908q132 45 270.5 166.5t168.5 236.5h251q-46 -166 -172.5 -297.5t-247.5 -189.5l355 -578h-264l-309 508l-76 -2l-81 -506h-233z" />
<glyph unicode="l" horiz-adv-x="603" d="M149 267q0 50 10 112l188 1193h233l-182 -1164q-11 -63 -11 -106q0 -57 19 -78q17 -22 60 -33q122 -38 128 -38l-24 -153h-164q-257 0 -257 267z" />
<glyph unicode="m" horiz-adv-x="1771" d="M102 0l168 1065h182l34 -119q8 6 46 29t50 28.5t44.5 23t52.5 23t49 13.5q52 17 137 17h2q84 0 151 -43q68 -43 89 -112q227 155 433 155q150 0 220 -101q50 -73 50 -178q0 -41 -8 -85l-112 -716h-233l115 718q2 23 2 56t-28.5 71t-110.5 38q-163 0 -303 -94 q0 -2 -5 -37.5t-5 -37.5l-115 -714h-232l114 718q2 20 2 43.5t-10 52.5q-24 69 -111.5 69t-148.5 -22t-163 -78l-123 -783h-233z" />
<glyph unicode="n" horiz-adv-x="1097" d="M102 0l168 1065h182l34 -117q6 4 48 29t81.5 46t109.5 41t148.5 20t137.5 -30q102 -50 125 -195q2 -26 2 -60.5t-8 -76.5l-115 -722h-232l114 724q4 25 5 46q0 117 -119 117q-92 0 -158.5 -23t-164.5 -77l-125 -787h-233z" />
<glyph unicode="o" horiz-adv-x="1123" d="M170 571.5q21 129.5 60.5 232.5t108.5 165.5t160 85.5t229 23q259 0 352 -141q60 -90 60 -251q0 -84 -16 -186q-48 -297 -163.5 -403.5t-383.5 -106.5t-364 129q-64 87 -64 242q0 81 21 210.5zM381 375q0 -48 8.5 -80t22 -54t44.5 -34q44 -19 120 -19h8q82 1 122.5 9 t79.5 40.5t63 99.5t40 171q19 118 19 176q0 3 1 7q0 54 -8 90q-8 38 -36 60q-48 40 -143.5 40t-139.5 -12t-82 -50t-60.5 -108.5t-40.5 -179t-18 -156.5z" />
<glyph unicode="p" horiz-adv-x="1117" d="M16 -542l259 1574q224 42 539 42q324 0 324 -421q0 -77 -16 -155q-34 -249 -142.5 -382.5t-313.5 -133.5q-76 0 -167 19t-154 57l-96 -600h-233zM373 222q104 -48 203.5 -48t141.5 19.5t75 55.5q62 72 98 287q12 80 13 142q0 205 -145 205h-277z" />
<glyph unicode="q" horiz-adv-x="1109" d="M169 558q42 268 158 395t309 127q279 0 536 -54l-247 -1568h-232l94 600q-156 -79 -289 -79q-1 0 -2 1q-134 0 -206.5 42.5t-105.5 119.5q-36 89 -36 198q0 111 21 218zM379 362q0 -31 2 -62t9.5 -46t18 -33t26.5 -26q40 -20 95 -21h11q47 0 83 4q75 6 188 42l105 669 h-277q-186 0 -238 -347q-23 -149 -23 -180z" />
<glyph unicode="r" horiz-adv-x="844" d="M102 0l168 1065h190l22 -134q67 46 110.5 72.5t114 50.5t153 24t111.5 -15l-36 -226q-52 8 -151.5 8t-173.5 -25t-160 -94l-115 -726h-233z" />
<glyph unicode="s" horiz-adv-x="1019" d="M119 34l23 152h520q85 0 98 83l12 74q4 12 5 30q0 54 -76 54h-261q-144 0 -216 71q-52 54 -52 151q0 32 6 69l17 99q23 133 98 199t227 66t318 -11.5t223 -34.5l-23 -155h-498q-62 0 -85.5 -25t-29.5 -63l-9 -73q-3 -18 -3 -33q0 -33 16 -43q18 -10 42.5 -9t28.5 1h266 q139 0 201 -82q46 -60 46 -146q0 -27 -4 -55l-17 -125q-25 -156 -123 -204q-78 -40 -205.5 -40t-313 14t-231.5 36z" />
<glyph unicode="t" horiz-adv-x="754" d="M165 877l21 140l191 51l90 297h190l-46 -297h264l-30 -191h-265l-74 -469q-10 -63 -10 -106q0 -58 18 -80q17 -19 60 -31q125 -38 131 -38l-25 -153h-172q-249 0 -249 265q0 52 10 114l78 498h-182z" />
<glyph unicode="u" horiz-adv-x="1095" d="M132 253q0 42 8 92l113 720h233l-115 -724q-3 -28 -3 -65t25.5 -66.5t105 -29.5t145.5 22t166 79l123 784h233l-168 -1065h-184l-29 117q-76 -46 -118.5 -69.5t-115 -44.5t-147.5 -21q-167 0 -228 98q-44 71 -44 173z" />
<glyph unicode="v" horiz-adv-x="1057" d="M174 1065h245l151 -800l297 600q48 100 60 203h209q8 -38 8 -78q0 -90 -48 -189l-414 -801h-287z" />
<glyph unicode="w" horiz-adv-x="1639" d="M174 1065h243l145 -792l299 588q48 100 60 202h201q10 -40 10 -96t-30 -128l-43 -94l92 -466l306 586q48 100 60 203h203q10 -42 10 -84q0 -92 -50 -183l-437 -801h-251l-92 466l-234 -466h-271z" />
<glyph unicode="x" horiz-adv-x="1113" d="M40 0l462 546l-293 519h275l180 -351l292 351h287l-462 -557l282 -508h-268l-179 341l-281 -341h-295z" />
<glyph unicode="y" horiz-adv-x="1119" d="M176 1065h241l91 -776q9 -78 106 -78h8l311 656q36 79 53 203h209q9 -40 9 -82q0 -90 -46 -191l-379 -795q-138 -295 -300 -425q-140 -113 -290 -141v164q119 69 197 168.5t146 231.5q-98 0 -169.5 59.5t-87.5 193.5z" />
<glyph unicode="z" horiz-adv-x="936" d="M80 2l31 203l611 656h-531l28 204h836l-27 -204l-597 -654h488l-32 -205h-807z" />
<glyph unicode="{" horiz-adv-x="641" d="M124 548l31 185q2 0 20 1t23 1t21 2t22 3t20 5t20 9t16 11.5t16 15.5q11 23 16 44l75 470q28 178 144 265t329 87l-34 -203h-4q-90 0 -142.5 -49.5t-72.5 -176.5l-64 -404q-27 -158 -215 -184q80 -14 119.5 -58t39.5 -97q0 -13 -4 -27l-75 -464q-8 -52 -8 -106 q0 -145 143 -145q7 0 14 2l-32 -199q-113 0 -192.5 35.5t-114.5 91.5q-56 90 -57 203q0 44 11 90l76 473q2 10 2 19q0 44 -37 73t-92 29q-6 0 -14 -2z" />
<glyph unicode="|" horiz-adv-x="492" d="M122 -144l267 1689h205l-267 -1689h-205z" />
<glyph unicode="}" horiz-adv-x="636" d="M-32 -464l32 197h4q90 0 142.5 50t70.5 167l72 448q25 147 211 180q-111 14 -145 94q-10 27 -10 51t2 41l67 418q9 62 9 118q0 143 -140 144h-14l34 203q109 0 186 -35.5t113 -96.5q54 -94 55 -207q0 -44 -11 -90l-64 -439q-2 -8 -2 -17q0 -46 40.5 -73.5t97.5 -27.5h6 l-29 -186q-92 2 -119 -13q-48 -29 -57 -79l-79 -490q-32 -186 -144 -271.5t-328 -85.5z" />
<glyph unicode="~" horiz-adv-x="852" d="M269 1166q3 4 27.5 25t31.5 26t29 22t32.5 23t31.5 17.5t34.5 15t34 7.5t53.5 4t91.5 -34.5t95.5 -34.5h20t58 13q49 18 123 66l30 -106q-4 -4 -20 -19t-30 -27.5t-42 -34.5t-50 -33q-56 -31 -105.5 -31t-114.5 35.5t-97.5 35.5t-60 -7t-44 -14.5t-49 -24t-49.5 -25.5z " />
<glyph unicode="&#xa1;" horiz-adv-x="549" d="M62 -540l197 1068h201l-141 -1068h-257zM269 718v10l24 153q6 42 56 46h143q20 -2 32 -17t8 -35l-22 -147q-10 -44 -50 -50h-155q-36 2 -36 40z" />
<glyph unicode="&#xa2;" horiz-adv-x="975" d="M130 328.5q0 115.5 21 242t57.5 225.5t74.5 154t94 85t100 37.5t77.5 7.5t51.5 -2l32 194h155l-34 -202q172 -17 296 -55l-23 -148q-221 14 -333.5 14t-136.5 -4t-54.5 -22t-49.5 -54q-44 -91 -79 -273q-15 -122 -15 -182.5t20 -96.5t51.5 -50.5t98.5 -14.5q151 0 343 17 l65 4l-25 -153q-144 -56 -333 -62l-26 -183h-154l27 181q-170 2 -251 138q-50 87 -50 202.5z" />
<glyph unicode="&#xa3;" horiz-adv-x="1177" d="M84 0l31 182l142 37l66 423h-137l21 124l144 42l30 199q44 278 165 370q44 34 81 52t97 26q86 14 206 14.5t322 -23.5l69 -9l-28 -185h-374q-162 0 -221.5 -46t-83.5 -204l-30 -195l473 -32l-19 -133h-482l-66 -423h638l-36 -219h-1008z" />
<glyph unicode="&#xa5;" horiz-adv-x="1247" d="M228 289l25 146h295l12 82h-295l26 149h243l-267 803h248l199 -662l454 662h279l-584 -803h285l-26 -149h-329l-12 -82h329l-24 -146h-326l-40 -289h-232l40 289h-300z" />
<glyph unicode="&#xa7;" horiz-adv-x="1091" d="M171 23l26 166h498q50 0 78 14t35 58l15 105q10 57 -28 69q-18 4 -54 5h-281q-135 0 -198 59t-63 147q0 26 4 55l14 90q11 80 40.5 129t104.5 72q-85 50 -85 154q0 24 4 53l16 111q38 263 319 264q102 0 293 -13.5t257 -24.5l-24 -167h-508q-46 0 -72 -19t-34 -63 l-14 -94q-2 -11 -2 -19q0 -62 82 -62h287q140 0 199.5 -62t59.5 -148q0 -25 -4 -51l-16 -89q-24 -170 -136 -196q80 -22 79 -135q0 -28 -6 -63l-17 -127q-27 -161 -109 -211q-73 -46 -197.5 -46t-312.5 13t-250 26zM437 686q0 -48 87 -48h240q87 0 105 40q6 16 12 48l14 95 q5 25 5 44q0 50 -92 50h-240q-59 0 -81.5 -19t-30.5 -79l-16 -93q-2 -15 -3 -38z" />
<glyph unicode="&#xa8;" horiz-adv-x="902" d="M269 1136q0 70 42 106.5t88.5 36.5t71.5 -29.5t25 -50.5t-3 -37t-15 -37.5t-30 -36.5q-36 -33 -83 -33t-71.5 29.5t-24.5 51.5zM781 1136q0 70 42 106.5t88 36.5t71 -29.5t25 -50.5t-2.5 -37t-15 -37.5t-30.5 -36.5q-36 -33 -83 -33t-71 29.5t-24 51.5z" />
<glyph unicode="&#xa9;" horiz-adv-x="1605" d="M191 542q0 293 104 560q62 158 189 263q124 104 326 104h481q231 0 314 -199q50 -115 51 -293q0 -119 -22 -259q-54 -337 -195.5 -527.5t-364.5 -190.5h-480q-186 0 -283 130q-92 127 -110 297q-10 75 -10 115zM353 597.5q0 -53.5 3.5 -117t28.5 -144.5t82 -130t139 -49 h482q130 0 233 144q117 165 165 546q9 88 9 164q0 301 -214 301h-494q-239 0 -347 -289q-44 -117 -65.5 -244.5t-21.5 -181zM552 569q0 93 17 196.5t51.5 190t82.5 131.5t100 64t107 19t116 -6q144 -13 253 -42l-21 -132q-164 24 -331 23q-107 0 -159 -122 q-24 -62 -37 -144.5t-13 -134.5t12 -91q25 -70 113 -69q149 0 347 32l-20 -133q-165 -56 -379 -56q-130 0 -197 111q-42 70 -42 163z" />
<glyph unicode="&#xaa;" horiz-adv-x="734" d="M134 530l21 132h632l-21 -132h-632zM197 1017q0 155 54 270q28 60 60 94t76 54t75.5 26t59.5 8t71 2t144.5 -22t147.5 -66l-90 -626h-117l-27 102q-50 -72 -169 -102q-36 -8 -77 -8t-83.5 20t-76.5 68q-48 65 -48 180zM368 1038q0 -127 94 -127q102 0 202 91l43 302 q-65 20 -113 20.5t-72 -6t-42 -15t-43 -31.5q-46 -42 -64 -162q-5 -40 -5 -72z" />
<glyph unicode="&#xab;" horiz-adv-x="1143" d="M197 710l477 408l119 -137l-335 -286l245 -285l-149 -117zM611 710l477 408l118 -137l-335 -286l245 -285l-149 -117z" />
<glyph unicode="&#xac;" horiz-adv-x="1013" d="M157 494l32 197h857l-60 -372h-197l25 175h-657z" />
<glyph unicode="&#xad;" horiz-adv-x="709" d="M121 479l34 205h630l-34 -205h-630z" />
<glyph unicode="&#xae;" horiz-adv-x="1605" d="M191 542q0 293 104 560q62 158 189 263q124 104 326 104h481q231 0 314 -199q50 -115 51 -293q0 -119 -22 -259q-54 -337 -195.5 -527.5t-364.5 -190.5h-480q-186 0 -283 130q-92 127 -110 297q-10 75 -10 115zM353 597.5q0 -53.5 3.5 -117t28.5 -144.5t82 -130t139 -49 h482q130 0 233 144q117 165 165 546q9 88 9 164q0 301 -214 301h-494q-239 0 -347 -289q-44 -117 -65.5 -244.5t-21.5 -181zM550 307l136 857h362q98 0 166 -52q65 -48 65 -162q0 -27 -5 -57q-23 -189 -144 -236q-16 -6 -67 -19l125 -331h-179l-120 327l-121 25l-56 -352 h-162zM787 775h182q79 0 105 23t33 72t7 78q0 59 -107 59h-182z" />
<glyph unicode="&#xaf;" horiz-adv-x="754" d="M253 1065l24 147h586l-24 -147h-586z" />
<glyph unicode="&#xb0;" horiz-adv-x="569" d="M281 1265q0 85 63.5 146.5t147.5 61.5t140 -58.5t56 -137.5q0 -90 -61 -149.5t-146.5 -59.5t-142.5 56t-57 141zM389 1260.5q0 -32.5 27.5 -59.5t60.5 -27t55 12q50 28 50 84q0 54 -46 82q-20 12 -46 12.5t-49.5 -12.5t-37.5 -36t-14 -55.5z" />
<glyph unicode="&#xb1;" horiz-adv-x="1021" d="M119 153l32 205h835l-32 -205h-835zM219 770l30 205h313l50 314h205l-51 -314h318l-30 -205h-317l-53 -316h-205l53 316h-313z" />
<glyph unicode="&#xb4;" horiz-adv-x="485" d="M203 1065l237 276h226l-297 -276h-166z" />
<glyph unicode="&#xb5;" horiz-adv-x="1183" d="M67 -542l254 1607h233l-114 -724q-5 -24 -5 -44q0 -117 119 -117q92 0 158.5 22t164.5 79l125 784h233l-170 -1065h-180l-32 117q-8 -2 -52 -26t-55 -30.5t-48 -23.5t-58 -23q-155 -44 -253 2l-88 -558h-232z" />
<glyph unicode="&#xb6;" horiz-adv-x="1159" d="M220 966q0 26 4 51l29 187q42 265 359 265h746l-27 -186h-119l-203 -1283h-184l205 1287h-155l-289 -1829h-182l202 1289q-2 0 -15 -7t-27 -12q-37 -16 -96.5 -16t-116.5 29q-102 48 -125 170q-6 29 -6 55zM410 981.5q0 -18.5 5.5 -38.5t28.5 -30q32 -17 80 -18h104 l65 394h-103q-80 0 -112 -30.5t-45 -96.5l-21 -145q-2 -17 -2 -35.5z" />
<glyph unicode="&#xb7;" horiz-adv-x="531" d="M253 693l24 156q6 51 56 51h149q44 0 44 -37q0 -5 -2 -14l-24 -156q-8 -46 -56 -47h-149q-23 0 -34.5 13t-7.5 34z" />
<glyph unicode="&#xb8;" horiz-adv-x="492" d="M28 -353l18 102l98 31q42 17 59 49.5t28 96.5h169q-25 -157 -81 -218t-181 -61h-110z" />
<glyph unicode="&#xba;" horiz-adv-x="774" d="M159 534l19 130h636l-19 -130h-636zM220 1007q0 48 8 107q35 211 117 287t275 76q115 0 183 -36q108 -56 108 -231q0 -54 -9 -120q-33 -195 -113 -269t-267 -74t-255 90q-47 60 -47 170zM395 1025q0 -23 2.5 -38.5t6.5 -30t14.5 -24t20 -15.5t27.5 -8q28 -5 72 -5t66 3.5 t49 21.5q50 30 71 174q10 67 10.5 105.5t-4 61.5t-25.5 32q-33 18 -96 18.5t-88 -5t-50 -27.5t-39.5 -65t-25.5 -109t-11 -89z" />
<glyph unicode="&#xbb;" horiz-adv-x="1137" d="M153 431l337 291l-237 276l140 120l356 -413l-476 -412zM570 431l337 291l-237 276l142 120l354 -413l-473 -412z" />
<glyph unicode="&#xbf;" horiz-adv-x="1080" d="M36 -209q0 35 6 71l27 166q32 211 162 285q98 55 251 56q52 0 108 -5l30 188h201l-59 -368q-84 2 -146 2t-124.5 -3t-120.5 -44t-72 -129l-22 -142q-6 -27 -6.5 -57t16.5 -64q31 -72 199 -72h516l-27 -167q-295 -50 -481 -50q-46 0 -92 2q-134 0 -226 61 q-140 94 -140 270zM632 726v15l27 156q5 47 53 47h151q23 0 33.5 -13.5t9.5 -33.5l-27 -156q-6 -50 -56 -50h-151q-40 0 -40 35z" />
<glyph unicode="&#xc0;" horiz-adv-x="1358" d="M76 0l745 1469h257l259 -1469h-237l-66 355h-520l-181 -355h-257zM614 568h391l-98 594zM662 1875h215l177 -276h-167z" />
<glyph unicode="&#xc1;" horiz-adv-x="1358" d="M76 0l745 1469h257l259 -1469h-237l-66 355h-520l-181 -355h-257zM614 568h391l-98 594zM887 1599l237 276h226l-296 -276h-167z" />
<glyph unicode="&#xc2;" horiz-adv-x="1358" d="M76 0l745 1469h257l259 -1469h-237l-66 355h-520l-181 -355h-257zM614 568h391l-98 594zM666 1599l267 268h185l156 -268h-162l-97 145l-158 -145h-191z" />
<glyph unicode="&#xc3;" horiz-adv-x="1358" d="M76 0l745 1469h257l259 -1469h-237l-66 355h-520l-181 -355h-257zM614 568h391l-98 594zM642 1700q76 65 138.5 101t119.5 35t117.5 -34.5t75 -34.5t36.5 -1t88 26t89 46l31 -106q-4 -2 -32 -24t-36.5 -28t-33.5 -23t-38 -23t-35 -16q-88 -42 -193 18q-60 34 -94 34 q-62 0 -100 -18t-47.5 -23t-27.5 -15.5t-26 -14.5z" />
<glyph unicode="&#xc4;" horiz-adv-x="1358" d="M76 0l745 1469h257l259 -1469h-237l-66 355h-520l-181 -355h-257zM614 568h391l-98 594zM620 1682q0 70 42.5 105.5t88.5 35.5t71 -28.5t25 -50.5t-3 -38t-15 -37.5t-28 -34.5q-39 -35 -85 -35t-71 30.5t-25 52.5zM1132 1682q0 70 42 105.5t88 35.5t71 -28.5t25 -50.5 t-3 -38t-14.5 -37.5t-28.5 -34.5q-38 -35 -84 -35t-71 30.5t-25 52.5z" />
<glyph unicode="&#xc5;" horiz-adv-x="1358" d="M76 0l745 1469h257l259 -1469h-237l-66 355h-520l-181 -355h-257zM614 568h391l-98 594zM772 1649q0 -72 53.5 -128t137.5 -56q117 0 185 105q34 52 34 120q0 72 -51 127.5t-121.5 55.5t-119.5 -27.5t-83.5 -78.5t-34.5 -118zM884 1675.5q3 32.5 33.5 60.5t69.5 28 t63 -26t24 -65t-32.5 -68t-64 -29t-52.5 11.5t-32.5 33.5t-8.5 54.5z" />
<glyph unicode="&#xc6;" horiz-adv-x="1968" d="M50 0l767 1176q115 174 237 235q116 58 231 58h88q20 0 304 -10t364 -22l-30 -190h-590q-73 0 -92 -37q-18 -26 -27 -72l-48 -301l602 -23l-29 -188l-611 -20l-44 -288q-12 -77 28 -94q31 -11 81 -11h567l-32 -187q-65 -9 -475 -28l-137 -6q-11 -2 -37.5 -2t-72.5 12 q-119 26 -157 119q-14 34 -14 66.5t4 57.5l27 172h-366l-275 -417h-263zM722 628h266l90 546z" />
<glyph unicode="&#xc7;" horiz-adv-x="1149" d="M191 514q0 112 26 272t67 287t111 224q137 189 428 189q247 0 496 -67l-30 -184q-237 32 -426 31h-21.5h-25.5t-33.5 -1t-45 -6t-48 -13.5t-46.5 -27t-46 -44.5t-42 -66t-41 -93q-43 -122 -65 -262.5t-22 -238.5t25 -167q46 -132 207 -140h128t347 15l-29 -182 q-172 -52 -473 -52q-149 0 -228 44q-213 113 -213 482zM364 -353l15 104l98 30q56 16 73 77q8 24 14 68h171q-25 -155 -82 -217t-182 -62h-107z" />
<glyph unicode="&#xc8;" horiz-adv-x="1127" d="M169 220q0 29 3 61l146 907q43 281 322 281q8 0 284 -10t357 -22l-31 -190h-586q-72 0 -96 -37q-19 -30 -26 -76l-46 -289l600 -20l-31 -191l-605 -18l-46 -295q-12 -76 28 -93q30 -11 79 -11h569l-33 -189q-66 -7 -477 -28l-136 -6h-38.5t-72.5 12q-164 42 -164 214z M554 1863h216l176 -273h-167z" />
<glyph unicode="&#xc9;" horiz-adv-x="1127" d="M169 220q0 29 3 61l146 907q43 281 322 281q8 0 284 -10t357 -22l-31 -190h-586q-72 0 -96 -37q-19 -30 -26 -76l-46 -289l600 -20l-31 -191l-605 -18l-46 -295q-12 -76 28 -93q30 -11 79 -11h569l-33 -189q-66 -7 -477 -28l-136 -6h-38.5t-72.5 12q-164 42 -164 214z M779 1590l236 273h226l-297 -273h-165z" />
<glyph unicode="&#xca;" horiz-adv-x="1127" d="M169 220q0 29 3 61l146 907q43 281 322 281q8 0 284 -10t357 -22l-31 -190h-586q-72 0 -96 -37q-19 -30 -26 -76l-46 -289l600 -20l-31 -191l-605 -18l-46 -295q-12 -76 28 -93q30 -11 79 -11h569l-33 -189q-66 -7 -477 -28l-136 -6h-38.5t-72.5 12q-164 42 -164 214z M560 1590l265 268h184l157 -268h-166l-91 140l-147 -140h-202z" />
<glyph unicode="&#xcb;" horiz-adv-x="1127" d="M169 220q0 29 3 61l146 907q43 281 322 281q8 0 284 -10t357 -22l-31 -190h-586q-72 0 -96 -37q-19 -30 -26 -76l-46 -289l600 -20l-31 -191l-605 -18l-46 -295q-12 -76 28 -93q30 -11 79 -11h569l-33 -189q-66 -7 -477 -28l-136 -6h-38.5t-72.5 12q-164 42 -164 214z M492 1660q0 71 43 106.5t89 35.5t70 -29t24 -49q0 -71 -42 -107.5t-88 -36.5t-71 29t-25 51zM1004 1660q0 71 43 106.5t89 35.5t70 -29t24 -49q0 -71 -42 -107.5t-88 -36.5t-71 29t-25 51z" />
<glyph unicode="&#xcc;" horiz-adv-x="489" d="M149 0l232 1469h233l-233 -1469h-232zM211 1875h214l177 -276h-167z" />
<glyph unicode="&#xcd;" horiz-adv-x="489" d="M149 0l232 1469h233l-233 -1469h-232zM435 1599l237 276h228l-298 -276h-167z" />
<glyph unicode="&#xce;" horiz-adv-x="489" d="M149 0l232 1469h233l-233 -1469h-232zM215 1599l267 268h184l157 -268h-162l-97 145l-158 -145h-191z" />
<glyph unicode="&#xcf;" horiz-adv-x="489" d="M149 0l232 1469h233l-233 -1469h-232zM169.5 1712q6.5 46 45 78.5t84.5 32.5t71 -28.5t25 -50.5q0 -70 -42 -107.5t-77 -37.5t-54 9.5t-31 25.5q-28 32 -21.5 78zM681 1712q7 46 45 78.5t84.5 32.5t71.5 -28.5t25 -50.5q0 -70 -42 -107.5t-77 -37.5t-54.5 9.5t-30.5 25.5 q-29 32 -22 78z" />
<glyph unicode="&#xd0;" horiz-adv-x="1320" d="M113 686l19 124h131l105 657q0 2 584 2q210 0 306 -130q94 -129 107 -299q4 -52 4 -94q0 -121 -21 -239q-59 -353 -204.5 -530t-410.5 -177h-599l109 686h-130zM402 215h335q151 0 246 140.5t131 374.5q23 132 22 237q0 289 -232 289h-338l-70 -446h245l-21 -124h-245z " />
<glyph unicode="&#xd1;" horiz-adv-x="1333" d="M136 0l233 1469h231l470 -1042l165 1042h232l-232 -1469h-230l-471 1034l-163 -1034h-235zM602 1694q118 100 193 124q86 26 180 -24q60 -34 75 -34h29.5t58.5 14q88 28 126 59l31 -107q-4 -4 -32 -25t-36.5 -27t-32.5 -24t-38 -24t-36 -17q-88 -40 -193 21 q-60 34 -94 34t-61 -7.5t-47 -16t-29.5 -13.5t-32.5 -17.5t-31 -16.5z" />
<glyph unicode="&#xd2;" horiz-adv-x="1335" d="M193 424q0 53 1 115.5t21 189t43 220t48 164.5t60.5 126.5t67.5 93.5t77 65t85 43t95.5 24t101.5 11t119.5 3t134 -7t122 -28t101.5 -57q96 -83 123 -233q11 -68 11.5 -122.5t-1.5 -118.5t-23.5 -203.5t-51.5 -245.5t-65 -181.5t-84 -129t-97 -84.5t-115 -49 q-110 -29 -230.5 -28.5t-180.5 6.5t-122.5 26t-102.5 52q-98 79 -126 225q-12 70 -12 123zM425 444q0 -130 63 -181q40 -31 92 -41.5t143 -10.5t156 19t119 75q100 100 150 419q24 161 24 244.5t-8 122.5t-19 67t-33 47t-42 30.5t-55 16.5q-50 8 -114 8t-92 -1t-65 -6.5 t-60 -16t-51.5 -29.5t-46.5 -47q-52 -78 -76 -160q-85 -286 -85 -556zM616 1875h215l176 -276h-166z" />
<glyph unicode="&#xd3;" horiz-adv-x="1335" d="M193 424q0 53 1 115.5t21 189t43 220t48 164.5t60.5 126.5t67.5 93.5t77 65t85 43t95.5 24t101.5 11t119.5 3t134 -7t122 -28t101.5 -57q96 -83 123 -233q11 -68 11.5 -122.5t-1.5 -118.5t-23.5 -203.5t-51.5 -245.5t-65 -181.5t-84 -129t-97 -84.5t-115 -49 q-110 -29 -230.5 -28.5t-180.5 6.5t-122.5 26t-102.5 52q-98 79 -126 225q-12 70 -12 123zM425 444q0 -130 63 -181q40 -31 92 -41.5t143 -10.5t156 19t119 75q100 100 150 419q24 161 24 244.5t-8 122.5t-19 67t-33 47t-42 30.5t-55 16.5q-50 8 -114 8t-92 -1t-65 -6.5 t-60 -16t-51.5 -29.5t-46.5 -47q-52 -78 -76 -160q-85 -286 -85 -556zM841 1599l237 276h226l-297 -276h-166z" />
<glyph unicode="&#xd4;" horiz-adv-x="1335" d="M193 424q0 53 1 115.5t21 189t43 220t48 164.5t60.5 126.5t67.5 93.5t77 65t85 43t95.5 24t101.5 11t119.5 3t134 -7t122 -28t101.5 -57q96 -83 123 -233q11 -68 11.5 -122.5t-1.5 -118.5t-23.5 -203.5t-51.5 -245.5t-65 -181.5t-84 -129t-97 -84.5t-115 -49 q-110 -29 -230.5 -28.5t-180.5 6.5t-122.5 26t-102.5 52q-98 79 -126 225q-12 70 -12 123zM425 444q0 -130 63 -181q40 -31 92 -41.5t143 -10.5t156 19t119 75q100 100 150 419q24 161 24 244.5t-8 122.5t-19 67t-33 47t-42 30.5t-55 16.5q-50 8 -114 8t-92 -1t-65 -6.5 t-60 -16t-51.5 -29.5t-46.5 -47q-52 -78 -76 -160q-85 -286 -85 -556zM620 1599l267 268h185l156 -268h-163l-96 145l-159 -145h-190z" />
<glyph unicode="&#xd5;" horiz-adv-x="1335" d="M193 424q0 53 1 115.5t21 189t43 220t48 164.5t60.5 126.5t67.5 93.5t77 65t85 43t95.5 24t101.5 11t119.5 3t134 -7t122 -28t101.5 -57q96 -83 123 -233q11 -68 11.5 -122.5t-1.5 -118.5t-23.5 -203.5t-51.5 -245.5t-65 -181.5t-84 -129t-97 -84.5t-115 -49 q-110 -29 -230.5 -28.5t-180.5 6.5t-122.5 26t-102.5 52q-98 79 -126 225q-12 70 -12 123zM425 444q0 -130 63 -181q40 -31 92 -41.5t143 -10.5t156 19t119 75q100 100 150 419q24 161 24 244.5t-8 122.5t-19 67t-33 47t-42 30.5t-55 16.5q-50 8 -114 8t-92 -1t-65 -6.5 t-60 -16t-51.5 -29.5t-46.5 -47q-52 -78 -76 -160q-85 -286 -85 -556zM596 1700q86 73 120.5 90.5t50.5 25t30 11.5q72 22 123 -2.5t81.5 -40.5t45 -17t35.5 -1t87 26t91 46l29 -106q-4 -2 -31.5 -24t-35.5 -28t-33 -23t-38 -23t-35 -16q-88 -42 -195 18q-58 34 -92 34 t-62 -7t-48 -16t-28.5 -13t-32.5 -17.5t-32 -17.5z" />
<glyph unicode="&#xd6;" horiz-adv-x="1335" d="M193 424q0 53 1 115.5t21 189t43 220t48 164.5t60.5 126.5t67.5 93.5t77 65t85 43t95.5 24t101.5 11t119.5 3t134 -7t122 -28t101.5 -57q96 -83 123 -233q11 -68 11.5 -122.5t-1.5 -118.5t-23.5 -203.5t-51.5 -245.5t-65 -181.5t-84 -129t-97 -84.5t-115 -49 q-110 -29 -230.5 -28.5t-180.5 6.5t-122.5 26t-102.5 52q-98 79 -126 225q-12 70 -12 123zM425 444q0 -130 63 -181q40 -31 92 -41.5t143 -10.5t156 19t119 75q100 100 150 419q24 161 24 244.5t-8 122.5t-19 67t-33 47t-42 30.5t-55 16.5q-50 8 -114 8t-92 -1t-65 -6.5 t-60 -16t-51.5 -29.5t-46.5 -47q-52 -78 -76 -160q-85 -286 -85 -556zM574.5 1712q7.5 46 46 78.5t84.5 32.5t71 -28.5t25 -50.5q0 -70 -42.5 -107.5t-77.5 -37.5t-53.5 9.5t-31.5 25.5q-29 32 -21.5 78zM1086.5 1712q7.5 46 45.5 78.5t84 32.5t71 -28.5t25 -50.5 q0 -70 -42 -107.5t-77 -37.5t-54 9.5t-32 25.5q-28 32 -20.5 78z" />
<glyph unicode="&#xd8;" horiz-adv-x="1335" d="M104 0l139 167q-58 106 -58.5 261.5t21.5 293t46.5 231t49.5 163.5t59 125.5t67.5 93.5t78.5 65t85 42t94 23q88 14 216 14q252 0 358 -83l59 73h140l-124 -150q66 -111 66 -319q0 -129 -23.5 -281.5t-54 -259t-66 -180.5t-83.5 -127.5t-96 -84.5t-117 -47 q-108 -29 -254.5 -28.5t-239 18.5t-154.5 72l-68 -82h-141zM423 515.5q0 -78.5 12 -122.5l667 819q-35 31 -87 39.5t-117 8.5t-94 -1t-65 -6.5t-59 -16t-51.5 -29.5t-47.5 -47t-40.5 -67t-37 -92t-30.5 -122t-32.5 -177t-17.5 -186.5zM475 275q59 -64 237 -64q98 0 162.5 19 t119.5 75q98 100 148 419q24 151 24 240.5t-14 138.5z" />
<glyph unicode="&#xd9;" d="M215 406q0 98 18 234l133 829h234l-134 -851q-16 -96 -16 -182.5t29 -138.5q52 -88 223 -88t255.5 93t118.5 316l134 851h236l-132 -871q-50 -318 -197.5 -463t-442.5 -145q-266 0 -367 129q-92 116 -92 287zM618 1875h215l176 -276h-166z" />
<glyph unicode="&#xda;" d="M215 406q0 98 18 234l133 829h234l-134 -851q-16 -96 -16 -182.5t29 -138.5q52 -88 223 -88t255.5 93t118.5 316l134 851h236l-132 -871q-50 -318 -197.5 -463t-442.5 -145q-266 0 -367 129q-92 116 -92 287zM843 1599l237 276h226l-297 -276h-166z" />
<glyph unicode="&#xdb;" d="M215 406q0 98 18 234l133 829h234l-134 -851q-16 -96 -16 -182.5t29 -138.5q52 -88 223 -88t255.5 93t118.5 316l134 851h236l-132 -871q-50 -318 -197.5 -463t-442.5 -145q-266 0 -367 129q-92 116 -92 287zM622 1599l267 268h185l156 -268h-162l-97 145l-159 -145h-190 z" />
<glyph unicode="&#xdc;" d="M215 406q0 98 18 234l133 829h234l-134 -851q-16 -96 -16 -182.5t29 -138.5q52 -88 223 -88t255.5 93t118.5 316l134 851h236l-132 -871q-50 -318 -197.5 -463t-442.5 -145q-266 0 -367 129q-92 116 -92 287zM576 1682q0 70 42.5 105.5t88.5 35.5t71 -28.5t25 -50.5 t-3 -38t-15.5 -37.5t-27.5 -34.5q-39 -35 -85 -35t-71 30.5t-25 52.5zM1088 1682q0 70 42 105.5t88 35.5t71 -28.5t25 -50.5t-2 -34t-8 -27t-15.5 -27.5t-21 -23t-24.5 -16.5q-29 -16 -67 -16.5t-63 30t-25 52.5z" />
<glyph unicode="&#xdd;" horiz-adv-x="1298" d="M287 1469h251l201 -724l460 724h268l-648 -990l-76 -479h-233l76 479zM814 1599l238 276h227l-298 -276h-167z" />
<glyph unicode="&#xde;" horiz-adv-x="1101" d="M102 0l231 1463h233l-45 -283h332q94 0 156.5 -39t88.5 -87q50 -93 50 -205q0 -48 -10 -115.5t-26 -128.5t-39 -105t-46 -77.5t-55.5 -53.5t-59.5 -33t-65 -20q-67 -10 -161 -11q-193 0 -295 40l-56 -345h-233zM417 517h276q48 0 77 7.5t57 31.5q52 42 77 197q5 30 5 48 t-2.5 40t-6 45t-18.5 38t-26 24t-29 13q-30 6 -63 6h-276z" />
<glyph unicode="&#xdf;" horiz-adv-x="1145" d="M102 0l181 1136q50 327 349 406q84 22 195.5 21.5t200.5 -25.5q155 -50 204 -184q18 -46 18 -77.5t-3.5 -72t-26.5 -102.5q-48 -131 -152 -215q-17 -12 -76 -46t-85 -62q-36 -40 -36 -82t29 -67.5t77.5 -44.5t96.5 -43.5t72 -67.5t24 -75.5t-4 -57.5l-10 -72 q-30 -187 -191 -251q-82 -35 -152 -34.5t-108.5 2.5t-73.5 8t-58 9t-58.5 10t-43.5 10l27 170l272 -13q56 0 98.5 31.5t52.5 89.5l10 52q2 8 2 15q0 57 -104 96q-48 17 -95.5 39.5t-70.5 65.5t-23 77q0 138 65 217q46 56 184 137q122 80 122 220q0 69 -46 98.5t-167.5 29.5 t-194.5 -60t-97 -216l-171 -1072h-233z" />
<glyph unicode="&#xe0;" horiz-adv-x="1084" d="M142.5 320.5q-0.5 125.5 21.5 257t63.5 223.5t86 144.5t105 83t109 42t95.5 14.5t89.5 3t119.5 -9t171.5 -40.5t142.5 -77.5l-141 -959h-176l-36 113q-44 -46 -144.5 -86.5t-190.5 -40.5t-152.5 28t-108.5 99q-54 80 -54.5 205.5zM373 381q0 -63 16 -106q28 -82 124 -82 t160 24t139 74l88 574q-96 31 -164 30.5t-103 -7.5t-58 -15t-55 -30t-54 -58q-50 -88 -77 -255q-16 -86 -16 -149zM406 1483h214l177 -275h-167z" />
<glyph unicode="&#xe1;" horiz-adv-x="1084" d="M142.5 320.5q-0.5 125.5 21.5 257t63.5 223.5t86 144.5t105 83t109 42t95.5 14.5t89.5 3t119.5 -9t171.5 -40.5t142.5 -77.5l-141 -959h-176l-36 113q-44 -46 -144.5 -86.5t-190.5 -40.5t-152.5 28t-108.5 99q-54 80 -54.5 205.5zM373 381q0 -63 16 -106q28 -82 124 -82 t160 24t139 74l88 574q-96 31 -164 30.5t-103 -7.5t-58 -15t-55 -30t-54 -58q-50 -88 -77 -255q-16 -86 -16 -149zM642 1208l239 275h224l-297 -275h-166z" />
<glyph unicode="&#xe2;" horiz-adv-x="1084" d="M142.5 320.5q-0.5 125.5 21.5 257t63.5 223.5t86 144.5t105 83t109 42t95.5 14.5t89.5 3t119.5 -9t171.5 -40.5t142.5 -77.5l-141 -959h-176l-36 113q-44 -46 -144.5 -86.5t-190.5 -40.5t-152.5 28t-108.5 99q-54 80 -54.5 205.5zM373 381q0 -63 16 -106q28 -82 124 -82 t160 24t139 74l88 574q-96 31 -164 30.5t-103 -7.5t-58 -15t-55 -30t-54 -58q-50 -88 -77 -255q-16 -86 -16 -149zM410 1208l266 269h185l156 -269h-162l-96 144l-159 -144h-190z" />
<glyph unicode="&#xe3;" horiz-adv-x="1084" d="M142.5 320.5q-0.5 125.5 21.5 257t63.5 223.5t86 144.5t105 83t109 42t95.5 14.5t89.5 3t119.5 -9t171.5 -40.5t142.5 -77.5l-141 -959h-176l-36 113q-44 -46 -144.5 -86.5t-190.5 -40.5t-152.5 28t-108.5 99q-54 80 -54.5 205.5zM373 381q0 -63 16 -106q28 -82 124 -82 t160 24t139 74l88 574q-96 31 -164 30.5t-103 -7.5t-58 -15t-55 -30t-54 -58q-50 -88 -77 -255q-16 -86 -16 -149zM395 1308q76 65 137.5 101.5t119 35.5t117.5 -34.5t76 -34.5t37.5 -1t87.5 27t89 47l29 -108q-2 -2 -30 -24t-36.5 -28t-33.5 -23t-38 -23t-35 -17 q-88 -40 -193 19q-60 34 -94 34t-61 -7.5t-47 -16t-29 -12.5t-32.5 -17.5t-31.5 -17.5z" />
<glyph unicode="&#xe4;" horiz-adv-x="1084" d="M142.5 320.5q-0.5 125.5 21.5 257t63.5 223.5t86 144.5t105 83t109 42t95.5 14.5t89.5 3t119.5 -9t171.5 -40.5t142.5 -77.5l-141 -959h-176l-36 113q-44 -46 -144.5 -86.5t-190.5 -40.5t-152.5 28t-108.5 99q-54 80 -54.5 205.5zM362 1291q0 70 43 106t89 36t70 -29 t24 -52q0 -70 -42 -107t-88 -37t-71 30t-25 53zM373 381q0 -63 16 -106q28 -82 124 -82t160 24t139 74l88 574q-96 31 -164 30.5t-103 -7.5t-58 -15t-55 -30t-54 -58q-50 -88 -77 -255q-16 -86 -16 -149zM873 1291q0 70 43 106t89.5 36t70.5 -29t24 -52q0 -70 -42.5 -107 t-88.5 -37t-71 30t-25 53z" />
<glyph unicode="&#xe5;" horiz-adv-x="1084" d="M142.5 320.5q-0.5 125.5 21.5 257t63.5 223.5t86 144.5t105 83t109 42t95.5 14.5t89.5 3t119.5 -9t171.5 -40.5t142.5 -77.5l-141 -959h-176l-36 113q-44 -46 -144.5 -86.5t-190.5 -40.5t-152.5 28t-108.5 99q-54 80 -54.5 205.5zM373 381q0 -63 16 -106q28 -82 124 -82 t160 24t139 74l88 574q-96 31 -164 30.5t-103 -7.5t-58 -15t-55 -30t-54 -58q-50 -88 -77 -255q-16 -86 -16 -149zM554 1393q0 96 74 164q65 61 149 61t135 -56.5t51 -128.5q0 -69 -34 -121q-69 -104 -184 -104q-86 0 -138.5 56.5t-52.5 128.5zM664 1408q0 -39 24 -64 t63.5 -25t69.5 26q35 32 34.5 71t-24.5 65t-63.5 26t-71.5 -30t-32 -69z" />
<glyph unicode="&#xe6;" horiz-adv-x="1741" d="M84 328.5q0 123.5 19 229.5t40.5 174.5t48.5 118t54 87t61 61.5t63.5 40t66.5 26q96 23 181 23q232 0 374 -77q113 75 312 75q414 0 414 -272q0 -130 -58.5 -217t-131.5 -124q-147 -70 -300 -69q-76 0 -145.5 8.5t-90.5 18.5q-10 -62 -10.5 -114t18.5 -82q32 -52 140 -55 q38 -2 137.5 -2t315.5 35l-28 -169q-207 -60 -445 -60q-42 0 -82 2q-180 6 -247 140q-58 -61 -176.5 -100.5t-211 -39.5t-156 31t-109.5 104q-54 84 -54 207.5zM316 373.5q0 -62.5 11 -98.5q29 -84 140 -84q83 0 166 23t118 61q-2 31 -2 101t29.5 232.5t78.5 250.5 q-119 35 -186 34.5t-98 -6.5t-54 -14t-55.5 -31t-51.5 -59q-52 -86 -79 -255q-17 -92 -17 -154.5zM1011 588q52 -6 101.5 -6t81.5 1t85.5 11t92.5 28t69 52q42 46 42 107.5t-37 84.5t-146 23q-144 0 -200 -66q-50 -58 -72 -153q-4 -19 -9.5 -46.5t-7.5 -35.5z" />
<glyph unicode="&#xe7;" horiz-adv-x="990" d="M149 330.5q0 115.5 18.5 227.5t46 200.5t61.5 144.5t68 92.5t80 53t86.5 23t116 6.5t208.5 -15t240 -48l-24 -150q-221 16 -333.5 16t-135.5 -4t-54 -22t-50 -54q-46 -91 -77 -273q-18 -122 -18.5 -182.5t19.5 -96.5t52.5 -50.5t100.5 -14.5q149 0 341 17l64 4l-24 -153 q-78 -32 -172.5 -47t-140.5 -16t-97.5 -1h-78.5q-167 2 -247 140q-50 87 -50 202.5zM270 -355l17 104l100 31q42 15 58.5 47.5t25.5 98.5h171q-27 -157 -82.5 -219t-180.5 -62h-109z" />
<glyph unicode="&#xe8;" horiz-adv-x="1055" d="M140 334q0 114 23 237.5t45.5 193.5t60.5 136t95 104q120 81 343 81q403 0 403 -269q0 -132 -58 -219.5t-135 -124.5q-144 -70 -299 -69q-76 0 -144 8.5t-93 18.5q-10 -60 -10 -94q0 -102 50 -134q37 -20 93 -22.5t158.5 -2.5t317.5 35l-27 -169q-206 -60 -451 -60 q-43 0 -85 2q-191 6 -253 154q-34 80 -34 194zM404 588q52 -6 99 -6t85 2t72.5 8t71 19t65.5 31q78 52 78 149q0 54 -32 70q-48 29 -150 28q-144 0 -203 -66q-50 -58 -71 -153q-3 -19 -9 -46.5t-6 -35.5zM416 1481h216l175 -275h-167z" />
<glyph unicode="&#xe9;" horiz-adv-x="1055" d="M140 334q0 114 23 237.5t45.5 193.5t60.5 136t95 104q120 81 343 81q403 0 403 -269q0 -132 -58 -219.5t-135 -124.5q-144 -70 -299 -69q-76 0 -144 8.5t-93 18.5q-10 -60 -10 -94q0 -102 50 -134q37 -20 93 -22.5t158.5 -2.5t317.5 35l-27 -169q-206 -60 -451 -60 q-43 0 -85 2q-191 6 -253 154q-34 80 -34 194zM404 588q52 -6 99 -6t85 2t72.5 8t71 19t65.5 31q78 52 78 149q0 54 -32 70q-48 29 -150 28q-144 0 -203 -66q-50 -58 -71 -153q-3 -19 -9 -46.5t-6 -35.5zM640 1206l239 275h224l-296 -275h-167z" />
<glyph unicode="&#xea;" horiz-adv-x="1055" d="M140 334q0 114 23 237.5t45.5 193.5t60.5 136t95 104q120 81 343 81q403 0 403 -269q0 -132 -58 -219.5t-135 -124.5q-144 -70 -299 -69q-76 0 -144 8.5t-93 18.5q-10 -60 -10 -94q0 -102 50 -134q37 -20 93 -22.5t158.5 -2.5t317.5 35l-27 -169q-206 -60 -451 -60 q-43 0 -85 2q-191 6 -253 154q-34 80 -34 194zM404 588q52 -6 99 -6t85 2t72.5 8t71 19t65.5 31q78 52 78 149q0 54 -32 70q-48 29 -150 28q-144 0 -203 -66q-50 -58 -71 -153q-3 -19 -9 -46.5t-6 -35.5zM421 1206l265 267h185l157 -267h-163l-97 144l-157 -144h-190z" />
<glyph unicode="&#xeb;" horiz-adv-x="1055" d="M140 334q0 114 23 237.5t45.5 193.5t60.5 136t95 104q120 81 343 81q403 0 403 -269q0 -132 -58 -219.5t-135 -124.5q-144 -70 -299 -69q-76 0 -144 8.5t-93 18.5q-10 -60 -10 -94q0 -102 50 -134q37 -20 93 -22.5t158.5 -2.5t317.5 35l-27 -169q-206 -60 -451 -60 q-43 0 -85 2q-191 6 -253 154q-34 80 -34 194zM373 1289q0 70 42.5 105t89.5 35t71 -28t24 -50t-3 -38t-15 -37.5t-28 -34.5q-39 -35 -85 -35t-71 30t-25 53zM404 588q52 -6 99 -6t85 2t72.5 8t71 19t65.5 31q78 52 78 149q0 54 -32 70q-48 29 -150 28q-144 0 -203 -66 q-50 -58 -71 -153q-3 -19 -9 -46.5t-6 -35.5zM885 1289q0 70 42 105t89 35t71.5 -28t24.5 -50t-3.5 -38t-15 -37.5t-28.5 -34.5q-38 -35 -84 -35t-71 30t-25 53z" />
<glyph unicode="&#xec;" horiz-adv-x="429" d="M88 1473h215l176 -274h-166zM92 0l169 1065h233l-169 -1065h-233z" />
<glyph unicode="&#xed;" horiz-adv-x="429" d="M92 0l169 1065h233l-169 -1065h-233zM311 1199l237 274h227l-298 -274h-166z" />
<glyph unicode="&#xee;" horiz-adv-x="429" d="M88 1199l265 268h185l159 -268h-165l-95 144l-158 -144h-191zM92 0l169 1065h233l-169 -1065h-233z" />
<glyph unicode="&#xef;" horiz-adv-x="429" d="M36 1281q0 70 42.5 106t89.5 36t71 -29t24 -51q0 -71 -42.5 -107.5t-88.5 -36.5t-71 29.5t-25 52.5zM92 0l169 1065h233l-169 -1065h-233zM549 1310q7 46 45 79.5t85 33.5t71.5 -29t24.5 -51q0 -71 -42 -107.5t-77.5 -36.5t-54.5 8.5t-31 24.5q-28 32 -21 78z" />
<glyph unicode="&#xf0;" horiz-adv-x="1078" d="M130 371q0 81 17 167q48 279 149.5 403t301.5 124h149q114 0 142 -21q-20 136 -92 218l-267 -110l-36 118l182 75q-76 34 -207 34h-42l31 193q306 0 461 -121l217 91l38 -119l-165 -67q119 -166 119 -481q0 -166 -38 -406.5t-143.5 -354.5t-300.5 -114h-217 q-299 0 -299 371zM366 351q0 -96 59 -123q23 -8 43 -8h24h159h23t48 9.5t55 39.5q54 57 84 252q20 115 20 174.5t-10 85.5q-22 67 -124 66h-149q-60 0 -96 -24q-81 -53 -123 -302q-13 -118 -13 -170z" />
<glyph unicode="&#xf1;" horiz-adv-x="1097" d="M102 0l168 1065h182l34 -117q6 4 48 29t81.5 46t109.5 41t148.5 20t137.5 -30q102 -50 125 -195q2 -26 2 -60.5t-8 -76.5l-115 -722h-232l114 724q4 25 5 46q0 117 -119 117q-117 0 -213 -44q-44 -20 -110 -56l-125 -787h-233zM419 1304q77 65 139 101t119.5 35 t116.5 -34t75 -34t37 -1t87 26t91 47l30 -107q-4 -2 -32 -24t-36 -28t-33 -23t-38.5 -23.5t-35.5 -16.5q-88 -42 -192 19q-60 34 -94.5 33.5t-61.5 -7.5t-47 -15.5t-29 -12.5t-32 -17.5t-31 -17.5z" />
<glyph unicode="&#xf2;" horiz-adv-x="1123" d="M149 366q0 76 21 205.5t60.5 232.5t108.5 165.5t160 85.5t229 23q259 0 352 -141q60 -90 60 -251q0 -84 -16 -186q-48 -297 -163.5 -403.5t-383.5 -106.5t-364 129q-65 88 -64 247zM381 370q0 -61 12.5 -97t41.5 -54q48 -33 139.5 -31.5t132 9.5t79.5 40.5t63 99.5 t40 171q19 118 19.5 176.5t-7.5 96.5t-36 60q-48 40 -143.5 40t-139.5 -12t-82 -50t-60.5 -108.5t-40.5 -175t-18 -165.5zM431 1473h215l177 -274h-166z" />
<glyph unicode="&#xf3;" horiz-adv-x="1123" d="M149 366q0 76 21 205.5t60.5 232.5t108.5 165.5t160 85.5t229 23q259 0 352 -141q60 -90 60 -251q0 -84 -16 -186q-48 -297 -163.5 -403.5t-383.5 -106.5t-364 129q-65 88 -64 247zM381 370q0 -61 12.5 -97t41.5 -54q48 -33 139.5 -31.5t132 9.5t79.5 40.5t63 99.5 t40 171q19 118 19.5 176.5t-7.5 96.5t-36 60q-48 40 -143.5 40t-139.5 -12t-82 -50t-60.5 -108.5t-40.5 -175t-18 -165.5zM661 1199l239 274h224l-297 -274h-166z" />
<glyph unicode="&#xf4;" horiz-adv-x="1123" d="M149 366q0 76 21 205.5t60.5 232.5t108.5 165.5t160 85.5t229 23q259 0 352 -141q60 -90 60 -251q0 -84 -16 -186q-48 -297 -163.5 -403.5t-383.5 -106.5t-364 129q-65 88 -64 247zM381 370q0 -61 12.5 -97t41.5 -54q48 -33 139.5 -31.5t132 9.5t79.5 40.5t63 99.5 t40 171q19 118 19.5 176.5t-7.5 96.5t-36 60q-48 40 -143.5 40t-139.5 -12t-82 -50t-60.5 -108.5t-40.5 -175t-18 -165.5zM433 1199l268 268h184l157 -268h-163l-96 144l-159 -144h-191z" />
<glyph unicode="&#xf5;" horiz-adv-x="1123" d="M149 366q0 76 21 205.5t60.5 232.5t108.5 165.5t160 85.5t229 23q259 0 352 -141q60 -90 60 -251q0 -84 -16 -186q-48 -297 -163.5 -403.5t-383.5 -106.5t-364 129q-65 88 -64 247zM381 370q0 -61 12.5 -97t41.5 -54q48 -33 139.5 -31.5t132 9.5t79.5 40.5t63 99.5 t40 171q19 118 19.5 176.5t-7.5 96.5t-36 60q-48 40 -143.5 40t-139.5 -12t-82 -50t-60.5 -108.5t-40.5 -175t-18 -165.5zM414 1298q74 65 136 101t119 35t117.5 -34t75.5 -34t30 -1t58 14q88 28 126 58l29 -106q-7 -4 -28.5 -21t-30 -24t-28.5 -22t-32.5 -21t-31.5 -16.5 t-33 -16.5q-38 -11 -80 -10.5t-102.5 34.5t-94 34t-61 -7t-48 -15.5t-29 -13t-31.5 -17.5t-31 -16z" />
<glyph unicode="&#xf6;" horiz-adv-x="1123" d="M149 366q0 76 21 205.5t60.5 232.5t108.5 165.5t160 85.5t229 23q259 0 352 -141q60 -90 60 -251q0 -84 -16 -186q-48 -297 -163.5 -403.5t-383.5 -106.5t-364 129q-65 88 -64 247zM381 370q0 -61 12.5 -97t41.5 -54q48 -33 139.5 -31.5t132 9.5t79.5 40.5t63 99.5 t40 171q19 118 19.5 176.5t-7.5 96.5t-36 60q-48 40 -143.5 40t-139.5 -12t-82 -50t-60.5 -108.5t-40.5 -175t-18 -165.5zM391 1281q0 70 43 106t89.5 36t70.5 -29t24 -51q0 -71 -42 -107.5t-88 -36.5t-71.5 29.5t-25.5 52.5zM904 1310q7 46 46.5 79.5t85.5 33.5t70 -29 t24 -51q0 -71 -42 -107.5t-76.5 -36.5t-54.5 8.5t-32 24.5q-28 32 -21 78z" />
<glyph unicode="&#xf7;" horiz-adv-x="1011" d="M180 606l33 204h842l-32 -204h-843zM442 323l22 127q5 48 55 48h132q40 0 40 -36v-12l-23 -127q-6 -46 -54 -46h-130q-19 0 -31.5 13t-10.5 33zM544 956l18 124q8 50 56 50h131q42 0 42 -36q0 -6 -2 -14l-19 -124q-8 -47 -56 -47h-130q-22 0 -33 12t-7 35z" />
<glyph unicode="&#xf8;" horiz-adv-x="1127" d="M73 0l126 134q-48 81 -48 190t21 242t61 237t109.5 165.5t159.5 84.5t252.5 23t260.5 -65l48 54h147l-120 -130q56 -86 56 -238q0 -86 -18 -195q-48 -297 -164.5 -404.5t-387.5 -107.5q-205 0 -307 70l-56 -60h-140zM389.5 412.5q-0.5 -43.5 8.5 -69.5l457 502 q-43 32 -128 32t-123 -7t-72 -27t-57 -60q-46 -84 -75 -266q-10 -61 -10.5 -104.5zM429 228q40 -42 140.5 -42t141 9.5t79.5 42t62 99.5t39 162t16 149.5t-12 86.5z" />
<glyph unicode="&#xf9;" horiz-adv-x="1095" d="M132 253q0 42 8 92l113 720h233l-115 -724q-3 -28 -3 -65t25.5 -66.5t105 -29.5t145.5 22t166 79l123 784h233l-168 -1065h-184l-29 117q-76 -46 -118.5 -69.5t-115 -44.5t-147.5 -21q-167 0 -228 98q-44 71 -44 173zM423 1473h215l176 -274h-165z" />
<glyph unicode="&#xfa;" horiz-adv-x="1095" d="M132 253q0 42 8 92l113 720h233l-115 -724q-3 -28 -3 -65t25.5 -66.5t105 -29.5t145.5 22t166 79l123 784h233l-168 -1065h-184l-29 117q-76 -46 -118.5 -69.5t-115 -44.5t-147.5 -21q-167 0 -228 98q-44 71 -44 173zM649 1199l236 274h225l-296 -274h-165z" />
<glyph unicode="&#xfb;" horiz-adv-x="1095" d="M132 253q0 42 8 92l113 720h233l-115 -724q-3 -28 -3 -65t25.5 -66.5t105 -29.5t145.5 22t166 79l123 784h233l-168 -1065h-184l-29 117q-76 -46 -118.5 -69.5t-115 -44.5t-147.5 -21q-167 0 -228 98q-44 71 -44 173zM427 1199l268 268h184l157 -268h-163l-96 144 l-159 -144h-191z" />
<glyph unicode="&#xfc;" horiz-adv-x="1095" d="M132 253q0 42 8 92l113 720h233l-115 -724q-3 -28 -3 -65t25.5 -66.5t105 -29.5t145.5 22t166 79l123 784h233l-168 -1065h-184l-29 117q-76 -46 -118.5 -69.5t-115 -44.5t-147.5 -21q-167 0 -228 98q-44 71 -44 173zM379 1281q0 70 43.5 106t89.5 36t70 -29t24 -51 q0 -71 -42.5 -107.5t-88.5 -36.5t-71 29.5t-25 52.5zM892.5 1310q7.5 46 46 79.5t85 33.5t70.5 -29t24 -51q0 -71 -42 -107.5t-76.5 -36.5t-53.5 8.5t-33 24.5q-28 32 -20.5 78z" />
<glyph unicode="&#xfd;" horiz-adv-x="1119" d="M176 1065h241l89 -776q8 -52 58 -72q7 -2 14.5 -3t14.5 -2t13 -1h10h6l311 656q36 79 53 203h209q9 -40 9 -82q0 -90 -46 -191l-379 -795q-201 -425 -476 -534q-54 -23 -114 -32v164q119 69 197 168.5t146 231.5q-98 0 -169.5 59.5t-87.5 193.5zM630 1190l237 273h227 l-297 -273h-167z" />
<glyph unicode="&#xfe;" horiz-adv-x="1109" d="M32 -542l337 2112h233l-100 -622q113 79 264 115q56 12 123 12.5t126 -45.5q109 -82 127 -306q4 -30 4 -82t-12 -121t-21.5 -115t-26 -105.5t-37.5 -102.5t-54.5 -87t-75.5 -73q-92 -62 -224 -62q-75 0 -170.5 20t-164.5 56l-95 -594h-233zM385 213q52 -18 82.5 -23.5 t39 -7.5t30 -4t27.5 -2t28 -2t25 -2h28l25 -1q83 0 141 76t86 281q10 79 10 140q0 203 -112 203q-136 0 -318 -82z" />
<glyph unicode="&#xff;" horiz-adv-x="1119" d="M176 1065h241l89 -776q8 -52 58 -72q7 -2 14.5 -3t14.5 -2t13 -1h10h6l311 656q36 79 53 203h209q9 -40 9 -82q0 -90 -46 -191l-379 -795q-201 -425 -476 -534q-54 -23 -114 -32v164q119 69 197 168.5t146 231.5q-98 0 -169.5 59.5t-87.5 193.5zM365.5 1279.5 q7.5 55.5 46 87t85.5 31.5t71 -28.5t24 -48.5q0 -71 -42 -108t-80.5 -37t-61.5 14q-50 34 -42.5 89.5zM877 1256q0 71 42 106.5t89 35.5t71 -28.5t24 -48.5q0 -71 -42 -108t-88 -37t-71 29.5t-25 50.5z" />
<glyph unicode="&#x100;" horiz-adv-x="1358" d="M76 0l745 1469h257l259 -1469h-237l-66 355h-520l-181 -355h-257zM614 568h391l-98 594zM678 1599l23 147h586l-23 -147h-586z" />
<glyph unicode="&#x101;" horiz-adv-x="1084" d="M142.5 320.5q-0.5 125.5 21.5 257t63.5 223.5t86 144.5t105 83t109 42t95.5 14.5t89.5 3t119.5 -9t171.5 -40.5t142.5 -77.5l-141 -959h-176l-36 113q-44 -46 -144.5 -86.5t-190.5 -40.5t-152.5 28t-108.5 99q-54 80 -54.5 205.5zM373 381q0 -63 16 -106q28 -82 124 -82 t160 24t139 74l88 574q-96 31 -164 30.5t-103 -7.5t-58 -15t-55 -30t-54 -58q-50 -88 -77 -255q-16 -86 -16 -149zM421 1208l25 148h586l-25 -148h-586z" />
<glyph unicode="&#x102;" horiz-adv-x="1358" d="M76 0l745 1469h257l259 -1469h-237l-66 355h-520l-181 -355h-257zM614 568h391l-98 594zM777 1802q0 12 2 25h106q-2 -10 -2 -36.5t26 -55.5t77 -29h4q122 0 138 121h109q-29 -227 -251 -228q-92 0 -150.5 58.5t-58.5 144.5z" />
<glyph unicode="&#x103;" horiz-adv-x="1084" d="M142.5 320.5q-0.5 125.5 21.5 257t63.5 223.5t86 144.5t105 83t109 42t95.5 14.5t89.5 3t119.5 -9t171.5 -40.5t142.5 -77.5l-141 -959h-176l-36 113q-44 -46 -144.5 -86.5t-190.5 -40.5t-152.5 28t-108.5 99q-54 80 -54.5 205.5zM373 381q0 -63 16 -106q28 -82 124 -82 t160 24t139 74l88 574q-96 31 -164 30.5t-103 -7.5t-58 -15t-55 -30t-54 -58q-50 -88 -77 -255q-16 -86 -16 -149zM519 1413v24h107v-36t26 -55.5t76 -29.5h5q121 0 138 121h106q-14 -113 -78 -170t-164.5 -57t-158 58.5t-57.5 144.5z" />
<glyph unicode="&#x104;" horiz-adv-x="1486" d="M209 0l745 1469h258l257 -1469h-237l-66 355h-520l-180 -355h-257zM747 568h393l-98 594zM1126 -217q0 137 182 217h101q-130 -90 -130 -163q0 -66 90 -65h16l-22 -141q-28 -6 -55 -6q-76 0 -129 47t-53 111z" />
<glyph unicode="&#x105;" horiz-adv-x="1011" d="M113 320.5q0 125.5 22 257t63 223.5t86 144.5t106.5 83t109.5 42t94 14.5t112 3t203 -29t209 -98l-141 -959h-176l-37 113q-46 -46 -145.5 -86.5t-189.5 -40.5t-153 28t-109 99q-54 80 -54 205.5zM345.5 381q-0.5 -63 14.5 -106q30 -82 125 -82t158.5 24t141.5 74l86 574 q-96 31 -163.5 30.5t-102.5 -7.5t-58 -15t-55 -30t-55 -58q-50 -88 -75 -255q-16 -86 -16.5 -149zM657 -217q0 137 182 217h100q-131 -90 -131 -163q0 -66 92 -65h15l-22 -141q-31 -6 -54 -6q-77 0 -129.5 47t-52.5 111z" />
<glyph unicode="&#x106;" horiz-adv-x="1149" d="M191 514q0 233 76 503q68 241 191 350q136 119 374 119t487 -69l-30 -182q-237 32 -426 31h-21.5h-25.5t-33.5 -1t-46 -6t-48 -13.5t-46.5 -27t-47 -44.5t-43 -66t-40 -93q-43 -122 -66 -261.5t-23 -238.5t27 -168q48 -132 209 -140h128t347 15l-29 -182 q-172 -52 -473 -52q-149 0 -228 44q-213 113 -213 482zM819 1605l236 274h226l-295 -274h-167z" />
<glyph unicode="&#x107;" horiz-adv-x="988" d="M149 330.5q0 115.5 21 240t56 222.5t73 153.5t91.5 86t100.5 40t123.5 9.5t217.5 -17t242 -46l-24 -150q-221 16 -332.5 16t-136.5 -4t-55 -23t-49 -57q-46 -89 -77 -273q-18 -122 -18.5 -182.5t19.5 -96.5t52.5 -50.5t100.5 -14.5q149 0 341 17l64 4l-24 -153 q-119 -38 -219 -51t-175 -13h-95q-167 2 -247 140q-50 87 -50 202.5zM624 1200l239 275h225l-297 -275h-167z" />
<glyph unicode="&#x108;" horiz-adv-x="1149" d="M191 514q0 233 76 503q68 241 191 350q136 119 374 119t487 -69l-30 -182q-237 32 -426 31h-21.5h-25.5t-33.5 -1t-46 -6t-48 -13.5t-46.5 -27t-47 -44.5t-43 -66t-40 -93q-43 -122 -66 -261.5t-23 -238.5t27 -168q48 -132 209 -140h128t347 15l-29 -182 q-172 -52 -473 -52q-149 0 -228 44q-213 113 -213 482zM586 1605l267 270h185l157 -270h-163l-97 145l-158 -145h-191z" />
<glyph unicode="&#x109;" horiz-adv-x="988" d="M147 330.5q0 115.5 21 240t56 222.5t73 153.5t91.5 86t100.5 40t123 9.5t216.5 -17t243.5 -46l-24 -150q-223 16 -334.5 16t-135.5 -4t-54 -23t-51 -57q-44 -89 -78 -273q-18 -122 -18 -182.5t21 -96.5t53.5 -50.5t98.5 -14.5q151 0 343 17l64 4l-24 -153 q-195 -65 -445 -64h-46q-165 2 -245 140q-50 87 -50 202.5zM414 1200l264 269h185l156 -269h-162l-97 145l-156 -145h-190z" />
<glyph unicode="&#x10a;" horiz-adv-x="1149" d="M191 514q0 233 76 503q68 241 191 350q136 119 374 119t487 -69l-30 -182q-237 32 -426 31h-21.5h-25.5t-33.5 -1t-46 -6t-48 -13.5t-46.5 -27t-47 -44.5t-43 -66t-40 -93q-43 -122 -66 -261.5t-23 -238.5t27 -168q48 -132 209 -140h128t347 15l-29 -182 q-172 -52 -473 -52q-149 0 -228 44q-213 113 -213 482zM766 1652l23 136q8 50 56 50h128q46 0 38 -50l-21 -136q-6 -46 -53 -47h-129q-22 0 -33 13.5t-9 33.5z" />
<glyph unicode="&#x10b;" horiz-adv-x="988" d="M147 330.5q0 115.5 21 240t56 222.5t73 153.5t91.5 86t100.5 40t123 9.5t216.5 -17t243.5 -46l-24 -150q-223 16 -334.5 16t-135.5 -4t-54 -23t-51 -57q-44 -89 -78 -273q-18 -122 -18 -182.5t21 -96.5t53.5 -50.5t98.5 -14.5q151 0 343 17l64 4l-24 -153 q-195 -65 -445 -64h-46q-165 2 -245 140q-50 87 -50 202.5zM614 1247l22 136q9 50 57 50h128q46 0 38 -50l-22 -136q-6 -47 -52 -47h-128q-20 0 -32.5 13t-10.5 34z" />
<glyph unicode="&#x10c;" horiz-adv-x="1149" d="M191 514q0 233 76 503q68 241 191 350q136 119 374 119t487 -69l-30 -182q-237 32 -426 31h-21.5h-25.5t-33.5 -1t-46 -6t-48 -13.5t-46.5 -27t-47 -44.5t-43 -66t-40 -93q-43 -122 -66 -261.5t-23 -238.5t27 -168q48 -132 209 -140h128t347 15l-29 -182 q-172 -52 -473 -52q-149 0 -228 44q-213 113 -213 482zM657 1875h162l98 -145l157 145h188l-264 -270h-181z" />
<glyph unicode="&#x10d;" horiz-adv-x="988" d="M147 330.5q0 115.5 21 240t56 222.5t73 153.5t91.5 86t100.5 40t123 9.5t216.5 -17t243.5 -46l-24 -150q-223 16 -334.5 16t-135.5 -4t-54 -23t-51 -57q-44 -89 -78 -273q-18 -122 -18 -182.5t21 -96.5t53.5 -50.5t98.5 -14.5q151 0 343 17l64 4l-24 -153 q-195 -65 -445 -64h-46q-165 2 -245 140q-50 87 -50 202.5zM471 1469h165l99 -144l154 144h191l-266 -269h-182z" />
<glyph unicode="&#x10e;" horiz-adv-x="1323" d="M157 0l232 1467q0 2 578 2q211 0 310 -128q96 -125 108 -295q4 -56 4 -98q0 -121 -20 -241q-58 -362 -206 -534.5t-416 -172.5h-590zM423 215h334q152 0 247.5 140.5t133.5 374.5q19 128 20 235q0 291 -243 291h-327zM649 1860h161l99 -144l156 144h189l-264 -267h-182z " />
<glyph unicode="&#x10f;" horiz-adv-x="1394" d="M148.5 354.5q0.5 103.5 16 199t35.5 171.5t54.5 146.5t79.5 114.5t112.5 70t147.5 26t176.5 -20t168.5 -55l91 569h230l-251 -1576h-184l-30 111q-62 -44 -162.5 -83.5t-193 -39.5t-158.5 44t-95 121q-38 98 -37.5 201.5zM385 385q0 -191 125 -190q156 0 311 75l90 573 q-130 44 -293 44q-54 0 -90 -26q-84 -57 -128 -327q-15 -84 -15 -149zM1350 1164l23 269l20 134h177l-21 -134l-63 -269h-136z" />
<glyph unicode="&#x110;" horiz-adv-x="1320" d="M153 686l19 124h131l105 657q0 2 582 2q210 0 307 -130q96 -129 108 -299q2 -52 2 -94q0 -121 -18 -239q-60 -353 -206.5 -530t-412.5 -177h-596l109 686h-130zM440 215h337q151 0 245 140.5t132 374.5q20 132 20 237q0 289 -232 289h-336l-70 -446h243l-20 -124h-244z " />
<glyph unicode="&#x111;" horiz-adv-x="1109" d="M148.5 356.5q0.5 103.5 19 211.5t46 198.5t77.5 166.5q94 149 293 149t355 -75l32 215h-224l19 123h228l36 231h230l-36 -231h134l-19 -123h-135l-195 -1222h-184l-30 111q-62 -44 -162.5 -83.5t-193 -39.5t-158.5 44t-95 121q-38 100 -37.5 203.5zM385 385 q0 -191 125 -190q156 0 311 75l90 573q-130 44 -293 44q-54 0 -90 -26q-84 -57 -128 -327q-15 -84 -15 -149z" />
<glyph unicode="&#x112;" horiz-adv-x="1127" d="M169 220q0 29 3 61l146 907q43 281 322 281q8 0 284 -10t357 -22l-31 -190h-586q-72 0 -96 -37q-19 -30 -26 -76l-46 -289l600 -20l-31 -191l-605 -18l-46 -295q-12 -76 28 -93q30 -11 79 -11h569l-33 -189q-66 -7 -477 -28l-136 -6h-38.5t-72.5 12q-164 42 -164 214z M556 1590l24 149h586l-24 -149h-586z" />
<glyph unicode="&#x113;" horiz-adv-x="1055" d="M140 334q0 114 23 237.5t45.5 193.5t60.5 136t95 104q120 81 343 81q403 0 403 -269q0 -132 -58 -219.5t-135 -124.5q-144 -70 -299 -69q-76 0 -144 8.5t-93 18.5q-10 -60 -10 -94q0 -102 50 -134q37 -20 93 -22.5t158.5 -2.5t317.5 35l-27 -169q-206 -60 -451 -60 q-43 0 -85 2q-191 6 -253 154q-34 80 -34 194zM404 588q52 -6 99 -6t85 2t72.5 8t71 19t65.5 31q78 52 78 149q0 54 -32 70q-48 29 -150 28q-144 0 -203 -66q-50 -58 -71 -153q-3 -19 -9 -46.5t-6 -35.5zM427 1200l25 147h586l-25 -147h-586z" />
<glyph unicode="&#x116;" horiz-adv-x="1127" d="M169 220q0 29 3 61l146 907q43 281 322 281q8 0 284 -10t357 -22l-31 -190h-586q-72 0 -96 -37q-19 -30 -26 -76l-46 -289l600 -20l-31 -191l-605 -18l-46 -295q-12 -76 28 -93q30 -11 79 -11h569l-33 -189q-66 -7 -477 -28l-136 -6h-38.5t-72.5 12q-164 42 -164 214z M770 1645l23 138q6 50 56 50h128q46 0 38 -50l-21 -138q-6 -46 -52 -46h-130q-22 0 -34 13.5t-8 32.5z" />
<glyph unicode="&#x117;" horiz-adv-x="1055" d="M140 334q0 114 23 237.5t45.5 193.5t60.5 136t95 104q120 81 343 81q403 0 403 -269q0 -132 -58 -219.5t-135 -124.5q-144 -70 -299 -69q-76 0 -144 8.5t-93 18.5q-10 -60 -10 -94q0 -102 50 -134q37 -20 93 -22.5t158.5 -2.5t317.5 35l-27 -169q-206 -60 -451 -60 q-43 0 -85 2q-191 6 -253 154q-34 80 -34 194zM404 588q52 -6 99 -6t85 2t72.5 8t71 19t65.5 31q78 52 78 149q0 54 -32 70q-48 29 -150 28q-144 0 -203 -66q-50 -58 -71 -153q-3 -19 -9 -46.5t-6 -35.5zM620 1252l22 137q7 50 57 50h128q44 0 38 -50l-22 -137 q-6 -46 -52 -46h-129q-22 0 -34 13t-8 33z" />
<glyph unicode="&#x118;" horiz-adv-x="1121" d="M174 220q0 29 4 61l145 907q45 281 323 281q8 0 284 -10t357 -22l-31 -190h-586q-70 0 -96 -37q-17 -30 -26 -76l-46 -289l601 -20l-31 -191l-606 -18l-47 -295q-11 -76 29 -93q30 -11 82 -11h566l-33 -189q-66 -7 -477 -28l-136 -6h-37.5t-73.5 12q-165 42 -165 214z M781 -191q0 138 184 219h98q-130 -90 -130 -162q0 -67 93 -67h16l-25 -140q-28 -6 -54 -6q-76 0 -129 45.5t-53 110.5z" />
<glyph unicode="&#x119;" horiz-adv-x="1055" d="M142 334q0 114 20 221t35.5 162t36.5 110.5t49 92.5t67 70t90 54q108 42 269 42q403 0 403 -269q0 -132 -58 -219.5t-133 -124.5q-147 -70 -299 -69q-78 0 -146 8.5t-91 18.5q-10 -62 -10 -114t18 -82q32 -52 141 -55q38 -2 140.5 -2t319.5 35l-29 -169 q-206 -60 -450 -60q-42 0 -86 2q-191 6 -253 154q-34 80 -34 194zM406 588q48 -6 84 -6t90 1t114.5 15t113.5 53q69 52 69 140q0 52 -38 75t-144 23q-144 0 -201 -66q-50 -58 -73 -153q-4 -19 -8.5 -46.5t-6.5 -35.5zM682 -174q0 138 185 218h98q-130 -90 -130 -163 q0 -66 92 -65h17l-25 -141q-28 -6 -54 -6q-76 0 -129.5 46t-53.5 111z" />
<glyph unicode="&#x11a;" horiz-adv-x="1127" d="M169 220q0 29 3 61l146 907q43 281 322 281q8 0 284 -10t357 -22l-31 -190h-586q-72 0 -96 -37q-19 -30 -26 -76l-46 -289l600 -20l-31 -191l-605 -18l-46 -295q-12 -76 28 -93q30 -11 79 -11h569l-33 -189q-66 -7 -477 -28l-136 -6h-38.5t-72.5 12q-164 42 -164 214z M624 1867h163l100 -143l155 143h190l-267 -268h-180z" />
<glyph unicode="&#x11b;" horiz-adv-x="1055" d="M140 334q0 114 23 237.5t45.5 193.5t60.5 136t95 104q120 81 343 81q403 0 403 -269q0 -132 -58 -219.5t-135 -124.5q-144 -70 -299 -69q-76 0 -144 8.5t-93 18.5q-10 -60 -10 -94q0 -102 50 -134q37 -20 93 -22.5t158.5 -2.5t317.5 35l-27 -169q-206 -60 -451 -60 q-43 0 -85 2q-191 6 -253 154q-34 80 -34 194zM404 588q52 -6 99 -6t85 2t72.5 8t71 19t65.5 31q78 52 78 149q0 54 -32 70q-48 29 -150 28q-144 0 -203 -66q-50 -58 -71 -153q-3 -19 -9 -46.5t-6 -35.5zM475 1473h163l101 -142l154 142h191l-267 -267h-181z" />
<glyph unicode="&#x11c;" horiz-adv-x="1227" d="M193 508q0 202 72 476q53 213 139 318q98 125 242 161q78 20 130.5 20h58.5q226 0 500 -64l-29 -180q-70 10 -218 21q-161 12 -234 12t-107.5 -6t-83.5 -36t-83 -84q-84 -133 -124 -411q-23 -135 -23 -237q0 -289 220 -289h2q64 0 141 26t121 52l46 26l52 303h-255 l25 150q142 48 359 48q61 0 135 -4l-128 -810h-172l-46 109q-52 -50 -142 -85q-98 -36 -209 -36t-189 44q-201 113 -200 476zM570 1603l267 270h184l157 -270h-163l-96 145l-159 -145h-190z" />
<glyph unicode="&#x11d;" horiz-adv-x="1113" d="M52 -498l24 155h476q76 0 131.5 49t69.5 141l34 222q-151 -77 -287 -77t-209.5 44t-106.5 123q-34 92 -33.5 202t18.5 217q42 257 159.5 380.5t299.5 123.5q289 0 546 -54l-190 -1200q-30 -199 -137.5 -287.5t-250.5 -88.5q-27 0 -56 2zM381 355q0 -169 147 -169 q83 0 138.5 9.5t145.5 37.5l107 658h-270q-191 0 -245 -337q-2 -4 -6 -35q-17 -106 -17 -164zM444 1202l265 269h184l157 -269h-163l-96 145l-159 -145h-188z" />
<glyph unicode="&#x11e;" horiz-adv-x="1227" d="M193 508q0 202 72 476q53 213 139 318q98 125 242 161q78 20 130.5 20h58.5q226 0 500 -64l-29 -180q-70 10 -218 21q-161 12 -234 12t-107.5 -6t-83.5 -36t-83 -84q-84 -133 -124 -411q-23 -135 -23 -237q0 -289 220 -289h2q64 0 141 26t121 52l46 26l52 303h-255 l25 150q142 48 359 48q61 0 135 -4l-128 -810h-172l-46 109q-52 -50 -142 -85q-98 -36 -209 -36t-189 44q-201 113 -200 476zM678 1806q0 12 2 27h107q-2 -12 -2 -29t12 -42q22 -52 92 -52h4q120 0 137 123h108q-14 -115 -79 -172.5t-164.5 -57.5t-158 58.5t-58.5 144.5z " />
<glyph unicode="&#x11f;" horiz-adv-x="1113" d="M52 -498l24 155h476q76 0 131.5 49t69.5 141l34 222q-151 -77 -287 -77t-209.5 44t-106.5 123q-34 92 -33.5 202t18.5 217q42 257 159.5 380.5t299.5 123.5q289 0 546 -54l-190 -1200q-30 -199 -137.5 -287.5t-250.5 -88.5q-27 0 -56 2zM381 355q0 -169 147 -169 q83 0 138.5 9.5t145.5 37.5l107 658h-270q-191 0 -245 -337q-2 -4 -6 -35q-17 -106 -17 -164zM562 1405v24h108q-2 -10 -2 -36t26 -55.5t76 -29.5h5q123 0 138 121h106q-14 -113 -78 -170t-164.5 -57t-157.5 58.5t-57 144.5z" />
<glyph unicode="&#x120;" horiz-adv-x="1227" d="M193 508q0 202 72 476q53 213 139 318q98 125 242 161q78 20 130.5 20h58.5q226 0 500 -64l-29 -180q-70 10 -218 21q-161 12 -234 12t-107.5 -6t-83.5 -36t-83 -84q-84 -133 -124 -411q-23 -135 -23 -237q0 -289 220 -289h2q64 0 141 26t121 52l46 26l52 303h-255 l25 150q142 48 359 48q61 0 135 -4l-128 -810h-172l-46 109q-52 -50 -142 -85q-98 -36 -209 -36t-189 44q-201 113 -200 476zM779 1652l22 136q6 50 56 50h129q46 0 37 -50l-21 -136q-6 -46 -52 -47h-129q-22 0 -34 13.5t-8 33.5z" />
<glyph unicode="&#x121;" horiz-adv-x="1113" d="M52 -498l24 155h476q76 0 131.5 49t69.5 141l34 222q-151 -77 -287 -77t-209.5 44t-106.5 123q-34 92 -33.5 202t18.5 217q42 257 159.5 380.5t299.5 123.5q289 0 546 -54l-190 -1200q-30 -199 -137.5 -287.5t-250.5 -88.5q-27 0 -56 2zM381 355q0 -169 147 -169 q83 0 138.5 9.5t145.5 37.5l107 658h-270q-191 0 -245 -337q-2 -4 -6 -35q-17 -106 -17 -164zM662 1249l22 136q7 50 57 50h128q46 0 38 -50l-22 -136q-6 -47 -52 -47h-128q-23 0 -33.5 13t-9.5 34z" />
<glyph unicode="&#x122;" horiz-adv-x="1227" d="M193 508q0 202 72 476q53 213 139 318q98 125 242 161q78 20 130.5 20h58.5q226 0 500 -64l-29 -180q-70 10 -218 21q-161 12 -234 12t-107.5 -6t-83.5 -36t-83 -84q-84 -133 -124 -411q-23 -135 -23 -237q0 -289 220 -289h2q64 0 141 26t121 52l46 26l52 303h-255 l25 150q142 48 359 48q61 0 135 -4l-128 -810h-172l-46 109q-52 -50 -142 -85q-98 -36 -209 -36t-189 44q-201 113 -200 476zM512 -528l12 76q40 -2 48 12q12 20 16 38l6 33h-20q-19 0 -30.5 12t-7.5 32l20 136q8 48 55 49h130q36 0 36 -36q0 -6 -2 -13l-32 -200 q-8 -52 -34 -86q-47 -58 -147 -59q-16 0 -28 2z" />
<glyph unicode="&#x123;" horiz-adv-x="1167" d="M69 -498l25 155h476q77 0 131 49t69 141l35 222q-153 -77 -288.5 -77t-209.5 44t-104 123q-36 92 -36 202t19 217q42 257 160 380.5t298 123.5q144 0 301 -18t248 -36l-191 -1200q-33 -199 -139 -287.5t-249 -88.5q-28 0 -56 2zM400 355q0 -169 144 -169q104 0 164 13.5 t123 33.5l104 658h-269q-193 0 -247 -337q0 -4 -3 -35q-16 -106 -16 -164zM668 1235v14l31 200q8 52 35.5 86.5t60 45.5t54.5 12.5t35 1.5t27 -3l20 -4l-12 -77q-26 0 -40 -8q-20 -11 -24 -42l-6 -32h20q44 0 38 -44l-20 -136q-10 -49 -54 -49h-130q-35 0 -35 35z" />
<glyph unicode="&#x124;" horiz-adv-x="1296" d="M142 0l233 1469h234l-105 -650h576l104 650h233l-233 -1469h-232l96 602h-577l-96 -602h-233zM614 1599l265 268h184l157 -268h-163l-96 145l-158 -145h-189z" />
<glyph unicode="&#x125;" horiz-adv-x="1097" d="M90 0l249 1572h233l-101 -624q6 4 38.5 23t62.5 34.5t79.5 37.5t98.5 31.5t119 9.5t131 -30q102 -50 124 -195q4 -26 4 -60.5t-10 -76.5l-114 -722h-234l115 724q4 25 4 46q0 117 -119 117q-90 0 -156 -23t-166 -77l-125 -787h-233zM157 1691l266 270h186l155 -270h-162 l-96 146l-159 -146h-190z" />
<glyph unicode="&#x126;" horiz-adv-x="1310" d="M142 0l165 1038h-125l19 122h124l50 309h234l-51 -309h576l50 309h233l-50 -309h123l-19 -122h-123l-164 -1038h-232l98 602h-577l-98 -602h-233zM506 823h576l34 215h-576z" />
<glyph unicode="&#x127;" horiz-adv-x="1107" d="M121 0l192 1216h-142l20 125h142l36 231h237l-38 -231h242l-19 -125h-241l-44 -268q15 9 59 32.5t61.5 33t55.5 26.5q94 44 189 44h4q84 0 144 -30q102 -50 125 -195q4 -26 4 -60.5t-8 -76.5l-117 -722h-232l116 724q2 25 2 44q0 119 -126 118t-301 -99l-124 -787h-237z " />
<glyph unicode="&#x128;" horiz-adv-x="489" d="M149 0l232 1469h233l-233 -1469h-232zM191 1700q77 65 138.5 101t119 35t116.5 -34.5t75.5 -34.5t37.5 -1t87 26t90 46l28 -106q-2 -2 -30 -24t-36.5 -28t-33 -23t-37.5 -23t-36 -16q-88 -42 -193 18q-59 34 -93.5 34t-61.5 -7t-47 -16t-29 -13t-32 -17.5t-32 -17.5z" />
<glyph unicode="&#x129;" horiz-adv-x="429" d="M48 1298q74 65 136.5 101t120 35t117.5 -34t75 -34t30 -1t57 14q88 28 126 58l31 -106q-4 -2 -32.5 -24t-36.5 -28.5t-32 -23t-38 -23t-34 -16.5q-88 -42 -195 19q-59 34 -93.5 33.5t-61.5 -7.5t-47 -15.5t-29.5 -13t-32.5 -17.5t-31 -16zM92 0l169 1065h233l-169 -1065 h-233z" />
<glyph unicode="&#x12a;" horiz-adv-x="489" d="M86 0l233 1469h233l-233 -1469h-233zM149 1593l23 147h587l-24 -147h-586z" />
<glyph unicode="&#x12b;" horiz-adv-x="429" d="M92 0l169 1065h233l-169 -1065h-233zM100 1199l22 148h587l-23 -148h-586z" />
<glyph unicode="&#x12e;" horiz-adv-x="489" d="M42 -217q0 137 182 217h99q-128 -90 -128 -163q0 -66 90 -65h16l-24 -141q-28 -6 -55 -6q-74 0 -127 47t-53 111zM149 0l232 1469h233l-233 -1469h-232z" />
<glyph unicode="&#x12f;" horiz-adv-x="429" d="M-46 -209q0 138 182 219h101q-130 -90 -130 -163q0 -67 92 -66h14l-22 -143q-28 -4 -55 -4q-76 0 -129 46.5t-53 110.5zM98 0l169 1065h233l-169 -1065h-233zM277 1228l24 153q7 50 57 50h170q38 0 38 -38q0 -6 -2 -12l-22 -153q-6 -46 -54 -46h-170q-20 0 -31.5 12 t-9.5 34z" />
<glyph unicode="&#x130;" horiz-adv-x="489" d="M149 0l232 1469h233l-233 -1469h-232zM414 1645l23 138q6 50 57 50h128q39 0 39 -41v-9l-25 -138q-6 -46 -52 -46h-128q-20 0 -32 13.5t-10 32.5z" />
<glyph unicode="&#x131;" horiz-adv-x="429" d="M92 0l169 1065h233l-169 -1065h-233z" />
<glyph unicode="&#x134;" horiz-adv-x="716" d="M67 44l33 178q149 -19 183.5 -10.5t63 21t46.5 36.5q40 53 55 141l168 1059h233l-181 -1138q-34 -226 -153 -295q-82 -46 -227 -46t-221 54zM450 1599l264 268h186l155 -268h-162l-96 145l-159 -145h-188z" />
<glyph unicode="&#x135;" horiz-adv-x="456" d="M34 -542l255 1607h239l-170 -1073q-50 -337 -151 -534h-173zM104 1197l265 272h185l158 -272h-168l-98 140l-153 -140h-189z" />
<glyph unicode="&#x136;" horiz-adv-x="1207" d="M136 0l233 1469h225l-100 -630h134l496 630h285l-578 -753l345 -716h-269l-291 626h-154l-98 -626h-228zM458 -517l11 75q50 -2 61 36q2 6 4 15l4 31h-19q-19 0 -30.5 12.5t-6.5 34.5l20 135q8 48 54 48h130q34 0 34 -37v-11l-32 -201q-8 -52 -33 -87q-48 -57 -147 -58 q-16 0 -31 3z" />
<glyph unicode="&#x137;" horiz-adv-x="1032" d="M102 -4l249 1569h233l-144 -906q82 28 175.5 90.5t168.5 148.5t95 163h251q-46 -166 -172.5 -297.5t-247.5 -189.5l355 -578h-264l-309 508l-76 -2l-81 -506h-233zM402 -517l12 75q24 0 38 9q19 12 23 42l7 31h-20q-20 0 -31.5 12.5t-7.5 34.5l23 135q8 48 52 48h130 q36 0 36 -37v-11l-32 -201q-8 -52 -36 -87q-46 -57 -146 -58q-16 0 -29 3z" />
<glyph unicode="&#x138;" horiz-adv-x="1109" d="M102 0l168 1065h234l-69 -443h139l391 443h282l-464 -550l282 -515h-264l-237 433h-158l-71 -433h-233z" />
<glyph unicode="&#x139;" horiz-adv-x="1065" d="M62 211q0 30 7 62l190 1196h233l-183 -1146q-12 -76 28 -92q31 -12 80 -12h544l-34 -219h-608q-126 0 -191.5 58.5t-65.5 152.5zM307 1590l237 273h226l-297 -273h-166z" />
<glyph unicode="&#x13a;" horiz-adv-x="603" d="M115 267q0 50 9 112l189 1193h233l-184 -1164q-27 -157 15 -191q18 -16 97.5 -40t85.5 -24l-24 -153h-165q-256 0 -256 267zM366 1691l236 276h225l-295 -276h-166z" />
<glyph unicode="&#x13b;" horiz-adv-x="1065" d="M172 211q0 30 4 62l193 1196h231l-183 -1146q-9 -76 31 -92q28 -12 80 -12h544l-34 -219h-611q-126 0 -190.5 58.5t-64.5 152.5zM437 -517l13 75q24 0 38 9q20 12 24 42l5 31h-19q-20 0 -31 12.5t-7 34.5l22 135q8 48 52 48h130q37 0 37 -37v-11l-33 -201q-7 -52 -36 -87 q-46 -57 -146 -58q-16 0 -28 3z" />
<glyph unicode="&#x13c;" horiz-adv-x="603" d="M149 267q0 50 10 112l188 1193h233l-182 -1164q-25 -147 8 -184q17 -22 60 -33q122 -38 128 -38l-24 -153h-164q-257 0 -257 267zM161 -517l13 75q39 -2 46 13q14 19 17 38l6 31h-21q-19 0 -30.5 12.5t-7.5 34.5l23 135q8 48 52 48h130q36 0 36 -37q0 -5 -2 -11l-30 -201 q-10 -52 -35 -87q-46 -57 -147 -58q-16 0 -29 3z" />
<glyph unicode="&#x13d;" horiz-adv-x="1065" d="M172 211q0 30 4 62l193 1196h231l-183 -1146q-9 -76 31 -92q28 -12 80 -12h544l-34 -219h-611q-126 0 -190.5 58.5t-64.5 152.5zM701 1146l19 269l23 134h176l-22 -134l-62 -269h-134z" />
<glyph unicode="&#x13e;" horiz-adv-x="682" d="M151 265q0 52 10 114l188 1193h233l-184 -1164q-25 -147 8 -184q17 -22 60 -33q124 -38 130 -38l-24 -153h-172q-249 0 -249 265zM678 1164l21 269l21 134h177l-22 -134l-63 -269h-134z" />
<glyph unicode="&#x141;" horiz-adv-x="1067" d="M71 624l21 136l173 69l101 640h232l-86 -540l263 105l-24 -134l-259 -107l-76 -470q-10 -76 28 -92q30 -12 80 -12h546l-34 -219h-609q-126 0 -191 58.5t-65 154.5q0 28 5 60l67 420z" />
<glyph unicode="&#x142;" horiz-adv-x="703" d="M144 716l23 137l158 64l104 655h237l-88 -553l269 107l-22 -134l-267 -109l-81 -475q-24 -147 9 -184q18 -19 60 -33q124 -38 130 -38l-23 -153h-165q-140 0 -211 90q-46 62 -46 175q0 52 10 114l64 404z" />
<glyph unicode="&#x143;" horiz-adv-x="1333" d="M136 0l233 1469h231l470 -1042l165 1042h232l-232 -1469h-230l-471 1034l-163 -1034h-235zM855 1599l237 276h227l-298 -276h-166z" />
<glyph unicode="&#x144;" horiz-adv-x="1097" d="M102 0l168 1065h182l34 -117q6 4 48 29t81.5 46t109.5 41t148.5 20t137.5 -30q102 -50 125 -195q2 -26 2 -60.5t-8 -76.5l-115 -722h-232l114 724q4 25 5 46q0 117 -119 117q-117 0 -213 -44q-44 -20 -110 -56l-125 -787h-233zM666 1204l240 273h224l-297 -273h-167z" />
<glyph unicode="&#x145;" horiz-adv-x="1333" d="M136 0l233 1469h231l470 -1042l165 1042h232l-232 -1469h-230l-471 1034l-163 -1034h-235zM536 -517l12 75q24 0 38 9q20 12 25 42l5 31h-20q-20 0 -31 12.5t-7 34.5l22 135q8 48 52 48h130q37 0 37 -37v-11l-33 -201q-7 -52 -36 -87q-46 -57 -146 -58q-16 0 -28 3z" />
<glyph unicode="&#x146;" horiz-adv-x="1097" d="M102 0l168 1065h182l34 -117q6 4 48 29t81.5 46t109.5 41t148.5 20t137.5 -30q102 -50 125 -195q2 -26 2 -60.5t-8 -76.5l-115 -722h-232l114 724q4 25 5 46q0 117 -119 117q-117 0 -213 -44q-44 -20 -110 -56l-125 -787h-233zM391 -517l13 75q26 0 40 9q18 12 23 42 l6 31h-19q-20 0 -31 12.5t-7 34.5l19 135q8 48 55 48h130q37 0 37 -37q0 -5 -2 -11l-31 -201q-10 -52 -36 -87q-46 -57 -146 -58q-16 0 -28 3z" />
<glyph unicode="&#x147;" horiz-adv-x="1333" d="M136 0l233 1469h231l470 -1042l165 1042h232l-232 -1469h-230l-471 1034l-163 -1034h-235zM678 1867h163l98 -143l155 143h191l-266 -268h-182z" />
<glyph unicode="&#x148;" horiz-adv-x="1097" d="M102 0l168 1065h182l34 -117q6 4 48 29t81.5 46t109.5 41t148.5 20t137.5 -30q102 -50 125 -195q2 -26 2 -60.5t-8 -76.5l-115 -722h-232l114 724q4 25 5 46q0 117 -119 117q-117 0 -213 -44q-44 -20 -110 -56l-125 -787h-233zM496 1473h163l98 -144l156 144h189 l-265 -269h-180z" />
<glyph unicode="&#x14a;" horiz-adv-x="1333" d="M136 0l233 1469h231l470 -1038l165 1038h232l-257 -1624q-32 -193 -158 -285q-65 -44 -146 -59.5t-112.5 -15.5h-56.5h-65l29 170q13 2 48.5 8t52.5 9t46 12t45 23t36 34q36 39 50 127l23 140l-468 1024l-163 -1032h-235z" />
<glyph unicode="&#x14b;" horiz-adv-x="1115" d="M102 0l168 1065h182l34 -117q10 6 67.5 37.5t76.5 41t64 27.5t85 24t106.5 6t125.5 -30q102 -50 125 -195q2 -26 2 -60.5t-8 -78.5l-115 -720l-25 -153q-29 -149 -109 -228q-82 -83 -146 -107q-96 -36 -175 -50l-48 124q136 56 176 105q52 62 69 148l140 885q4 25 5 46 q0 117 -119 117q-92 0 -158.5 -23t-164.5 -77l-125 -787h-233z" />
<glyph unicode="&#x14c;" horiz-adv-x="1335" d="M193 424q0 53 1 115.5t21 189t43 220t48 164.5t60.5 126.5t67.5 93.5t77 65t85 43t95.5 24t101.5 11t119.5 3t134 -7t122 -28t101.5 -57q96 -83 123 -233q11 -68 11.5 -122.5t-1.5 -118.5t-23.5 -203.5t-51.5 -245.5t-65 -181.5t-84 -129t-97 -84.5t-115 -49 q-110 -29 -230.5 -28.5t-180.5 6.5t-122.5 26t-102.5 52q-98 79 -126 225q-12 70 -12 123zM425 444q0 -130 63 -181q40 -31 92 -41.5t143 -10.5t156 19t119 75q100 100 150 419q24 161 24 244.5t-8 122.5t-19 67t-33 47t-42 30.5t-55 16.5q-50 8 -114 8t-92 -1t-65 -6.5 t-60 -16t-51.5 -29.5t-46.5 -47q-52 -78 -76 -160q-85 -286 -85 -556zM640 1593l24 147h586l-24 -147h-586z" />
<glyph unicode="&#x14d;" horiz-adv-x="1123" d="M149 366q0 76 21 205.5t60.5 232.5t108.5 165.5t160 85.5t229 23q259 0 352 -141q60 -90 60 -251q0 -84 -16 -186q-48 -297 -163.5 -403.5t-383.5 -106.5t-364 129q-65 88 -64 247zM381 370q0 -61 12.5 -97t41.5 -54q48 -33 139.5 -31.5t132 9.5t79.5 40.5t63 99.5 t40 171q19 118 19.5 176.5t-7.5 96.5t-36 60q-48 40 -143.5 40t-139.5 -12t-82 -50t-60.5 -108.5t-40.5 -175t-18 -165.5zM456 1199l21 148h586l-21 -148h-586z" />
<glyph unicode="&#x150;" horiz-adv-x="1335" d="M193 424q0 53 1 115.5t21 189t43 220t48 164.5t60.5 126.5t67.5 93.5t77 65t85 43t95.5 24t101.5 11t119.5 3t134 -7t122 -28t101.5 -57q96 -83 123 -233q11 -68 11.5 -122.5t-1.5 -118.5t-23.5 -203.5t-51.5 -245.5t-65 -181.5t-84 -129t-97 -84.5t-115 -49 q-110 -29 -230.5 -28.5t-180.5 6.5t-122.5 26t-102.5 52q-98 79 -126 225q-12 70 -12 123zM425 444q0 -130 63 -181q40 -31 92 -41.5t143 -10.5t156 19t119 75q100 100 150 419q24 161 24 244.5t-8 122.5t-19 67t-33 47t-42 30.5t-55 16.5q-50 8 -114 8t-92 -1t-65 -6.5 t-60 -16t-51.5 -29.5t-46.5 -47q-52 -78 -76 -160q-85 -286 -85 -556zM693 1599l236 276h227l-297 -276h-166zM990 1599l236 276h227l-297 -276h-166z" />
<glyph unicode="&#x151;" horiz-adv-x="1123" d="M149 366q0 76 21 205.5t60.5 232.5t108.5 165.5t160 85.5t229 23q259 0 352 -141q60 -90 60 -251q0 -84 -16 -186q-48 -297 -163.5 -403.5t-383.5 -106.5t-364 129q-65 88 -64 247zM381 370q0 -61 12.5 -97t41.5 -54q48 -33 139.5 -31.5t132 9.5t79.5 40.5t63 99.5 t40 171q19 118 19.5 176.5t-7.5 96.5t-36 60q-48 40 -143.5 40t-139.5 -12t-82 -50t-60.5 -108.5t-40.5 -175t-18 -165.5zM515 1199l238 274h226l-297 -274h-167zM812 1199l240 274h225l-298 -274h-167z" />
<glyph unicode="&#x152;" horiz-adv-x="2108" d="M163 424q0 53 1 115.5t20 184t39 206.5t44 153t50 121.5t59.5 94t65 70t74 49t79.5 32.5t87 19q82 10 235 10q249 0 351 -132q73 122 243 122q14 0 293 -10t360 -22l-31 -190h-586q-66 0 -90 -30.5t-32 -82.5l-46 -289l600 -20l-28 -191l-608 -18l-46 -295 q-12 -76 28 -93q28 -11 80 -11h566l-31 -189q-66 -7 -475 -28l-138 -6h-45t-95.5 26t-92.5 87q-79 -69 -181.5 -92t-214.5 -23t-171.5 6t-121.5 26t-104 52q-98 79 -125 225q-13 70 -13 123zM395 444q0 -130 65 -181q38 -31 90 -41.5t143.5 -10.5t155.5 19t118 75 q100 100 151 419q27 161 26.5 244.5t-9.5 122.5t-19.5 67t-32.5 47t-42 30.5t-53 16.5q-52 8 -116 8t-92.5 -1t-65 -6.5t-59.5 -16t-51 -29.5t-48 -47q-52 -78 -77 -160q-84 -286 -84 -556z" />
<glyph unicode="&#x153;" horiz-adv-x="1791" d="M134 369q0 77 21 206.5t61.5 232.5t108.5 164.5t159.5 83.5t229.5 22q242 0 332 -130q115 138 393 138q403 0 403 -269q0 -132 -58 -219.5t-135 -124.5q-147 -70 -299 -69q-76 0 -145 8.5t-91 18.5q-10 -62 -10.5 -114t18.5 -82q32 -54 140 -55q259 0 460 33l-28 -169 q-206 -60 -449 -60q-43 0 -87 2q-158 4 -219 114q-115 -111 -379.5 -110.5t-358.5 131.5q-67 88 -67 248zM368 375q0 -48 7.5 -80t22 -54t44.5 -34q46 -20 128.5 -20.5t122.5 9t78.5 42t63 99.5t40.5 171q20 118 20 176.5t-8 96.5t-36 60q-48 40 -143.5 40t-139.5 -12 t-82 -50t-60 -108.5t-40 -179t-18 -156.5zM1134 588q52 -6 101.5 -6t81 1t85 11t93 28t68.5 52q42 46 42 107.5t-36.5 84.5t-145.5 23q-142 0 -201 -68q-50 -58 -71 -153q-4 -19 -8.5 -41.5t-6.5 -24.5q0 -8 -2 -14z" />
<glyph unicode="&#x154;" horiz-adv-x="1216" d="M121 0l232 1469h622q165 0 251 -113q65 -84 65 -238q0 -172 -42.5 -276.5t-74.5 -144.5t-77 -66.5t-68.5 -32.5t-55.5 -10l211 -588h-261l-182 572l-293 22l-95 -594h-232zM477 779h366q209 0 209 321q0 76 -20 108q-28 48 -107 48h-371zM747 1595l237 276h226l-297 -276 h-166z" />
<glyph unicode="&#x155;" horiz-adv-x="844" d="M205 0l168 1065h189l22 -134q67 46 111 72.5t115 50.5t152.5 24t113.5 -15l-36 -226q-54 8 -153.5 8t-174 -25t-158.5 -94l-117 -726h-232zM662 1200l238 273h226l-297 -273h-167z" />
<glyph unicode="&#x156;" horiz-adv-x="1216" d="M128 0l234 1469h622q165 0 251 -113q64 -84 63 -238q0 -172 -42 -276.5t-73 -144.5t-77.5 -66.5t-69.5 -32.5t-52 -10l209 -588h-262l-180 572l-295 22l-94 -594h-234zM477 -517l15 75q24 0 38 9q20 12 24 42l6 31h-20q-20 0 -31 12.5t-7 34.5l19 135q10 48 55 48h131 q36 0 36 -37q0 -5 -2 -11l-31 -201q-9 -52 -36 -87q-46 -57 -146 -58q-15 0 -28 3zM488 779h363q208 0 208 321q0 76 -17 108q-31 48 -109 48h-371z" />
<glyph unicode="&#x157;" horiz-adv-x="844" d="M104 -517l13 75q38 -2 48 13q11 19 15 38l4 31h-19q-20 0 -30.5 12.5t-6.5 34.5l21 135q8 48 54 48h128q37 0 37 -37v-11l-33 -201q-8 -52 -36 -87q-46 -57 -144 -58q-18 0 -31 3zM169 0l168 1065h189l22 -134q66 46 110.5 72.5t115.5 50.5t152 24t114 -15l-36 -226 q-54 8 -136.5 8t-137.5 -10q-104 -23 -215 -109l-113 -726h-233z" />
<glyph unicode="&#x158;" horiz-adv-x="1216" d="M128 0l234 1469h622q165 0 251 -113q64 -84 63 -238q0 -172 -42 -276.5t-73 -144.5t-77.5 -66.5t-69.5 -32.5t-52 -10l209 -588h-262l-180 572l-295 22l-94 -594h-234zM488 779h363q208 0 208 321q0 76 -17 108q-31 48 -109 48h-371zM590 1867h163l98 -143l154 143h192 l-266 -268h-182z" />
<glyph unicode="&#x159;" horiz-adv-x="844" d="M102 0l168 1065h190l22 -134q67 46 110.5 72.5t114 50.5t153 24t111.5 -15l-36 -226q-52 8 -135.5 8t-135.5 -10q-103 -23 -214 -109l-115 -726h-233zM381 1467h163l100 -144l155 144h191l-268 -267h-180z" />
<glyph unicode="&#x15a;" horiz-adv-x="1155" d="M132 40l29 182q162 -19 496 -19q210 0 232 146l17 101q5 30 5 60t-11 52q-23 46 -115 47h-231q-165 0 -238 69t-83 151q-6 42 -6.5 77.5t6.5 77.5l22 146q38 249 214 317q93 35 224 34h19h2q127 0 280.5 -16t244.5 -38l-29 -182q-417 17 -457.5 17h-53.5 q-94 0 -144.5 -29t-68.5 -137l-15 -94q-9 -65 -2.5 -88t12 -34t18.5 -19t22 -12t31 -6q28 -2 72 -2h233q154 0 221 -84q67 -85 66 -183q0 -46 -6 -107l-14 -134q-12 -94 -49 -162.5t-82 -103.5t-112 -55q-96 -29 -230 -28q-330 0 -519 56zM733 1601l236 276h226l-295 -276 h-167z" />
<glyph unicode="&#x15b;" horiz-adv-x="1019" d="M140 34l27 152h519q84 0 99 83l12 74q10 56 -22 74q-17 10 -51 10h-260q-147 0 -215 71q-52 54 -52 151q0 32 6 69l16 99q22 133 96 199t227 66t319.5 -11.5t224.5 -34.5l-27 -155h-495q-62 0 -85 -25t-29 -63l-13 -73q-10 -61 17 -76q17 -10 41 -9t29 1h267 q138 0 201 -82q46 -60 46 -146q0 -27 -4 -55l-19 -125q-24 -156 -122 -204q-79 -40 -206 -40t-312.5 14t-234.5 36zM622 1204l237 275h225l-295 -275h-167z" />
<glyph unicode="&#x15c;" horiz-adv-x="1155" d="M149 40l27 182q163 -19 496 -19q211 0 234 146l15 101q4 30 4 62t-14 56q-22 41 -110 41h-231q-166 0 -238.5 69t-82.5 151q-6 42 -6 77.5t6 77.5l21 146q39 249 216 317q90 35 223 34h17h4q127 0 280.5 -16t243.5 -38l-28 -182q-419 17 -459.5 17h-52.5 q-94 0 -145.5 -29t-66.5 -137l-14 -94q-10 -65 -4 -88t11 -34t19 -19t23 -12t31 -6q29 -2 70 -2h235q155 0 221 -84q66 -85 66 -183q0 -46 -6 -107l-16 -134q-10 -94 -47 -162.5t-82.5 -103.5t-111.5 -55q-96 -29 -231 -28q-331 0 -517 56zM517 1603l268 268h184l157 -268 h-163l-96 143l-158 -143h-192z" />
<glyph unicode="&#x15d;" horiz-adv-x="1019" d="M119 34l23 152h520q85 0 98 83l12 74q10 56 -19 74q-18 10 -52 10h-261q-144 0 -216 71q-52 54 -52 151q0 32 6 69l17 99q23 133 98 199t227 66t318 -11.5t223 -34.5l-23 -155h-498q-100 0 -115 -88l-9 -73q-10 -61 13 -76q18 -10 42.5 -9t28.5 1h266q139 0 201 -82 q46 -60 46 -146q0 -27 -4 -55l-17 -125q-25 -156 -123 -204q-78 -40 -205.5 -40t-313 14t-231.5 36zM389 1204l268 269h184l157 -269h-163l-96 144l-159 -144h-191z" />
<glyph unicode="&#x15e;" horiz-adv-x="1155" d="M149 40l27 182q163 -19 496 -19q211 0 234 146l15 101q4 30 4 62t-14 56q-22 41 -110 41h-231q-166 0 -238.5 69t-82.5 151q-6 42 -6 77.5t6 77.5l21 146q39 249 216 317q90 35 223 34h17h4q127 0 280.5 -16t243.5 -38l-28 -182q-419 17 -459.5 17h-52.5 q-94 0 -145.5 -29t-66.5 -137l-14 -94q-10 -65 -4 -88t11 -34t19 -19t23 -12t31 -6q29 -2 70 -2h235q155 0 221 -84q66 -85 66 -183q0 -46 -6 -107l-16 -134q-10 -94 -47 -162.5t-82.5 -103.5t-111.5 -55q-96 -29 -231 -28q-331 0 -517 56zM355 -369l16 102l100 30 q54 22 71 78q8 25 14 69h170q-16 -107 -46 -165q-54 -114 -216 -114h-109z" />
<glyph unicode="&#x15f;" horiz-adv-x="1019" d="M119 34l23 152h520q85 0 98 83l12 74q10 56 -19 74q-18 10 -52 10h-261q-144 0 -216 71q-52 54 -52 151q0 32 6 69l17 99q23 133 98 199t227 66t318 -11.5t223 -34.5l-23 -155h-498q-100 0 -115 -88l-9 -73q-10 -61 13 -76q18 -10 42.5 -9t28.5 1h266q139 0 201 -82 q46 -60 46 -146q0 -27 -4 -55l-17 -125q-25 -156 -123 -204q-78 -40 -205.5 -40t-313 14t-231.5 36zM265 -358l18 103l98 31q42 17 59.5 49.5t26.5 96.5h169q-24 -157 -80 -218.5t-181 -61.5h-110z" />
<glyph unicode="&#x160;" horiz-adv-x="1155" d="M149 40l27 182q163 -19 496 -19q211 0 234 146l15 101q4 30 4 62t-14 56q-22 41 -110 41h-231q-166 0 -238.5 69t-82.5 151q-6 42 -6 77.5t6 77.5l21 146q39 249 216 317q90 35 223 34h17h4q127 0 280.5 -16t243.5 -38l-28 -182q-419 17 -459.5 17h-52.5 q-94 0 -145.5 -29t-66.5 -137l-14 -94q-10 -65 -4 -88t11 -34t19 -19t23 -12t31 -6q29 -2 70 -2h235q155 0 221 -84q66 -85 66 -183q0 -46 -6 -107l-16 -134q-10 -94 -47 -162.5t-82.5 -103.5t-111.5 -55q-96 -29 -231 -28q-331 0 -517 56zM580 1871h163l98 -145l157 145 h190l-267 -268h-180z" />
<glyph unicode="&#x161;" horiz-adv-x="1019" d="M119 34l23 152h520q85 0 98 83l12 74q10 56 -19 74q-18 10 -52 10h-261q-144 0 -216 71q-52 54 -52 151q0 32 6 69l17 99q23 133 98 199t227 66t318 -11.5t223 -34.5l-23 -155h-498q-100 0 -115 -88l-9 -73q-10 -61 13 -76q18 -10 42.5 -9t28.5 1h266q139 0 201 -82 q46 -60 46 -146q0 -27 -4 -55l-17 -125q-25 -156 -123 -204q-78 -40 -205.5 -40t-313 14t-231.5 36zM425 1473h165l98 -144l155 144h191l-268 -269h-180z" />
<glyph unicode="&#x162;" horiz-adv-x="1174" d="M215 1250l36 219h1061l-35 -219h-420l-198 -1250h-234l199 1250h-409zM243 -369l18 104l99 30q44 17 57 46q18 40 29 101h168q-24 -157 -80.5 -219t-180.5 -62h-110z" />
<glyph unicode="&#x163;" horiz-adv-x="754" d="M132 -371l19 102l98 30q54 22 70 80q8 25 14 67h171q-25 -157 -80.5 -218t-180.5 -61h-111zM149 877l22 140l191 51l88 297h190l-46 -297h263l-30 -191h-265l-72 -469q-24 -159 16 -193q15 -14 94.5 -38t85.5 -24l-22 -153h-172q-249 0 -249 265q0 52 10 114l76 498h-180 z" />
<glyph unicode="&#x164;" horiz-adv-x="1174" d="M257 1250l36 219h1061l-35 -219h-419l-199 -1250h-234l199 1250h-409zM582 1867h163l100 -143l155 143h190l-267 -268h-180z" />
<glyph unicode="&#x165;" horiz-adv-x="802" d="M136 877l23 140l188 51l90 297h191l-48 -297h265l-31 -191h-264l-75 -467q-9 -73 -9 -111t11 -59t24.5 -30t89 -33t83.5 -24l-23 -153h-174q-134 0 -202 92q-46 62 -47 175q0 51 11 114l79 496h-182zM730 1202l25 269l17 134h180l-21 -134l-66 -269h-135z" />
<glyph unicode="&#x166;" horiz-adv-x="1187" d="M257 1250l36 219h1061l-35 -219h-419l-61 -373h213l-18 -122h-213l-120 -755h-234l121 755h-213l18 122h213l60 373h-409z" />
<glyph unicode="&#x167;" horiz-adv-x="741" d="M142 524l21 122h148l36 231h-182l21 140l191 51l89 297h191l-46 -297h264l-30 -191h-265l-36 -231h182l-19 -122h-183l-18 -114q-12 -73 -12 -111t10.5 -59t25 -30t92 -33t83.5 -24l-25 -153h-172q-135 0 -203 92q-46 62 -46 175q0 51 10 114l22 143h-149z" />
<glyph unicode="&#x168;" d="M215 406q0 98 18 234l133 829h234l-134 -851q-16 -96 -16 -182.5t29 -138.5q52 -88 223 -88t255.5 93t118.5 316l134 851h236l-132 -871q-50 -318 -197.5 -463t-442.5 -145q-266 0 -367 129q-92 116 -92 287zM598 1700q74 65 136.5 101t119.5 35t117.5 -34.5t76 -34.5 t36.5 -1t87 26t89 46l31 -106q-4 -2 -32.5 -24t-35.5 -28t-32 -23t-38 -23t-35 -16q-78 -36 -159 2q-38 16 -68 33t-46 17h-26.5t-30.5 -4t-33.5 -7t-33.5 -12t-29.5 -13t-32.5 -17.5t-31 -17.5z" />
<glyph unicode="&#x169;" horiz-adv-x="1095" d="M132 253q0 42 8 92l113 720h233l-115 -724q-3 -28 -3 -65t25.5 -66.5t105 -29.5t145.5 22t166 79l123 784h233l-168 -1065h-184l-29 117q-76 -46 -118.5 -69.5t-115 -44.5t-147.5 -21q-167 0 -228 98q-44 71 -44 173zM404 1298q74 65 136 101t109.5 35t78.5 -12t50 -23 t43 -22t36 -11t26 -1t56 14q88 28 126 58l31 -106q-4 -2 -32 -24t-36.5 -28.5t-32.5 -23t-36.5 -23t-35.5 -16.5q-78 -36 -159 2q-38 16 -68 33t-46 17h-26t-30 -3t-34 -7t-34 -12.5t-29 -13t-32 -17.5t-32 -16z" />
<glyph unicode="&#x16a;" d="M215 406q0 98 18 234l133 829h234l-134 -851q-16 -96 -16 -182.5t29 -138.5q52 -88 223 -88t255.5 93t118.5 316l134 851h236l-132 -871q-50 -318 -197.5 -463t-442.5 -145q-266 0 -367 129q-92 116 -92 287zM634 1599l23 147h586l-23 -147h-586z" />
<glyph unicode="&#x16b;" horiz-adv-x="1095" d="M132 253q0 42 8 92l113 720h233l-115 -724q-3 -28 -3 -65t25.5 -66.5t105 -29.5t145.5 22t166 79l123 784h233l-168 -1065h-184l-29 117q-76 -46 -118.5 -69.5t-115 -44.5t-147.5 -21q-167 0 -228 98q-44 71 -44 173zM437 1199l25 148h586l-25 -148h-586z" />
<glyph unicode="&#x16c;" d="M215 406q0 98 18 234l133 829h234l-134 -851q-16 -96 -16 -182.5t29 -138.5q52 -88 223 -88t255.5 93t118.5 316l134 851h236l-132 -871q-50 -318 -197.5 -463t-442.5 -145q-266 0 -367 129q-92 116 -92 287zM733 1802q0 12 2 25h106q-2 -10 -2 -36.5t26 -55.5t77 -29h4 q122 0 138 121h109q-14 -113 -79.5 -170.5t-165 -57.5t-157.5 58.5t-58 144.5z" />
<glyph unicode="&#x16d;" horiz-adv-x="1095" d="M132 253q0 42 8 92l113 720h233l-115 -724q-3 -28 -3 -65t25.5 -66.5t105 -29.5t145.5 22t166 79l123 784h233l-168 -1065h-184l-29 117q-76 -46 -118.5 -69.5t-115 -44.5t-147.5 -21q-167 0 -228 98q-44 71 -44 173zM538 1401v24h108q-2 -10 -2 -36t26.5 -55.5 t76.5 -29.5h4q122 0 138 121h109q-14 -113 -79.5 -169.5t-164.5 -56.5t-157.5 57.5t-58.5 144.5z" />
<glyph unicode="&#x16e;" d="M215 406q0 98 18 234l133 829h234l-134 -851q-16 -96 -16 -182.5t29 -138.5q52 -88 223 -88t255.5 93t118.5 316l134 851h236l-132 -871q-50 -318 -197.5 -463t-442.5 -145q-266 0 -367 129q-92 116 -92 287zM755 1783q0 98 68 161t152 63t135.5 -56.5t51.5 -127.5 q0 -98 -67 -161t-151.5 -63t-136.5 55.5t-52 128.5zM864 1809q-3 -33 8 -54t32 -33t53.5 -12t64.5 29t32 68t-23.5 65t-62.5 26t-70 -28t-34 -61z" />
<glyph unicode="&#x16f;" horiz-adv-x="1095" d="M132 253q0 42 8 92l113 720h233l-115 -724q-3 -28 -3 -65t25.5 -66.5t105 -29.5t145.5 22t166 79l123 784h233l-168 -1065h-184l-29 117q-76 -46 -118.5 -69.5t-115 -44.5t-147.5 -21q-167 0 -228 98q-44 71 -44 173zM558 1383q0 96 69.5 159t153.5 63t135 -55t51 -129 q0 -96 -67 -159t-152.5 -63t-137.5 54.5t-52 129.5zM668 1397.5q0 -39.5 24 -64.5t63.5 -25t68.5 27.5t32 56.5t-3 47t-17 30t-28 20t-46 8t-61.5 -30t-32.5 -69.5z" />
<glyph unicode="&#x170;" d="M215 406q0 98 18 234l133 829h234l-134 -851q-16 -96 -16 -182.5t29 -138.5q52 -88 223 -88t255.5 93t118.5 316l134 851h236l-132 -871q-50 -318 -197.5 -463t-442.5 -145q-266 0 -367 129q-92 116 -92 287zM695 1599l236 276h227l-297 -276h-166zM992 1599l236 276h227 l-297 -276h-166z" />
<glyph unicode="&#x171;" horiz-adv-x="1095" d="M132 253q0 42 8 92l113 720h233l-115 -724q-3 -28 -3 -65t25.5 -66.5t105 -29.5t145.5 22t166 79l123 784h233l-168 -1065h-184l-29 117q-76 -46 -118.5 -69.5t-115 -44.5t-147.5 -21q-167 0 -228 98q-44 71 -44 173zM500 1199l237 274h224l-295 -274h-166zM797 1199 l237 274h226l-297 -274h-166z" />
<glyph unicode="&#x172;" d="M215 406q0 98 18 234l133 829h234l-134 -851q-16 -96 -16 -182.5t29 -138.5q52 -88 223 -88t255.5 93t118.5 316l134 851h236l-132 -871q-50 -318 -197.5 -463t-442.5 -145q-266 0 -367 129q-92 116 -92 287zM450 -217q0 139 184 219h99q-130 -90 -131 -163q0 -66 93 -65 h15l-24 -143q-28 -4 -54 -4q-76 0 -129 46t-53 110z" />
<glyph unicode="&#x173;" horiz-adv-x="1151" d="M132 253q0 42 8 92l113 720h233l-115 -724q-3 -28 -3 -65t25.5 -66.5t105 -29.5t145.5 22t166 79l123 784h233l-168 -1065h-184l-29 117q-76 -46 -118.5 -69.5t-115 -44.5t-147.5 -21q-167 0 -228 98q-44 71 -44 173zM674 -219q0 137 183 217h100q-130 -90 -130 -163 q0 -66 92 -66h14l-22 -140q-28 -6 -54 -6q-77 0 -130 47t-53 111z" />
<glyph unicode="&#x174;" horiz-adv-x="2020" d="M287 1469h241l182 -1138l540 1138h253l-214 -441l107 -703l546 1144h249l-710 -1469h-255l-104 657l-321 -657h-267zM927 1599l266 268h184l157 -268h-163l-97 145l-158 -145h-189z" />
<glyph unicode="&#x175;" horiz-adv-x="1639" d="M174 1065h243l145 -792l299 588q48 100 60 202h201q10 -40 10 -96t-30 -128l-43 -94l92 -466l306 586q48 100 60 203h203q10 -42 10 -84q0 -92 -50 -183l-437 -801h-251l-92 466l-234 -466h-271zM668 1197l265 268h185l156 -268h-162l-97 144l-158 -144h-189z" />
<glyph unicode="&#x176;" horiz-adv-x="1298" d="M287 1469h251l201 -724l460 724h268l-648 -990l-76 -479h-233l76 479zM594 1599l265 268h185l158 -268h-164l-94 145l-159 -145h-191z" />
<glyph unicode="&#x177;" horiz-adv-x="1119" d="M176 1065h241l89 -776q8 -52 58 -72q7 -2 14.5 -3t14.5 -2t13 -1h10h6l311 656q36 79 53 203h209q9 -40 9 -82q0 -90 -46 -191l-379 -795q-201 -425 -476 -534q-54 -23 -114 -32v164q119 69 197 168.5t146 231.5q-98 0 -169.5 59.5t-87.5 193.5zM404 1197l266 268h185 l156 -268h-162l-96 144l-159 -144h-190z" />
<glyph unicode="&#x178;" horiz-adv-x="1298" d="M231 1469h251l200 -724l460 724h269l-649 -990l-76 -479h-232l76 479zM490 1674q0 70 43 106t89 36t70 -29t24 -48q0 -71 -42 -108.5t-88 -37.5t-71 29.5t-25 51.5zM1002 1674q0 70 43 106t89 36t70 -29t24 -48q0 -71 -42 -108.5t-88 -37.5t-71 29.5t-25 51.5z" />
<glyph unicode="&#x179;" horiz-adv-x="1121" d="M195 0l36 219l876 1031h-714l34 219h1004l-35 -219l-862 -1031h701l-36 -219h-1004zM865 1593l237 274h227l-297 -274h-167z" />
<glyph unicode="&#x17a;" horiz-adv-x="936" d="M142 2l29 203l614 656h-534l30 204h837l-30 -204l-594 -654h487l-31 -205h-808zM636 1193l237 272h227l-297 -272h-167z" />
<glyph unicode="&#x17b;" horiz-adv-x="1121" d="M60 0l34 219l877 1031h-714l36 219h1004l-37 -219l-862 -1031h700l-35 -219h-1003zM710 1645l23 138q8 50 56 50h128q46 0 39 -50l-23 -138q-6 -46 -52 -46h-128q-20 0 -32 13.5t-11 32.5z" />
<glyph unicode="&#x17c;" horiz-adv-x="936" d="M80 2l31 203l611 656h-531l28 204h836l-27 -204l-597 -654h488l-32 -205h-807zM556 1245l22 136q6 50 56 50h128q45 0 39 -50l-22 -136q-8 -46 -53 -46h-128q-23 0 -34.5 12.5t-7.5 33.5z" />
<glyph unicode="&#x17d;" horiz-adv-x="1121" d="M60 0l34 219l877 1031h-714l36 219h1004l-37 -219l-862 -1031h700l-35 -219h-1003zM554 1867h162l98 -143l157 143h191l-267 -268h-181z" />
<glyph unicode="&#x17e;" horiz-adv-x="936" d="M80 2l31 203l611 656h-531l28 204h836l-27 -204l-597 -654h488l-32 -205h-807zM398 1467h164l99 -144l153 144h191l-264 -268h-183z" />
<glyph unicode="&#x192;" horiz-adv-x="992" d="M-23 -360l37 147h145q136 0 203 280q9 44 21 109l123 592h-185l47 193h186l8 54q88 422 261 540q73 50 175 50q98 0 190 -42q17 -8 18 -8l-36 -146h-140q-71 0 -113 -62q-48 -67 -66 -133q-29 -92 -52 -199l-10 -56h251l-46 -191h-251l-123 -592q-70 -339 -178 -467 q-98 -119 -258 -119q-58 0 -122 17.5t-85 32.5z" />
<glyph unicode="&#x2c6;" horiz-adv-x="645" d="M113 1065l264 268h185l156 -268h-162l-96 145l-157 -145h-190z" />
<glyph unicode="&#x2c7;" horiz-adv-x="752" d="M50 1333h163l98 -143l155 143h191l-266 -268h-182z" />
<glyph unicode="&#x2d8;" horiz-adv-x="503" d="M115 1268v25h107q-2 -12 -2 -37.5t26.5 -55.5t76.5 -30h4q123 0 139 123h106q-13 -113 -78 -170.5t-165.5 -57.5t-157 57.5t-56.5 145.5z" />
<glyph unicode="&#x2d9;" horiz-adv-x="274" d="M203 1102l21 137q6 50 57 50h129q38 0 38 -40v-10l-23 -137q-6 -47 -52 -47h-128q-23 0 -34.5 13.5t-7.5 33.5z" />
<glyph unicode="&#x2da;" horiz-adv-x="569" d="M267 1249q0 98 69.5 161t153.5 63t135 -56t51 -128q0 -98 -67 -161t-151.5 -63t-137.5 55.5t-53 128.5zM377 1265q0 -39 24 -65t63.5 -26t69.5 28q34 31 34 69.5t-23.5 66t-63 27.5t-72 -30.5t-32.5 -69.5z" />
<glyph unicode="&#x2db;" horiz-adv-x="444" d="M285 -219q0 139 182 219h101q-130 -90 -131 -163q0 -66 93 -65h14l-23 -143q-28 -4 -54 -4q-76 0 -129 46t-53 110z" />
<glyph unicode="&#x2dc;" horiz-adv-x="860" d="M253 1166q76 65 137.5 100.5t118.5 34.5t117 -33.5t85.5 -34t57.5 7t60 19.5q67 27 88 44l29 -105q-2 -2 -30.5 -24.5t-36.5 -28.5t-33 -23.5t-38 -23t-36 -15.5q-88 -42 -192 18q-61 34 -94.5 34t-60.5 -7t-47 -16.5t-29.5 -13t-32.5 -16.5t-31 -18z" />
<glyph unicode="&#x2dd;" horiz-adv-x="929" d="M295 1065l237 276h227l-297 -276h-167zM592 1065l239 276h224l-296 -276h-167z" />
<glyph unicode="&#x3a9;" horiz-adv-x="1538" d="M122 0l33 199l243 20q-179 141 -179 411q0 184 68 372q31 90 92 180t142 154.5t204.5 105.5t268 41t249.5 -38t170 -106q144 -153 144 -389q0 -85 -10 -175q-32 -197 -96 -324.5t-212 -233.5l226 -20l-32 -197h-485l36 220q157 100 222 211q73 119 106 341q12 77 13 143 q0 349 -354 349q-120 0 -214.5 -43t-152.5 -118q-111 -142 -140 -341q-20 -120 -20 -163t3 -86.5t22 -87.5q46 -100 159 -205l-36 -220h-470z" />
<glyph unicode="&#x3c0;" horiz-adv-x="1287" d="M167 847l36 218h1124l-34 -218h-211l-77 -485q-5 -39 -5 -76t21 -67t97 -30h167l-23 -137q-102 -62 -241.5 -62t-210.5 88q-48 62 -48 173q0 46 8 102l79 494h-291l-133 -847h-232l132 847h-158z" />
<glyph unicode="&#x2000;" horiz-adv-x="1003" />
<glyph unicode="&#x2001;" horiz-adv-x="2007" />
<glyph unicode="&#x2002;" horiz-adv-x="1003" />
<glyph unicode="&#x2003;" horiz-adv-x="2007" />
<glyph unicode="&#x2004;" horiz-adv-x="669" />
<glyph unicode="&#x2005;" horiz-adv-x="501" />
<glyph unicode="&#x2006;" horiz-adv-x="334" />
<glyph unicode="&#x2007;" horiz-adv-x="334" />
<glyph unicode="&#x2008;" horiz-adv-x="250" />
<glyph unicode="&#x2009;" horiz-adv-x="401" />
<glyph unicode="&#x200a;" horiz-adv-x="111" />
<glyph unicode="&#x2010;" horiz-adv-x="709" d="M121 479l34 205h630l-34 -205h-630z" />
<glyph unicode="&#x2011;" horiz-adv-x="709" d="M121 479l34 205h630l-34 -205h-630z" />
<glyph unicode="&#x2012;" horiz-adv-x="709" d="M121 479l34 205h630l-34 -205h-630z" />
<glyph unicode="&#x2013;" horiz-adv-x="910" d="M121 473l32 207h949l-32 -207h-949z" />
<glyph unicode="&#x2014;" horiz-adv-x="1476" d="M121 477l34 207h1396l-34 -207h-1396z" />
<glyph unicode="&#x2018;" horiz-adv-x="525" d="M303 1036q0 8 2 18l36 241q10 64 42.5 105t71.5 55t67 18t43 4t27 -2l24 -4l-16 -94h-2q-65 0 -74 -67l-9 -48h25q24 0 36 -12.5t8 -39.5l-24 -156q-8 -58 -64 -58h-151q-42 0 -42 40z" />
<glyph unicode="&#x2019;" horiz-adv-x="525" d="M307 1000l14 96q31 0 48.5 13t21.5 25t7 28l8 46h-25q-22 0 -35 14.5t-9 39.5l27 157q7 58 61 58h151q44 0 44 -40q0 -8 -2 -18l-38 -241q-10 -65 -42 -106.5t-71 -56.5q-59 -22 -92.5 -21.5t-43.5 2.5z" />
<glyph unicode="&#x201a;" horiz-adv-x="525" d="M113 -211l15 96q31 0 49 13.5t21 25t7 30.5l8 44h-24q-24 0 -36.5 14t-8.5 40l27 159q7 58 62 58h150q44 0 44 -43q0 -7 -2 -15l-38 -243q-12 -65 -43 -105.5t-69 -57.5q-59 -23 -92.5 -22.5t-44.5 2.5z" />
<glyph unicode="&#x201c;" horiz-adv-x="842" d="M291 1034q0 8 2 18l36 241q10 64 42.5 106t70 56t67 18t44.5 4t25 -2l24 -4l-14 -96h-2q-65 0 -74 -67l-8 -48h24q25 0 36.5 -12.5t7.5 -39.5l-24 -156q-8 -58 -64 -58h-151q-42 0 -42 40zM634 1034v18l38 241q10 64 42.5 106t70.5 56t67 18t44 4t25 -2l25 -4l-15 -96h-2 q-65 0 -76 -67l-6 -48h24q25 0 36.5 -12.5t7.5 -39.5l-24 -156q-10 -58 -64 -58h-151q-42 0 -42 40z" />
<glyph unicode="&#x201d;" horiz-adv-x="842" d="M293 998l16 98q28 -2 46 12t22 25t8 29l6 44h-22q-24 0 -37 14.5t-9 39.5l26 159q10 58 63 58h150q44 0 44 -42v-16l-40 -243q-9 -65 -41.5 -105.5t-70.5 -57.5q-60 -22 -93.5 -21.5t-42.5 2.5zM636 998l17 98q44 -2 56 18q13 25 19 48l7 44h-23q-24 0 -37 14.5t-9 39.5 l27 159q10 58 62 58h151q44 0 44 -42v-16l-41 -243q-9 -65 -41.5 -105.5t-70.5 -57.5q-60 -22 -93.5 -21.5t-42.5 2.5z" />
<glyph unicode="&#x201e;" horiz-adv-x="840" d="M100 -209l17 96q28 -2 45.5 12.5t22 25t6.5 29.5l8 46h-25q-22 0 -35 14t-9 40l27 157q8 58 62 58h150q45 0 45 -41q0 -8 -2 -17l-39 -241q-9 -65 -41.5 -106.5t-70.5 -56.5q-60 -23 -93.5 -22.5t-43.5 2.5zM444 -209l14 96q30 -2 48 12.5t22 25t6 29.5l8 46h-25 q-22 0 -35 14t-9 40l27 157q8 58 62 58h150q45 0 45 -41q0 -8 -2 -17l-39 -241q-9 -65 -41.5 -106.5t-70.5 -56.5q-60 -23 -93.5 -22.5t-43.5 2.5z" />
<glyph unicode="&#x2020;" horiz-adv-x="1000" d="M215 935l30 183l270 22l85 405h203l-44 -405l260 -22l-29 -183l-270 -24l-188 -1055h-203l148 1055z" />
<glyph unicode="&#x2021;" horiz-adv-x="940" d="M180 313l31 183l275 25l56 390l-261 24l28 183l271 22l84 405h201l-42 -405l261 -22l-29 -183l-270 -24l-67 -390l268 -25l-30 -183l-282 -24l-78 -433h-203l61 431z" />
<glyph unicode="&#x2022;" horiz-adv-x="617" d="M247 646q0 6 2 15l32 208q4 33 25 51.5t54 18.5h196q59 0 60 -54q0 -6 -2 -16l-32 -208q-10 -65 -82 -65h-197q-56 0 -56 50z" />
<glyph unicode="&#x2026;" horiz-adv-x="1557" d="M277 46l24 157q9 50 57 50h148q44 0 44 -36q0 -6 -2 -14l-24 -157q-8 -46 -58 -46h-148q-20 0 -32.5 13t-8.5 33zM823 46l24 157q9 50 57 50h148q44 0 44 -36q0 -6 -2 -14l-24 -157q-8 -46 -59 -46h-148q-19 0 -31.5 13t-8.5 33zM1369 46l24 157q8 50 56 50h148 q45 0 45 -36q0 -6 -2 -14l-24 -157q-8 -46 -59 -46h-148q-19 0 -31.5 13t-8.5 33z" />
<glyph unicode="&#x202f;" horiz-adv-x="401" />
<glyph unicode="&#x2030;" horiz-adv-x="2689" d="M153 909q0 29 4 60l40 253q20 132 85 189.5t222 57.5h203q226 0 226 -197q0 -34 -6 -72l-40 -252q-23 -139 -87.5 -193t-217.5 -54h-203q-124 0 -184 69q-42 54 -42 139zM329 933q0 -22 12 -36q20 -25 82 -24h167q71 0 95 22t33 84l33 211q4 26 4 50t-13.5 40.5 t-79.5 16.5h-168q-67 0 -93 -22.5t-35 -84.5l-33 -211q-4 -24 -4 -46zM364 0l1124 1469h180l-1120 -1469h-184zM1105 209q0 30 5 61l41 254q22 133 85.5 189.5t220.5 56.5h203q226 0 226 -198q0 -32 -5 -70l-41 -253q-19 -136 -85.5 -191.5t-218.5 -55.5h-205 q-125 0 -183 71q-43 51 -43 136zM1285 237.5q0 -24.5 14.5 -44t77.5 -19.5h167q88 0 110 45q12 19 18 62l34 211q4 26 4 50t-14 40t-82 16h-167q-66 0 -92 -22t-34 -84l-34 -211q-2 -19 -2 -43.5zM1947 211q0 28 6 59l40 254q20 133 85 189.5t220 56.5h203q226 0 226 -198 q0 -32 -4 -70l-40 -253q-22 -136 -88.5 -191.5t-218.5 -55.5h-202q-125 0 -183 71q-44 53 -44 138zM2126 237.5q0 -24.5 15 -44t77 -19.5h166q89 0 111 45q12 19 18 62l34 211q4 26 4 50t-14 40t-80 16h-169q-66 0 -91 -22t-35 -84l-34 -211q-2 -19 -2 -43.5z" />
<glyph unicode="&#x2039;" horiz-adv-x="586" d="M52 710l478 408l119 -137l-328 -280l237 -278l-148 -130z" />
<glyph unicode="&#x203a;" horiz-adv-x="718" d="M197 431l329 281l-235 278l149 128l353 -413l-480 -412z" />
<glyph unicode="&#x2044;" horiz-adv-x="579" d="M-153 0l948 1495h176l-947 -1495h-177z" />
<glyph unicode="&#x205f;" horiz-adv-x="501" />
<glyph unicode="&#x20ac;" horiz-adv-x="1422" d="M122 506l20 120l165 16l26 161l-161 16l19 112l164 21q28 178 80 270q23 42 67 96.5t99.5 87.5t138.5 56.5t177 23.5t251 -20t259 -49l-29 -172q-300 28 -412.5 27.5t-158.5 -9.5t-79.5 -22t-58.5 -39t-40 -49t-27 -61q-17 -54 -34 -140l467 -17l-17 -121l-472 -11 l-26 -161l467 -16l-19 -120q-279 -6 -406 -12l-67 -4q-7 -67 -7 -112t17 -78t37 -54.5t54 -32.5q58 -20 128 -20t140 4t129 10q127 12 201 21l33 5l-27 -168q-218 -77 -532 -77q-130 0 -215 40q-96 45 -134 104q-67 102 -66.5 186t10.5 172z" />
<glyph unicode="&#x2122;" horiz-adv-x="1266" d="M82 1321l25 148h548l-25 -148h-190l-87 -553h-164l86 553h-193zM594 768l178 701h161l74 -433l192 433h178l-34 -701h-165l26 384l-158 -384h-140l-59 384l-90 -384h-163z" />
<glyph unicode="&#x2202;" horiz-adv-x="1272" d="M161 398q0 36 6 71q34 226 184.5 345t368 119t316.5 -114q8 79 8 140q0 139 -42 207q-62 100 -219 100q-104 0 -208 -31t-175 -71l-21 165q209 124 326 146q55 10 120 11q255 0 372 -205q82 -140 82 -344q0 -88 -17 -188q-56 -355 -218.5 -557t-437.5 -202 q-211 0 -339 138q-107 113 -106 270zM393 414q0 -87 62 -147t175 -60q69 0 128 35t99 86t70 116q54 111 71 209q-102 64 -260 63.5t-240 -70.5q-105 -88 -105 -232z" />
<glyph unicode="&#x2206;" horiz-adv-x="1444" d="M34 0l857 1469h153l367 -1469h-1377zM406 213h754l-227 919z" />
<glyph unicode="&#x220f;" horiz-adv-x="1300" d="M193 0l196 1250h-158l36 219h1232l-34 -219h-161l-199 -1250h-232l199 1250h-450l-197 -1250h-232z" />
<glyph unicode="&#x2211;" horiz-adv-x="1157" d="M4 -402l36 226l542 718l-317 708l36 219h1055l-35 -219h-775l319 -729l-514 -697h745l-37 -226h-1055z" />
<glyph unicode="&#x221a;" horiz-adv-x="1298" d="M115 514l34 219h299l136 -414l688 1286h247l-847 -1605h-224l-183 514h-150z" />
<glyph unicode="&#x221e;" horiz-adv-x="1350" d="M96 646q0 26 2 53q34 333 402 333q199 0 307 -199q154 199 377 199q94 0 159.5 -32.5t93.5 -82.5q44 -82 44 -178q0 -34 -6 -69q-40 -331 -401 -331q-220 0 -317 201q-71 -102 -158 -151.5t-192.5 -49.5t-167.5 32q-142 73 -143 275zM287 651q0 -129 140 -130 q52 0 102.5 27.5t79.5 55.5t71 80q-54 115 -136 151q-32 14 -65 14q-100 0 -140 -44q-52 -54 -52 -154zM889 684q26 -50 46.5 -80t62.5 -56.5t94 -26.5q168 0 193 163q4 25 4 59q0 107 -145 106q-123 0 -255 -165z" />
<glyph unicode="&#x222b;" horiz-adv-x="886" d="M-23 -360l25 147h145q86 0 132 98q39 83 52.5 162t21.5 129l133 839q94 590 395 590q121 0 197 -40q16 -8 22 -10l-24 -146h-141q-100 0 -148 -128q-40 -102 -69 -266l-132 -839q-54 -345 -161 -477q-88 -109 -233.5 -109t-214.5 50z" />
<glyph unicode="&#x2248;" horiz-adv-x="1036" d="M165 514q57 44 94.5 69.5t100.5 49.5t122.5 24t143 -37.5t130.5 -37.5t80 8t50.5 15t61.5 27.5t61 28.5l31 -111q-4 -2 -41.5 -30t-49.5 -36.5t-45 -29.5t-53 -27q-65 -24 -116 -23.5t-136 38t-139 37.5t-94.5 -10.5t-91 -32.5t-83.5 -32zM222 875q56 42 93.5 67 t100.5 50t123.5 25t143.5 -36.5t130.5 -36.5t79.5 6.5t50 13.5t61.5 28t63.5 29l28 -110q-8 -7 -35 -27.5t-40.5 -29.5t-39 -26.5t-44 -26t-42.5 -18.5q-46 -18 -99 -18.5t-139.5 38t-139.5 38.5t-93.5 -12t-90.5 -33t-86 -32z" />
<glyph unicode="&#x2260;" horiz-adv-x="1067" d="M241 389l34 213h299l161 208h-426l32 211h548l107 139h136l-106 -139h173l-35 -211h-293l-161 -208h422l-34 -213h-544l-123 -161h-136l122 161h-176z" />
<glyph unicode="&#x2264;" horiz-adv-x="1078" d="M184 180l31 191h754l-30 -191h-755zM279 772l37 224l796 289l-36 -224l-534 -188l475 -195l-36 -214z" />
<glyph unicode="&#x2265;" horiz-adv-x="874" d="M113 180l29 191h755l-30 -191h-754zM155 460l36 226l546 199l-488 187l36 209l707 -289l-36 -226z" />
<glyph unicode="&#x25ca;" horiz-adv-x="1032" d="M153 749l529 720h149l289 -720l-522 -749h-148zM393 741l163 -438l333 463l-171 412z" />
<glyph unicode="&#xe000;" horiz-adv-x="1063" d="M0 0v1063h1063v-1063h-1063z" />
</font>
</defs>
</svg>
